<?xml version="1.0" encoding="UTF-8"?>
<svg id="Capa_1" data-name="Capa 1" xmlns="http://www.w3.org/2000/svg" xmlns:xlink="http://www.w3.org/1999/xlink" viewBox="0 0 160.91 76.12">
  <defs>
    <style>
      .cls-1 {
        fill: #fff;
      }

      .cls-2 {
        fill: url(#Degradado_sin_nombre_20);
      }

      .cls-3, .cls-4 {
        fill: #fd0100;
      }

      .cls-4 {
        fill-rule: evenodd;
      }

      .cls-5 {
        opacity: .25;
      }
    </style>
    <linearGradient id="Degradado_sin_nombre_20" data-name="Degradado sin nombre 20" x1="81.25" y1="-4.99" x2="80.43" y2="73.35" gradientUnits="userSpaceOnUse">
      <stop offset="0" stop-color="#fd0100"/>
      <stop offset="0" stop-color="#fc0000"/>
      <stop offset=".22" stop-color="#b00000"/>
      <stop offset=".43" stop-color="#710000"/>
      <stop offset=".62" stop-color="#400000"/>
      <stop offset=".78" stop-color="#1d0000"/>
      <stop offset=".91" stop-color="#070000"/>
      <stop offset="1" stop-color="#000"/>
    </linearGradient>
  </defs>
  <polygon class="cls-2" points="0 75.88 0 65.57 80.75 0 160.91 65.04 160.91 75.88 0 75.88"/>
  <g>
    <polygon class="cls-3" points="104.74 48.75 138.1 75.81 137.3 75.81 104.37 49.1 104.74 48.75"/>
    <polygon class="cls-3" points="62.41 42.41 24.87 75.88 23.33 75.88 61.64 41.74 62.41 42.41"/>
    <polygon class="cls-3" points="99.96 27.68 106.43 27.68 131.67 48.16 125.2 48.16 99.96 27.68"/>
    <polygon class="cls-1" points="115.81 45.02 153.85 75.88 149.93 75.88 115.81 48.2 115.81 45.02"/>
    <polygon class="cls-1" points="80.61 10.99 2 75.88 0 75.88 0 74.93 80.61 8.42 80.61 10.99"/>
    <polygon class="cls-3" points="160.91 66.52 80.79 1.5 0 66.77 0 65.57 80.75 0 160.91 65.04 160.91 66.52"/>
  </g>
  <polygon class="cls-3" points="27.24 59.95 52.93 37.42 52.93 45.78 27.24 68.31 27.24 59.95"/>
  <g class="cls-5">
    <path class="cls-4" d="m101.8,65.36c-.23.01-.46-.17-.47-.37-.01-.2.19-.4.42-.41.22-.01.46.17.47.37.02.19-.2.4-.43.41Z"/>
    <path class="cls-4" d="m112.13,64.73c-.23,0-.45-.2-.44-.4,0-.2.23-.39.46-.39.23,0,.44.2.44.4,0,.2-.23.39-.45.39Z"/>
    <path class="cls-4" d="m109.65,64.35c-.23,0-.45-.19-.45-.39,0-.2.22-.4.44-.4.23,0,.45.19.45.39,0,.2-.21.39-.44.4Z"/>
    <path class="cls-4" d="m94.3,64.21c-.23-.01-.44-.22-.43-.41.01-.2.25-.39.47-.37.23.01.44.21.42.41-.01.2-.24.38-.47.37Z"/>
    <path class="cls-4" d="m94.79,62.05c-.23.01-.46-.17-.47-.37-.02-.2.19-.4.42-.42.22-.01.46.17.47.37.02.2-.19.4-.42.41Z"/>
    <path class="cls-4" d="m105.12,61.4c-.23,0-.45-.21-.44-.4,0-.2.24-.39.46-.38.23,0,.44.2.43.4,0,.2-.23.39-.46.38Z"/>
    <path class="cls-4" d="m102.65,61.01c-.23,0-.45-.18-.46-.38,0-.2.21-.4.44-.4.23,0,.45.18.46.38,0,.2-.2.4-.43.4Z"/>
    <path class="cls-4" d="m105.56,59.22c-.23,0-.44-.2-.44-.4,0-.2.23-.39.46-.38.23,0,.44.2.44.4,0,.2-.23.39-.46.38Z"/>
    <path class="cls-4" d="m90.23,59.11c-.23-.01-.44-.22-.42-.41.02-.2.24-.38.47-.37.23.01.44.22.42.41-.02.2-.25.39-.47.37Z"/>
    <path class="cls-4" d="m87.74,58.72c-.23-.01-.44-.21-.43-.41.01-.2.24-.39.47-.37.23.01.44.22.43.41-.01.2-.24.39-.47.37Z"/>
    <path class="cls-4" d="m72.46,58.59c-.23.01-.46-.17-.47-.37-.01-.2.19-.4.42-.41.22-.01.46.17.47.37.01.19-.2.4-.43.41Z"/>
    <path class="cls-4" d="m69.95,58.2c-.23,0-.45-.18-.46-.38,0-.2.21-.4.44-.4.23,0,.45.18.46.39,0,.2-.21.4-.44.4Z"/>
    <path class="cls-4" d="m98.12,58.07c-.23,0-.45-.2-.44-.4,0-.2.23-.39.46-.39.23,0,.44.2.44.4,0,.2-.23.39-.46.39Z"/>
    <path class="cls-4" d="m120.28,74.97c-.23-.02-.44-.22-.42-.42.02-.2.25-.38.47-.37.23.01.44.22.42.42-.02.2-.25.38-.48.37Z"/>
    <path class="cls-4" d="m102.52,74.45c-.23,0-.45-.19-.45-.39,0-.2.22-.4.45-.4.23,0,.45.19.45.39,0,.2-.21.39-.44.4Z"/>
    <path class="cls-4" d="m38.76,73.59c-.22.01-.46-.17-.47-.37-.02-.2.19-.4.42-.41.23-.01.46.17.47.37.02.2-.19.4-.42.42Z"/>
    <path class="cls-4" d="m36.25,73.2c-.23,0-.45-.18-.46-.39,0-.2.21-.4.44-.4.23,0,.45.18.46.39,0,.2-.21.4-.44.4Z"/>
    <path class="cls-4" d="m115.78,72.03c-.23,0-.44-.2-.44-.4,0-.2.23-.39.46-.38.23,0,.44.2.44.4,0,.2-.23.39-.46.38Z"/>
    <path class="cls-4" d="m97.95,71.5c-.23-.01-.44-.22-.42-.41.02-.2.24-.38.47-.37.23.01.44.21.42.41-.01.2-.25.39-.47.37Z"/>
    <path class="cls-4" d="m36.69,71.01c-.23,0-.45-.18-.45-.39,0-.2.21-.39.44-.4.23,0,.45.19.46.39,0,.2-.21.39-.44.4Z"/>
    <path class="cls-4" d="m108.33,70.88c-.23,0-.45-.21-.44-.4,0-.2.24-.39.46-.38.23,0,.44.2.43.4,0,.2-.23.39-.46.38Z"/>
    <path class="cls-4" d="m106.31,68.3c-.23.01-.46-.17-.47-.37-.02-.2.19-.4.42-.42.22-.01.46.17.47.37.02.2-.19.4-.42.41Z"/>
    <path class="cls-4" d="m101.31,67.55c-.23-.01-.44-.22-.43-.41.01-.2.25-.39.47-.37.23.01.44.21.43.41-.01.2-.24.39-.47.37Z"/>
    <path class="cls-4" d="m42.53,67.44c-.23.01-.46-.17-.47-.37-.01-.2.19-.4.43-.41.23-.01.46.17.47.37.01.2-.2.4-.43.41Z"/>
    <path class="cls-4" d="m40.07,67.05c-.22.01-.46-.17-.47-.37-.02-.19.2-.4.43-.41.23-.01.46.17.47.37.01.2-.19.4-.42.41Z"/>
    <path class="cls-4" d="m83.24,55.78c-.23,0-.45-.2-.44-.4,0-.2.22-.39.45-.39.23,0,.45.2.44.4,0,.2-.22.39-.45.39Z"/>
    <path class="cls-4" d="m98.56,55.91c-.23,0-.44-.2-.44-.4,0-.2.23-.39.46-.38.23,0,.45.2.44.4,0,.2-.23.39-.46.38Z"/>
    <path class="cls-4" d="m91.14,54.74c-.22.01-.46-.18-.47-.38-.01-.2.19-.4.43-.41.23-.01.45.17.47.37.01.2-.2.4-.43.41Z"/>
    <path class="cls-4" d="m73.3,54.24c-.23,0-.45-.19-.45-.39,0-.2.22-.39.45-.39.23,0,.45.19.44.4,0,.2-.22.39-.45.39Z"/>
    <path class="cls-4" d="m91.55,52.58c-.23,0-.44-.2-.44-.4,0-.2.23-.39.46-.38.23,0,.45.2.44.4,0,.2-.23.39-.46.38Z"/>
    <path class="cls-4" d="m73.72,52.06c-.23-.01-.44-.22-.42-.42.01-.2.25-.38.47-.37.23.01.44.22.42.41-.02.2-.25.38-.48.37Z"/>
    <path class="cls-4" d="m95.64,57.68c-.23,0-.45-.18-.46-.38,0-.2.21-.4.44-.4.23,0,.45.18.46.39,0,.2-.21.4-.44.4Z"/>
    <path class="cls-4" d="m66.3,50.91c-.21,0-.42-.16-.45-.35-.03-.2.17-.41.4-.43.23-.02.47.16.48.37.01.2-.2.41-.44.41Z"/>
    <path class="cls-4" d="m86.45,65.25c-.21,0-.42-.17-.44-.35-.02-.2.19-.41.42-.43.23-.01.46.18.47.38,0,.21-.21.4-.45.4Z"/>
    <path class="cls-4" d="m75.76,54.63c-.21-.02-.41-.19-.41-.38,0-.2.22-.4.45-.4.23,0,.45.2.44.41-.01.2-.25.39-.48.37Z"/>
    <path class="cls-4" d="m50.83,64.24c-.23,0-.46-.18-.46-.39,0-.18.19-.37.4-.39.23-.02.47.16.49.36.02.21-.19.41-.43.42Z"/>
    <path class="cls-4" d="m113.3,71.63c-.23,0-.45-.2-.45-.4,0-.21.24-.39.47-.38.23.01.44.23.42.43-.02.19-.23.35-.44.35Z"/>
    <path class="cls-4" d="m84.08,51.43c-.21-.02-.4-.2-.41-.38,0-.21.21-.4.45-.4.24,0,.45.2.44.41-.01.21-.25.39-.48.37Z"/>
    <path class="cls-4" d="m68.77,51.3c-.23,0-.45-.22-.43-.42.02-.19.22-.36.43-.36.23,0,.46.18.46.39,0,.21-.23.4-.46.39Z"/>
    <path class="cls-4" d="m65.44,55.25c-.23,0-.46-.19-.45-.4,0-.21.24-.4.47-.38.21.01.41.19.42.37.01.2-.2.41-.44.41Z"/>
    <path class="cls-4" d="m61.24,63.58c-.23.03-.47-.15-.49-.35-.02-.2.19-.41.42-.42.23-.01.46.18.47.38,0,.18-.18.37-.39.39Z"/>
    <path class="cls-4" d="m80.77,55.39c-.23,0-.46-.19-.46-.39,0-.18.19-.37.4-.39.23-.02.47.16.49.36.02.21-.19.41-.43.42Z"/>
    <path class="cls-4" d="m47.07,70.38c-.23.01-.46-.18-.47-.39,0-.19.18-.37.4-.39.23-.02.47.15.49.36.02.2-.19.41-.42.42Z"/>
    <path class="cls-4" d="m84.58,49.24c-.23.02-.46-.17-.47-.38,0-.2.21-.4.45-.4.24,0,.46.2.44.4-.01.18-.21.36-.42.38Z"/>
    <path class="cls-4" d="m58.03,54.11c-.23.03-.47-.15-.49-.35-.02-.2.19-.41.42-.42.23-.01.46.18.47.38,0,.18-.18.37-.39.39Z"/>
    <path class="cls-4" d="m104.96,74.83c-.21-.01-.41-.19-.42-.37-.01-.2.2-.41.44-.41.23,0,.46.19.45.4,0,.21-.24.4-.47.38Z"/>
    <path class="cls-4" d="m57.78,67.54c-.21-.02-.4-.21-.4-.39,0-.21.23-.4.46-.39.24,0,.45.21.43.42-.02.21-.26.38-.49.36Z"/>
    <path class="cls-4" d="m43.68,74.34c-.23,0-.45-.21-.44-.41.01-.18.21-.36.42-.37.23-.01.46.18.47.39,0,.2-.22.4-.45.4Z"/>
    <path class="cls-4" d="m90.98,68.2c-.23,0-.46-.19-.46-.39,0-.2.23-.4.46-.39.23,0,.45.22.43.42-.02.18-.22.36-.43.36Z"/>
    <path class="cls-4" d="m76.25,52.44c-.23,0-.46-.19-.45-.4,0-.21.24-.4.47-.38.21.01.41.19.42.37.01.2-.2.41-.44.41Z"/>
    <path class="cls-4" d="m108.75,68.69c-.21-.02-.41-.2-.41-.38,0-.2.21-.4.45-.4.23,0,.45.2.44.41-.01.2-.25.39-.48.38Z"/>
    <path class="cls-4" d="m80.31,57.57c-.23,0-.45-.2-.44-.41,0-.19.2-.36.42-.37.23-.01.46.17.47.38,0,.2-.21.4-.45.4Z"/>
    <path class="cls-4" d="m65,57.44c-.24,0-.46-.19-.46-.39,0-.18.19-.37.4-.39.22-.02.47.16.49.37.02.2-.2.41-.43.41Z"/>
    <path class="cls-4" d="m54.17,60.25c-.21,0-.42-.17-.44-.36-.02-.2.19-.41.42-.42.23-.01.46.18.47.38,0,.2-.22.4-.45.4Z"/>
    <path class="cls-4" d="m87.31,60.88c-.21,0-.42-.17-.44-.36-.02-.2.19-.41.42-.42.23-.01.46.18.47.38,0,.2-.22.4-.45.4Z"/>
    <path class="cls-4" d="m43.8,60.91c-.23,0-.45-.21-.44-.41.01-.18.21-.36.42-.37.23-.01.46.18.47.38,0,.2-.22.4-.45.4Z"/>
    <path class="cls-4" d="m46.31,61.29c-.21,0-.42-.17-.45-.35-.03-.2.18-.41.41-.43.23-.02.47.17.48.38.01.21-.21.4-.44.4Z"/>
    <path class="cls-4" d="m77.08,48.1c-.23-.01-.44-.22-.42-.42.02-.21.26-.38.49-.36.21.02.4.21.4.39,0,.21-.23.4-.47.39Z"/>
    <path class="cls-4" d="m61.63,61.4c-.23,0-.46-.19-.45-.4,0-.21.24-.4.47-.38.21.01.41.19.42.37.01.2-.2.41-.44.41Z"/>
    <path class="cls-4" d="m54.62,58.09c-.23,0-.45-.2-.45-.4,0-.21.24-.39.47-.38.21.01.41.19.42.38,0,.2-.21.4-.44.4Z"/>
    <path class="cls-4" d="m79.61,48.49c-.24,0-.46-.19-.46-.39,0-.18.19-.37.4-.39.22-.02.47.16.49.37.02.2-.2.41-.43.41Z"/>
    <path class="cls-4" d="m72,60.77c-.22,0-.42-.15-.44-.34-.03-.2.17-.41.4-.43.22-.02.46.17.47.37.01.2-.2.4-.43.4Z"/>
    <path class="cls-4" d="m58.45,51.95c-.22.01-.46-.17-.47-.37,0-.18.17-.37.38-.39.24-.03.47.13.49.34.02.2-.17.41-.41.42Z"/>
    <path class="cls-4" d="m116.64,67.67c-.23,0-.44-.2-.42-.41.02-.21.24-.38.48-.36.21.02.4.2.4.38,0,.2-.22.39-.45.39Z"/>
    <path class="cls-4" d="m83.95,64.86c-.23,0-.44-.21-.43-.41.01-.18.21-.35.42-.36.24-.01.45.17.46.38,0,.2-.22.4-.44.39Z"/>
    <path class="cls-4" d="m66.19,64.34c-.23,0-.45-.18-.45-.39,0-.19.17-.36.39-.38.23-.02.46.15.48.36.02.19-.2.4-.43.41Z"/>
    <path class="cls-4" d="m79.42,61.91c-.23-.01-.44-.22-.42-.41.02-.18.23-.35.43-.35.23,0,.45.19.44.39,0,.21-.22.39-.46.38Z"/>
    <path class="cls-4" d="m110.05,62.15c-.23-.02-.43-.24-.4-.43.03-.18.24-.34.45-.34.24,0,.45.2.43.41-.01.2-.26.39-.48.37Z"/>
    <path class="cls-4" d="m57.16,58.44c-.25.02-.47-.14-.49-.35-.02-.21.19-.4.43-.41.25,0,.46.17.46.38,0,.19-.18.36-.4.38Z"/>
    <path class="cls-4" d="m103.09,58.84c-.25,0-.46-.18-.46-.39,0-.19.19-.36.41-.38.25-.02.47.15.49.36.01.21-.19.4-.44.41Z"/>
    <path class="cls-4" d="m46.74,59.11c-.22,0-.41-.17-.42-.36-.01-.21.18-.41.42-.42.24,0,.45.18.45.39,0,.22-.21.4-.45.39Z"/>
    <path class="cls-4" d="m62.04,59.24c-.22-.02-.4-.19-.41-.38,0-.22.2-.4.44-.4.24,0,.44.19.43.41,0,.21-.23.39-.46.37Z"/>
    <path class="cls-4" d="m64.51,59.63c-.24-.01-.43-.21-.41-.42.02-.19.22-.36.43-.36.24,0,.45.19.44.4,0,.22-.22.39-.46.38Z"/>
    <path class="cls-4" d="m79.9,59.74c-.22,0-.42-.15-.45-.34-.03-.22.15-.41.4-.44.24-.02.46.15.48.37.01.22-.18.41-.42.42Z"/>
    <path class="cls-4" d="m95.22,59.87c-.24,0-.45-.19-.44-.4,0-.22.22-.39.46-.38.22.01.4.18.41.38,0,.22-.19.41-.43.41Z"/>
    <path class="cls-4" d="m97.69,60.26c-.21,0-.42-.16-.44-.35-.03-.22.15-.42.39-.44.24-.02.46.16.48.37.01.22-.18.41-.43.42Z"/>
    <path class="cls-4" d="m69.49,60.39c-.22-.02-.39-.19-.4-.39,0-.22.2-.41.45-.4.24,0,.44.2.43.42-.01.21-.24.39-.48.37Z"/>
    <path class="cls-4" d="m56.72,60.63c-.25.02-.47-.14-.49-.35-.02-.21.18-.4.43-.41.24,0,.46.17.46.38,0,.18-.19.36-.4.38Z"/>
    <path class="cls-4" d="m59.13,61.03c-.24-.02-.43-.22-.4-.43.03-.2.22-.34.45-.33.25,0,.45.19.44.4-.02.21-.24.38-.48.36Z"/>
    <path class="cls-4" d="m89.77,61.26c-.22-.01-.41-.19-.41-.38,0-.21.21-.39.46-.39.24,0,.45.2.44.41-.01.22-.23.38-.49.36Z"/>
    <path class="cls-4" d="m92.31,61.66c-.25.02-.47-.15-.49-.36-.02-.21.19-.4.44-.4.25,0,.47.18.46.39,0,.19-.19.36-.41.38Z"/>
    <path class="cls-4" d="m48.79,61.65c-.24,0-.45-.2-.43-.41.02-.21.23-.37.49-.35.22.02.41.19.4.38,0,.21-.21.39-.46.38Z"/>
    <path class="cls-4" d="m107.58,61.78c-.22-.02-.41-.2-.4-.38,0-.21.22-.39.47-.38.24,0,.45.21.43.41-.02.21-.24.37-.49.35Z"/>
    <path class="cls-4" d="m64.11,61.78c-.22,0-.41-.16-.43-.36-.02-.21.19-.4.43-.41.25,0,.46.17.46.38,0,.21-.21.39-.46.38Z"/>
    <path class="cls-4" d="m55.78,64.99c-.24-.01-.44-.21-.42-.42.02-.19.21-.34.44-.35.25,0,.46.18.45.39,0,.21-.22.39-.47.37Z"/>
    <path class="cls-4" d="m99.33,64.99c-.25.02-.47-.14-.49-.36-.02-.19.15-.38.37-.4.25-.03.48.11.52.33.04.21-.15.41-.4.43Z"/>
    <path class="cls-4" d="m40.46,64.87c-.24,0-.45-.19-.44-.4,0-.22.22-.39.46-.38.22.01.4.17.41.37,0,.22-.19.41-.43.41Z"/>
    <path class="cls-4" d="m53.34,64.59c-.25,0-.46-.16-.47-.37,0-.21.21-.39.45-.39.25,0,.45.19.44.4-.01.19-.2.35-.42.36Z"/>
    <path class="cls-4" d="m96.82,64.59c-.23,0-.42-.15-.45-.34-.03-.21.17-.41.41-.42.25-.01.47.16.48.37.01.21-.2.39-.45.4Z"/>
    <path class="cls-4" d="m63.63,63.96c-.22-.02-.4-.19-.4-.38,0-.21.22-.39.47-.38.24,0,.45.21.42.41-.02.21-.24.37-.49.35Z"/>
    <path class="cls-4" d="m48.36,63.84c-.25,0-.45-.18-.45-.39,0-.19.19-.36.41-.37.25-.01.47.15.48.36.01.21-.2.4-.44.4Z"/>
    <path class="cls-4" d="m91.85,63.82c-.24,0-.43-.19-.42-.41.01-.2.19-.36.41-.37.24,0,.45.17.46.38,0,.21-.21.4-.44.4Z"/>
    <path class="cls-4" d="m45.83,63.44c-.22-.01-.41-.18-.41-.37,0-.21.2-.39.45-.39.24,0,.45.19.44.4-.01.21-.23.38-.48.36Z"/>
    <path class="cls-4" d="m58.7,63.2c-.24-.01-.43-.2-.41-.42.02-.19.21-.36.43-.36.24,0,.45.18.44.4,0,.21-.23.39-.46.38Z"/>
    <path class="cls-4" d="m102.19,63.2c-.22-.02-.4-.19-.41-.38,0-.22.2-.41.44-.41.24,0,.44.19.43.41,0,.22-.23.4-.47.38Z"/>
    <path class="cls-4" d="m43.39,63.07c-.22,0-.41-.16-.43-.36-.02-.22.16-.41.41-.42.23-.01.46.17.46.38,0,.22-.2.4-.44.4Z"/>
    <path class="cls-4" d="m86.95,63.06c-.24.03-.47-.14-.49-.36-.02-.22.17-.41.42-.42.24-.01.45.17.46.39,0,.2-.16.37-.39.39Z"/>
    <path class="cls-4" d="m84.38,62.68c-.24-.01-.44-.21-.42-.42.02-.22.25-.38.49-.36.23.02.39.19.39.39,0,.22-.22.4-.46.39Z"/>
    <path class="cls-4" d="m53.76,62.44c-.24,0-.45-.18-.44-.4,0-.19.18-.36.4-.38.23-.02.46.16.47.37.01.22-.19.41-.43.41Z"/>
    <path class="cls-4" d="m97.24,62.41c-.23,0-.42-.16-.43-.36-.02-.21.19-.4.43-.41.25,0,.46.17.46.39,0,.21-.22.39-.47.38Z"/>
    <path class="cls-4" d="m51.3,62.05c-.23.02-.46-.16-.47-.37-.01-.22.19-.4.43-.41.24,0,.44.18.44.4,0,.2-.18.36-.4.38Z"/>
    <path class="cls-4" d="m87.44,47.44c-.22,0-.4-.17-.41-.37-.01-.22.18-.41.42-.41.24,0,.45.18.44.4,0,.22-.21.39-.46.38Z"/>
    <path class="cls-4" d="m82.08,48.84c-.24.01-.46-.17-.47-.38,0-.21.21-.39.45-.39.25,0,.45.19.44.4-.01.2-.2.35-.42.36Z"/>
    <path class="cls-4" d="m87.05,49.63c-.24.01-.46-.16-.47-.37,0-.21.2-.4.44-.41.21,0,.42.17.43.35.02.22-.16.41-.4.43Z"/>
    <path class="cls-4" d="m76.63,50.28c-.24-.01-.43-.2-.41-.42.02-.19.21-.36.43-.36.24,0,.45.18.44.4,0,.21-.23.39-.46.38Z"/>
    <path class="cls-4" d="m91.98,50.39c-.21,0-.42-.16-.44-.35-.02-.22.15-.42.4-.44.24-.02.46.16.47.37.01.21-.19.41-.43.41Z"/>
    <path class="cls-4" d="m94.44,50.78c-.24-.01-.43-.21-.41-.43.02-.19.22-.36.44-.35.24,0,.45.19.44.41,0,.22-.23.39-.47.38Z"/>
    <path class="cls-4" d="m81.62,51.03c-.25,0-.46-.17-.46-.39,0-.19.19-.36.41-.37.25-.02.47.14.48.36.01.21-.19.4-.44.4Z"/>
    <path class="cls-4" d="m71.25,51.68c-.23,0-.42-.15-.44-.34-.03-.21.17-.41.42-.42.25-.01.47.16.48.37.01.21-.2.39-.45.39Z"/>
    <path class="cls-4" d="m86.55,51.78c-.22-.02-.41-.2-.4-.38,0-.21.22-.39.47-.38.24,0,.45.21.43.41-.02.21-.24.37-.49.35Z"/>
    <path class="cls-4" d="m89.09,52.18c-.24.01-.47-.17-.47-.38,0-.19.18-.37.4-.39.25-.02.48.13.5.35.02.21-.17.41-.42.42Z"/>
    <path class="cls-4" d="m93.99,52.96c-.23-.02-.4-.19-.4-.38,0-.22.21-.4.45-.4.25,0,.44.19.43.41-.01.22-.23.39-.47.37Z"/>
    <path class="cls-4" d="m65.87,53.1c-.24,0-.44-.19-.44-.41,0-.2.18-.36.41-.37.24-.02.45.15.46.38,0,.22-.2.41-.43.4Z"/>
    <path class="cls-4" d="m68.36,53.49c-.24.02-.45-.16-.46-.38,0-.22.2-.41.44-.4.24,0,.44.2.43.41-.01.2-.19.36-.41.37Z"/>
    <path class="cls-4" d="m83.63,53.59c-.22-.02-.39-.18-.4-.39,0-.22.21-.41.44-.4.24,0,.44.2.43.41-.01.22-.23.39-.48.37Z"/>
    <path class="cls-4" d="m98.98,53.72c-.21,0-.42-.17-.44-.36-.02-.22.17-.42.41-.43.24-.01.46.16.47.38,0,.21-.2.41-.44.41Z"/>
    <path class="cls-4" d="m88.62,54.37c-.25,0-.46-.19-.45-.4,0-.19.2-.36.42-.37.25-.01.47.15.48.37,0,.21-.2.4-.45.4Z"/>
    <path class="cls-4" d="m100.59,58.45c-.22,0-.41-.17-.42-.36-.01-.21.2-.4.44-.4.25,0,.46.18.45.39,0,.21-.22.38-.47.37Z"/>
    <path class="cls-4" d="m85.27,58.32c-.25,0-.46-.18-.46-.39,0-.19.19-.36.41-.38.25-.02.47.15.49.36.01.21-.19.4-.44.4Z"/>
    <path class="cls-4" d="m82.78,57.92c-.25,0-.44-.2-.42-.41.02-.2.21-.35.43-.35.24,0,.46.18.45.39,0,.21-.22.38-.47.37Z"/>
    <path class="cls-4" d="m67.49,57.82c-.23,0-.42-.14-.45-.34-.03-.21.16-.41.4-.43.25-.02.47.15.49.36.02.21-.19.4-.44.4Z"/>
    <path class="cls-4" d="m52.15,57.7c-.25,0-.45-.19-.44-.4,0-.19.2-.35.42-.36.25-.01.46.16.47.37,0,.21-.21.39-.45.39Z"/>
    <path class="cls-4" d="m49.66,57.3c-.23,0-.42-.15-.44-.35-.02-.21.17-.4.42-.41.24-.01.46.17.47.37,0,.21-.21.39-.45.39Z"/>
    <path class="cls-4" d="m62.48,57.05c-.24-.02-.42-.22-.39-.44.02-.19.23-.35.44-.34.24,0,.44.2.43.41-.01.21-.24.39-.48.37Z"/>
    <path class="cls-4" d="m90.69,56.92c-.24.01-.45-.17-.46-.39,0-.2.16-.37.38-.4.23-.03.47.15.49.36.02.22-.17.41-.42.42Z"/>
    <path class="cls-4" d="m88.2,56.54c-.24,0-.45-.19-.44-.41,0-.22.23-.39.47-.38.24.01.43.21.41.43-.02.19-.22.36-.44.35Z"/>
    <path class="cls-4" d="m72.88,56.43c-.22,0-.42-.17-.44-.36-.02-.22.16-.41.41-.43.24-.02.46.16.46.38,0,.22-.2.41-.44.41Z"/>
    <path class="cls-4" d="m57.49,56.29c-.24-.02-.42-.22-.39-.44.03-.19.23-.35.45-.34.24.01.44.21.42.42-.02.22-.24.38-.48.36Z"/>
    <path class="cls-4" d="m55.04,55.91c-.24-.02-.43-.21-.41-.42.02-.21.25-.38.49-.35.23.03.39.19.38.39,0,.22-.22.4-.46.38Z"/>
    <path class="cls-4" d="m96.09,55.51c-.24,0-.46-.17-.47-.38,0-.19.19-.37.4-.38.25-.02.48.14.49.36.02.21-.18.4-.43.41Z"/>
    <path class="cls-4" d="m93.57,55.11c-.22-.02-.41-.19-.41-.38,0-.21.22-.39.46-.39.24,0,.45.2.44.41-.02.22-.23.38-.49.36Z"/>
    <path class="cls-4" d="m78.23,54.99c-.24-.01-.44-.22-.41-.42.03-.19.21-.34.44-.34.25,0,.46.18.45.39-.01.21-.23.39-.47.37Z"/>
    <path class="cls-4" d="m62.93,54.88c-.22,0-.41-.16-.43-.35-.02-.2.18-.4.42-.41.25,0,.47.16.47.38,0,.21-.21.39-.46.39Z"/>
    <path class="cls-4" d="m60.45,54.49c-.25,0-.44-.19-.42-.41.02-.2.21-.35.43-.35.24,0,.46.18.46.39,0,.21-.22.38-.46.38Z"/>
    <path class="cls-4" d="m118.26,72.38c-.24-.01-.44-.21-.42-.42.02-.19.21-.35.44-.35.25,0,.46.18.45.39,0,.21-.23.39-.47.38Z"/>
    <path class="cls-4" d="m46.58,72.54c-.24-.01-.43-.2-.41-.42.02-.19.22-.36.43-.36.24,0,.45.19.44.4,0,.22-.22.39-.46.38Z"/>
    <path class="cls-4" d="m105.43,72.65c-.22,0-.42-.16-.44-.36-.02-.21.16-.41.41-.43.24-.02.46.16.47.38,0,.22-.2.41-.44.41Z"/>
    <path class="cls-4" d="m120.76,72.78c-.24,0-.45-.18-.45-.4,0-.22.22-.4.46-.39.22,0,.4.18.41.37.01.22-.19.41-.43.41Z"/>
    <path class="cls-4" d="m97.56,73.69c-.22,0-.41-.16-.43-.36-.02-.22.16-.41.41-.42.23-.01.46.17.46.38,0,.22-.2.4-.44.4Z"/>
    <path class="cls-4" d="m112.89,73.82c-.24,0-.45-.18-.44-.4,0-.2.17-.37.4-.39.24-.02.46.15.47.37.01.21-.19.41-.43.41Z"/>
    <path class="cls-4" d="m41.22,73.94c-.24.01-.47-.17-.47-.38,0-.19.18-.37.4-.39.25-.02.48.13.5.35.02.21-.17.41-.42.42Z"/>
    <path class="cls-4" d="m99.98,74.07c-.22-.01-.41-.19-.41-.38,0-.21.21-.39.46-.39.24,0,.45.2.44.41-.01.22-.23.38-.49.36Z"/>
    <path class="cls-4" d="m115.31,74.17c-.22-.01-.41-.19-.41-.38,0-.21.21-.39.46-.39.24,0,.45.2.44.41-.01.22-.23.38-.49.36Z"/>
    <path class="cls-4" d="m117.82,74.57c-.25,0-.45-.2-.43-.41.02-.21.24-.38.49-.36.22.02.41.2.4.38,0,.21-.22.39-.47.38Z"/>
    <path class="cls-4" d="m46.16,74.73c-.24,0-.45-.19-.44-.41,0-.21.23-.4.47-.38.25.01.43.2.41.43-.02.19-.22.36-.43.36Z"/>
    <path class="cls-4" d="m107.53,75.21c-.25.02-.47-.13-.5-.34-.02-.2.18-.41.42-.42.25-.01.46.16.47.37,0,.19-.17.37-.39.39Z"/>
    <path class="cls-4" d="m122.76,75.32c-.22-.02-.41-.19-.41-.38,0-.21.22-.39.46-.39.25,0,.45.19.44.41-.01.21-.24.38-.49.36Z"/>
    <path class="cls-4" d="m109.96,75.59c-.24,0-.45-.18-.45-.39,0-.2.17-.36.39-.39.24-.03.46.14.48.36.01.23-.17.41-.42.42Z"/>
    <path class="cls-4" d="m112,75.61c-.01-.21.19-.41.43-.41.24,0,.45.18.44.4"/>
    <path class="cls-4" d="m40.31,75.71c.02-.2.21-.34.44-.34.25,0,.46.18.45.39"/>
    <path class="cls-4" d="m42.96,65.26c-.22,0-.42-.15-.45-.35-.03-.22.15-.41.4-.44.24-.02.46.15.48.37.01.22-.19.41-.43.42Z"/>
    <path class="cls-4" d="m58.26,65.39c-.24,0-.44-.2-.42-.42.01-.22.24-.38.48-.36.23.02.39.18.39.39,0,.22-.21.4-.45.39Z"/>
    <path class="cls-4" d="m104.28,65.74c-.23,0-.42-.14-.45-.34-.03-.2.17-.41.41-.43.25-.02.47.15.48.37.02.21-.19.4-.44.4Z"/>
    <path class="cls-4" d="m91.38,66.01c-.22-.02-.4-.19-.4-.38,0-.22.2-.4.44-.4.24,0,.44.19.43.41,0,.21-.23.39-.47.37Z"/>
    <path class="cls-4" d="m47.88,66.01c-.24-.01-.42-.21-.4-.43.02-.19.22-.36.43-.36.24,0,.45.19.44.4,0,.21-.23.39-.46.38Z"/>
    <path class="cls-4" d="m93.93,66.4c-.24,0-.45-.17-.46-.38,0-.21.21-.4.44-.4.21,0,.41.17.43.36.02.22-.17.41-.41.42Z"/>
    <path class="cls-4" d="m50.43,66.4c-.24.01-.45-.16-.45-.38,0-.2.16-.37.38-.39.23-.03.47.15.49.36.02.21-.17.41-.42.42Z"/>
    <path class="cls-4" d="m109.25,66.5c-.24.01-.46-.16-.46-.38,0-.21.2-.4.44-.4.24,0,.44.19.43.41,0,.2-.18.36-.4.37Z"/>
    <path class="cls-4" d="m37.54,66.65c-.25,0-.45-.19-.44-.4.01-.19.2-.35.43-.36.25,0,.47.16.47.37,0,.21-.21.39-.46.39Z"/>
    <path class="cls-4" d="m52.86,66.78c-.25,0-.45-.19-.44-.4.02-.22.23-.38.48-.36.24.02.44.23.41.43-.03.19-.22.34-.45.34Z"/>
    <path class="cls-4" d="m98.85,67.16c-.25,0-.43-.2-.42-.42.01-.2.21-.36.42-.37.24,0,.45.18.45.4,0,.21-.22.4-.46.39Z"/>
    <path class="cls-4" d="m55.32,67.17c-.24-.02-.43-.22-.4-.43.03-.2.22-.34.45-.33.25,0,.45.2.43.4-.02.21-.24.38-.48.36Z"/>
    <path class="cls-4" d="m45.01,67.8c-.24,0-.46-.18-.45-.39,0-.21.22-.38.47-.37.25.01.44.2.42.41-.02.2-.21.35-.43.35Z"/>
    <path class="cls-4" d="m103.82,67.93c-.25,0-.46-.18-.45-.4.01-.19.2-.36.42-.37.25-.01.47.16.48.37.01.21-.2.39-.45.39Z"/>
    <path class="cls-4" d="m47.49,68.2c-.23.01-.46-.17-.46-.38,0-.22.2-.4.44-.4.24,0,.44.19.43.41,0,.2-.19.36-.41.37Z"/>
    <path class="cls-4" d="m93.43,68.55c-.22-.01-.41-.18-.42-.37,0-.21.2-.4.45-.4.25,0,.46.18.45.4,0,.21-.23.38-.48.37Z"/>
    <path class="cls-4" d="m44.13,72.15c-.24.02-.45-.17-.46-.38,0-.2.16-.37.38-.39.24-.03.47.14.49.35.02.21-.17.41-.41.42Z"/>
    <path class="cls-4" d="m100.44,71.88c-.24-.01-.44-.21-.42-.41.03-.19.22-.35.44-.35.25,0,.45.18.45.39,0,.21-.22.38-.47.37Z"/>
    <path class="cls-4" d="m39.12,71.4c-.23-.02-.4-.18-.41-.38,0-.21.2-.4.44-.4.24,0,.44.19.43.41,0,.22-.23.39-.47.37Z"/>
    <path class="cls-4" d="m110.87,71.24c-.25.02-.47-.15-.49-.36-.02-.19.16-.37.38-.4.26-.03.48.11.51.33.03.2-.16.41-.41.43Z"/>
    <path class="cls-4" d="m51.98,71.13c-.24-.01-.44-.21-.42-.42.02-.21.25-.37.5-.34.22.02.4.2.39.39,0,.21-.22.39-.47.37Z"/>
    <path class="cls-4" d="m95.55,71.13c-.23.02-.42-.11-.47-.31-.05-.21.12-.42.36-.45.25-.03.47.11.51.33.03.2-.16.41-.4.43Z"/>
    <path class="cls-4" d="m49.5,70.73c-.25,0-.45-.2-.43-.4.02-.21.24-.38.48-.36.22.02.4.19.41.38,0,.21-.21.39-.46.38Z"/>
    <path class="cls-4" d="m92.99,70.73c-.22-.01-.41-.18-.42-.37,0-.21.2-.4.44-.4.24,0,.45.19.45.4,0,.21-.22.38-.47.37Z"/>
    <path class="cls-4" d="m105.88,70.49c-.24,0-.44-.19-.44-.41,0-.2.18-.37.4-.38.24-.01.46.16.47.38,0,.21-.2.41-.44.41Z"/>
    <path class="cls-4" d="m44.53,69.98c-.25-.01-.44-.21-.41-.42.02-.2.21-.34.44-.34.25,0,.46.19.44.39-.01.21-.23.38-.48.37Z"/>
    <path class="cls-4" d="m116.22,69.84c-.22,0-.41-.17-.42-.37-.02-.21.18-.41.42-.42.24-.01.45.18.45.39,0,.22-.21.4-.45.39Z"/>
    <path class="cls-4" d="m113.78,69.45c-.24.02-.46-.16-.47-.37-.01-.22.19-.41.43-.41.24,0,.45.18.44.4,0,.2-.18.37-.4.38Z"/>
    <path class="cls-4" d="m54.91,69.34c-.24,0-.44-.19-.43-.41.01-.2.19-.36.41-.37.24-.01.46.17.46.39,0,.22-.21.4-.45.4Z"/>
    <path class="cls-4" d="m98.44,69.34c-.23,0-.45-.18-.45-.39,0-.22.21-.4.45-.39.24,0,.43.2.42.41-.01.19-.2.36-.42.37Z"/>
    <path class="cls-4" d="m39.59,69.21c-.22,0-.41-.17-.42-.37-.02-.22.17-.41.42-.42.24,0,.45.18.46.39,0,.22-.21.4-.45.4Z"/>
    <path class="cls-4" d="m111.24,69.07c-.22-.01-.41-.19-.41-.37,0-.21.21-.39.45-.39.25,0,.45.19.44.4-.01.21-.23.38-.48.36Z"/>
    <path class="cls-4" d="m49.94,68.58c-.25-.01-.44-.21-.42-.42.02-.21.26-.38.49-.36.22.03.39.19.38.39,0,.22-.21.4-.45.38Z"/>
    <path class="cls-4" d="m84.96,47.07c-.25,0-.43-.18-.42-.4.01-.21.18-.35.41-.36.26,0,.45.16.45.38,0,.22-.2.39-.45.38Z"/>
    <path class="cls-4" d="m77.88,57.17c-.23.02-.42-.11-.46-.31-.04-.23.11-.42.35-.45.26-.03.47.11.5.33.03.22-.15.41-.39.43Z"/>
    <path class="cls-4" d="m93.19,57.3c-.26.01-.46-.14-.46-.37,0-.23.19-.4.44-.39.25,0,.44.18.43.4,0,.2-.18.35-.41.36Z"/>
    <path class="cls-4" d="m89.95,47.82c-.24,0-.41-.14-.42-.35-.02-.23.16-.4.41-.41.25,0,.45.16.46.38,0,.22-.19.39-.44.38Z"/>
    <path class="cls-4" d="m94.94,48.58c-.23.01-.43-.13-.45-.33-.03-.21.16-.42.4-.43.22-.01.46.19.46.39,0,.19-.2.36-.41.37Z"/>
    <path class="cls-4" d="m101.06,56.26c-.26.01-.46-.14-.47-.37,0-.22.19-.4.44-.4.25,0,.44.17.43.4,0,.21-.17.36-.4.37Z"/>
    <path class="cls-4" d="m103.55,56.65c-.25.01-.46-.16-.46-.37,0-.22.18-.39.44-.39.26,0,.44.17.43.39,0,.2-.18.36-.4.37Z"/>
    <path class="cls-4" d="m60.01,56.67c-.26,0-.43-.18-.42-.4.01-.2.19-.35.41-.36.25,0,.45.17.45.38,0,.22-.2.38-.45.38Z"/>
    <path class="cls-4" d="m75.31,56.78c-.23-.02-.39-.17-.39-.37,0-.22.2-.39.45-.38.24,0,.43.19.42.41-.01.22-.22.37-.48.35Z"/>
    <path class="cls-4" d="m82.51,46.67c-.26,0-.45-.18-.43-.4.02-.2.21-.35.43-.36.25,0,.44.18.43.4-.01.21-.19.35-.42.35Z"/>
    <path class="cls-4" d="m114.2,67.28c-.25,0-.44-.17-.44-.39,0-.21.16-.36.4-.37.26-.02.46.14.47.36,0,.22-.18.4-.43.4Z"/>
    <path class="cls-4" d="m78.68,52.82c-.23-.01-.4-.16-.41-.36,0-.22.19-.4.43-.4.25,0,.44.17.44.39,0,.22-.2.38-.46.37Z"/>
    <path class="cls-4" d="m111.67,66.88c-.26-.01-.42-.19-.4-.42.02-.2.2-.35.43-.35.25,0,.44.18.44.4,0,.22-.21.38-.47.37Z"/>
    <path class="cls-4" d="m96.38,66.76c-.25,0-.44-.17-.44-.39,0-.21.17-.36.4-.37.26-.01.46.14.47.36,0,.22-.19.4-.43.4Z"/>
    <path class="cls-4" d="m59.56,58.84c-.24,0-.43-.2-.41-.41.02-.22.22-.37.48-.35.23.02.39.18.38.38,0,.22-.2.39-.45.38Z"/>
    <path class="cls-4" d="m63.23,66.13c-.23,0-.41-.16-.42-.36-.01-.23.17-.4.43-.4.23,0,.41.15.43.35.01.22-.19.4-.44.4Z"/>
    <path class="cls-4" d="m106.73,66.13c-.25,0-.44-.18-.43-.4,0-.22.21-.38.47-.36.23.01.4.16.4.37,0,.22-.19.4-.44.39Z"/>
    <path class="cls-4" d="m60.78,65.74c-.25,0-.45-.16-.45-.38,0-.22.21-.39.45-.38.23,0,.4.16.41.36.01.23-.16.4-.42.4Z"/>
    <path class="cls-4" d="m45.46,65.63c-.25,0-.45-.16-.45-.38,0-.22.21-.39.45-.38.23,0,.4.16.41.36.01.23-.16.4-.42.4Z"/>
    <path class="cls-4" d="m88.9,65.61c-.25-.01-.43-.2-.41-.41.02-.2.2-.35.43-.35.26,0,.45.16.44.39,0,.23-.2.39-.46.38Z"/>
    <path class="cls-4" d="m74.93,58.96c-.26.01-.46-.14-.47-.36,0-.22.19-.4.43-.4.25,0,.44.17.44.39,0,.21-.16.35-.4.37Z"/>
    <path class="cls-4" d="m81.21,53.22c-.25,0-.45-.16-.45-.38,0-.2.16-.36.39-.38.26-.02.46.12.48.35.01.23-.16.4-.41.41Z"/>
    <path class="cls-4" d="m107.16,63.95c-.25,0-.43-.18-.41-.41.01-.21.18-.35.42-.35.26,0,.45.16.45.38,0,.22-.21.39-.46.38Z"/>
    <path class="cls-4" d="m96.55,53.32c-.25.01-.46-.15-.47-.37,0-.22.18-.39.44-.39.26,0,.44.17.43.4,0,.2-.18.36-.41.37Z"/>
    <path class="cls-4" d="m104.7,63.55c-.26,0-.45-.16-.45-.39,0-.2.17-.36.4-.38.25-.02.46.14.48.36.01.22-.17.4-.43.4Z"/>
    <path class="cls-4" d="m89.31,63.44c-.23-.02-.39-.18-.38-.38,0-.22.2-.39.45-.37.24.01.43.2.41.41-.02.22-.22.37-.48.34Z"/>
    <path class="cls-4" d="m92.72,59.47c-.25,0-.45-.18-.44-.39,0-.22.2-.38.46-.37.26.01.43.18.4.41-.02.2-.2.35-.43.35Z"/>
    <path class="cls-4" d="m49.19,59.49c-.23-.01-.39-.16-.4-.37,0-.22.19-.39.43-.39.24,0,.44.18.43.4,0,.22-.21.37-.47.36Z"/>
    <path class="cls-4" d="m108.05,59.59c-.24,0-.42-.14-.44-.34-.02-.21.18-.41.42-.41.23,0,.41.14.43.34.02.23-.16.41-.41.41Z"/>
    <path class="cls-4" d="m51.69,59.88c-.25,0-.42-.19-.41-.41.02-.2.19-.35.42-.35.25,0,.45.17.44.38,0,.21-.21.38-.46.38Z"/>
    <path class="cls-4" d="m67.04,59.99c-.25,0-.44-.17-.44-.39,0-.21.17-.36.4-.37.26-.01.46.14.47.36,0,.22-.19.4-.43.4Z"/>
    <path class="cls-4" d="m82.33,60.11c-.24-.01-.4-.16-.4-.37,0-.23.18-.4.43-.4.25,0,.44.18.44.4,0,.22-.21.38-.47.37Z"/>
    <path class="cls-4" d="m86.12,53.97c-.23-.01-.4-.16-.4-.37,0-.22.19-.39.44-.39.25,0,.44.18.43.4-.01.22-.21.37-.47.36Z"/>
    <path class="cls-4" d="m77.41,59.36c-.25,0-.45-.16-.45-.38,0-.2.16-.36.39-.38.26-.02.46.12.48.35.01.23-.16.4-.41.41Z"/>
    <path class="cls-4" d="m84.83,60.51c-.25,0-.43-.18-.41-.41.01-.21.18-.35.42-.35.25,0,.45.16.45.38,0,.22-.21.39-.45.38Z"/>
    <path class="cls-4" d="m100.15,60.61c-.25,0-.43-.18-.41-.41.01-.21.18-.35.42-.35.26,0,.45.16.45.38,0,.22-.21.39-.46.38Z"/>
    <path class="cls-4" d="m70.84,53.84c-.25,0-.44-.17-.43-.4,0-.21.17-.36.4-.37.26-.01.46.14.47.37,0,.22-.19.4-.44.4Z"/>
    <path class="cls-4" d="m55.48,53.74c-.23-.02-.39-.17-.4-.37,0-.22.18-.39.44-.39.25,0,.44.18.43.4-.01.21-.23.38-.47.36Z"/>
    <path class="cls-4" d="m66.56,62.17c-.25-.01-.43-.2-.41-.42.02-.22.23-.36.49-.34.23.02.38.18.38.38,0,.22-.2.39-.46.37Z"/>
    <path class="cls-4" d="m81.96,62.3c-.26.02-.47-.12-.49-.34-.02-.22.16-.4.41-.41.25-.01.45.15.46.37,0,.21-.15.36-.38.38Z"/>
    <path class="cls-4" d="m40.85,62.69c-.23-.03-.38-.19-.37-.4.01-.23.22-.37.48-.35.23.02.39.19.38.39-.02.22-.24.38-.49.35Z"/>
    <path class="cls-4" d="m99.77,62.8c-.25.02-.46-.14-.48-.36-.01-.21.14-.37.37-.4.26-.03.47.1.5.33.03.23-.14.41-.39.43Z"/>
    <path class="cls-4" d="m56.21,62.82c-.24,0-.4-.15-.42-.35-.01-.23.16-.4.41-.41.25,0,.45.16.45.38,0,.22-.19.38-.45.38Z"/>
    <path class="cls-4" d="m79.14,50.63c-.24,0-.41-.14-.42-.35-.02-.23.16-.4.41-.41.25,0,.45.16.46.38,0,.22-.19.39-.44.38Z"/>
    <path class="cls-4" d="m63.82,50.53c-.24,0-.41-.15-.42-.35-.01-.23.18-.41.43-.4.22,0,.41.16.43.36.02.22-.18.4-.43.4Z"/>
    <path class="cls-4" d="m125.28,75.71c-.25,0-.45-.16-.46-.38,0-.22.19-.39.45-.38.24,0,.41.15.42.35.02.23-.16.4-.41.41Z"/>
    <path class="cls-4" d="m38.26,75.73c-.23-.01-.4-.16-.4-.37,0-.23.19-.4.44-.39.25,0,.44.18.43.4,0,.22-.21.38-.47.36Z"/>
    <path class="cls-4" d="m99.15,75.84c0-.23.21-.38.47-.36.23.02.39.19.38.39"/>
    <path class="cls-4" d="m89.52,50.01c-.26,0-.45-.16-.45-.38,0-.22.2-.39.45-.38.23,0,.4.16.42.36.01.23-.16.4-.42.4Z"/>
    <path class="cls-4" d="m74.17,49.88c-.24-.01-.43-.2-.41-.41.02-.2.2-.34.43-.35.26,0,.44.16.44.39,0,.22-.2.39-.45.37Z"/>
    <path class="cls-4" d="m71.67,49.49c-.23-.01-.4-.16-.41-.36,0-.22.19-.39.43-.4.25,0,.44.17.43.4,0,.22-.2.38-.46.36Z"/>
    <path class="cls-4" d="m69.27,49.1c-.24.02-.47-.16-.48-.37,0-.2.23-.4.45-.39.21,0,.41.18.41.37,0,.2-.16.37-.39.39Z"/>
    <path class="cls-4" d="m63.43,52.69c-.24.02-.46-.14-.48-.35-.02-.22.16-.4.42-.41.26,0,.45.15.45.38,0,.2-.16.36-.39.38Z"/>
    <path class="cls-4" d="m60.88,52.3c-.23,0-.41-.15-.42-.35-.02-.22.17-.4.41-.41.25-.01.45.15.45.38,0,.22-.19.39-.44.38Z"/>
    <path class="cls-4" d="m37.07,68.84c-.25-.02-.42-.2-.39-.43.02-.2.2-.34.44-.34.26,0,.44.18.43.4-.01.22-.22.38-.47.36Z"/>
    <path class="cls-4" d="m95.94,68.94c-.25,0-.45-.16-.45-.38,0-.2.16-.36.39-.38.26-.02.46.12.48.35.01.23-.16.4-.41.41Z"/>
    <path class="cls-4" d="m52.47,68.94c-.25,0-.45-.17-.45-.38,0-.22.2-.38.45-.38.23,0,.4.15.41.35.01.23-.17.4-.42.41Z"/>
    <path class="cls-4" d="m42.08,69.59c-.24,0-.41-.15-.42-.35-.02-.23.16-.4.41-.41.25,0,.45.16.46.38,0,.22-.19.39-.45.38Z"/>
    <path class="cls-4" d="m100.88,69.69c-.23-.01-.4-.16-.41-.37,0-.22.19-.4.44-.4.25,0,.44.17.43.4,0,.23-.2.38-.46.37Z"/>
    <path class="cls-4" d="m103.34,70.09c-.25-.02-.42-.2-.39-.43.02-.2.2-.34.44-.34.26,0,.44.18.43.4-.01.22-.22.38-.47.36Z"/>
    <path class="cls-4" d="m118.69,70.22c-.24,0-.41-.15-.42-.35-.01-.23.16-.4.42-.41.25,0,.45.16.46.38,0,.22-.19.39-.45.38Z"/>
    <path class="cls-4" d="m121.15,70.6c-.23-.02-.38-.19-.38-.39,0-.23.21-.38.47-.35.23.02.39.19.38.39-.01.22-.24.38-.48.36Z"/>
    <path class="cls-4" d="m96.91,51.15c-.23-.02-.38-.18-.37-.39.01-.2.19-.36.42-.36.25,0,.45.18.44.4-.01.22-.22.37-.48.35Z"/>
    <path class="cls-4" d="m41.65,71.78c-.23,0-.42-.14-.44-.33-.03-.22.15-.41.39-.43.26-.02.46.13.47.36.01.23-.16.4-.42.4Z"/>
    <path class="cls-4" d="m102.95,72.28c-.25,0-.45-.16-.45-.38,0-.2.16-.36.39-.38.26-.02.46.12.48.35.01.23-.16.4-.41.41Z"/>
    <path class="cls-4" d="m49.11,72.92c-.23,0-.41-.13-.44-.33-.03-.23.14-.41.39-.43.25-.02.46.14.47.36.01.22-.17.4-.43.4Z"/>
    <path class="cls-4" d="m107.91,73.03c-.26,0-.44-.18-.43-.4.01-.22.22-.38.47-.36.23.02.39.17.4.38,0,.23-.19.39-.44.39Z"/>
    <path class="cls-4" d="m110.35,73.42c-.23-.02-.39-.17-.4-.38,0-.23.19-.39.44-.39.26,0,.44.18.43.4-.01.22-.22.38-.47.36Z"/>
    <path class="cls-4" d="m48.68,75.08c-.25.01-.46-.16-.46-.38,0-.22.21-.38.46-.37.24.01.4.17.4.37,0,.21-.17.36-.4.38Z"/>
    <path class="cls-4" d="m67.94,55.63c-.26.02-.47-.12-.49-.35-.02-.22.17-.4.41-.41.25-.01.45.15.46.38,0,.21-.15.36-.38.38Z"/>
    <path class="cls-4" d="m70.38,56.03c-.25,0-.44-.18-.43-.4,0-.22.21-.38.47-.36.23.01.4.16.4.37,0,.22-.19.4-.44.39Z"/>
    <path class="cls-4" d="m52.53,55.51c-.25-.02-.42-.21-.39-.43.03-.2.21-.33.44-.33.26,0,.43.17.42.4-.01.22-.22.38-.47.36Z"/>
    <path class="cls-4" d="m85.76,56.15c-.26.02-.47-.13-.48-.35-.02-.22.17-.4.42-.41.25,0,.45.16.45.38,0,.21-.16.36-.39.38Z"/>
    <path class="cls-4" d="m92.43,48.22c-.25,0-.45-.18-.44-.4.01-.2.2-.35.43-.35.23,0,.42.15.44.34.02.21-.19.41-.43.41Z"/>
    <path class="cls-4" d="m101.49,54.1c-.22,0-.42-.15-.44-.35-.02-.22.18-.42.42-.42.21,0,.42.16.44.35.02.21-.18.41-.42.42Z"/>
    <path class="cls-4" d="m69.09,62.57c-.24,0-.45-.19-.44-.41.01-.2.2-.36.42-.36.22,0,.42.15.43.35.02.22-.18.41-.42.42Z"/>
    <path class="cls-4" d="m90.54,70.34c-.25,0-.43-.19-.41-.41.02-.19.22-.35.43-.35.24,0,.44.21.41.42-.02.19-.21.34-.44.34Z"/>
    <path class="cls-4" d="m57.39,69.72c-.25,0-.43-.2-.4-.42.02-.19.23-.35.45-.34.24.02.44.22.41.43-.03.19-.23.34-.45.34Z"/>
    <path class="cls-4" d="m54.48,71.52c-.24,0-.45-.19-.44-.41.01-.2.2-.36.42-.36.25,0,.45.18.43.4-.01.19-.21.36-.42.37Z"/>
    <path class="cls-4" d="m123.23,73.16c-.22,0-.41-.17-.42-.37-.01-.21.2-.41.44-.4.24,0,.43.2.42.42-.02.2-.21.35-.44.35Z"/>
    <path class="cls-4" d="m95.06,73.3c-.21,0-.41-.17-.42-.36-.01-.22.19-.41.43-.41.22,0,.41.17.43.36.01.21-.2.41-.44.41Z"/>
    <path class="cls-4" d="m51.6,73.31c-.24.02-.47-.15-.48-.37,0-.2.17-.37.4-.38.25-.02.47.15.48.36,0,.19-.18.37-.4.39Z"/>
    <path class="cls-4" d="m60.36,67.92c-.25.02-.47-.15-.48-.36,0-.19.18-.37.4-.39.24-.02.47.15.48.37,0,.2-.17.37-.4.38Z"/>
    <path class="cls-4" d="m35.8,75.35c-.22,0-.41-.16-.43-.36-.01-.22.19-.41.42-.41.21,0,.42.17.43.36.02.21-.19.41-.43.41Z"/>
    <path class="cls-4" d="m88.51,67.79c-.25,0-.45-.18-.44-.4.01-.2.2-.35.43-.35.23,0,.42.15.44.34.02.21-.19.41-.43.41Z"/>
    <path class="cls-4" d="m37.97,64.48c-.22,0-.41-.18-.41-.37,0-.21.22-.39.46-.38.25.01.43.2.4.42-.03.2-.21.34-.45.33Z"/>
    <path class="cls-4" d="m114.61,65.09c-.22-.01-.41-.18-.41-.37,0-.2.18-.37.4-.38.25-.01.47.16.48.37,0,.21-.22.39-.46.38Z"/>
    <path class="cls-4" d="m127.32,75.73c0-.22.2-.4.45-.39.23,0,.4.17.41.37"/>
    <path class="cls-4" d="m81.5,64.45c-.24,0-.44-.18-.42-.41.02-.2.2-.34.44-.33.22.01.41.19.4.38,0,.19-.21.36-.42.36Z"/>
    <path class="cls-4" d="m34.69,68.43c-.25.02-.47-.13-.48-.34-.01-.21.19-.4.43-.4.22,0,.4.16.42.35.01.21-.14.36-.37.39Z"/>
    <path class="cls-4" d="m119.17,68.01c-.24.01-.42-.13-.44-.33-.02-.2.14-.38.37-.4.24-.03.48.15.48.36,0,.19-.19.36-.41.37Z"/>
    <path class="cls-4" d="m74.46,61.12c-.22-.01-.39-.19-.39-.39,0-.2.19-.36.42-.35.22,0,.42.17.43.36,0,.21-.22.4-.46.38Z"/>
    <path class="cls-4" d="m86.01,67.39c-.23,0-.42-.15-.42-.35,0-.2.16-.37.38-.39.24-.02.47.17.46.38,0,.19-.2.36-.43.36Z"/>
    <path class="cls-4" d="m80.05,46.27c-.25.02-.47-.15-.46-.36,0-.19.2-.36.41-.37.21,0,.41.16.43.35.01.21-.14.37-.37.38Z"/>
    <path class="cls-4" d="m61.29,50.13c-.23-.02-.39-.18-.38-.39.01-.19.22-.36.43-.36.21,0,.41.18.41.38,0,.22-.21.39-.47.37Z"/>
    <path class="cls-4" d="m53.06,53.33c-.25.02-.46-.14-.46-.36,0-.2.16-.36.38-.38.23-.02.46.16.47.36,0,.19-.17.36-.39.38Z"/>
    <path class="cls-4" d="m97.15,75.83c-.6.05-.6-.76-.02-.74.5,0,.54.72.02.74Z"/>
    <path class="cls-4" d="m51.14,75.47c-.5.04-.62-.7-.08-.74.57-.06.64.7.08.74Z"/>
    <path class="cls-4" d="m33.33,74.98c-.55,0-.57-.74,0-.75.55-.02.55.75,0,.75Z"/>
    <path class="cls-4" d="m125.73,73.54c-.56.04-.58-.73-.04-.74.54-.02.6.73.04.74Z"/>
    <path class="cls-4" d="m33.72,72.79c-.52-.02-.51-.76.03-.74.59,0,.53.77-.03.74Z"/>
    <path class="cls-4" d="m56.95,71.87c-.54-.02-.52-.72,0-.74.55-.02.57.77,0,.74Z"/>
    <path class="cls-4" d="m74.64,47.69c-.55.05-.6-.76-.03-.74.54,0,.56.7.03.74Z"/>
    <path class="cls-4" d="m34.17,70.62c-.58-.03-.49-.79.07-.74.52.05.46.78-.07.74Z"/>
    <path class="cls-4" d="m105.99,57.04c-.55,0-.54-.8.03-.74.55.03.48.74-.03.74Z"/>
    <path class="cls-4" d="m62.84,68.3c-.55.02-.59-.72-.03-.73.52-.02.54.71.03.73Z"/>
    <path class="cls-4" d="m44.26,58.7c-.55,0-.55-.76.02-.73.53,0,.48.72-.02.73Z"/>
    <path class="cls-4" d="m97.38,48.95c-.57,0-.51-.76.03-.73.51.02.49.75-.03.73Z"/>
    <path class="cls-4" d="m66.78,48.72c-.55.04-.62-.7-.05-.73.52-.03.56.69.05.73Z"/>
    <path class="cls-4" d="m65.71,66.51c-.54-.02-.51-.79.06-.72.54.05.44.74-.06.72Z"/>
    <path class="cls-4" d="m88.06,69.95c-.5,0-.57-.71-.03-.73.58-.03.58.71.03.73Z"/>
    <path class="cls-4" d="m59.84,70.09c-.52-.02-.46-.75.04-.73.55.02.53.76-.04.73Z"/>
    <path class="cls-4" d="m55.92,51.54c-.55-.02-.53-.76.04-.73.52.02.46.75-.04.73Z"/>
    <path class="cls-4" d="m54.07,73.67c-.55.03-.55-.74-.02-.75.54,0,.58.73.02.75Z"/>
    <path class="cls-4" d="m128.21,73.9c-.52,0-.55-.74,0-.72.55,0,.53.71,0,.72Z"/>
    <path class="cls-4" d="m83.52,66.99c-.54-.01-.47-.75.05-.71.53.04.49.74-.05.71Z"/>
    <path class="cls-4" d="m30.86,74.56c-.52.02-.57-.67-.05-.72.51-.03.58.69.05.72Z"/>
    <path class="cls-4" d="m103.97,54.45c-.51,0-.55-.71-.02-.73.57-.02.57.72.02.73Z"/>
    <path class="cls-4" d="m121.66,68.41c-.51.03-.59-.72-.04-.73.54-.02.57.68.04.73Z"/>
    <path class="cls-4" d="m110.55,59.97c-.5.01-.59-.68-.06-.73.56-.06.6.71.06.73Z"/>
    <path class="cls-4" d="m76.97,61.52c-.54,0-.6-.75,0-.74.54,0,.51.73,0,.74Z"/>
    <path class="cls-4" d="m72.12,47.3c-.54-.01-.47-.75.05-.71.53.04.49.74-.05.71Z"/>
    <path class="cls-4" d="m50.13,55.13c-.57.02-.59-.69-.05-.75.52-.04.61.74.05.75Z"/>
    <path class="cls-4" d="m99.42,51.52c-.49,0-.56-.71-.04-.74.6-.05.62.73.04.74Z"/>
    <path class="cls-4" d="m31.25,72.38c-.54-.03-.44-.75.06-.71.53.05.46.74-.06.71Z"/>
    <path class="cls-4" d="m92.6,72.89c-.55.03-.59-.75-.02-.73.53,0,.54.7.02.73Z"/>
    <path class="cls-4" d="m35.1,66.24c-.57.03-.54-.76,0-.74.52.03.53.72,0,.74Z"/>
    <path class="cls-4" d="m112.59,62.52c-.57,0-.54-.72,0-.75.53,0,.57.76,0,.75Z"/>
    <path class="cls-4" d="m71.54,62.9c-.54,0-.51-.72,0-.72.53.02.53.72,0,.72Z"/>
    <path class="cls-4" d="m108.49,57.39c-.54.01-.53-.72,0-.73.53,0,.56.71,0,.73Z"/>
    <path class="cls-4" d="m115.07,62.91c-.54.02-.58-.69-.04-.73.52-.03.59.71.04.73Z"/>
    <path class="cls-4" d="m94.6,75.46c-.53-.04-.5-.74.05-.71.54.01.47.74-.05.71Z"/>
    <path class="cls-4" d="m99.9,49.34c-.49.02-.58-.65-.07-.71.53-.08.6.68.07.71Z"/>
    <path class="cls-4" d="m32.14,68.02c-.52,0-.53-.66-.03-.7.53-.03.58.71.03.7Z"/>
    <path class="cls-4" d="m126.17,71.34c-.5.03-.56-.67-.06-.72.52-.05.61.69.06.72Z"/>
    <path class="cls-4" d="m78.95,64.05c-.51-.04-.42-.74.06-.72.54.04.48.77-.06.72Z"/>
    <path class="cls-4" d="m95.32,46.4c-.5-.02-.53-.69-.02-.71.56-.04.55.71.02.71Z"/>
    <path class="cls-4" d="m112.99,60.32c-.51,0-.52-.69-.01-.71.54-.01.57.71.01.71Z"/>
    <path class="cls-4" d="m58.85,49.73c-.54-.03-.5-.76.06-.71.52.03.44.72-.06.71Z"/>
    <path class="cls-4" d="m90.36,45.61c-.51-.02-.49-.69,0-.72.52-.01.55.74,0,.72Z"/>
    <path class="cls-4" d="m90.14,72.5c-.56.04-.58-.68-.04-.71.49-.01.56.69.04.71Z"/>
    <path class="cls-4" d="m41.32,60.49c-.53-.03-.46-.8.08-.71.52.06.41.73-.08.71Z"/>
    <path class="cls-4" d="m64.22,48.32c-.51-.02-.47-.7.02-.71.52,0,.53.75-.02.71Z"/>
    <path class="cls-4" d="m92.88,46.01c-.49,0-.57-.67-.06-.71.54-.07.59.7.06.71Z"/>
    <path class="cls-4" d="m53.67,75.83c-.53.08-.62-.65-.08-.69.5-.03.59.62.08.69Z"/>
    <path class="cls-4" d="m101.88,51.88c-.52-.03-.42-.73.06-.71.54.04.49.76-.06.71Z"/>
    <path class="cls-4" d="m85.53,69.56c-.51-.04-.45-.7.03-.71.53.02.51.73-.03.71Z"/>
    <path class="cls-4" d="m110.99,57.77c-.48,0-.56-.66-.05-.71.53-.04.58.67.05.71Z"/>
    <path class="cls-4" d="m47.19,56.93c-.51.03-.59-.72-.04-.72.55-.02.57.68.04.72Z"/>
    <path class="cls-4" d="m38.45,62.27c-.55-.02-.52-.7.01-.7.49.03.49.69-.01.7Z"/>
    <path class="cls-4" d="m59.46,72.24c-.5-.01-.53-.68,0-.7.51,0,.51.69,0,.7Z"/>
    <path class="cls-4" d="m123.66,70.94c-.54.02-.51-.72,0-.72.52.02.55.71,0,.72Z"/>
    <path class="cls-4" d="m81.04,66.62c-.48-.01-.52-.67-.02-.7.54,0,.55.67.02.7Z"/>
    <path class="cls-4" d="m87.93,45.25c-.48.03-.58-.67-.07-.7.55-.06.6.67.07.7Z"/>
    <path class="cls-4" d="m117.08,65.46c-.52-.04-.51-.74.04-.72.54,0,.47.74-.04.72Z"/>
    <path class="cls-4" d="m68.65,64.69c-.56.02-.54-.71,0-.7.49,0,.51.71,0,.7Z"/>
    <path class="cls-4" d="m122.08,66.2c-.5.02-.56-.65-.05-.69.5-.02.56.65.05.69Z"/>
    <path class="cls-4" d="m117.57,63.25c-.52.03-.57-.65-.05-.68.52-.04.57.66.05.68Z"/>
    <path class="cls-4" d="m128.62,71.72c-.49,0-.5-.7,0-.69.5,0,.5.69,0,.69Z"/>
    <path class="cls-4" d="m56.53,74.04c-.51.02-.52-.69-.02-.7.49,0,.53.7.02.7Z"/>
    <path class="cls-4" d="m115.47,60.7c-.51-.04-.45-.7.05-.69.5.05.46.71-.05.69Z"/>
    <path class="cls-4" d="m106.42,54.83c-.49-.01-.49-.71.01-.7.55-.01.52.72-.01.7Z"/>
    <path class="cls-4" d="m92.19,75.05c-.48.04-.57-.67-.06-.7.49-.04.57.65.06.7Z"/>
    <path class="cls-4" d="m74.04,63.28c-.52-.02-.49-.71.03-.69.49.05.44.67-.03.69Z"/>
    <path class="cls-4" d="m31.7,70.21c-.51-.01-.45-.71.04-.7.53,0,.51.74-.04.7Z"/>
    <path class="cls-4" d="m85.45,44.86c-.53.03-.56-.74,0-.7.47.03.47.66,0,.7Z"/>
    <path class="cls-4" d="m104.4,52.27c-.51.02-.52-.69-.02-.7.49,0,.53.7.02.7Z"/>
    <path class="cls-4" d="m97.85,46.77c-.52.02-.55-.65-.04-.68.52-.02.55.66.04.68Z"/>
    <path class="cls-4" d="m119.64,65.83c-.54.06-.59-.67-.06-.7.48-.03.56.67.06.7Z"/>
    <path class="cls-4" d="m69.65,46.89c-.53,0-.49-.7.03-.67.49.03.46.67-.03.67Z"/>
    <path class="cls-4" d="m87.61,72.1c-.52-.01-.48-.71.04-.67.48.04.44.67-.04.67Z"/>
    <path class="cls-4" d="m102.33,49.7c-.52-.02-.45-.71.06-.66.48.06.42.68-.06.66Z"/>
    <path class="cls-4" d="m133.14,74.65c-.51-.04-.42-.73.08-.68.47.05.38.71-.08.68Z"/>
    <path class="cls-4" d="m76.59,63.65c-.53.07-.59-.63-.08-.66.47-.03.57.6.08.66Z"/>
    <path class="cls-4" d="m65.31,68.63c-.47.04-.55-.62-.06-.65.49-.03.54.6.06.65Z"/>
    <path class="cls-4" d="m126.6,69.13c-.47,0-.49-.67,0-.66.49,0,.48.65,0,.66Z"/>
    <path class="cls-4" d="m130.66,74.26c-.51.01-.5-.7,0-.68.51,0,.5.7,0,.68Z"/>
    <path class="cls-4" d="m83.14,69.15c-.51.05-.57-.64-.05-.65.48,0,.53.6.05.65Z"/>
    <path class="cls-4" d="m50.5,52.9c-.49-.04-.45-.67.04-.65.5.02.43.68-.04.65Z"/>
    <path class="cls-4" d="m28.81,71.98c-.52.02-.52-.65-.01-.66.47,0,.49.64.01.66Z"/>
    <path class="cls-4" d="m78.58,66.21c-.46.01-.55-.61-.05-.65.48-.04.52.61.05.65Z"/>
    <path class="cls-4" d="m28.39,74.15c-.47.04-.53-.63-.06-.66.51-.06.57.65.06.66Z"/>
    <path class="cls-4" d="m113.43,58.13c-.49,0-.44-.66.03-.64.47,0,.46.68-.03.64Z"/>
    <path class="cls-4" d="m61.77,47.9c-.48,0-.48-.67.02-.65.49-.01.46.68-.02.65Z"/>
    <path class="cls-4" d="m131.13,72.06c-.44.03-.51-.61-.05-.64.49-.04.55.61.05.64Z"/>
    <path class="cls-4" d="m62.38,70.42c-.52.02-.49-.69.01-.66.47,0,.47.67-.01.66Z"/>
    <path class="cls-4" d="m47.63,54.69c-.48.04-.5-.64-.03-.64.47-.02.52.64.03.64Z"/>
    <path class="cls-4" d="m108.95,55.2c-.5.03-.53-.68,0-.66.48,0,.47.66,0,.66Z"/>
    <path class="cls-4" d="m124.15,68.77c-.5.06-.58-.64-.08-.67.5-.06.59.64.08.67Z"/>
    <path class="cls-4" d="m35.47,64.05c-.47-.02-.44-.7.05-.65.5.02.42.69-.05.65Z"/>
    <path class="cls-4" d="m29.22,69.79c-.5,0-.45-.67.03-.65.48,0,.46.69-.03.65Z"/>
    <path class="cls-4" d="m68.17,66.85c-.45-.03-.46-.63,0-.64.5-.03.47.67,0,.64Z"/>
    <path class="cls-4" d="m77.56,45.85c-.52.03-.51-.7,0-.67.48,0,.48.67,0,.67Z"/>
    <path class="cls-4" d="m82.92,44.43c-.45-.05-.43-.63.03-.63.5-.02.43.68-.03.63Z"/>
    <path class="cls-4" d="m100.32,47.11c-.47.02-.46-.61-.03-.64.47-.02.54.63.03.64Z"/>
    <path class="cls-4" d="m44.68,56.47c-.46-.02-.43-.6.01-.63.46-.02.49.67-.01.63Z"/>
    <path class="cls-4" d="m56.35,49.29c-.46,0-.41-.64.02-.63.48.02.48.65-.02.63Z"/>
    <path class="cls-4" d="m67.16,46.48c-.46,0-.42-.64.01-.64.48,0,.49.65-.01.64Z"/>
    <path class="cls-4" d="m89.69,74.65c-.46.03-.54-.63-.05-.65.48-.03.53.61.05.65Z"/>
    <path class="cls-4" d="m120.02,63.63c-.47,0-.52-.63-.02-.65.49-.03.49.64.02.65Z"/>
    <path class="cls-4" d="m53.46,51.11c-.47,0-.49-.65,0-.65.49-.01.47.66,0,.65Z"/>
    <path class="cls-4" d="m135.61,74.99c-.47-.01-.4-.65.04-.62.45.04.43.64-.04.62Z"/>
    <path class="cls-4" d="m85.1,71.68c-.45-.04-.36-.66.06-.63.49.04.42.68-.06.63Z"/>
    <path class="cls-4" d="m32.56,65.83c-.46-.03-.43-.61.02-.63.47-.02.47.68-.02.63Z"/>
    <path class="cls-4" d="m106.91,52.63c-.46.04-.52-.58-.08-.64.46-.06.59.61.08.64Z"/>
    <path class="cls-4" d="m118.04,61.05c-.51.05-.53-.6-.04-.62.4,0,.47.59.04.62Z"/>
    <path class="cls-4" d="m71.1,65.05c-.44-.04-.41-.67.06-.62.48.03.37.65-.06.62Z"/>
    <path class="cls-4" d="m75.02,45.48c-.43-.04-.42-.65.04-.63.51,0,.42.66-.04.63Z"/>
    <path class="cls-4" d="m124.58,66.55c-.46.04-.49-.59-.05-.62.45-.02.52.59.05.62Z"/>
    <path class="cls-4" d="m87.18,74.25c-.44-.02-.44-.57,0-.61.46-.01.48.63,0,.61Z"/>
    <path class="cls-4" d="m59.03,74.37c-.48.03-.46-.61,0-.6.42.02.45.59,0,.6Z"/>
    <path class="cls-4" d="m25.91,73.75c-.46.05-.51-.57-.06-.61.43-.03.54.58.06.61Z"/>
    <path class="cls-4" d="m111.39,55.56c-.47-.02-.42-.66.05-.6.45.04.36.61-.05.6Z"/>
    <path class="cls-4" d="m80.61,68.73c-.47.01-.42-.64.02-.61.42.04.41.6-.02.61Z"/>
    <path class="cls-4" d="m29.66,67.61c-.44,0-.41-.59,0-.6.47,0,.47.62,0,.6Z"/>
    <path class="cls-4" d="m72.58,45.07c-.46-.03-.42-.64.04-.61.43.05.37.61-.04.61Z"/>
    <path class="cls-4" d="m41.82,58.26c-.41.04-.51-.54-.08-.59.47-.06.54.55.08.59Z"/>
    <path class="cls-4" d="m115.94,58.5c-.47-.03-.45-.61.02-.61.43.03.4.6-.02.61Z"/>
    <path class="cls-4" d="m104.84,50.03c-.42.03-.46-.57-.04-.59.46-.04.5.58.04.59Z"/>
    <path class="cls-4" d="m129.06,69.48c-.44.02-.43-.6,0-.58.43,0,.44.6,0,.58Z"/>
    <path class="cls-4" d="m95.79,44.15c-.42.02-.44-.58-.02-.6.41,0,.45.58.02.6Z"/>
    <path class="cls-4" d="m26.31,71.56c-.43,0-.41-.6,0-.6.45,0,.47.62,0,.6Z"/>
    <path class="cls-4" d="m76.12,65.79c-.41.03-.49-.56-.06-.59.42-.04.48.56.06.59Z"/>
    <path class="cls-4" d="m122.5,63.98c-.43.01-.44-.59,0-.58.43-.02.43.59,0,.58Z"/>
    <path class="cls-4" d="m82.67,71.3c-.42,0-.46-.56-.03-.59.42,0,.46.55.03.59Z"/>
    <path class="cls-4" d="m59.26,47.5c-.45-.03-.38-.6.05-.58.44.03.39.62-.05.58Z"/>
    <path class="cls-4" d="m64.69,46.07c-.43.02-.44-.59,0-.58.43-.02.44.58,0,.58Z"/>
    <path class="cls-4" d="m90.82,43.39c-.43-.01-.4-.61.03-.58.4.03.35.58-.03.58Z"/>
    <path class="cls-4" d="m98.27,44.54c-.41,0-.42-.59,0-.59.42,0,.42.58,0,.59Z"/>
    <path class="cls-4" d="m38.88,60.01c-.41.02-.48-.5-.07-.56.43-.06.53.53.07.56Z"/>
    <path class="cls-4" d="m80.43,44.04c-.4-.02-.37-.57.02-.58.43,0,.41.6-.02.58Z"/>
    <path class="cls-4" d="m61.94,72.58c-.42.01-.43-.58-.02-.59.41,0,.44.58.02.59Z"/>
    <path class="cls-4" d="m109.37,52.97c-.43.02-.45-.59-.02-.58.4,0,.41.55.02.58Z"/>
    <path class="cls-4" d="m133.64,72.41c-.44.04-.49-.55-.04-.56.41,0,.46.52.04.56Z"/>
    <path class="cls-4" d="m102.77,47.47c-.4-.02-.38-.57.01-.58.43,0,.42.6-.01.58Z"/>
    <path class="cls-4" d="m126.99,66.91c-.37,0-.37-.53-.01-.55.43-.03.46.57.01.55Z"/>
    <path class="cls-4" d="m23.4,73.33c-.42-.01-.36-.57.04-.54.41.03.37.57-.04.54Z"/>
    <path class="cls-4" d="m35.92,61.8c-.42-.04-.34-.57.04-.55.4.02.35.58-.04.55Z"/>
    <path class="cls-4" d="m120.42,61.42c-.39-.05-.33-.59.07-.55.41.06.31.58-.07.55Z"/>
    <path class="cls-4" d="m26.74,69.36c-.37-.02-.37-.54.01-.55.46-.02.43.59-.01.55Z"/>
    <path class="cls-4" d="m64.86,70.76c-.42.01-.44-.5-.04-.55.38-.03.46.53.04.55Z"/>
    <path class="cls-4" d="m22.98,75.5c-.4.02-.43-.56-.02-.55.41-.02.43.54.02.55Z"/>
    <path class="cls-4" d="m93.35,43.76c-.42.04-.48-.52-.07-.55.41-.05.48.53.07.55Z"/>
    <path class="cls-4" d="m138.13,75.34c-.42,0-.41-.52-.02-.55.39-.01.42.55.02.55Z"/>
    <path class="cls-4" d="m131.56,69.85c-.38-.02-.41-.52,0-.53.4,0,.37.52,0,.53Z"/>
    <path class="cls-4" d="m23.84,71.14c-.39,0-.4-.5-.02-.53.37,0,.41.52.02.53Z"/>
    <path class="cls-4" d="m125.01,64.34c-.36,0-.41-.5-.02-.52.39,0,.4.48.02.52Z"/>
    <path class="cls-4" d="m88.31,42.97c-.38-.03-.38-.53.02-.52.4,0,.34.53-.02.52Z"/>
    <path class="cls-4" d="m56.83,47.07c-.36,0-.39-.46-.04-.51.38-.03.44.49.04.51Z"/>
    <path class="cls-4" d="m107.38,50.39c-.35.07-.52-.44-.11-.51.37-.08.49.44.11.51Z"/>
    <path class="cls-4" d="m136.07,72.78c-.38-.02-.36-.53.03-.51.37.03.3.5-.03.51Z"/>
    <path class="cls-4" d="m73.62,65.39c-.37.02-.45-.5-.04-.53.39-.04.42.5.04.53Z"/>
    <path class="cls-4" d="m77.96,43.62c-.34-.01-.39-.49-.02-.51.4-.02.41.5.02.51Z"/>
    <path class="cls-4" d="m100.73,44.89c-.39,0-.35-.54.02-.53.38.03.38.52-.02.53Z"/>
    <path class="cls-4" d="m67.79,68.94c-.4-.02-.38-.5,0-.51.34.02.35.49,0,.51Z"/>
    <path class="cls-4" d="m53.86,48.87c-.41-.03-.34-.53.04-.53.37.02.36.56-.04.53Z"/>
    <path class="cls-4" d="m78.12,68.33c-.43-.04-.33-.57.07-.53.36.05.31.57-.07.53Z"/>
    <path class="cls-4" d="m48.08,52.45c-.37,0-.45-.5-.04-.53.4-.03.41.5.04.53Z"/>
    <path class="cls-4" d="m33,63.59c-.37-.02-.33-.58.06-.52.41.04.3.54-.06.52Z"/>
    <path class="cls-4" d="m113.9,55.89c-.4,0-.42-.54,0-.53.38,0,.35.52,0,.53Z"/>
    <path class="cls-4" d="m50.94,50.68c-.35-.02-.35-.55.03-.53.42.01.37.55-.03.53Z"/>
    <path class="cls-4" d="m62.25,45.68c-.36.02-.47-.48-.06-.52.39-.06.43.5.06.52Z"/>
    <path class="cls-4" d="m70.08,44.64c-.36-.01-.36-.56.04-.52.41.03.34.53-.04.52Z"/>
    <path class="cls-4" d="m111.85,53.32c-.35-.01-.39-.44-.04-.5.37-.04.43.48.04.5Z"/>
    <path class="cls-4" d="m42.18,56.02c-.36-.03-.31-.49.02-.5.38.02.37.52-.02.5Z"/>
    <path class="cls-4" d="m129.57,67.26c-.39.07-.45-.47-.06-.49.31.02.39.42.06.49Z"/>
    <path class="cls-4" d="m30.12,65.38c-.34-.02-.38-.46-.03-.5.38-.03.4.49.03.5Z"/>
    <path class="cls-4" d="m84.71,73.82c-.33,0-.39-.48-.04-.51.4-.04.42.49.04.51Z"/>
    <path class="cls-4" d="m45.12,54.24c-.34-.02-.32-.52.03-.51.39.01.36.53-.03.51Z"/>
    <path class="cls-4" d="m118.37,58.81c-.35-.05-.3-.5.04-.5.38,0,.32.55-.04.5Z"/>
    <path class="cls-4" d="m105.25,47.81c-.34-.03-.3-.47.03-.47.37.01.34.5-.03.47Z"/>
    <path class="cls-4" d="m67.59,44.25c-.37,0-.32-.51.03-.48.31.04.29.49-.03.48Z"/>
    <path class="cls-4" d="m20.47,75.1c-.36,0-.35-.48,0-.48.36.01.36.46,0,.48Z"/>
    <path class="cls-4" d="m140.6,75.69c-.32-.03-.29-.48.04-.46.35.03.27.47-.04.46Z"/>
    <path class="cls-4" d="m122.92,61.74c-.34-.04-.28-.48.05-.47.33.03.28.5-.05.47Z"/>
    <path class="cls-4" d="m80.19,70.84c-.35.02-.35-.45-.01-.45.33-.03.36.46.01.45Z"/>
    <path class="cls-4" d="m116.35,56.24c-.29,0-.34-.42-.02-.44.35-.02.37.42.02.44Z"/>
    <path class="cls-4" d="m75.49,43.19c-.28,0-.33-.43-.01-.44.36,0,.34.42.01.44Z"/>
    <path class="cls-4" d="m39.31,57.8c-.31.03-.35-.45-.02-.44.34-.01.34.43.02.44Z"/>
    <path class="cls-4" d="m20.93,72.9c-.32.01-.36-.44-.02-.45.33-.03.34.45.02.45Z"/>
    <path class="cls-4" d="m70.74,67.1c-.33.05-.41-.38-.08-.43.27-.04.38.39.08.43Z"/>
    <path class="cls-4" d="m59.75,45.23c-.31.03-.34-.37-.07-.43.3-.04.43.4.07.43Z"/>
    <path class="cls-4" d="m27.15,67.14c-.28-.04-.27-.45.04-.43.36,0,.27.46-.04.43Z"/>
    <path class="cls-4" d="m85.84,42.53c-.31-.01-.26-.43.02-.43.32,0,.33.46-.02.43Z"/>
    <path class="cls-4" d="m134.05,70.18c-.35.01-.35-.45.01-.42.28.02.25.41-.01.42Z"/>
    <path class="cls-4" d="m82.17,73.37c-.3-.04-.25-.44.07-.41.31.02.21.46-.07.41Z"/>
    <path class="cls-4" d="m109.84,50.73c-.35.04-.39-.42-.03-.42.27,0,.31.39.03.42Z"/>
    <path class="cls-4" d="m24.28,68.93c-.3,0-.32-.4,0-.41.31-.02.3.42,0,.41Z"/>
    <path class="cls-4" d="m61.45,74.66c-.3-.04-.24-.47.07-.42.33.05.23.45-.07.42Z"/>
    <path class="cls-4" d="m65.14,43.83c-.31-.01-.33-.4,0-.42.32-.02.31.42,0,.42Z"/>
    <path class="cls-4" d="m36.43,59.58c-.35.03-.37-.42-.02-.42.26,0,.29.39.02.42Z"/>
    <path class="cls-4" d="m103.23,45.2c-.33-.01-.27-.44.04-.41.27.04.25.42-.04.41Z"/>
    <path class="cls-4" d="m51.41,48.43c-.33,0-.26-.45.04-.4.28.06.24.4-.04.4Z"/>
    <path class="cls-4" d="m120.94,59.15c-.3.05-.36-.37-.05-.4.26,0,.33.34.05.4Z"/>
    <path class="cls-4" d="m127.48,64.66c-.32,0-.34-.41-.01-.41.29,0,.28.39.01.41Z"/>
    <path class="cls-4" d="m75.63,67.89c-.26,0-.3-.39-.02-.42.35-.04.37.43.02.42Z"/>
    <path class="cls-4" d="m17.99,74.67c-.31-.01-.22-.46.06-.4.26.07.22.42-.06.4Z"/>
    <path class="cls-4" d="m42.67,53.8c-.25,0-.29-.32-.04-.36.27-.04.34.34.04.36Z"/>
    <path class="cls-4" d="m21.37,70.7c-.28.01-.3-.36-.03-.38.27,0,.31.35.03.38Z"/>
    <path class="cls-4" d="m83.35,42.14c-.28-.03-.25-.4.03-.38.29.03.24.39-.03.38Z"/>
    <path class="cls-4" d="m98.67,42.24c-.25-.02-.26-.35,0-.38.29-.01.29.39,0,.38Z"/>
    <path class="cls-4" d="m131.99,67.58c-.25.01-.32-.31-.06-.37.28-.05.36.34.06.37Z"/>
    <path class="cls-4" d="m54.35,46.62c-.26.04-.33-.35-.06-.38.28-.04.33.34.06.38Z"/>
    <path class="cls-4" d="m73.03,42.77c-.28.03-.31-.39-.02-.38.26,0,.27.35.02.38Z"/>
    <path class="cls-4" d="m33.45,61.35c-.28-.03-.23-.4.05-.37.3.04.23.39-.05.37Z"/>
    <path class="cls-4" d="m64.4,72.86c-.25-.03-.22-.38.02-.38.29,0,.26.41-.02.38Z"/>
    <path class="cls-4" d="m138.56,73.1c-.28-.02-.24-.4.02-.39.26.01.26.41-.02.39Z"/>
    <path class="cls-4" d="m48.5,50.2c-.26,0-.26-.35,0-.36.28-.03.3.38,0,.36Z"/>
    <path class="cls-4" d="m107.74,48.12c-.3-.01-.25-.39.04-.36.26.03.22.36-.04.36Z"/>
    <path class="cls-4" d="m118.85,56.56c-.25,0-.24-.32,0-.32.23,0,.24.33,0,.32Z"/>
    <path class="cls-4" d="m62.67,43.4c-.26.05-.29-.37-.02-.35.23-.01.26.32.02.35Z"/>
    <path class="cls-4" d="m57.28,44.8c-.27.05-.35-.31-.05-.34.22-.02.28.3.05.34Z"/>
    <path class="cls-4" d="m45.59,51.99c-.27.03-.32-.31-.06-.35.25-.04.32.32.06.35Z"/>
    <path class="cls-4" d="m77.7,70.4c-.22.02-.28-.3-.05-.34.27-.05.34.31.05.34Z"/>
    <path class="cls-4" d="m96.27,41.86c-.25.05-.36-.32-.06-.34.25-.02.28.29.06.34Z"/>
    <path class="cls-4" d="m84.28,75.89c-.26.04-.29-.36-.02-.34.28,0,.21.32.02.34Z"/>
    <path class="cls-4" d="m30.56,63.11c-.27.02-.28-.37,0-.34.25.01.23.31,0,.34Z"/>
    <path class="cls-4" d="m125.45,62.07c-.26.05-.35-.32-.05-.34.22-.02.28.29.05.34Z"/>
    <path class="cls-4" d="m114.35,53.64c-.25.03-.31-.33-.04-.35.26-.03.29.34.04.35Z"/>
    <path class="cls-4" d="m101.22,42.61c-.27.05-.35-.31-.05-.34.22-.02.28.3.05.34Z"/>
    <path class="cls-4" d="m36.88,57.33c-.19.07-.3-.22-.11-.28.21-.08.36.21.11.28Z"/>
    <path class="cls-4" d="m105.69,45.53c-.21,0-.22-.27-.01-.3.22-.04.26.32.01.3Z"/>
    <path class="cls-4" d="m15.51,74.24c-.2-.01-.25-.28-.03-.31.25-.04.26.3.03.31Z"/>
    <path class="cls-4" d="m18.43,72.45c-.23.01-.23-.33,0-.32.24,0,.23.31,0,.32Z"/>
    <path class="cls-4" d="m112.26,51.03c-.22-.02-.15-.31.04-.31.24.03.22.34-.04.31Z"/>
    <path class="cls-4" d="m136.52,70.49c-.2,0-.24-.29-.02-.31.26-.02.26.3.02.31Z"/>
    <path class="cls-4" d="m80.87,41.71c-.2-.02-.17-.32.04-.3.25,0,.2.33-.04.3Z"/>
    <path class="cls-4" d="m27.58,64.88c-.22-.05-.14-.31.06-.3.24.02.18.37-.06.3Z"/>
    <path class="cls-4" d="m24.71,66.67c-.2,0-.2-.28,0-.3.24,0,.26.3,0,.3Z"/>
    <path class="cls-4" d="m73.15,67.44c-.2-.02-.17-.32.04-.3.25,0,.2.33-.04.3Z"/>
    <path class="cls-4" d="m93.7,41.16c.11-.01.21.07.19.16h-.33c0-.08.05-.16.14-.16Z"/>
    <path class="cls-4" d="m93.73,41.45c-.09,0-.15-.05-.16-.13h.33c-.02.08-.08.12-.17.13Z"/>
    <path class="cls-4" d="m129.93,64.97c-.19-.01-.14-.29.04-.26.19.02.14.29-.04.26Z"/>
    <path class="cls-4" d="m70.55,42.37c-.24,0-.25-.3,0-.3.19,0,.2.29,0,.3Z"/>
    <path class="cls-4" d="m39.76,55.54c-.27,0-.24-.3,0-.31.19.02.22.3,0,.31Z"/>
    <path class="cls-4" d="m33.9,59.12c-.21,0-.21-.31.01-.28.19.03.17.25-.01.28Z"/>
    <path class="cls-4" d="m60.24,42.96c-.18.1-.33-.19-.11-.25.17-.05.28.18.11.25Z"/>
    <path class="cls-4" d="m15.91,72.05c-.16-.04-.12-.27.05-.27.21,0,.2.32-.05.27Z"/>
    <path class="cls-4" d="m141.03,73.41c-.21,0-.2-.3.02-.28.19.04.17.26-.02.28Z"/>
    <path class="cls-4" d="m68.03,41.95c-.13,0-.14-.2-.03-.24.17-.04.26.2.03.24Z"/>
    <path class="cls-4" d="m51.84,46.14c-.32-.08.12-.39.16-.1-.01.08-.07.11-.16.1Z"/>
    <path class="cls-4" d="m48.96,47.94c-.13.06-.23-.15-.1-.21.14-.08.29.16.1.21Z"/>
    <path class="cls-4" d="m46,49.74c-.16-.03-.15-.23.03-.21.13.03.09.22-.03.21Z"/>
    <path class="cls-4" d="m116.8,53.94c-.19.01-.18-.25.02-.22.17.02.11.21-.02.22Z"/>
    <path class="cls-4" d="m28.03,62.67c-.3-.13.25-.37.14-.03,0,0-.04.06-.14.03Z"/>
    <path class="cls-4" d="m79.7,72.89c-.18-.04-.07-.28.09-.2.16.04.07.24-.09.2Z"/>
    <path class="cls-4" d="m30.99,60.9c-.15.02-.15-.19-.05-.23.17-.05.26.2.05.23Z"/>
    <path class="cls-4" d="m123.41,59.45c-.17.04-.26-.16-.1-.2.16-.08.27.16.1.2Z"/>
    <path class="cls-4" d="m21.78,68.44c-.15-.02-.19-.19-.02-.22.2-.01.21.21.02.22Z"/>
    <path class="cls-4" d="m18.88,70.24c-.15.03-.18-.21-.05-.23.18-.05.22.21.05.23Z"/>
    <path class="cls-4" d="m43.09,51.53c-.17-.03-.11-.25.05-.2.13.03.08.21-.05.2Z"/>
    <path class="cls-4" d="m13.89,69.42s-.03-.05-.05-.07c.09-.22.27.11.05.07Z"/>
    <path class="cls-4" d="m40.63,51.13c-.17.05-.19-.2-.02-.2.13,0,.16.19.02.2Z"/>
    <path class="cls-4" d="m46.49,47.57c-.15.04-.22-.2-.04-.2.14-.02.15.17.04.2Z"/>
    <path class="cls-4" d="m13.06,73.82c-.16.02-.16-.24,0-.2.14,0,.12.18,0,.2Z"/>
    <path class="cls-4" d="m10.14,75.59c-.15.04-.22-.2-.04-.2.14-.02.15.17.04.2Z"/>
    <path class="cls-4" d="m35.65,50.36c-.17-.04,0-.24.08-.09,0,.05-.01.1-.08.09Z"/>
    <path class="cls-4" d="m110.23,48.43c-.14-.02-.17-.2,0-.22.17-.04.2.26,0,.22Z"/>
    <path class="cls-4" d="m28.47,60.49c-.12-.01-.13-.2,0-.2.18-.01.16.21,0,.2Z"/>
    <path class="cls-4" d="m54.77,44.37c-.14-.01-.18-.19-.02-.22.17-.05.22.25.02.22Z"/>
    <path class="cls-4" d="m55.2,42.18c-.17,0-.09-.26.05-.2.13.04.09.21-.05.2Z"/>
    <path class="cls-4" d="m31.86,56.53c-.17,0-.17-.22,0-.2.14,0,.12.2,0,.2Z"/>
    <path class="cls-4" d="m22.24,66.24c-.18.02-.16-.22,0-.2.12.01.13.2,0,.2Z"/>
    <path class="cls-4" d="m65.56,41.53c-.14-.02-.13-.19,0-.2.18-.03.15.23,0,.2Z"/>
    <path class="cls-4" d="m78.31,41.28c.02.06.24.04.2-.07-.02-.11-.29-.11-.2.07Z"/>
    <path class="cls-4" d="m57.69,42.56c-.13.03-.16-.18-.03-.17.17-.03.11.17.03.17Z"/>
    <path class="cls-4" d="m50.23,41.26c.06-.02.1,0,.12.06,0,0,0,0,0,0h-.16s.02-.06.04-.07Z"/>
    <path class="cls-4" d="m50.3,41.4c-.06.01-.11-.02-.12-.07h.16s-.02.07-.04.07Z"/>
    <path class="cls-4" d="m52.29,43.96c-.14.02-.16-.16-.03-.17.13-.04.16.18.03.17Z"/>
    <path class="cls-4" d="m43.97,47.15c-.13,0-.12-.12,0-.14.09.02.12.13,0,.14Z"/>
    <path class="cls-4" d="m44.37,44.97c-.06-.02-.05-.13.01-.14.15-.02.12.18-.01.14Z"/>
    <path class="cls-4" d="m46.82,45.3c-.05-.1.13-.11.17-.04-.02.09-.13.14-.17.04Z"/>
    <path class="cls-4" d="m49.39,45.75c-.09.06-.15-.12-.05-.15.11,0,.16.09.05.15Z"/>
    <path class="cls-4" d="m13.45,71.62c-.26-.1.14-.3.11-.07-.02.04-.03.1-.11.07Z"/>
    <path class="cls-4" d="m34.32,56.87c-.25-.06.13-.31.12-.07,0,.05-.04.09-.12.07Z"/>
    <path class="cls-4" d="m67.34,70.91c-.21-.06-.1-.29.07-.17.1.08.01.14-.07.17Z"/>
    <path class="cls-4" d="m40.2,53.31c-.13.03-.16-.15-.03-.18.13-.03.16.18.03.18Z"/>
    <path class="cls-4" d="m34.8,54.72c-.08.03-.09-.03-.11-.08-.02-.23.39,0,.11.08Z"/>
    <path class="cls-4" d="m16.42,69.82c-.13.01-.17-.17-.03-.17.13-.04.15.17.03.17Z"/>
    <path class="cls-4" d="m22.65,64.06c-.13,0-.1-.21.03-.17.14.02.11.19-.03.17Z"/>
    <path class="cls-4" d="m25.15,64.45c-.13.03-.15-.17-.02-.18.13-.01.16.18.02.18Z"/>
    <path class="cls-4" d="m19.37,68.01c-.05-.05-.16-.06-.17-.14.12-.19.42.09.17.14Z"/>
    <path class="cls-4" d="m134.47,67.9c-.3.02-.06-.35.06-.06-.02.02-.04.06-.06.06Z"/>
    <path class="cls-4" d="m32.26,54.31c-.06-.01-.07-.12-.01-.14.14-.04.16.16.01.14Z"/>
    <path class="cls-4" d="m37.74,52.85s-.07.03-.1.06c-.25-.05.05-.34.17-.14,0,.04-.03.07-.07.08Z"/>
    <path class="cls-4" d="m26.07,60.07c-.25.04-.02-.29.05-.08-.01.03-.03.07-.05.08Z"/>
    <path class="cls-4" d="m10.52,73.4c-.06-.02-.05-.13.01-.14.15-.02.13.18-.01.14Z"/>
    <path class="cls-4" d="m31.32,58.66c0-.09.12-.09.17-.14.25.05-.05.34-.17.14Z"/>
    <path class="cls-4" d="m37.31,55.09s-.12-.05-.14-.12c.05-.24.41.07.14.12Z"/>
    <path class="cls-4" d="m25.57,62.27c-.14,0-.1-.19.02-.18.12,0,.11.21-.02.18Z"/>
    <path class="cls-4" d="m43.56,49.33c-.13.03-.16-.18-.02-.18.17-.03.12.17.02.18Z"/>
    <path class="cls-4" d="m52.64,41.68c.01-.09.12-.02.16.01-.04.02-.09.04-.13.06-.01-.02-.03-.05-.03-.07Z"/>
    <path class="cls-4" d="m103.67,42.9c-.16.04-.07-.18.06-.06-.02.02-.04.05-.06.06Z"/>
    <path class="cls-4" d="m16.82,67.65s-.05-.08-.07-.11c.14-.08.17.02.07.11Z"/>
    <path class="cls-4" d="m47.34,43.15c-.11.01-.09-.1-.01-.14.02.02.04.04.06.07-.02.03-.03.07-.05.07Z"/>
    <path class="cls-4" d="m29.33,56.04s.04-.05.06-.07c.02.04.05.08.07.11-.03.01-.06.02-.08.03-.05,0-.07-.03-.05-.07Z"/>
    <path class="cls-4" d="m28.87,58.24c-.02-.1.11-.1.12,0-.02.02-.04.04-.06.06-.02-.02-.06-.04-.06-.06Z"/>
    <path class="cls-4" d="m67.21,70.8c.06.02.11.05.13.11-.15.03-.17.02-.13-.11Z"/>
    <path class="cls-4" d="m38.14,50.72s-.06-.03-.08-.05c.04-.02.09-.04.13-.06.01.02.03.05.04.07-.01.04-.04.06-.08.04Z"/>
    <path class="cls-4" d="m49.84,43.51s-.05-.02-.08-.03c.03-.05.07-.02.11,0-.01.01-.03.03-.04.03Z"/>
    <path class="cls-4" d="m31.32,58.66c-.05-.06-.09-.12.04-.14.06.05,0,.1-.04.14Z"/>
    <path class="cls-4" d="m44.81,42.73s.02-.02.03-.03c.01.02.03.04.04.06-.01.01-.03.02-.04.04-.01-.02-.03-.04-.04-.06Z"/>
    <path class="cls-4" d="m31.37,58.62s0-.06,0-.09c.04,0,.09,0,.13,0,0,.07-.03.11-.12.1Z"/>
    <path class="cls-4" d="m37.17,54.98h0c.09,0,.14.04.14.12-.04,0-.09,0-.13,0-.03-.03-.04-.07-.01-.11Z"/>
    <path class="cls-4" d="m37.17,54.98s0,.07.01.11q-.11-.05-.01-.11Z"/>
    <path class="cls-4" d="m41,48.9s.03-.04.04-.06c.06.03.02.06,0,.1-.01-.01-.03-.02-.04-.03Z"/>
    <path class="cls-4" d="m38.51,48.46s.02-.02.03-.03c.01.02.03.04.04.06-.01.01-.03.02-.04.03-.01-.02-.03-.04-.04-.07Z"/>
    <path class="cls-4" d="m7.6,75.13c.03-.05.07-.02.11,0-.01.01-.02.02-.04.04-.02-.01-.05-.02-.07-.04Z"/>
    <path class="cls-4" d="m41.45,46.7c.03-.05.07-.02.11,0-.01.01-.02.02-.04.04-.02-.01-.05-.02-.07-.04Z"/>
    <path class="cls-4" d="m19.2,67.86s.03.03.05.04c.03.01.03.07,0,.09-.13-.02-.09-.08-.04-.14Z"/>
    <path class="cls-4" d="m19.25,67.9c.09,0,.12.03.12.1-.04,0-.09,0-.13,0,0-.03,0-.06,0-.09Z"/>
    <path class="cls-4" d="m35.23,52.46s-.05-.02-.08-.03c.03-.05.07-.02.11,0-.01.01-.03.03-.04.03Z"/>
    <path class="cls-4" d="m37.77,52.9c-.06-.05,0-.1.04-.14.05.06.09.12-.04.14Z"/>
    <path class="cls-4" d="m37.76,52.8s0,.06,0,.09c-.04,0-.09,0-.13,0,0-.07.03-.11.12-.1Z"/>
    <path class="cls-4" d="m19.72,65.76s.05-.02.07-.04c.01.01.03.02.04.04-.04.02-.08.05-.11,0Z"/>
    <path class="cls-4" d="m23.05,61.8c.03-.05.07-.02.11,0-.04.02-.08.05-.11,0Z"/>
  </g>
  <g>
    <g>
      <path d="m87.26,46.08c1.27.09,3.96.21,5.63.24.77.02,1.89.05,2.49.07,1.6.06,4.39.12,5.2.11,1.32-.02,3.57-.2,3.9-.31.08-.03.19,0,.27.05.24.19.49.21.77.04.15-.09.27-.19.27-.22s.08-.14.17-.24c.32-.33.32-1.1,0-3.51-.13-.96-.17-4.66-.07-5.2.05-.25.08-.67.07-.95-.07-2,.04-8.61.15-9.28.06-.33.12-1.83.15-3.33.05-2.91.04-3.05-.39-3.77-.09-.16-.17-.32-.17-.35s-.06-.11-.14-.16c-.08-.05-.17-.15-.2-.22s-.28-.33-.56-.59c-.4-.37-.56-.47-.76-.47-.24,0-.52.16-.52.29,0,.04-.07.07-.16.07s-.19.02-.22.05c-.04.03-.23.06-.43.07-.66.04-6.47.03-10.98-.02-2.43-.03-4.86-.05-5.42-.05-.55,0-1.41-.03-1.91-.06-.63-.05-.94-.04-1.02.01-.07.05-.23.06-.4.03-.16-.03-.82-.06-1.47-.07-2.9-.05-4.71-.11-5.11-.17-.46-.07-1.48-.07-1.56,0-.03.02-.33.01-.68-.02-1.07-.1-1.85-.11-2.02-.04-.11.05-.19.04-.26,0-.12-.1-.5-.1-.5,0,0,.04-.08.04-.23,0-.13-.04-.31-.05-.4-.03-.09.02-.21.01-.27-.03-.06-.04-.37-.05-.76-.02-.77.06-3.3.04-3.51-.03-.08-.03-.17-.01-.2.03-.04.05-.11.05-.24,0-.1-.04-.49-.07-.89-.06-1.37.03-4.54-.04-4.68-.11-.02-.01-.57-.04-1.22-.07-.65-.03-1.21-.07-1.25-.09-.04-.02-1.26-.05-2.71-.06-1.45-.01-2.66-.02-2.69-.03-.03,0-.04-.19-.01-.42.04-.37.02-.43-.19-.64-.27-.26-.71-.32-.8-.1-.03.07-.08.19-.12.27-.15.29-.53,1.81-.47,1.89.06.08.15.81.14,1.1-.04,1.28-.2,3.25-.28,3.45-.07.16-.1.67-.09,1.41v1.16s-.26.25-.26.25c-.24.22-.27.29-.22.53.06.29.28.7.42.77.04.02.1.71.12,1.53.02.82.08,1.6.13,1.73.05.14.13.74.19,1.33.08.85.08,1.32,0,2.19,0,0,0,0,0,0-.33,3.32.51,7.82-.18,10.79-.09.39-.08.5.04.79.08.19.12.39.1.44-.07.14.37.45.64.45.13,0,.48-.04.8-.08.31-.04.98-.09,1.49-.1.5-.02,1.04-.04,1.18-.06.32-.04.57-.07,2.53-.23,1.31-.11,2.34-.13,6.2-.12,2.55,0,4.85.03,5.12.06.34.04.7.02,1.19-.06.6-.1,1.49-.12,5.94-.13,5.17-.02,7.51.03,9.47.17.55.04,1.42.1,1.92.14Zm-33.9-11.95s-.09-.01-.09-.03.04-.05.09-.08c.05-.02.09-.01.09.03s-.04.08-.09.08Zm-.52-2.64c0-.36.06-.45.21-.33.12.09.08.3-.1.51-.11.13-.12.11-.12-.18Zm.36-10.69c-.1-.07-.18-.15-.18-.18,0-.04,1.59-.01,1.65.03.04.03-.31.41-.59.64-.26.21-.36.19-.54-.12-.08-.13-.23-.3-.33-.38Zm43.35,22.35c.07.06.02.08-.18.08-.32,0-.36-.04-.1-.11.1-.03.23-.01.28.03Zm-10.41-8.72c-.14.07-.32.12-.4.12s-.14.04-.14.09c0,.1-.63.27-1.14.3-.44.03-.6-.15-.35-.39.09-.08.18-.15.21-.15s.33-.14.68-.32c.35-.18.68-.32.72-.32s.15-.05.22-.1c.21-.15.37-.03.42.33.04.29.02.32-.22.44Zm14.58-13.85s.08.02.08.1-.02.15-.03.15c-.08,0-.12-.21-.05-.25Zm-47.1,13.76c.11.08.25.12.32.1.21-.06.39.12.38.39,0,.44-.55.79-.92.59-.1-.05-.2-.87-.14-1.1.04-.16.12-.16.36.01Z"/>
      <g>
        <path d="m62.27,16.74c.4-.14.28-.29-.2-.24-.19.02-.27.09-.23.2.04.11.19.12.43.04Z"/>
        <path d="m48.83,12.92c.12-.01.15-.07.12-.19-.03-.09-.14-.16-.23-.15-.12.01-.15.07-.12.19.03.09.14.16.23.15Z"/>
        <path d="m111.12,51.69c-.04-.06-.22-.09-.41-.07-.38.04-1.54-.5-1.35-.64.06-.05.2-.02.3.05.1.07.36.11.56.09.29-.04.42-.15.59-.49.12-.25.18-.51.14-.57-.19-.3.08-.42.48-.21.24.12.46.17.53.1.07-.07.03-.16-.1-.23-.27-.13-.35-.4-.25-.86.06-.3.11-.33.31-.23.13.06.28.04.32-.04.04-.09.15-.15.25-.14.13.01.16-.09.15-.42-.02-.38,0-.44.18-.42.12.01.19-.06.18-.17-.01-.1.12-.47.28-.82l.3-.63-.92-.39c-.89-.38-.92-.41-1.06-.89-.12-.39-.32-.63-.93-1.12-.94-.75-1.86-1.34-3.19-2.07-.09-.05-.42-.33-.72-.62-.3-.29-.7-.6-.87-.69-.18-.09-.35-.24-.39-.34-.03-.1-.59-.46-1.23-.81-.64-.35-1.39-.83-1.65-1.08-.27-.25-.62-.52-.79-.6-.17-.08-.31-.23-.32-.32-.01-.12-.07-.13-.18-.06-.14.09-.32-.01-1.03-.56-.47-.37-.96-.67-1.07-.68-.11,0-.25-.15-.31-.32-.1-.3-.4-.48-1.56-.93-.37-.14-.52-.27-.55-.46-.07-.37-.91-1.02-1.37-1.06-.5-.04-.77-.2-.87-.49-.07-.19-.12-.22-.2-.14-.08.08-.15.03-.22-.19-.08-.24-.22-.34-.67-.49-.31-.1-.62-.14-.7-.1-.1.06-.21,0-.4-.2-.14-.16-.39-.35-.55-.42-.16-.07-.46-.29-.68-.49-.38-.35-1.02-.79-1.49-1.02-.13-.06-1.1-.53-2.18-1.05-1.07-.52-2.6-1.3-3.39-1.75-.79-.45-2.27-1.2-3.29-1.68-1.01-.48-2-.94-2.19-1.03-1.01-.48-1.53-.82-1.55-1.03-.02-.16-.07-.2-.18-.13-.19.11-2.37-.83-6.32-2.75-1.62-.78-2.99-1.39-3.09-1.36-.1.02-.78-.23-1.51-.57-1.61-.75-3.74-1.32-3.87-1.04-.09.18-.57-.13-.99-.62-.37-.44-.92-.71-1.3-.64-.09.02-.42-.05-.74-.15-.48-.15-.57-.21-.5-.36.05-.1,0-.25-.09-.35-.2-.19-1.16-.28-1.24-.11-.03.06-.21.04-.41-.06-.21-.1-.47-.12-.65-.04-.22.1-.49.06-1.01-.15-.39-.15-.98-.35-1.31-.43-1.58-.38-1.82-.45-2.07-.65-.15-.12-.33-.17-.41-.13-.08.05-.28-.02-.5-.18-.54-.4-1.46-.44-1.86-.08-.25.22-.3.31-.21.4.25.24-.05.43-.42.28-.6-.25-.71-.32-.94-.54h0c-.16-.16-.24-.17-.3-.03-.05.1-.05.2,0,.22.11.05.12.97,0,1.2-.04.09.01.36.12.6.11.24.15.57.1.73-.06.17,0,.42.15.6.19.24.21.37.06.61-.11.18-.15.47-.09.73.05.24.05.6,0,.8l-.09.37.99.46c.71.32.99.5.97.62-.01.1-.12.12-.26.05-.15-.07-.28-.04-.34.08-.17.35-.45.43-.85.25-.31-.14-.42-.13-.55.06-.12.18-.1.27.07.35.13.06.32.05.42-.02.17-.12.19-.1.25.11.05.2,0,.24-.24.25-.41.02-.53.31-.18.48.15.07.34.1.41.05.19-.12.3.12.12.28-.08.07-.09.16-.02.2.07.03.09.14.04.23-.05.09-.14.15-.2.12-.22-.11-.23.18,0,.42.12.13.23.31.24.39,0,.09.23.23.53.32.28.09.79.37,1.14.61.36.25.79.47,1.01.51.5.09.62.29.22.35-.17.03-.35.12-.39.21-.1.21.45.53,1.87,1.09.62.24,1.47.58,1.9.76.42.17,1.03.37,1.34.45.32.07.68.22.8.33.13.11.34.16.5.11.32-.09,1.76.3,1.97.52.08.08.25.12.38.09.15-.04.42.06.72.24.26.17.56.28.66.24.11-.04.8.25,1.8.75,2.7,1.35,3.06,1.52,4.29,2.03.65.27,1.59.7,2.1.96.56.29.97.44,1.06.39.08-.05.18-.02.23.07.05.08,1.55.88,3.33,1.77,4.12,2.06,6.05,3.07,6.65,3.48.26.18,1.38.76,2.47,1.28,1.1.53,2.16,1.09,2.35,1.26.2.17.84.57,1.42.89.58.32,1.38.81,1.77,1.09.39.29.86.54,1.06.58.2.04.39.09.43.12.04.03.5.29,1.02.59.53.29,1.03.64,1.12.77.09.13.18.21.19.18.01-.03.17.08.34.24.5.47,2.41,1.73,2.67,1.77.13.02.37.19.53.38.6.71,3.67,2.61,3.93,2.44.08-.05.24-.04.37.03.21.1.21.12-.04.2-.43.15-.4.29.13.55.28.13.68.45.89.71.44.54,1.5,1.11,2.18,1.18.36.04.51.13.88.52.24.26.68.58.97.72.29.14.56.33.61.43.15.32.36.18.47-.32.06-.26.14-.54.18-.62.08-.17.62.06.64.28.02.19.57.45.86.41.19-.03.2-.08.07-.39-.09-.2-.23-.39-.32-.44-.09-.04-.12-.15-.08-.25.05-.11.19-.12.4-.02.37.18.49.36.45.68-.02.24.36.5.68.47.13-.01.11-.18-.05-.54-.37-.82-.15-.96.72-.45.24.14.34.1.74-.29.46-.45.82-1.26.67-1.49Zm.73-3.8c.06.03.08.13.03.23-.05.09-.14.15-.2.12-.06-.03-.08-.13-.03-.23.05-.09.13-.15.2-.12Zm-61.64-26.37c-.08.08-.17.13-.19.12-.02-.01,0-.1.04-.19.05-.09.13-.15.19-.12.06.03.04.12-.04.19Zm-.31-.65c-.25-.12-.18-.37.13-.47.22-.08,1.1.3,1.03.44-.07.13-.91.16-1.16.04Zm14.69,1.43c-.05.02-.18-.03-.29-.11-.18-.14-.18-.14.07-.12.26.02.4.17.22.23Zm29.48,24.11h0c-.1,0-.2-.06-.21-.12-.02-.06.06-.05.18.01.13.07.14.11.04.1Zm11.54,1.36c.33.03.45.28.14.3h0c-.16,0-.27-.04-.31-.15-.04-.11.02-.16.17-.15Zm-2.51,3.31h0c-.1,0-.2-.06-.21-.12-.02-.06.06-.05.18.01.13.07.14.11.04.1Zm4.02-7.95c-.09,0-.22-.07-.29-.14-.06-.07.01-.06.17.01.16.08.21.13.11.13Zm-3.19,8.16c-.25-.08-.45-.16-.44-.19.05-.11.61-.06.9.09.43.21.12.28-.46.1Zm2.76,1.77c-.22-.24,0-.47.31-.32.16.08.27.18.24.23-.08.17-.43.22-.55.09Zm2.08-2.43c-.24-.11-.42-.22-.41-.24.05-.1.49.06.66.25.14.15.08.15-.25,0Z"/>
        <path d="m47.49,19.38c-.12-.03-.26.02-.3.1-.12.25.17.43.48.31.32-.13.23-.32-.19-.41Z"/>
      </g>
      <g>
        <path d="m98.38,16.74c-.4-.14-.28-.29.2-.24.19.02.27.09.23.2-.04.11-.19.12-.43.04Z"/>
        <path d="m111.83,12.92c-.12-.01-.15-.07-.12-.19.03-.09.14-.16.23-.15.12.01.15.07.12.19-.03.09-.14.16-.23.15Z"/>
        <path d="m50.21,53.18c.4.39.5.43.74.29.88-.51,1.09-.37.72.45-.16.36-.18.53-.05.54.33.04.71-.22.68-.47-.03-.32.08-.5.45-.68.2-.1.34-.09.4.02.05.09.01.21-.08.25-.09.04-.23.24-.32.44-.14.31-.13.36.07.39.29.04.84-.22.86-.41.02-.21.56-.45.64-.28.04.08.12.36.18.62.11.5.32.65.47.32.05-.1.32-.29.61-.43.29-.14.73-.46.97-.72.37-.39.52-.48.88-.52.68-.07,1.73-.64,2.18-1.18.21-.26.61-.58.89-.71.53-.26.57-.4.13-.55-.24-.08-.25-.1-.04-.2.13-.06.29-.07.37-.03.27.17,3.33-1.73,3.93-2.44.16-.19.4-.36.53-.38.26-.04,2.16-1.3,2.67-1.77.17-.16.33-.27.34-.24.01.03.1-.05.19-.18.09-.13.6-.47,1.12-.77.53-.29.99-.56,1.02-.59.04-.03.23-.08.43-.12.2-.04.67-.29,1.06-.58.39-.28,1.18-.77,1.77-1.09.58-.32,1.22-.72,1.42-.89.2-.17,1.26-.74,2.35-1.26,1.1-.53,2.21-1.1,2.47-1.28.6-.41,2.53-1.42,6.65-3.48,1.78-.89,3.28-1.69,3.33-1.77.05-.08.15-.11.23-.07.08.05.49-.1,1.06-.39.51-.26,1.45-.69,2.1-.96,1.22-.51,1.58-.68,4.29-2.03,1-.5,1.69-.79,1.8-.75.1.03.39-.07.66-.24.3-.19.57-.28.72-.24.13.03.3,0,.38-.09.21-.23,1.66-.61,1.97-.52.16.05.37,0,.5-.11.12-.11.48-.25.8-.33.32-.07.92-.28,1.34-.45.42-.17,1.27-.51,1.9-.76,1.42-.56,1.98-.88,1.87-1.09-.04-.09-.22-.18-.39-.21-.41-.06-.28-.27.22-.35.22-.04.65-.26,1.01-.51.34-.24.86-.52,1.14-.61.3-.1.52-.24.53-.32,0-.08.12-.26.24-.39.22-.23.22-.52,0-.42-.06.03-.15-.02-.2-.12-.05-.09-.03-.2.04-.23.07-.03.06-.12-.02-.2-.17-.16-.06-.4.12-.28.07.04.25.02.41-.05.35-.17.23-.47-.18-.48-.24,0-.29-.05-.24-.25.05-.21.08-.22.25-.11.1.07.29.08.42.02.17-.08.19-.17.07-.35-.13-.19-.24-.2-.55-.06-.4.18-.67.1-.85-.25-.06-.13-.19-.16-.34-.08-.14.07-.25.05-.26-.05-.01-.12.26-.3.97-.62l.99-.46-.09-.37c-.05-.2-.05-.56,0-.8.06-.26.02-.55-.09-.73-.15-.23-.13-.36.06-.61.15-.19.21-.43.15-.6-.05-.16,0-.49.1-.73.11-.24.16-.51.12-.6-.11-.22-.1-1.14,0-1.2.05-.02.05-.13,0-.22-.07-.13-.14-.13-.3.03h0c-.23.22-.34.29-.94.54-.38.16-.67-.03-.42-.28.09-.09.04-.18-.21-.4-.41-.36-1.32-.32-1.86.08-.22.16-.41.23-.5.18-.08-.05-.26,0-.41.13-.25.2-.49.28-2.07.65-.33.08-.92.27-1.31.43-.52.21-.79.24-1.01.15-.18-.08-.44-.07-.65.04-.19.09-.38.12-.41.06-.08-.17-1.04-.08-1.24.11-.1.09-.14.25-.09.35.07.15-.02.21-.5.36-.32.1-.65.17-.74.15-.38-.08-.93.19-1.3.64-.41.49-.9.8-.99.62-.13-.28-2.26.3-3.87,1.04-.73.34-1.41.59-1.51.57-.1-.02-1.47.58-3.09,1.36-3.95,1.91-6.13,2.86-6.32,2.75-.11-.07-.16-.03-.18.13-.03.21-.55.56-1.55,1.03-.19.09-1.17.55-2.19,1.03-1.01.48-2.49,1.23-3.29,1.68-.79.45-2.32,1.23-3.39,1.75-1.07.52-2.05.99-2.18,1.05-.47.23-1.11.67-1.49,1.02-.21.2-.52.42-.68.49-.16.07-.41.26-.55.42-.19.21-.3.26-.4.2-.08-.05-.39,0-.7.1-.45.15-.58.25-.67.49-.07.22-.14.27-.22.19-.09-.09-.14-.05-.2.14-.1.29-.37.45-.87.49-.45.04-1.29.69-1.37,1.06-.04.19-.19.32-.55.46-1.16.45-1.45.62-1.56.93-.06.17-.2.31-.31.32-.11,0-.6.32-1.07.68-.71.55-.89.65-1.03.56-.12-.07-.17-.06-.18.06,0,.09-.15.23-.32.32-.17.08-.52.35-.79.6-.27.25-1.01.73-1.65,1.08-.64.35-1.2.71-1.23.81-.03.1-.21.25-.39.34-.18.09-.57.4-.87.69-.3.29-.62.57-.72.62-1.33.72-2.24,1.32-3.19,2.07-.61.49-.81.73-.93,1.12-.14.49-.17.51-1.06.89l-.92.39.3.63c.17.35.29.72.28.82-.01.11.06.18.18.17.17-.01.2.04.18.42-.02.34.02.44.15.42.09,0,.2.06.25.14.04.09.19.11.32.04.21-.1.25-.07.31.23.1.47.02.73-.25.86-.13.06-.17.16-.1.23.07.07.29.03.53-.1.4-.21.67-.09.48.21-.04.07.02.33.14.57.17.35.3.46.59.49.2.03.45-.01.56-.09.1-.07.24-.1.3-.05.18.14-.97.68-1.35.64-.19-.02-.37,0-.41.07-.15.24.21,1.04.67,1.49Zm-1.21-5.18c.05.09.03.2-.03.23-.06.03-.15-.02-.2-.12-.05-.09-.03-.2.03-.23.06-.03.15.02.2.12Zm61.4-26.68c.06-.03.15.02.19.12.05.09.06.18.04.19-.02.01-.11-.04-.19-.12-.08-.08-.1-.16-.04-.19Zm-.81-.49c-.07-.14.81-.51,1.03-.44.31.11.38.35.13.47-.25.12-1.1.09-1.16-.04Zm-13.31,1.23c.25-.02.25-.01.07.12-.1.08-.23.13-.29.11-.18-.06-.04-.21.22-.23Zm-29.67,24.24c.12-.06.2-.07.18-.01-.02.06-.12.11-.21.12h0c-.11,0-.1-.03.04-.1Zm-11.41,1.61c-.04.11-.15.16-.31.15h0c-.31-.02-.19-.27.14-.3.15-.01.2.04.17.15Zm2.37,3.06c.12-.06.2-.07.18-.01-.02.06-.12.11-.21.12h0c-.11,0-.1-.03.04-.1Zm-3.94-7.97c.16-.08.23-.08.17-.01-.06.07-.19.13-.29.14-.09,0-.04-.05.11-.13Zm2.62,8.18c.29-.14.84-.19.9-.09.01.03-.18.11-.44.19-.57.18-.89.11-.46-.1Zm-2.86,1.79c-.02-.05.08-.15.24-.23.31-.15.53.08.31.32-.13.14-.47.08-.55-.09Zm-1.78-2.35c.17-.18.61-.35.66-.25.01.02-.17.13-.41.24-.33.15-.39.15-.25,0Z"/>
        <path d="m113.17,19.38c.12-.03.26.02.3.1.12.25-.17.43-.48.31-.32-.13-.23-.32.19-.41Z"/>
      </g>
    </g>
    <g>
      <g>
        <path class="cls-1" d="m61.04,28.68l-.15,1.44c-.18,1.74-1.09,2.78-2.63,2.87s-2.24-.86-2.05-2.6l.6-5.65c.18-1.74,1.09-2.78,2.63-2.87s2.24.86,2.05,2.6l-.11,1.06-1.49.08.12-1.16c.08-.78-.2-1.05-.7-1.03s-.85.34-.93,1.12l-.62,5.87c-.08.78.2,1.04.7,1.01s.84-.33.93-1.1l.16-1.55,1.49-.08Z"/>
        <path class="cls-1" d="m62.03,24.44c.18-1.74,1.13-2.78,2.67-2.87s2.28.86,2.1,2.6l-.6,5.65c-.18,1.74-1.13,2.78-2.67,2.87s-2.28-.86-2.1-2.6l.6-5.65Zm.96,5.67c-.08.78.2,1.05.7,1.03s.85-.34.93-1.12l.62-5.87c.08-.78-.2-1.05-.7-1.03s-.85.34-.93,1.12l-.62,5.87Z"/>
        <path class="cls-1" d="m68.88,24.44l-.83,7.87-1.41.08,1.15-10.87,1.97-.11.92,6.42.69-6.51,1.4-.08-1.15,10.87-1.61.09-1.12-7.76Z"/>
        <path class="cls-1" d="m74.7,25.68l2.16-.12-.16,1.55-2.16.12-.34,3.18,2.71-.15-.16,1.55-4.28.24,1.15-10.87,4.28-.24-.16,1.55-2.71.15-.32,3.03Zm2.97-7.01l-1.64,1.81-1.06.06,1.15-1.78,1.54-.09Z"/>
        <path class="cls-1" d="m82.42,27.47l-.15,1.44c-.18,1.74-1.09,2.78-2.63,2.87s-2.24-.86-2.05-2.6l.6-5.65c.18-1.74,1.09-2.78,2.63-2.87s2.24.86,2.05,2.6l-.11,1.06-1.49.08.12-1.16c.08-.78-.2-1.05-.7-1.03s-.85.34-.93,1.12l-.62,5.87c-.08.78.2,1.04.7,1.01s.84-.33.93-1.1l.16-1.55,1.49-.08Z"/>
        <path class="cls-1" d="m83.35,20.64l4.86-.28-.16,1.55-1.64.09-.99,9.32-1.57.09.99-9.32-1.64.09.16-1.55Z"/>
        <path class="cls-1" d="m92,30.95l-1.59.09-.06-1.96-1.93.11-.48,1.99-1.44.08,2.75-10.96,2.3-.13.45,10.78Zm-3.22-3.24l1.51-.09-.17-5.46-1.34,5.54Z"/>
        <path class="cls-1" d="m93.13,20.08l4.86-.28-.16,1.55-1.64.09-.99,9.32-1.57.09.99-9.32-1.64.09.16-1.55Z"/>
        <path class="cls-1" d="m99.47,24.28l2.16-.12-.16,1.55-2.16.12-.34,3.18,2.71-.15-.16,1.55-4.28.24,1.15-10.87,4.28-.24-.16,1.55-2.71.15-.32,3.03Z"/>
      </g>
      <g>
        <path class="cls-1" d="m60.08,40.85l-.16,1.37c-.2,1.65-1.12,2.63-2.69,2.72s-2.28-.81-2.08-2.45l.63-5.35c.2-1.65,1.12-2.64,2.69-2.72s2.28.81,2.08,2.45l-.12,1-1.51.09.13-1.1c.09-.74-.2-1-.71-.97s-.86.33-.95,1.06l-.66,5.56c-.09.74.2.98.71.95s.86-.31.95-1.05l.17-1.47,1.51-.09Z"/>
        <path class="cls-1" d="m61.11,36.83c.2-1.65,1.17-2.64,2.74-2.73s2.32.8,2.13,2.45l-.63,5.35c-.2,1.65-1.17,2.64-2.74,2.73s-2.32-.8-2.13-2.45l.63-5.35Zm.96,5.37c-.09.74.2,1,.71.97s.86-.33.95-1.06l.66-5.56c.09-.74-.2-1-.71-.97s-.86.33-.95,1.06l-.66,5.56Z"/>
        <path class="cls-1" d="m68.1,36.8l-.88,7.46-1.44.08,1.22-10.3,2.01-.11.92,6.07.73-6.16,1.43-.08-1.22,10.3-1.65.09-1.11-7.34Z"/>
        <path class="cls-1" d="m74.9,33.59l1.6-.09-1.04,8.83,2.64-.15-.17,1.47-4.24.24,1.22-10.3Z"/>
        <path class="cls-1" d="m81.07,33.24l-.94,7.94c-.09.74.2.98.71.95s.86-.31.95-1.05l.94-7.94,1.51-.09-.93,7.84c-.2,1.65-1.12,2.63-2.69,2.72s-2.28-.81-2.08-2.45l.93-7.84,1.6-.09Z"/>
        <path class="cls-1" d="m85.05,33.02l2.53-.14c1.6-.09,2.28.76,2.09,2.41l-.62,5.21c-.2,1.65-1.09,2.59-2.69,2.68l-2.53.14,1.22-10.3Zm1.43,1.38l-.87,7.35.9-.05c.51-.03.85-.31.93-1.05l.63-5.35c.09-.74-.19-.98-.7-.95l-.9.05Z"/>
        <path class="cls-1" d="m90.7,32.7l1.6-.09-1.22,10.3-1.6.09,1.22-10.3Z"/>
        <path class="cls-1" d="m97.06,38.75l-.16,1.37c-.2,1.65-1.12,2.63-2.69,2.72s-2.28-.81-2.08-2.45l.63-5.35c.2-1.65,1.12-2.64,2.69-2.72s2.28.81,2.08,2.45l-.12,1-1.51.09.13-1.1c.09-.74-.2-1-.71-.97s-.86.33-.95,1.06l-.66,5.56c-.09.74.2.98.71.95s.86-.31.95-1.05l.17-1.47,1.51-.09Z"/>
        <path class="cls-1" d="m100.67,32.01c1.56-.09,2.25.81,2.05,2.45l-.04.32-1.51.09.05-.43c.09-.74-.17-1-.68-.97s-.83.32-.92,1.06c-.25,2.12,2.83,2.34,2.49,5.28-.2,1.65-1.12,2.63-2.69,2.72s-2.28-.81-2.08-2.45l.07-.63,1.51-.09-.09.74c-.09.74.2.98.71.95s.86-.31.95-1.05c.25-2.12-2.83-2.34-2.49-5.28.2-1.65,1.11-2.63,2.67-2.72Z"/>
      </g>
    </g>
  </g>
</svg>