<?xml version="1.0" encoding="UTF-8"?>
<svg id="Capa_1" data-name="Capa 1" xmlns="http://www.w3.org/2000/svg" viewBox="0 0 699.51 187.67">
  <defs>
    <style>
      .cls-1 {
        fill: #fff;
      }

      .cls-2 {
        fill: #f50000;
        fill-rule: evenodd;
      }
    </style>
  </defs>
  <g>
    <path class="cls-2" d="m2.4,182.87c.25-.52,4.42-1.69,4.86-.97-1.51.2-2.95.35-4.86.97Z"/>
    <path class="cls-2" d="m2.13,152.25c-.93.96-4.3.9,0,0h0Z"/>
    <path class="cls-2" d="m18.3,180.14c.65-1.15,2.44-1.25,4.38-1.53-.73,1.05-3.09.79-4.38,1.53Z"/>
    <path class="cls-2" d="m17.06,152.44c.19-.32.29-.66,1.05-.83.8.2.09.7.34,1.2-1.51.43-.23-.56-1.39-.37Z"/>
    <path class="cls-2" d="m36.6,147.45c.02-.42,1.46-.46,2.05-.73-.09.72-1.17.44-2.05.73Z"/>
    <path class="cls-2" d="m44.53,174.3c-.02-.3,2.02-1.27,2.08-.55-1.01.01-1.01.23-2.08.55Z"/>
    <path class="cls-2" d="m35.61,138.31c-.34-.56,2.32-.84,2.2-.22-1.07.41-1.26-.07-2.2.22Z"/>
    <path class="cls-2" d="m47.76,173.26c2.21-1.32,2.14-.97,5.52-2.01-.8.95-3.36,1.43-5.52,2.01Z"/>
    <path class="cls-2" d="m54.34,175.02c.48-.54,1.46.29,2.78-.37-.58.64-2.34.6-2.78.37Z"/>
    <path class="cls-2" d="m57.76,174.67c-.02-.38,1.06-.46,1.05-.83.42-.05.37.36.49.61-.39-.05-.86-.01-1.54.22Z"/>
    <path class="cls-2" d="m56.76,169.96c1.29.44,2.97-.43,4.86-.92-.94.79-3.95,2.09-4.86.92Z"/>
    <path class="cls-2" d="m52.68,143.94c-.95-.01.16-.79,1.06-.83.67.55-1.28.4-1.06.83Z"/>
    <path class="cls-2" d="m63.74,161.66c-.13-.8,1.79-1.28,2.85-1.28-.42.82-2.1.43-2.85,1.28Z"/>
    <path class="cls-2" d="m65.82,165.72c.12-.21.76-.47.2-.42.18-.51,1.36-.2,1.34.21-.23.2-.63.36-1.15.48,0-.21-.15-.29-.4-.27Z"/>
    <path class="cls-2" d="m69.15,158.07c-.99-.02,1.66-.69,1.8-.45.1.13-.07.19-.25.25-.26.03-.26.14-.25.25-.49.05-.41-.47-1.29-.04Z"/>
    <path class="cls-2" d="m68.6,139.83c-.75-.16,2.17-.67,2.96-.93-.65.73-1.47.43-2.96.93Z"/>
    <path class="cls-2" d="m74.29,146.47c.4-.1.8-.2,1.2-.3.42.6-1.25,1.03-1.2.3Z"/>
    <path class="cls-2" d="m80.2,144.61c.31-1.1,2.11-.29,3.3-.83-.41.46-2.71.92-3.3.83Z"/>
    <path class="cls-2" d="m93.72,171.9c.86-.27,1.02.16,1.88-.11.09.55-1.85.72-1.88.11Z"/>
    <path class="cls-2" d="m97.62,147.38c.28-.62,1.88-.96,2.6-1.03-.52.44-1.82.66-2.6,1.03Z"/>
    <path class="cls-2" d="m102.12,146.24c.13-.64,2.65-.63,3.8-1.33-.39.64-3.25,1.24-3.8,1.33Z"/>
    <path class="cls-2" d="m114.76,168.41c.31-.5,2.16-.69,1.93.06-.99.32-.67-.65-1.93-.06Z"/>
    <path class="cls-2" d="m109.98,145.72c.08-.67,1.67-.92,2.86-1.26.35.38-1.97.78-.71.91-.28.53-1.4.08-2.14.36Z"/>
    <path class="cls-2" d="m115.2,143.71c.7.2-.04.37-.12.76-.57-.03-1.61.39-1.64-.16.27.03.54.06.95-.04.28-.19.21-.47.81-.56Z"/>
    <path class="cls-2" d="m114.85,143.6c.72-.7,2.02.11,3-.73-.15.92-2.38,1.09-3,.73Z"/>
    <path class="cls-2" d="m113.35,113.71c-.33-.67,1.41-.6,1.51-.36-.13.57-.82-.04-1.51.36Z"/>
    <path class="cls-2" d="m123.37,126.15c-.4-.6,1.85-.84,1.55-.19-.39-.06-.87-.03-1.55.19Z"/>
    <path class="cls-2" d="m127.33,116.75c.35-.37,1.44-.87,2.07-.68-.03.42-1.47.43-2.07.68Z"/>
    <path class="cls-2" d="m125.04,85.77c.14-.28.57-.48,1.13-.64.04.32.47.27.48.62-.3.07-.61.15-.91.22.36-.41.18-.46-.7-.2Z"/>
    <path class="cls-2" d="m149.85,129.47c3.95-1.47,8.15-1.88,12.69-2.84-3.81,2.75-8.66,1.32-12.69,2.84Z"/>
    <path class="cls-2" d="m142.26,99.95c-.22-.55,1.47-1.18,1.51-.36-.5.12-1.01.24-1.51.36Z"/>
    <path class="cls-2" d="m142.47,92.01c.1-.42,1.83-.61,2.12-.51-.33.63-1.37.18-2.12.51Z"/>
    <path class="cls-2" d="m147.97,98.39c.37-.37,1.09-.65,2.03-.86.41.6-1.38.57-2.03.86Z"/>
    <path class="cls-2" d="m151.38,95.36c-1.48,0,1.87-1.16,1.52-.35-.7.4-1.39-.22-1.52.35Z"/>
    <path class="cls-2" d="m153.5,94.88c-.24-.41,2.48-1.23,2.43-.56-.98-.03-1.07.33-2.43.56Z"/>
    <path class="cls-2" d="m162.97,127.08c-.29-.72,2.05-.67,1.89-1.35.74-.06,1.46-.09,1.68.35-.91.69-2.86.56-3.57,1.01Z"/>
    <path class="cls-2" d="m165.53,118.26c-1.24-.23,1.32-.65,2.03-.83.09.13-.08.19-.26.24l.09.35c-.65.23-1.77-.16-1.85.24Z"/>
    <path class="cls-2" d="m171.19,117.88c.35-.48.6-1,1.94-1.18-.77.35-1.02.86-1.94,1.18Z"/>
    <path class="cls-2" d="m168.79,100.69c.31-.33.96-.57,1.73-.76.22.53-1.17.93-1.73.76Z"/>
    <path class="cls-2" d="m167.01,91.04c.03-.2.57-.26.52-.48.68.37.86.22,1.65.17-.35.58-1.82.44-2.17.32Z"/>
    <path class="cls-2" d="m164.97,76.51c-.41-.6,1.39-.55,2.05-.84.08.5-1.19.61-2.05.84Z"/>
    <path class="cls-2" d="m196.58,157.21c.28-.5.79-.93,1.58-1.28.22.21-1.06.69-.17.59-.19.32-.66.55-1.41.69Z"/>
    <path class="cls-2" d="m181.46,91.01c.5-.45,2.84-.81,3.12-.35-.92,0-1.96.12-3.12.35Z"/>
    <path class="cls-2" d="m202.86,159.61c.12-.18.24-.35.17-.59,1.65.22,1.76-.11,3.93-.72-.6.98-2.76,1.32-4.1,1.31Z"/>
    <path class="cls-2" d="m203.08,152.79c.32-.65,2.23-.82,3.51-1.17-.66.62-1.71.66-3.51,1.17Z"/>
    <path class="cls-2" d="m207.64,158.51c-.41-.99,2.02-.22,1.37-.86-.07-.43.98-.26.94-.03,4.12-1.1,1.43.1-.26.24-.29.07-.18.26-.21.41-.88.34-.95-.1-1.84.24Z"/>
    <path class="cls-2" d="m189.57,80.91c.15-.42,1.08-.96,1.74-.76-.32.33-.97.57-1.74.76Z"/>
    <path class="cls-2" d="m192.91,88.01c1.13.49,2.19-.38,3-.87-.2.21-.23.47-.13.76-1.06.16-1.69.46-2.39.73-.28-.1-.42-.31-.47-.62Z"/>
    <path class="cls-2" d="m193.01,85.79c2.19-.75,3.99-2.55,6.17-2.33.06.39-1.27.37-1.78.59.16.49,1.34.02,2.21-.14-1.17.71-4.88,1.97-6.6,1.88Z"/>
    <path class="cls-2" d="m213.92,157.06c-.08-.5,1.17-.61,2.01-.82-.21.41-1.06.63-2.01.82Z"/>
    <path class="cls-2" d="m216.66,156.63c-.27-.51.51-.69,1.37-.85-.09.4-.3.76-1.37.85Z"/>
    <path class="cls-2" d="m218.68,155.82c-.22-.84,4.21,0,3.17-1.24.49.14.98.6.55.97-1.81.18-1.86.04-3.72.27Z"/>
    <path class="cls-2" d="m204.14,82.73l-.12-.52c.78.14,1.76.09,3.13-.32.21.44-1.74.21-1.09.78-.58-.03-.89-.32-1.92.06Z"/>
    <path class="cls-2" d="m211.5,111.78c1.06-.2,2.31-.57,2.55-.01-1.08.22-2.41.66-2.55.01Z"/>
    <path class="cls-2" d="m207.35,82.76c.35-.51.56-.46.1-.93.71.23,1.47-.23,1.44-.68.94-.3.32.83,1.39.43-1,.39-1.61.89-2.92,1.19Z"/>
    <path class="cls-2" d="m207.39,78.92c.15-.44,1.9-1.02,1.87-.22-.41-.12-1.13.04-1.87.22Z"/>
    <path class="cls-2" d="m210.67,81.85c.55-.5,1.3-.94,2.35-.88-.42.41-1.28.67-2.35.88Z"/>
    <path class="cls-2" d="m211.44,82.41c.22-.69.93-.71,1.79-.57.06.39-1.27.36-1.79.57Z"/>
    <path class="cls-2" d="m213.75,77.35c-.51-.08,2.71-.98,3.01-.84-.33.49-2.11.53-3.01.84Z"/>
    <path class="cls-2" d="m232.17,151.59c-.05-.39.67-.54,1.42-.67.34.48-.15.7-.05,1.11-.57-.04-.65-.53-1.37-.43Z"/>
    <path class="cls-2" d="m217.17,82.26c-.56-.5,3.27-1.6,3.53-1.32.1.11-3.13,1.01-3.53,1.32Z"/>
    <path class="cls-2" d="m217.17,67.48l.92-.2c.36.09.49.83-.41,1,.14-.55-.53-.35-.51-.8Z"/>
    <path class="cls-2" d="m236.57,147.53c.29-.34.08-.83,1.04-.96-.01.42,0,.85-1.04.96Z"/>
    <path class="cls-2" d="m240.47,146.68c-.14-.53.95-.66,1.68-.91.13.52-.95.66-1.68.91Z"/>
    <path class="cls-2" d="m226.43,78.05c.42-.46-.08-.22-.16-.7.5.11,1.39-.15,1.38.43-.41.09-.81.18-1.22.27Z"/>
    <path class="cls-2" d="m231.28,78.26c.18.27-.16.38-.53.48,0,.21.14.29.39.28-.89.83-1.27-.6.14-.76Z"/>
    <path class="cls-2" d="m228.93,69.65c1.62-.85,2.29-.1,3.93-1.04.28.9-3.39,1.34-3.93,1.04Z"/>
    <path class="cls-2" d="m233.19,78.21c.1-.56,1-.87,1.62-1.27-.15.2-.56.8.43.45.22.21-1.09.68-.18.59-.87.91-.85-.63-1.87.23Z"/>
    <path class="cls-2" d="m232.7,76.13c.44-1,3.2-.74,4.27-.93-1.64.94-2.64.11-4.27.93Z"/>
    <path class="cls-2" d="m250.36,145.79c.7-.64,2.07-.09,3.34-.55-.71.64-2.52.51-3.34.55Z"/>
    <path class="cls-2" d="m241.52,67.27c-.36.05-.33-.26-.43-.45.99-.08,1.9-1.01,1.36-1.03,1.38-.73,2.87-.49,4.54-1.17-.21.2-.24.46-.15.76-2.64-.17-3.26,1.2-5.33,1.9Z"/>
    <path class="cls-2" d="m245.66,74.02c.67-.52,3.13-1.21,2.21-.12-.54-.57-1.34.39-2.21.12Z"/>
    <path class="cls-2" d="m246.15,63.7c-.59-.44,1.87-.95,1.53-.32-.51.11-1.02.21-1.53.32Z"/>
    <path class="cls-2" d="m248.93,72.95c-.55-.19,2.37-.63,2.97-.98-.2.88-1.65.74-2.97.98Z"/>
    <path class="cls-2" d="m249.36,73.41c1.7-.68,4.39-.43,5.73-.1-1.26.69-3.56-.15-5.73.1Z"/>
    <path class="cls-2" d="m247.73,65.01c.03-1.05,1.91.25,1.75-.73.43-.03.36.38.47.63-1.17.02-1.43.04-2.22.1Z"/>
    <path class="cls-2" d="m250.4,71.01c-.14-.37,1.07-.31,1.49-.49-.09.58-.14.38.2.87-.73.03-.95-.41-1.69-.38Z"/>
    <path class="cls-2" d="m251.95,69.41c.21-.5,1.03-1.11,1.45-.67-.2.31-.69.53-1.45.67Z"/>
    <path class="cls-2" d="m255.29,69.99c.77-.57,2.74-1.51,3.59-1.11-.47.47-1.12.28-.45.82-.6-.3-1.87,0-3.13.29Z"/>
    <path class="cls-2" d="m270.59,106.14c-.36.05-.33-.26-.42-.46.93-.35,1,.08,1.59.03.06.63-1.41-.04-1.17.43Z"/>
    <path class="cls-2" d="m263.93,68.57c-.73-.82,5.43-1.96,4.66-.6-.37.05-.33-.26-.42-.46-1.13.61-3.08.28-4.24,1.06Z"/>
    <path class="cls-2" d="m276.79,106.86c.44-.3.8-.88,1.44-.66l.12.52c-.69.2-1.17.21-1.55.14Z"/>
    <path class="cls-2" d="m279.53,103.56c-.3-.16,2.13-.81,3.26-1.04-.51.54-1.93.77-3.26,1.04Z"/>
    <path class="cls-2" d="m290.79,139.45c.9-.18,1.12.24,1.92.15-.23.39-1.85.29-1.92-.15Z"/>
    <path class="cls-2" d="m285.83,104.8c.35-.53.55-1.11,1.93-1.31-.51.48-.85,1.02-1.93,1.31Z"/>
    <path class="cls-2" d="m280.11,63.76c.04-.42,1.49-.38,2.1-.62-.23.5-1.16.63-2.1.62Z"/>
    <path class="cls-2" d="m289.8,102.7c0-.38,1.09-.4,1.09-.77.25-.09.3,0,.34.11-.02.16.16.14.34.11-.18.39-1.22.75-1.78.55Z"/>
    <path class="cls-2" d="m303.22,137.42l-.12-.52c.8.06,6.09-1.36,2.14-.26-.62.28-.92.66-2.03.78Z"/>
    <path class="cls-2" d="m305.81,143.43c.28-.56,1.55-.69,2.36-.67-.14.44-1.67.42-2.36.67Z"/>
    <path class="cls-2" d="m302.37,99.37c-.07-.7,2.99-.97,3.6-.91-.43.34-2.77.29-3.6.91Z"/>
    <path class="cls-2" d="m313.06,142.12c.81-.29,1.27-1.01,1.77-.53-.56.5-.98.87-1.77.53Z"/>
    <path class="cls-2" d="m315.61,142.34l-.12-.52c.49.12,1.38-.11,1.36.46-.53.13-.68-.09-1.24.06Z"/>
    <path class="cls-2" d="m301.98,58.56c.18-.42.62-.77,1.72-.88-.08.46-1.07.62-1.72.88Z"/>
    <path class="cls-2" d="m319.39,133.79c-1.24-.18,1.08-.48.75-.87.54-.06.75.17.75.58-.7.37-1.36-.26-1.51.3Z"/>
    <path class="cls-2" d="m321.7,140.06c-.09-.74,1.08-.13,1.73-.7.04.17.08.35.11.52-.89.31-.95-.13-1.84.18Z"/>
    <path class="cls-2" d="m322.79,137.85c-.97-.19,2.19-.32,1.35-.99,1.55.06.05.97-1.35.99Z"/>
    <path class="cls-2" d="m326.7,139.99c-.03-.17.34-.21.56-.29.33-.1.13-.21-.04-.17.04-.25.72-.29,1.16-.41.31.59-.77.7-1.69.88Z"/>
    <path class="cls-2" d="m330.27,136.2c-.05-.23-.1-.46-.15-.69.44.16,1.35-.09,2.15-.24.1.57-1.28.64-2,.94Z"/>
    <path class="cls-2" d="m338.61,138.56c.94-.43,1.82-.88,2.86-1.29-.29.65-1.35,1.05-2.86,1.29Z"/>
    <path class="cls-2" d="m320.55,54.37c.27-.72,2.64-.42,3.98-.78.2.44-1.75.17-1.12.76-.92-.48-1.38-.07-2.87.02Z"/>
    <path class="cls-2" d="m368.66,132.58c-.05-.23-.1-.47-.15-.7-.01.48,1.94.42.94,0,.33-.66.81.23,1.54-.1-.42.39-1.28.63-2.34.79Z"/>
    <path class="cls-2" d="m384.93,129.57c.22-.41,1.08-.59,2.04-.74-.76.39-1.04.83-2.04.74Z"/>
    <path class="cls-2" d="m368.31,38.57c0-.38,1.34-.3,1.47-.63-.26-.12-.61-.16-1-.18.44-.62,1.66-.2,1.37.47-1.09.05-1.23.57-1.84.34Z"/>
    <path class="cls-2" d="m389.55,124.54c.15-.19.3-.38-.07-.35.6-.49.63.27,1.81-.33.06.45-.94.53-1.74.68Z"/>
    <path class="cls-2" d="m390.84,126.3c.35-.42,2.51-.69,3.02-.56-.35.42-2.52.69-3.02.56Z"/>
    <path class="cls-2" d="m391.59,123.81c.87-.35,1.93-.36,3.32-.61-.47.48-2.36.47-2.95.91,0-.21-.13-.3-.37-.29Z"/>
    <path class="cls-2" d="m407.71,127.89c.62-.61,1.88-.06,2.68-.67.17.99-1.7.47-2.68.67Z"/>
    <path class="cls-2" d="m407.37,126.14c-.48-.5.95-.31.47-.81.68-.18.43.44,1.01.36-.16.64-.54.19-1.47.45Z"/>
    <path class="cls-2" d="m408.83,128.77c.43.17,1.44-.15,1.88.03-.56.54-1.72.7-1.88-.03Z"/>
    <path class="cls-2" d="m412.8,125.18c.78-.6,3.77-1.32,4.49-.96-.14.38-.71.61-1.41.79,1.15-.68-2.72-.24-1.78.49-.79.19-.37-.64-1.31-.31Z"/>
    <path class="cls-2" d="m423.46,122.24l-.1-.53c1.09-.38.6.57,1.61.27,0,.42-1.31.33-1.51.26Z"/>
    <path class="cls-2" d="m429.23,123.05c.08-.98,1.69-.39,2.62-1-.07.62-1.99.57-2.62,1Z"/>
    <path class="cls-2" d="m430.88,126.75l-.1-.53c.3.36,2.06-.53,1.91.21-.6.1-1.21.21-1.81.31Z"/>
    <path class="cls-2" d="m429.16,28.81c.03-.47,1.34-.62,2.67-1.01-.06.32.3.29.68.24-.68.43-2.26.2-3.35.76Z"/>
    <path class="cls-2" d="m450.27,127.18c.35-.41,1.83-.42,2.34-.77-.11.65-1.59.78-2.34.77Z"/>
    <path class="cls-2" d="m460.92,23.51c.15-.38.74-.6,1.45-.78.52.63-.63.64-1.45.78Z"/>
    <path class="cls-2" d="m489.66,17.22c.15-.19.81-.4.25-.4,1.26-.72,3.38-.84,4.95-.77-1.8.47-2.95.62-5.19,1.17Z"/>
    <path class="cls-2" d="m490.68,19.4c.54-.56,1.68-.91,2.29-1.44-.12,1.05-.87,1.12-2.29,1.44Z"/>
    <path class="cls-2" d="m495.41,17.4c-.09-.2-.59-.06-.96-.04.26-.55,1.71-.66,2.01-1.21.55.03.26.37-.25.4.38.58.12.43.49,1.01-1.12.23-1.87.6-2.69.95-.48-.08-.74-.34-.77-.79.8-.72,1.61.2,2.16-.33Z"/>
    <path class="cls-2" d="m496.68,15.59c.29-.73,1.4-.43,2.1-.68,1.12-.4-.48-.95,1.24-.19-1.21.62-1.96.42-3.34.87Z"/>
    <path class="cls-2" d="m516.54,117.32c.06-1.18,1.4,0,2.36-.72.3.66-1.62.46-2.36.72Z"/>
    <path class="cls-2" d="m506.27,14.14c-.32-.19,2.32-.65,3.34-.87-.7.45-1.95.68-3.34.87Z"/>
    <path class="cls-2" d="m512.66,14.44c.64.24.78-.1,1.55-.23.42.66-1.73.99-1.55.23Z"/>
    <path class="cls-2" d="m516.27,16.96c.49-.38.81-.1,1.82-.46.39.6-1.57.57-1.82.46Z"/>
    <path class="cls-2" d="m539.45,117.1c1.12.18,1.34-.29,2.39-.54-.01.54-2.14,1.56-2.39.54Z"/>
    <path class="cls-2" d="m526.21,34.56l-.09-.53c.7-.53,1.81-.28,2.77-.42-.97.29-1.43.77-2.68.95Z"/>
    <path class="cls-2" d="m537.16,26.41c.02-.32.46-.48,1.17-.54-.02.21.12.3.36.31,0,.42-1.34.31-1.54.23Z"/>
    <path class="cls-2" d="m537.94,25.4c.48-.35,1.14-.11,2.13-.5.28.6-.82.67-1.76.81.02-.21-.12-.3-.37-.3Z"/>
    <path class="cls-2" d="m540.8,19.74c.92-.49,1.4-.55,2.66-1.11.16.14.32.28.68.26.19.41-1.42.1-.84.66-.97-.1-1.08.11-2.5.19Z"/>
    <path class="cls-2" d="m554.7,37.21c-.27-.95,2.06-.27,2.99-.96.02-.82-1.52-.28-2.21-.05.16-1.4,3.29.2,2.94-1.31.75,0,1.44.05,2.49-.17.4.6-1.17.41-1.79.61,1.25.52-.94.75.53,1.36-1.69-.12-3,.04-4.95.51Z"/>
    <path class="cls-2" d="m571.83,112.56c-.34-.99,1.59-.09,1.7-.96.65.23-.81,1.1.53,1.37-.94.8-1.3-.54-2.23-.41Z"/>
    <path class="cls-2" d="m580.19,108.68c1.48-.58-1.03-.72,1.65-1.31l.14.88c-1.07.21-.67.59-1.79.43Z"/>
    <path class="cls-2" d="m581.93,109.88c1.7-.58,1.94-1.74,3.99-2.18.04-.3-.34-.26-.39-.49-.67.33-1.66.54-2.34.87-.26-.48.58-1.76-1.49-1.59,1.36-1.15,2.52.93,4.71.42.12.76.72,1.14,1.46,1.42-.58.53-1.11,1.09-1.93,1.53-1.1.21-1.59-.05-1.93-.45-.66.54-.78.28-2.09.47Z"/>
    <path class="cls-2" d="m584.7,103.91c2.13-.43.29,1.08,2.29.76-.52.22-.76.57-1.43.74.15-.85-.89-.74-.86-1.5Z"/>
    <path class="cls-2" d="m582.04,24.92c.79-.6.18-.47-.16-1.06.56-.06.62-.31,1.21-.35-.48.42.5,1.41-1.04,1.41Z"/>
    <path class="cls-2" d="m583.26,14.49c.5-.44,1.76-.77,1.6.14-.93.26-.67-.4-1.6-.14Z"/>
    <path class="cls-2" d="m591.97,9.49c-.26-.61,2.72-.76,3.07-.58.73-.2.58-.75.77-1.18.87.26,1.21.92,1.79,1.39-.52.37-3.55.57-2.84,0-1,.17-1.82.45-2.79.36Z"/>
    <path class="cls-2" d="m599.51,27.93c.46-.53,2.15-.36,2.5-.14-.34.44-1.7,0-2.5.14Z"/>
    <path class="cls-2" d="m609.14,31.36c.97-.32,1.59-.78,2.67-1.06.07.93-1.5,1.04-2.67,1.06Z"/>
    <path class="cls-2" d="m614.65,55.63l-.08-.53c.46.04,1.55-.41,1.56-.02.4.55-.91.4-1.48.55Z"/>
    <path class="cls-2" d="m616.7,56.8c.04-.48.72-.7,1.43-.91,0,.54,1.22.45.46,1.02-.95.21-.77-.45-1.89-.11Z"/>
    <path class="cls-2" d="m628.79,105.02c1.43-.29,1.75-.73,3.03-.39-.04.24-.87.35-.91.12-.42.21-.92.39-.8.82-.78.08-1.21-.11-1.32-.55Z"/>
    <path class="cls-2" d="m629.53,105.83c2.05.59,5-.38,6.6.77-1.23-.23-5.69.37-6.6-.77Z"/>
    <path class="cls-2" d="m624.9,40.29c.64-.23,2.14-.63,2.2.08-.88.08-1.33-.16-2.2-.08Z"/>
    <path class="cls-2" d="m638.16,101.48c.12-.56.33-1.08,1.36-1.25.07.47.26.99-.12,1.27-.29-.1-.71-.1-1.24-.02Z"/>
    <path class="cls-2" d="m630.82,46.53c2.73-1.25,7.57-.74,9.16.62-2.44.11-5.28-1.17-9.16-.62Z"/>
    <path class="cls-2" d="m643.75,51.69c.22-.75,1.25-.14,2.43-.49,0-.39-.33-.53-1-.41.76-.63,1.79.18,2.25.44.31.51-.8.44-.49.95-1.43.12-2.11-.34-3.19-.49Z"/>
    <path class="cls-2" d="m656.55,89.46c1.37-.65,3.4-.11,4.64,0-1.34.62-2.82-.33-4.64,0Z"/>
    <path class="cls-2" d="m697.48,81.04c.12-.28.39-.5.52-.78.76.27,1.91.37,1.38,1.09-.93.12-1.23-.23-1.9-.31Z"/>
    <path class="cls-2" d="m13.11,187.67c-.48-.97,2.1-1.95,2.52-1.25-2.6.39-1.18.44-2.52,1.25Z"/>
    <path class="cls-2" d="m15.38,180.02c.13.53-1.83.93-2.33.83.04-.25.45-.41.45-.68.21.36.58.48,1.88-.15Z"/>
    <path class="cls-2" d="m54.62,178.27c2.72-.37,6.3-1.03,8.13-1.78,1.39,1.01,5.97-1.96,6.98-.18,1.22-.24.19-1.11,1.55-1.31,1.02.02,1.84.23,2.93.18.69-.78,2.54-.96,3.08-.41-.4.1-.19.37-.51.49-1.28-.27-4.26.65-5.37,1.36,2.17-.53,5.04-.82,6.86-1.74-.36.06-.84.24-.94.05.89-.18.81-.62,1.7-.8.29.33-.7.76.44.44.35-.27.46-.61,1.05-.82,2.08.02,5.16-.45,6.96-1.39,3.09.75,8.35-2.55,9.46-.37,2.3-1,4.74-1.69,7.25-1.47.56-.16.05-.62.76-.74,2.66.44,5.93-1.99,8.95-2.26,0,.73-3.03.59-1.91,1.22,2.04-.87,4.01-1.19,5.9-1.37,1.89-.18,3.68-.25,5.34-.67,0,.42-1.27.48-1.02.98.92-.27,3.02-.44,4.19-1.01.16.21.51.23.48.62,2.11-.94,4.21-.64,6.76-.9.31-.49-.94-.46-.18-.69.6-.14,1.19-.29,1.79-.43-.33.32-.23.74.48.62,2.48-.91,5.74-1.21,7.93-2.47-.73.86.82-.03.94-.04.05,0,.04.35.09.35,4.75-.28,13.54-4.16,15.88-3.65-.61-.28,1.05-1.42,2.26-1.1.34.42-.5.49-.42.84,3.57-1.05,7.39-1.87,11.35-2.73,3.97-.86,8.09-1.73,12.3-2.75-.24.01-.59.13-.64-.04,4.02-.68,5.82-.58,9.07-1.72,3.06-.4,8.62-1.89,10.23-2.17-.29-.04-1.8.03-1.03-.31,3.48.39,6.24-.29,10.74-1.37.54.75,3.79.07,3.6-.79-1,.11-1.5.38-1.72.74-.44-.16-1.59.34-1.37-.43,1.54-.32,6.28-1.56,4.03-.33,4.5-1.64,6.23-.67,10.25-2.06,1.14,1.52,6.44-1.09,6.29-.1,1.01-.67,2.73-.96,3.99-.51-2.49,1.01-4.36,1.08-5.88,1.83.98-.27,1.84-.43,2.18-.11,1.2-.86,2.56-1.07,3.9-.85-.23-.76,1.19-.37,1.5-.33.24-.64-1,.08-.76-.56,1.89-.72,4.34-.98,6.43-.86-.55.15-.97.34-1.12.61,1.62-.62,3.72-.1,3.82-1.2-.65.03-1.92.65-2.14.29,2.1-.77,3.72-.9,5.18-.77-.4.06-2.18.45-1.16.44,1.43-.14,1.76-.62,2.62-.94,3.31.6,5.4-.32,8.69-.62.27-.71,2.11-.91,3.49-1.27.04.24.23.35.42.46.19.44-1.14.38-.74.88,1.23-.21,3.9-1.06,5.83-.66.67-.51,4.22-1.67,4.89-.65-2.07.59-3.87,1.17-5.11,1.06-.19.65-6.27.95-5.55,1.88-.32-.2-.58-.46-1.32-.27-.37.37-1.25.8-1.86,1.48-.14-1.27-1.66.98-2.22-.06-1,.06-.52.59-1.08.78-.85,0-1.3-.35-2.26-.24-6.52,2.82-14.6,2.95-21.25,4.83,1.55-.16,3.44-.64,4.36-.23-.51.16-1.61-.16-1.8.39.56.05,1.51-.27,1.88-.05-1.55.65-2.84-.04-3.38.37,1.75-.29.07.67.16.69.65.17,1.46-.5,2.52,0-.01-.34-.43-.31-.47-.63.63-.08.7.34,1.32.26,3.76-2.68,10.64-2.46,15.34-4.45.46.84,1.41.14,1.2-.26,1.41-.03,1.71.29,2.34.58.98-1.44,4.92-.96,6.44-2.11,2.08.67,6.02-1.4,8.11-1.68-.24.01-.38-.07-.38-.29,1.05-.29,1.65-.62,2.44-.32-.61.57-.62-.14-1.54.14,2.44.79,5.68-.89,8.87-1.11.41-.35,1.09-.61,1.68-.9.67.37,2.31-.13,3.69-.4.12-.55.55-1,1.95-1.13-1.81-.88-4.57.02-6.47.62.9-.88-.79-.66.33-1.34,1.08.79,5.72-.89,7.03-.91-.59.05-1.31.21-1.32-.27.9-.2,2.47-1,3.31-.69-1.53.19-1.03.86-2.1.44.69.42,1.51.73,2.68.72.1-.58-1.08,0-.8-.75.3-.06.33-.22.56-.3.52.4,3.33-.49,2.6.37,2.13-.74,5.41-1.27,6.51-.44,3.57-1.15,6.33-2.28,10.11-2.62.11.25.03.66.46.64.15-.43.96-.64,1.35-.99.22.59.81-.18.98.17-.42.13-.26.45-.49.64.69-.19,1.16-.2,1.54-.12.11-.58-1.08-.01-.79-.75.76-.12.87-.46,1.43-.64,1.3.42,2.89-1.08,5.16-.83-.05.25-.36.42-.15.76,1.09-.27.9-.99,1.92-1.29-.02.27-.43.39-.49.64,1.23-1.56,5.1-.85,6.06-1.01-.34.02-.78-.14-.38-.29,4.94-.62,9.03-1.81,13.56-2.66.07.19-.38.36.07.35,2.01-.55,12.06-4.55,10.55-2.07.24,0,.59-.11.64.06-.35.1-.86.14-.87.35.99.09,2.6-.78,3.84-1.12.35.17.61.43,1.05.52,1.99-1.65,3.89-.01,6.07-.95.19.44-1.14.35-.76.86,2.81-2,8.28-1.74,12.53-3.04.19.45-1.72.15-1.1.75,3.04-1.06,9.05-1.54,12.91-2.75-.82.7,1.16.04,1.35.48-2.42,1.66-5.46,1.12-8.84,2.72.22.22-.17.97.48.82.65-1.8,4.59-1.52,6.99-2.56.19.25.98-.03.75.59,2.14-1.44,6.82-2.05,10.52-2.13.74-.93,2.98-.43,4.46-1.19-.6.38-.28,1.09-1.3,1.33-.44-.39.78-.93-.44-.65-.14,1.36-4.22,1.21-4.95,1.82.78-.1-.36.38.14.7,1.2-.72,2.47-.42,3.51-1.19.78.41,3.39.47,1.81-.33,1.23.83,3.49-.43,4.74.21-3.31.47-4.36,1.49-6.8,1.98,1.54.34,2.29-.14,3.69-.32.06.24-.07.41-.2.58,4.38-.73,7.27-1.4,10.77-.83,0-.21-.15-.49.2-.58,2.08.39,5.62-.55,7.62-.96-.37.04-.73.07-.67-.24,1.32-.24,2.87-.67,3.12,0,.68-.19.14-.82,1.07-.91,1.01.23,1.56.85,2.69.98-1.08-.52,3.89-1.75,2.75-.3,1.91-.21,2.84-.91,4.33-.21.5-.42.89-.87,1.64-1.19-.52-1.64.08-1.95-.3-3.2-1.54.65-2.68,1.07-3.42.05-.25.53-2.68.92-3.32.58-1.85,1.46-4.96.46-8.19,1.24,0-.88-1.05-.03-1.68-.61,1.08-.26,1.98-.58,2.96-.87-.33.62.18.67.81.94.32-.59,1.89-.72,2.42-.42.22-.79-1.33-.09-1.64-.44,1.12-.46,2.51-.82,3.49-1.33.77.88,2.99.43,4.33-.21.68.3.69.36.17.87,2.65-1.25,6.13-1.6,8.19-1.24.56-1.42,3.31-.16,4.23-.73-.45-.02-.79-.14-1.01-.37.95-.03.83-.45,1.78-.49.06.7,1.24.44,1.98.56.23-.37-1.01-.43-.13-.7,2.59-.25,3.58-.28,5.41-1.12.37.53.21,1.07,2.01.74-.08-.3-.04-.56.17-.75-.79-.1-1.16.73-1.51.26,1.7-.66,3.18.28,4.47-1.11.47.08,1.2-.05,1.04.55-.6.02-.36-.64-1.31-.33.52.75-1.02,1.01-1.96,1.22,1.98-.25,3.51,1.46,4.07.06,3.08-.06,5.23.33,8.49.43-.02.26-.44.38-.51.62,1.66.11,2.39-1.31,2.76-.27-1.47.26-3.27.4-3.87.99.57-.07,1.03-.05,1.28.15-1.41-.2-.16.72-2.66.79.37.63-.79.68-.72,1.2.77.16,2.06-.09,2.55.31-2.26.89-3.73,1-5.21.48.42-.17,1.6-.05,1.48-.42-1.65.37.95-.79-.7-.43-.77.87-1.84,1.06-2.83,1.54.48-.81-1.29.69-1.91-.23-.49.25-.5.68-1.08.9-2.55-.71-7.1.23-9.59.4.49.13,1.38-.08,1.34.49-.3.05-.33.21-.57.28-1.08-.62-2.93.6-3.49-.3-1.55.29-1.46.44-2.45.24-.2.43.31.79-1.38.96.02-.37.75-.48.77-.86-2.39.34-6.58,1.74-8.22,1.06-3.42,3.38-10.3.67-13.11,3.18-.05-.23-.56-.07-.67-.25.8-.03,1.07-.26.8-.68-1.52.32-1.48.24-3.69.28.64.89,2.95.35,3.93.95-.58.44-2.19.5-3.29.75.49.44,3.2-.01,4.03-.16.04,0,.05-.59.5-.63.43-.03.87.36,1.31.32,2.05-.18,4.83-1.57,6.1-.7-1.08.09-1.53.42-1.71.84,4.97-1.26,8.17-1.28,13.88-2.41.04.18-.2.25-.23.4,1.89-.74,4.17-.45,6.23-1.63-.02.26-.44.38-.51.63,1.24-.36,2.21-.82,3.19-1.28-.56.53,1.11.41,1.4.84-.12-.37.14-.6.81-.68.71.14-.3.49.4.47,1.51-.48,3.26-.87,4.4-1.49.08.31-1.44.86-.44.98,1.73-1.22,7.04-.77,8.86-.9-.93-.07.84-.71,1.17-.37.32-.5-1.29-.35-.43-.65.53.62,2.43-.2,2.82.08.58.55-1.01.27-.81.68,1.3.2,2.77.26,4.39.19-2.7,1.22-8.52.75-12.25,2.71.33.37,1.3-.36,1.78-.47.41,1.12,1.07-.07,1.91.23-.5,1.54-3.26.43-4.47,1.09.37-.04.73-.07.67.25-.3.05-.33.2-.57.27-1.91.18-5.36.13-5.39,1.09-1.49.17-2.86-.82-4.08-.19,1.62.05,3.14.18,3.91.95.02.25-2.15.48-1.14.56,2.09-.94,2.92-1,5.03-1.41-.28-.25-1.47.29-1.3-.32.92-.11,2.31-.58,2.48-.05-.83.42.62.85.7.43-.85-.02.14-.69.48-.8.11.25.76.04,1.24-.02.03.31.17.54.43.65.94-.13,1.4-.45,2.05-.69,4.04.34,9.13-2.43,12.92-2.46-.18.04-.35.08-.27.22.51-.87,2.48-.58,2.29-1.09.37.11,2.07.13,2.15-.17-.24-.27-1.43.25-1.57-.11.03-.21.28-.33.54-.45.88.35.97.09,1.81-.29.33.13.66.26,1,.38,1.84-.57,2.66-.64,4.47-1.09.06.24-.07.41-.21.57.77-.31,1.5-.43,2.14-.17-.84.33-1.44.76-1.96,1.22,1.27-.5,3.44-.66,3.77-1.51-.56-.02-1.16.72-1.51.25.9-.31,1.67-.67,2.29-1.09.01.32.37.36.96.2-.59.55.52.91,1.13,1.08.09-.67-.77-.57-.82-1.13,1.43-.08.27-.33.85-.5,1.53-.33,1.83.36,3.14.21-.26.61-1.46.87-1.93,1.4,1.72-.17,1.74-.97,3.2-1.24.04.44-.48.64.43.65,1.72-1.39,5.65-1.67,8-2.19-.48-.37-.86.45-1.24.01.03-.26.63-.3.85-.49.24.4,1.23.2,1.09.92,1.59-.88,3.53-.63,5.68-1.22.33.22.96,1.2,1.64.47-.37.03-.73.06-.67-.26,1.25-.36,2.14-.5,4.2-.81.41,1.2,2.88.73,4.23,1.16.63-.35-.45-.37.21-.57,3.24.39,5.11.02,9.28-.14-1.93.58,1.93-.05.72.61,1.27-.58,3.63-1.22,4.47-1.04-.47.2-.63-.76-.12-.71.67.22.19.64,1.27.17-.07.66.28.97,1.09.92.4-.17-.07-.68.49-.79.98.14,1.2-.03,1.87.08-.42.16-.69.38-.82.66.98-.27.55.29.39.48.96.02,1.9.05,2.54.34-.15-.86-.98-1.18-.32-1.93-.97.05-.97-.68-1.41-1.05,4.45-.76,10.47-1,14.53-.19-.5.65-.4,1.17.56,1.54,1.28-3.58,7.69-.56,11.36-2.49.27-1.04-.43-1.04-.64-2.07,2.41-.18,2.8-1.18,3.71-1.96,1.75-.56,2.54-.5,4.49-.99.07.21.16.4.66.27.8-.28-.86-.21-.44-.84,2.05-.41,2.29-2.15,4.32-2.05-.75-.88-.23-1.54,0-1.98.04.23.88.11.91-.13-.5.01-.02-.25.58-.26-.6.37,1.72,1.12,1.9.27-1.13-.19-3.09-.23-2.37-1.29-1.06.24-1.58.07-1.9-.27.32-.31.68-.6,1.1-.87-.33-.33-.93-.45-1.35-.71,1.28-.73,4.65-1.72,6.4-.72,1.18-.4,2.28-2.12,3.56-1.04-.41.11-1.35.55-1.68,1.14,1.21-.16,2.6-1.48,3.61-.69-2.33,1.5-6.21,2.73-9.79,2.81,2.37.67,6.41-.7,9.32-1.85,1.34.23,4.17-.36,5.71-1.16.72.02.9.47,1.63.49,2.28-.39,7.24-2.72,7.34-.63,1.12.13.09-.62.83-.65.56.09,1.11.19,1.05.76-1.36.98-3.06,1.82-4.78,2.64-1.72.83-3.47,1.68-4.94,2.62.9.34,2.18.38,2.36,1.29,6.74-.87,8.56-5.39,15.47-6.16-1.25-1.52,1.5-2.61-.28-3.92.53-.05.94-.16,1.19-.33-.54-1.37-1.2-2.28.11-3.43-.05-.29-.86,0-.97-.23,1.02-.13.72-.81,1.06-1.22-.23-.22-1.17.12-1.27-.19-1.84-3.74-4-5.47-7.3-9.3-2.52-.54-3.83-2.02-6.3-2.6.65-.81-1.69-1.31-.96-2.21-.69.14-1.15.11-1.27-.19.7-.04,1.14-.19,1.17-.51-1.47.34-.69-.74-.75-.8-1.07-1.26-3.74-2.01-4.59-3.51,3.17-1.11,6.68.79,9.27-.51,1.16.35,2.93.23,3.3,1.19-.96.16-1.81.36-1.73.94,2.19.4,4.5.72,7.54.46.67,1.51,4.59.52,6.95.72.05.35-.8.33-.51.79,3.23-.68,7.38-.85,10.79-.68,1.5,1.9,8.3.59,8.78,2.64,1.49.02,3.1-.05,3.81.58-.29.93-1.32,1.55-.84,2.8.92.85,3.46.46,4.79,1,0-.67,1.77-1.47,2.95-1.08-.16.38-.87.51-1.12.85,1.34.92,1.18,1.83,2.26,2.79,1-.18,2.51-.59,2.82.21-.53.17-1.34-.37-1.53.18.98-.09,1,.55,1.93.49-.16-1.18,1.21-.19,1.83-.22.82-.5-.27-.85.41-1.48,3.8-.57,6.97,2.5,9.36.51-.42-.2-1.35-.02-2.16.07-2.19-1.27-5-2.06-7.83-2.85.06-.25.39-.39.21-.74-1.04.22-1.56.66-2.67.85-.46-.3-.94-.59-2.21-.28,1.14-.96-1.04-.66-1.11-1.31.95-.38.82-.44.46-1.13.61-.07.32-.53,1.17-.5,2.79.1,6.02.32,9.61-.06-1.47-1.03-4.49-.89-6.7-1.36.23-1.63-.97-1.97-2.89-2.89-1.02-.1-.15.6-1.17.5-1.14-1.68-4.23-2.7-3.8-4.93,3.81-.32,3.48-2.4,7.4-2.67-.05-.8,1.09-1.09,1.31-1.77-.14-.35-.68-.4-1.02-.6.14-.5.83-.76,1.41-1.06.66-2.45-3.28-1.43-3.56-3.17,2.61-.77,6.59-.97,8.43-2.07-1.21,0-1.85-1.14-.86-1.69-1.76-.36-2.16-1.75-4.02-2.04-2.92,1.24-2.49,3.24-5.92,4.47-2.38-2.62-11.34-1.08-14.22-1.27.4.02.66.15.69.45-1.46.34-2.19.12-3.11.04.32.68-1.48.5-1.74.95.47.1,1.01.14,1.02.59-4.8.52-7.28,1.94-12.07,2.81-.02.21.13.49-.23.57-6.53.67-10.73,2.1-16.67,3.23-.01.21.13.49-.23.57-1.3-.16-2.93.07-3.72.12.24,0,.37.1.36.31-2.39.15-5.1.71-7.39.9-2.29.19-4.15.03-4.82-1.2.47.14.78.09.89-.3-.92-.15-2.58-.5-1.78-1.37-1.53.43-2.73-.46-2.05-1.15-.14-.23-.49-.28-.42-.66-1,0-.66-.06-1.19.35-.02-.24-.21-.37-.39-.49.48-.08,1.06-.12.86-.48-2.05.44-.54-.73-1.42-1.06-1.15.25-.58,1.2-2.31,1.22.65-.49-.21-.67-.19-1.23.19.03,1.25.27,1.22-.17-.79.09-.59-.59-1.06-.75-.53.06-.95.17-1.2.35,1.02-.8-1.58.24-1.05-.75,2.1.18,3.77-.36,5.79-.99.98,1.08,4.53.13,5.51,1.21-.35.14-.66.28-.86.48.69.04.86.51,1.36.71,3.3-.7,4.16,2.08,7.78,1.8-.07-.96,1.47-1.19,2.95-1.1-.14-.88.89-.79,2.06-.8-.92-1.57,2.38-2.18,1.05-3.37.44.18,1.17.09,1.2-.33-.27-.25-1.49.23-1.31-.37.02-.27.72-.26,1.2-.33-.44-1.83-3.98-1.26-5.36-2.36,4.67-1.63,7.32.65,11.2-.37.03.23.07.47.1.7,3.8.15,3.3-2.76,6.46-2.81,1.44-1.29,3.44-2.34,6.11-3.12-.31-.19,1.85-.78,2-1.33,5.11-.67-.42-3.34.28-4.53-1.08-.55-2.47-.85-3.08-1.76,1.13-.17.84-.44.23-.57l1.23-.16c-.24-1.1.86-1.28-.57-1.72-2.95.91-5.83.5-7.34-.85.48-.08.17-.48.87-.47.15-.84-1.6-.22-1.7-.86,2.15-.02,2.59,1.28,4.59,1.38-.32-.47.37-.51.18-.92-.59.03-.65.29-1.2.34.55-.42-.7-.46-.77-.98-1.33.2-1.18-.14-2.54-.21-.08.32-1.72.82-2.13.45,1.94-.18-.58-.42.82-.83-2.68.06-3.52-.32-5.03-.07.99-.37,1.68-.86,1.64-1.65-.81.23-.65-.29-1-.41-3.97.15-5.82-1.43-10.54-1.16,1.08-1.12,3.98-.9,6.98-1.62.42-.6,1.23-1.04.97-1.92-3.3.58-7.7-.29-11.13,1.26-2.23-.85-6.82,1.5-10.45,1.61-1.43.04-4.77.57-5.38,1.83-4.37.52-8.87,1.71-14.39,2.55-.43-.41.83-.89-.42-.66-1.44,1.14-5.14,1.08-6.63,1.83,5.23-.59,9.94-.85,15.17-1.58.11.24.55.23.7.44-3.37.1-7.38,3.32-6.94,1.87-.28.27-1.7-.24-2.83.03-.51,1.68-3.2.43-5.2.91.17.45-1.17.31-.81.83.18.52,1.27.33,1.4.88-1.69,1.49-3.85.94-6.68,1.48-.16-.24-.42-.25-.09-.53-.72.23-2.85.92-2.83.04,1.47-.55.55,0,1.57-.04.52-.72-.2-.99-1.12-1.1.87-.48.67-1.38,1.93-1.71-.58.06-1.05.03-1.29-.18.16-.43,1.11-.55,1.09-1.05-1.11.37-2.56.44-4.06.21.17.93-1.82.88-2.38.87.31-.55,1.17-.76,2.1-.65-.7-.72,1.19-.41.78-1.01-1.27-.09-4.29,2.56-6.1,1.22,2.8-.11,3.17-1.16,4.75-1.75.6-2.47-2.99-1.26-5.02-1.81-2.6.64-6.71.22-8.64,1.13.99.07,3.05-.56,3.53.37-.5.97-1.89-.16-2.09.68,1.39.03,1.9-.47,2.55.16-.41.06-.23.35-.55.44-1.28-.02-2.77-.32-2.67-.86.19.54-.96-.31-.89.32.48.08.54.5.76.79,1.51-.27,2.53-.16,2.92.46-2.1,1.26-4.09.53-5.67,1.94-.33-.35-2.33-.38-2.82.07.55-.1.75.07.7.44-4.6-.07-7.16.41-11.22.79,1.03-.68,1.7-.51,2.99-.99-.67-.19-1.66-.14-2-.6.97-.52,1.77-.96,1.64-1.51,1.68-.39,2.66-1.19,4.56-1.05-.78-.67-2.15-.04-3.11.29-.03-.18-.28-.17-.37-.31,1.32-1.17.54-1.84-.23-3.21,6.19-1.87,11.74-.55,17.89-2.52,2.3-.18,4.82.47,8.16-.27-.06.44.63.3.45.84,2.65-.81,5.27-.62,7.2-.29.09-1.25,2.67.02,3.67-.69.16.23.42.25.08.53,2.18-1.44,4.11.58,6.87-.42-1.34.06.99-1.12-1.37-.71-.36.46.9.55.11.71-.09-1.08-2.6-.5-3.67-1.29-1.56,1.23-3.44.52-5.86.82-.29-.31-1.01-1.31-1.68-.66,1.24-.26-.14.65-.17.92-1.77.26-3.47-.07-5.05-.01.43-.9.42-.62,1.79-.61-.13-.65-.43-.45-.17-1.06-1.46-.02-1.45.53-2.07.83.25-1.23-3.62.04-4.8-.41.12.37-.16.59-.84.66.08-.27.32-.35-.09-.53-5.89.92-11.18,2.31-16.6,2.69-1.7.85-6.87,2.16-6.9.32-6.59.03-13.05,1.79-20.14,2.33-2.18,1.23-5.14,1.47-7.33,1.48.32,0-.58.51-1.2.38-2.32-.5,1.34-1.53,3.17-1.77-1.59.31-.21-1.16.03-1.63,3.37-.97,6.17-1.35,9.09-2.28.81-.05,1.02.38,1.94.25,1.18-.89,2.78-.07,4.35-.48.89-.23,1.42-1.09,2.31-1.25,1-.18,2.03.42,2.9.28.52-.08,1.36-.52,1.79-.63-.05.01-.15.38-.25.4.92-.14,1.29-.7,2.07-.85.14-.03.32.47.4.48,1.17.13,2.38-1,3.58-1.26.98.37-.91.96.46.83-.02-.61,1.3-.71,1.7-1.16,1.04.84,3.46-.61,3.23.41,2.04-.64,5.66-1.62,7.59-1.87-.36.02-.38-.23-.4-.48,2.32-.33,3.07-.46,4.26-1.01.03.18-.21.25-.25.4,3.46-.64,6.43-1.16,8.64-1.25.27-.27.42-.6.81-.83.85.35,1.02.12,1.51-.39.68.24.53.98,1.35.53-1.13-.35,1.12-.75,1.74-.96.06.35.88.11.73.62.16.39-.86.32-.84.66,2.03-.34,1.93-.86,1.93-1.71-.78-.18-2.02,0-2.87-.14-.42,1.08-3.83.94-4.63.65.41-.06.23-.35.56-.44.08.2.03.5.4.48,1.62-1.34,3.65-1,6.12-1.22-.84-.59.5-.62.42-1.32-2.44.35-4.89.75-7.11,1,1.03.21-.82.65-1.12.88-.64-.17-2.47-.44-2.87-.14.37-.02.38.23.4.48-1.42-.61-3.25-.01-5.05.02,1.95-.2.99-.49,2.38-.9-1.39-.03-2.19-.14-3.06.64-.03-.17-.06-.35-.09-.53-2.8,1.02-7.5.55-11.11,1.68-.08-.2-.03-.51-.4-.48-3.12,1.14-8.05.67-9.54,1.62-.23-.64,1.25-1.12,2.07-.85-.41-1.19-2.04.02-2.81.24.05-.01-.11-.34-.06-.35-1.19.37-1.61,1.24-2.91,1.52-1.66.36-2.28-.49-4.41.12.79.73-2.27.4-3,.99,3.34-.41-3.58,1.39-3.77.21,1.04-.1,1.1-.57,1.76-.81-1.68.33-.93-.05-1.39-.69-1.33.4-1.59-.07-2.53.02.24.54,1.47.29,2,.6-.43.06-.66.19-.89.32-.76-.11-1.38-.92-1.92-.07-.03-.31-.16-.54-.43-.66,4.9-1.16,6.67-1.71,11.42-1.73,2.69-.95,5.82-.27,8.59-1.66.09.33,1.04-.03,1.01.39,3.76-1.09,8.18.11,11.12-1.68-.88.1-2.09.47-2.22-.02.97-.1,5.21-1.37,4.44.05.72-.22,1.37-.47,2.44-.55.35-.81-1.6.21-1.63-.29,1.38-.29,4.44-1.1,5.64-.31,5.63-.86,9.87-1.68,13.72-1.22.04-.94.68.32,1.3.18.75-.34-.42-.82.17-.92.31-.04.35-.19.59-.26,1.17-.32,1.17.28,1.94.27.3-.54,1.85-.59,3.04-.79.45,1.29,2.55.14,3.79,0,5.09-.52,11.88-.85,15.88-1.5-3.23-.06-4.21.52-6.94.07-3.57,1.22-8.38.83-12.4,1.55-.02-.45-.57-.48-.76-.79.32-.31,1.12-.44,1.46-.74-1.25-.21-4.38,1.34-6.55.56-.08.61-1.13.42-1.83.44-.81,1.34-5.48,1.92-7.28,1.92.02-.34,2.81-.42,1.8-.61-.92.13-1.88.28-1.94-.27.53-.18,1.85-.04,1.83-.44-1.03-.12-2.99.49-2.65-.71-1.32.05.53.61-.81.83-.09-.13-.29-.17-.65-.09-.53-.75.42-.93.73-1.36-1.46-.28-1.43.46-1.46.74-1.04-.33.7-.78-.17-1.05-1.37-.11-2.79.02-3.46.15.35-.02.51.12.68.26-.57-.02-1.2.71-1.55.23.36-.08.88-.1.9-.32-1.8-.22-4.54.63-5.71-.04-.72.35.64.45-.19.75-1.73.51-1.7-.37-2.9-.28-.13.28.51.85-.16.92-1.11.08-2.93.74-2.87-.11.31-.18,2.33-.51,1.49-.59-1.68.6-2.96.4-3.59,1.26-1.28-.02.07-.98-1.1-.91-.41.17.07.68-.5.8-.46-.26-3.85-.51-2.22-.03-1.33.04-1.58.1-3.43.34,0,.27.22.63-.19.75-5.28.14-9.62,1.61-14.28,1.8-.07.32.54.38.09.53-1.78-.02-3.24-.05-4.3.83-.05-.24.08-.41.22-.57-1.21.51-2.91.37-4.08.26.73-.83,2.42-.47,2.57-1.65-2.12.42-2.81,2.02-5.35,2.07-.35.47.91.54.13.7-.98-.08-1.23.05-1.83.46-.08-.6-1.02-.51-1.7-.63-2.35,1.05-4.91.24-7,1.68-4.99.32-12.16,1.64-15.98,2.96-.35-.38-1.76.09-1.7-.63-1.65.93-2.82,0-3.95,1,.38-.04.74-.06.68.25-.71.27-.8.24-2.13.53-.08-.27-.07-.61-.71-.43-.79,1.29-3.46.57-4.97.63-.03.36.48.28.72.43-1.18.29-3.4.77-3.83-.1.75-.32,1.22.58,1.58-.07-.44.02-.42-.33-.71-.42-3.17,1.55-7.88,1.96-10.08,2.19-.81.08-1.08.75-1.44.79-.97.13-1.87-.52-3.48.06.3-.11-.44.06-1.23.21-.3.06-3.46.99-4.38.4-.21-.42,2.36-.66,1.44-.79-1.1.25-1.43.53-2.46.43.41.86-1.48,1.01-2.09.72.93-.43,2.3-.7,2.61-1.36-1.86.61-5.29,1.99-5.34.38.03.18-.5.31-.62.11,1.17-.65.6-.94,1.62-1.55-3.69,2.2-7.37.28-10.55,3.1-.14-.32.27-.45.17-.75-.96.15-.77.7-2.09.72,0-.34-.42-.33-.44-.65-.79.21-1.67.38-2.09.72,1.35-.31,2.01-.05,2.33.5-2.1.09-2.95,1.06-5,.51,1.26-.04.83-.68,2.09-.72-.38-.36-.32-1.09-1.44-.84,0,.27.24.63-.17.75.05-.83-4.02-.37-5.75-.09-.2.71.86.37.82.94-.4-.14-1.13,0-1.88.15.56-.54.37-.45.1-1.1-1.02.02-.31.65-1.13.74-.09-.67-1.69-.08-2.02-.55-1.24.82-1.72.4-1.61-.08-1.08.68-1.57.6-2.29,1.3-.58-.26-.01-.23-.14-.7-1.29.41-1.17.31-2.19.2-.44.28-.66.64-1.09.92-.62-.25-1.27.11-.41-.47-3.46.27-4.2,2.47-5.91,2.36.06,1.33-1.45,1.08-2.7.86-.34.48.92.51.14.7-.93-.23-1.63-.05-2.8.34-.37-.51.38-.63.44-.99-.63.41-1.67.27-1.81.51.46.02.81.13,1.03.35-.73.13-.85.47-1.81.52-.04-.18-.07-.35-.11-.53-2.41,1.44-6.22,1.23-7.2,2.24-.96.34-.73-.34-1.34-.3.03.24.22.36.41.47-.68.54-4.57-.13-2.46.45-1.47.2-2.04-.41-2.84.16.73-.08.81.34.11.52.39-.34.12-.6-.72-.41-.23.35-.89.56-1.43.81.73-.63-1.48-.05-1.88.17.25,0,.61-.11.65.06-.6.18-2.19.85-2.77.51.14-.28,1.18-.25,1.16-.58-1.1-.12-1.32.49-2.39.8-.69-.96-2.9,1.35-3.49.1,2.6.22,3.74-2.32,5.5-1.2-.15-1,1.01-.59,2.32-1.15-.47-.49.4-.51.47-.81-1.45.12-.84.36-1.16.58-.33-.13-1.14.16-1.03-.35.36-.09.88-.13.89-.35-1.24.37-1.93.28-2.26-.12-1.53.7-2.76.42-6.12,1.31-.51.41.53.46-.47.81-4.16-.05-7.51,2.13-10.68,2.37-.52.65.78.89-.7,1.23-.81-.1-.67-.49-.53-.99-2.67,1.24-4.71.54-7.71,1.33-.96,1.73-5.48,1.12-7.11,2.66,1.37-.52,3.2-.89,4.06-.43-1.02.86-4.58,1.76-4.37.49-1.55.95-3.27-.11-3.61,1.07-.58-1.04-4.06-.31-5.98.44.28-.11-.49-.11-1.27.07-4.03.92-9.09,1.64-12.73,3.22-.09-.27-.09-.61-.73-.4.06.45.14.91-.73,1.05-.28-.34.75-.72-.42-.46-.23.35-.85.7-1.5.47-.62.38.48.35-.19.58-.58.09-1.05.09-1.3-.11-.03-.28.75-.29.5-.64-1.04.6-1.34.49-2.64,1.07.07.61,1.03-.23,1.38.45-6.1,3.55-14.17,4.58-20.99,6.34-.43-.38,1.83-.67.8-.71-2.85,1.08-3.38,1.75-5.77,1.38-1.12.23-1.04.85-1.64,1.25-1.18-.21-4.09,1.66-5.58.79-.03.68-1.52.25-2.02.97-.18-.63-.68-.39-.96.02-.37-.97-1.74.11-2.34-.43-.36.69-1.26.74-2.41.68-.62.39.48.34-.19.59-1.59-.1-3.62,1.27-4.75.25-.66.98-4.8,1.57-5.85,1.06,0,1.03-3.49,1.59-3.58,1.15-1.01.71-2.12,1.38-3.37,2.01.1-.29.35-.54.44-.83-5.67,1.04-9.91,3-17.09,3.74.09.29-.13.5-.49.65-2.39-.86-6.71,2.58-7.27.49-1.55.34.01.64-1.01,1.13-3.54.58-5.92,1.71-8.02,1.39-1.8.9-2.73.91-5.02,1.83-.19-.38.84-.38.79-.72-2.91.73-4.32,1.55-6.78,1.18.31.79-1.47.95-1.53,1.63,1.67-.32,3.77-.77,4.82-.01-1.24.64-2.04-.21-2.48.39,3.25.48,4.65-1.24,8.22-1.85.07.23-.05.41-.18.59,1.27.05,2.53-.67,3.57-1.15,6.06-.14,12.6-3.67,18.42-3.48,1.61-1.18,4.92-1.83,7.72-2.6-.3.93-3.46.97-3.72,1.91,1.51-.32,7.45-2.16,6.87-.77-.1-.46-.41-.99.37-1.18.8-.31.69.21,1.3.08.33-1.1,5.49-1.65,7.24-1.95-.24.01-.38-.07-.38-.28.64.21,2.45-1.21,3.66-.8-.7.1-1.14.29-1.14.61,1.4.36.88-.93,2.32-1.05.19.38-.84.37-.8.71,2.53-.77,7.22-1.33,9.43-2.14.25-.64-1.02.07-.77-.57.46,0,1.53-.53,1.57-.14-.01.26-.44.4-.49.65,4.72-.88,9.22-2.16,14.98-3.1.95.65,4.42-1.09,6.12-1.27,2.23-.23,5.74-1.39,8.79-2.18,4.86-1.26,10-1.72,13.96-3.39.09.27.09.61.73.4,0-.27-.25-.62.15-.76,1.44-.15,2.55-.01,3.29.44.24-.41.63-.76,1.04-1.11-.55.06-1.42.79-1.84.36.57-.19.44-.61,1.45-.65,1.49.87.63.28,2.61.22-.53.09-.76.29-.85.53,1.28-.82,3.64-.3,4.86-1.13-1.66.03-2.12.3-3.48.14,1.57-.43,1.96-.39,3.29-1.01.36.27-.79.76.15.7,1.29-1.02,4.07.43,5.9-.79-.59.27-1.75.06-.99-.17.76-.18,1.01.09,1.61.05.92-1.42,3.39-.77,4.75-1.66.82.09.83.35,1.07.51.39-.68,3.19-1.41,3.83-1.48.27.52-1.38.41-1.42.82,3.05-.72,3.95-1.52,5.29-2.13.69-.19.44.44,1.03.34-.66-.66,1.63-1.28,3.15-1.71.02.64.17.9-.09,1.11-.37-.14-1.42.21-1.8.54.95.17-.78.81-.7,1.23-.66.03-.71-.15-.42-.46-2.18.85-5.1.94-7.28,1.79,0-.21.46-.5-.11-.52.61.52-1.02.31-.81.7.95.17-.55.88-1.04,1.11.29-.32.24-.49-.42-.46-.47,1.21-2.33.33-2.95,1.12-.76-.12.48-.67-.73-.4l.15.7c-1.09.3-4.27.99-5.17,1.19-.79.07,1.04.7-.46.82.04-.83-3.32,1-3.87-.15-2.72,1.13-4.05.53-6.32,1.78-.19-.27-1.93-.23-2.18.25.47-.23,1.4.08.68.23-2.34.05-4.99.47-7.66.99-2.67.52-5.36,1.11-7.78,1.41.35-.04.52.09.69.22-.41.08-.81.17-1.22.25-.07-.24.06-.41.19-.58-.97.65-2.78-.11-3.44.35.92.02-.45.3-.61.13-.1.52.03.41-.76.89.46-.07,1.11-.3,1.26-.08-2.46,1.26-6.44,1.25-9.21,1.73-.89.52,1.16.38.2.87-1.09-.44-2.17,1.33-2.75.57.16-.49,3.08-.94,1.6-1.42-1.36.75-2.11,2.08-4.08,1.75.65,1.66-3.65,1.73-4.8,2.82-.81-.19-2.95-.29-4.05.48,2.25-.26,4.2-.26,5.24.55-.35.1-.88.15-.87.36,1.78-.07.91-1,2.63-1.09-.11-.67-1.84.11-2.03-.49,2.42-.6,4.62-1.15,6.46-1.15-1.02.05-.29.66-1.1.77-.31-.1-1.84-.14-1.87.2-.22,1-3.53,2.35-5.64,1.9-.69,1.18-2.69.54-3.05.63.86-.01-.11.69-.45.82-.16-.8-3.25.07-1.49.49-1.26.27-1.61-.12-1.69-.38-.88.58-1.85,1.13-2.47,1.78-.06-.44.46-.66-.47-.63-.68.39-.11.39-.49.65-.25.01-.39-.07-.39-.28-.82,1.48-3.82.17-4.27.88.38-.06.74-.1.69.22-1.41.21-2.9.53-3.51.03-.28.88-1.11-.06-2.17.29-.16,1.25-5.3,2.49-5.1,1.48-.93.66-1.44,1.34-2.96,1.01-.17,1,2.11-.23,2.6.16-.77.62-3.34.68-4.18,1.28-.87-.32-1.5-.53-1.55-1.12-.79.29-.76.84-1.32,1.2.36-.05.86-.22.95-.03-.95.88-3.37,1.12-3.51.04.78,0,.82-1,.44-.83-.26.83-2.3,1.11-2.76,1.88,1.42-.04.81-.71,2.05-.81.52.46-.13.78.85.91-1.87.31-2.71.53-3.92,1.04-.07-.35.78-.4.45-.83-1.18.06-.46.72-1.05.96-.61-.08-1.44.05-1.69-.36-2.33,1.49-4.29,1.39-7.79,2.25-.25.86,1.82-.4,1.95.12-3.17,1.68-6.76,2.27-9.97,3.82.01-.26.43-.4.48-.65-1.65,1.18-3.19.6-3.48,1.49-2.33.05-5.9.82-9.42,1.55-3.52.73-6.99,1.43-9.1,1.39-2.32.56-5.09,2.32-7.03,1.43-1.03.97-4.16.9-5.03,1.71.48-.06.12.28-.22.42-4.99.37-6.97,2.55-12.66,3.28.39.85,3.82-1.15,3.6.27,3.04-.57,4.07-.19,6.85-.84-.35.11-.87.17-.87.38.25-.01.6-.13.65.03-1.42.22-2.31.6-2.6,1.15,2.14-.64,4.95-1.45,7.06-1.26-.38.9-4.53.94-4.77,1.46,1.95-.11,3.74-.08,5.98-.46-.85.77.92-.14.78.55-1.24.75-2.08.51-2.99.87.35-.14,1.17.26.43.45-1.02-.02-1.03.19-2.12.49-.11-.22,1.1-.81.13-.76-1.07.71-3.1,1.98-4.16,1.32.02.34.44.3.48.62-.75.15-1.47.31-1.77.59l-.13-.52c-1.75.77-2.56,1.27-3.33,2.04-1.05.07-4.77.56-5.11,1.36,1.64-.1,3.63-1.47,4.98-.6,4.08-1.01,9-1.76,11.52-2.65,1.61-.57,4.08-.63,5.5-1.08,1.43-.46,3.55-1.41,4.63-.7-1.01-.15-1.98.76-3.07.52-.61.4.49.33-.17.59-7.6,1.16-15.3,3.57-23.17,6.07-3.94,1.23-7.91,2.56-11.94,3.77-4.03,1.2-8.11,2.29-12.27,3.11.52,1.53-4.29,2.03-5.9,1.98-.52,1.14-2.74.56-2.84,1.42.84.21,2.86-.72,3.2-.04-.09.35.63.92-.03,1.11-3.58,1.2-6.06.28-7.64,1.48,1.9-.48,3.74.46,6.65-.32-.42.13-.06,1.52.23.86-.63-1.11,1.35-.54,1.89-1.37,1.05-.21,1.45.2,1.78.67-.71.97-3.25,1.41-4.21,2.3.24.71,1.33.74,2.29.18,4.95.25,12.37-3.25,17.54-4.05.6-.14.5.38,1.29.05,2.63-.81,6.76-2.83,9.7-2.13,1.81-.72,3.42-.86,5.44-1.25,0-.48.57-.79,1.69-.94-.42.46.08.21.18.69-.77.25-1.64.47-2.03.83.44.15,1.6-.36,1.38.41-2.03.46-2.52,1.38-4.31,1.91.6-.06.67.37,1.6,0,1.04-1.29,4.25-1.92,4.57-3.43.72,0,1.34.64.91,1.07,2.54.38,5.84-1.29,8.33-1.19.17.64-.96.89-1.25,1.39,2.21-.41-.21.53-.09.93,1.47-.95,4.33-1.48,6.47-2.22,7.82-.7,15.98-2.58,24.04-4.57,8.07-1.91,16.03-3.92,23.41-4.97,4.21-1.39,8.77-2.43,11.64-3.28,1.58-1.17,5.09-2.37,6.81-2.22.88-.67,5.39-1.66,6.85-2.03-1.89.39.15.22.43.46-2.54.57-4.37.71-4.69,1.74-.38,0-.73-.03-.99-.15.23-.09.6-.13.57-.31-2.05.19.69,1.04-.93,1.48-.44-.87-2.07.63-2.06-.65.93-.3,1.33.14,1.47-.5-2.73.51-5.21,1.31-6.58,1.8,1.18.39,3.12-.89,4.54-.99.37.16.45.58.81.74,1.69.08,3.04-.82,4.1-.17-4.02,1.49-3.42.14-6.18.8.17-.04.37.07.04.17-1.9.57-2.85.48-4.5,1.17-.75-.1-3.07-.76-2.73.6,1.15-.41,2.59-.78,3.15-.14,2.68-.24,3.86-1.91,5.67-1.6-1.29.35-2.19.82-2.52,1.46,1.33-.17.82-.93,2.3-1.05-.01.26-.43.4-.48.65,1.34-.63,3.88-1.5,4.58-.82-2.45.86-4.69,1.44-6.5,2.15-.03-.25-.22-.65-.38-.28.03.12.05.23.08.35,2.89.16,3.75-1.55,5.87-.74-1.39.19-2.47,1.04-3.63.79-.3,1.06-3.25,1.87-4.94,1.99,4.46.33,7.25-2.48,10.95-3.49.41.57-1.98,1.08-.62,1.41.98-.48,2.09-.82,3.27-1.07,1.18-.24,2.42-.39,3.66-.51,2.47-.24,4.93-.34,6.83-.77-3.47,1.36-6.56,2.28-9.58,2.53-.96.14.89.34-.18.58-2.59-.1-7.43,1.56-11.11,2.79.06-.27.29-.37-.12-.52-1.54,1.67-5.22,1.44-7.1,2.28.24-.01.6-.13.64.04-4.58.58-10.64,1.89-14.69,3.76-.05-.23-.11-.46-.16-.69-4.51,1.69-11.26,3.93-16.81,4.23.15.37-.11.61-.78.73-13.23,2.55-27.89,7.81-40.24,9.99.48-.09,1.04-.26.99.14-2.93.17-5.6.61-8.17,1.22-2.57.61-5.05,1.32-7.62,1.97-.71-.1-1.11-.51-1.77-.67.19.75.54.29.91,1.06-2.52-.2-5.77.64-8.21,1.62-.05-.17-.09-.34-.14-.52-1.71,1.12-4.14,1.95-5.93,1.8.36-.06.4.19.44.44-1.52.52-2.81.92-3.1.38-.77.35-1.86.51-2.54.06-1.11.43.26.83-.33,1.18-5.81.99-12.62,2.47-19.53,4.16-6.9,1.75-13.91,3.69-20.15,5.48,10.33-2.36,20.69-4.66,31.22-7.78.07.5,1.91-.68,1.64.15,5.67-2,13.62-2.4,18.95-4.57.1.19.07.5.43.45-.41-.6.47-.82.98-1.16.82.62,2.8-.68,4.43-.15.22-.86,4.08-.97,4.85-.99.25-.3.12-.71.73-.91.34.59,1.46-.42,2.24.01.69-.99,2.4-.9,3.78-1.46.52.98,2.2.03,3.75-.31.6-.4-.49-.33.17-.59,7.8-1.31,15.12-3.46,23.69-4.72-.23.09-.6.14-.56.31.96-.08.46-.61,1.42-.69.09.48.59.23.17.69,1.35-.68,3.32-.71,4.87-.94.21-.62-.57-.31-.77-.55.74-.1.57-.47,1.46-.52.08.35-.77.41-.43.83,1.46-.09.87-.81,2.33-.9.02.86,1.57-.16,2.58.14.44-.78.56-.82.35-1.18.86-.03,1.49-.05,1.77-.59.04.17.09.35.13.52.55-.29,2.79-1.5,3.32-.76-1.36.09-2.43,1.31-4.22.97.47,1.38,5.88-1.64,7.19-.56-6.63,1.75-11.79,2.63-18.73,4.12-.05.32.56.34.13.52-.56.02-1.72.62-1.85.24.24-.51,1.36.13,1.12-.62-1.53.27-4.34,1.04-5.08,1.35.6-.12,2.06.03,1.12.66-5.53.41-11.87,2.47-16.66,3.47-6.95,1.41-13.98,2.71-21.58,4.22l-.09-.35c-2.6,1.48-5.37.89-7.38,2.33-.87.04-1.74.08-2.03-.43-.5.23-1.82.22-1.76.61,1.3-.39,2.09-.28,2.33.35-1.66.48-6.12,1.45-8.21,1.62-2.64,1.32-7.12,1.8-9.44,3.01,1.87.09,5.57-2.03,6.28-.42-2,.05-3.16,1.58-5.36,1.48.23.58-.45.73-1.71.78-1.04,1.72-5.98,1.4-8.18,2.93-.8-.23-1.85-.22-2.93-.18-.04.6,1.14-.04.49.61.55-.03,1.7-.65,1.84-.28-6.39,1.95-10.95,3.55-16.54,5.1.47,1.6-3.15,1.13-4,1.75,1.56.45-2.44.78-3.55,1.08-2.7.74-5.55,2-6.95,2.68,1.58.48,2.93-1.08,4.84-1.04.01.42-.1.82-.66,1.08-.32-.23-2.01.49-1.65.97,1.59-.64,2.5-.58,3.98-.64-1.61.95-3.61,2.57-5.84,2.03-1.09,1.09-3.33,1.28-5.79,2.2.78.81-2.11,1.24-4,1.75-1.26,1.15.26,1.19-2.01,1.98.86.15,1.33-.53,1.84-.28-.37.96-.69,1.91-2.85,2.39,0-.26.41-.42.45-.67-1.52.5-3.15,1.42-3.34,1.81-1.48-.07-1.07.35-2.04.72-1.54.59-4.15.6-4.62,1.78,1.21.1,2.51-.95,3.17-.1-1.01.77-2.09.05-2.04.72.99.25,3.72-1.23,4.07-.34l-1.79.48c.11.53,1.69.07.89.87.41-.21,1.59-.21,1.44-.57-.65.2-.99.11-1.04-.28.76-.22,2.41-.53,3.62-.78-1.82,1.6-6.78,2.86-9.29,3.38-.15.38-.19.8-.65,1.1,1.39-.35,2.76-.7,1.09-.66,1.1-.37,1.46,0,1.98.22-1.93,1.39-1.73.24-3.57.95,1.1-.16,1.61.02.84.7Zm140.43-98.62c.09-.66,1.02-.45,1.52-.35.02.42-1.31.41-1.52.35Zm47.64-11.55c.4-.16,1.65-.69,2.63-1.12-.13.18-.26.35-.19.59-.88.15-1.54.38-1.75.75-.34.03-.28-.3-.69-.21Zm116.84-28.82c.04.3.32.41.72.41.04.39-.69.52-1.46.63.46-.46-.3-.3.17-.76-.6.03-1.81.58-1.61-.06.45.17,1.37-.07,2.19-.22Zm187.43-5.13c0-.47.57.17,1.24-.17.03.17.06.35.09.53-.63.17-.83,0-1.26,0,.16-.18.32-.37-.06-.35Zm38.99,63.83c1.48.13,3.19-1.13,3.67-.33-.74.39-3.32,1.23-3.67.33Zm-291.68,38.75c1.46-.49,2.87-.85,4.81-1-1.48.74-3.14.94-4.81,1Zm-236.66,39.65c-.09-.34.75-.43.4-.85.92-.33,1.14.03,2.13-.38,0,.21-.5.29-.84.41,0,.21.15.29.39.27-.08.41-1.79.64-2.08.55Zm11.19-9.2c.19-.42,1.05-.66,2-.87,0,.53-1,.78-1.6,1.14,0-.21-.15-.29-.4-.27Zm14.13-9.09c.22-.46,2.64-1.59,2.69-.68-1.27.14-1.21.32-2.69.68Zm38.7,8.64c-1.23,0,2.24-1.32,2.09-.51-.48.07-1.72.21-2.09.51Zm8-1.01c-.35-.29,1.43-.71.46-.66.16-.28,2.81-1.14,2.74-.48-1.57.23-2.22.73-3.2,1.14Zm46.01-70.98c-.11-.53,1.88-.86,2.39-.73-.3.74-1.91.66-2.39.73Zm20.16,28.46c-.29-.71,1.27-.45,1.77-.59.11.47-1.32.74-1.77.59Zm35.21-8.38c.44.62-1.56.48-1.69.92.26.19.79-.26,1.55-.16,2.67-2.44,8.74-2.48,13.14-3.6,3.6-.92,6.53-2.38,9.21-2.74.24.13.74.03.73.39.94-.71,2.29-.39,3.63-.77.54.48-.25.51,1.29.1-.49.45.07.44.2.87-.79.29-.67-.24-1.03-.33-.38.36-.9.68-1.01,1.12-.63,0-.82-.39-1.37-.44-.6.19-.48.6-1.09.79.74.43,2.85-.55,3.83.1-1.47.42-1.94-.08-3.41.36.78.12,1.91-.06,2.84-.06,2.46-1.16,1.74-2.74,4.59-3.5-.27-.38-1.23-.15-1.94-.14,2.06-1.32,4.52-.75,5.9-1.95.44.09,1.17-.07,1.33.27.83-.29,2.54-1.38,2.99-.8.57-.14.08-.62.79-.71,2.27.71,6.01-1.73,8.26-1.35,1.32-1.09,4.97-1.68,6.28-1.67,1.32-1.66,7.03-2.27,9.4-1.95,2.32-.56,1.98-.96,4.13-1.4-.66.09-2.02-.26-2.2.09-.09-.65,1.37-.85,3.52-1.28-.04,0-.28.27-.57.3,3.12-.36,8.91-3.51,12.87-2.02-1.26.22-2.33.51-2.96.94.65-.42,4.26-.27,4.44-1.41.94-.27,1.29-.03,1.63.22-.02.43-.02.86-1.06.94-.03.44,1.36-.37,1.02.34-1.96.41-3.21.2-5.24.66.76.23,2.08.13,4.06-.25-4.22,1.8-7.04,2.48-11.99,3.09.2.79,1.96.19,2.39.79-3.3.27-5.24,1.81-7.49,1.91l-.08-.35c-.22-.34.36-.42.83-.53-.65-.41-1.59.43-1.06.95-1,.21-1.44.61-2.69.74-.04-.39.68-.53,1.44-.66-1.07-.55-3,.8-4.43,1.46-1.02.49-.32-.55-1.02-.33-1.11.59-7.6,2.04-9.13,1.71-.73.39-.87.56-.41.99-1.07.33-1.72.29-1.93-.14-.98,1.11-2.99.79-4.58.77-1.07.24.77.44-.19.58-.77.17-.4-.05-.38-.28-1.14.22-.75.94-2.3,1.02.15-.49.18-1.01-.06-1.63-.66.16.04.76-.06,1.11-1.26.44-1.28-.25-2.24-.08.61.67-1.12,2.27-2.26,1.2,1.01-.36,1.32-.07,1.9-.03-.13-.42-.69-.42-.2-.87-1.35.78-1.55.39-3.07.45-.03.43-.65,1.1.36,1.56-1.02-.07-2.22.04-3.19-.07-.07-.45.93-.55,1.74-.72.52-.15-.6-.55-.8-.74-.66.24.43.19-.18.59-.72.09-1.2-.04-2.16.26-.59-.24-.03-.23-.16-.7-1.8.91-.64,1.92-2.67,2.19.18.19.47.28.99.16-3.02,2.14-8.38,1.15-10.76,2.86-1.04-.17-.52-.46-1.55.15-.79-.77.43-1.34,1.45-1.96.21.34-.1.5-.14.76,1.49-.19,3.98.07,5.74-1.26-2.69.63-4.57.31-6.81.76.21-.62.03-.49-.5-.8-1,.39,1.04.82-.02,1.28-.57-.39-2.46.88-4.01.51-.41.15.05.31.38.28-.39.55-1.21-.28-2.19.12.26.11.61.14.99.15-.08.56-.68-.03-1.21.26.05.16.4.05.65.04,0,.48-1.5.49-1.69.92-.55-.24-1.76-.52-2.16.29-4.14.08-8.49.97-12.59,1.84l-.12-.52c-2.76,1.29-5.5,1.48-8.38,2.2,1.84-1.76,5.73-1.59,8.94-2.5,1.76-.5,3.07-1.52,5.01-1.64Zm-23.02,6.13c1.72-1.75,6.03-1.48,8.94-2.5-1.7,1.49-6.56,1.92-8.94,2.5Zm23.12,24.87c.8-.95,2.08-.75,3.78-1.37-.67.59-2.44,1.51-3.78,1.37Zm25.78-37.19c-.2-.44.29-.66,1.09-.77l.12.52c-.4.08-.81.17-1.21.25Zm10.38,35.35c.55-.62,2.15-.42,3.01-.62-.45.53-2.33.59-3.01.62Zm-6.53-33.78c.88-.18.94.83.58,1.15-1.19.08-.38-.65-.58-1.15Zm.95-.01c0-.21.52-.26.87-.36-.14.54.53.36.5.81-.81.17-.88-.32-1.37-.44Zm7.27,30.17c.15-.44,1.88-.99,1.84-.2-.89.32-1.14.05-1.84.2Zm9.76-.02c.71-.06,1.62.03,2.11-.44.78.04-2.08,1.55-2.11.44Zm-8.03-38.02c.02-.63,1.4-.57,2.08-.61-.13.72-1.19.38-2.08.61Zm9.6,39.33c-.2-.71,2.34-.52,2.59-1.08,1.06-.17-.37.88.46.63-.71.26-2,.31-3.05.45Zm-10.95-73.27c0-.37.75-.51.76-.89.49-.02.38.49,1.3.1.07.51-1.2.58-2.06.79Zm3.13-.29c1.32-.34,2.38-.92,3.93-1-.32.81-2.88.83-3.93,1Zm-.07-4.54c.87.21,1.7-.52,2.18-.27.33.6-2.52,1.01-2.18.27Zm1.17,3.76c.08-.45,1.02-.97,1.75-.73-.4.34-1.17.92-1.75.73Zm4.93-.84c.56-.5,1.32-.93,2.37-.85.14.37-1.07.3-1.49.49.03.39,1.1-.14,1.57-.14-.71.7-1.35.42-2.44.51Zm9.85-3.13c.1-.92,2.48-.47,2.98-.98-.55.82-1.72.44-2.98.98Zm1.38.44c.26-.42,2.32-.69,2.75-.57.21.39-1.41.19-.8.71-.53-.15-1.27-.12-1.95-.14Zm8.37,33.39c2.3-1.24,3.51-1.52,6.14-2.36-.05.36-1.39.29-.76.88-2.22.36-3.45,1.03-5.38,1.48Zm-6.39-34.53c.57-.37,3.03-1.7,3.97-.82-1.17-.22-2.71.56-3.97.82Zm1.84,1.08c.03-.46.87-1.02,1.41-.84-.21.36-.43.72-1.41.84Zm1.37-1.01c.99-.5,2.97-.7,4.55-1.1-.42,1.01-3.11.42-2.87,1.48-.62.21-.83.05-1.26.08.47-.27.93-.86-.42-.46Zm22.38,70.06c-.44-.53.88-.46,1.43-.64.35.56-.92.83-1.43.64Zm-14.69-71.41c2.29-.79,5.49-1.16,9.07-2.32-.4-.7-1.45.45-2.22.07-.02-.6,1.7-.62,2.68-.89.75.52-.26.95.34,1.57-3.77.64-6.25,1.64-9.87,1.57Zm13.94,34.68c-.14-.85,1.7-1.04,3.19-1.35-.03.93-2.02,1.16-3.19,1.35Zm3.65-2.17c-.16-.88,4.77-.96,1.18-.41-.24.19-.64.32-1.18.41Zm-4-36.09c-.39-.62,1.4-.51,2.07-.77-.34.59-.77.35-2.07.77Zm2.56.04c0-.48.68-.75,1.38-1-.21.2-.24.46-.16.76l-1.23.24Zm6.94-3.36c.05-.18,1.02-.81,1.19-.42.3-.06.19-.26.23-.41.92-.02.4.19.46.64-.91.31-.97-.12-1.88.19Zm3.1-.43c.16-.19.3-.38-.07-.35-.13-.37,1.07-.29,1.5-.48-.22.36-.44.72-1.42.82Zm7.02-3.01c.14-.66,1.24-.2,2.07-.77.39.61-1.4.5-2.07.77Zm-.33-6.11c1.23-.04,2.46-.07,2.44.98-.73-.4-2.09-.25-2.44-.98Zm1.68,4.94c.39-.36,1.94-.97.16-.76.26-.83,1.93-.46,3.03-.77-.9.79-1.5.87-3.19,1.53Zm17.68,76.45c.45-.46-.29-.3.16-.76,2,0,2.5-.1,4.29-.48-.52.74-2.93.83-4.45,1.23Zm-16.34-80.7c-.52-.68,2.35-1.24,2.14-.42-1.13.07-1.4.69-2.14.42Zm1.49,4.07c-.09-.54,1.92-.8,2.41-.66-.7.47-1.18.22-2.41.66Zm19.93,75.47c-.41-.59,1.52-.61,1.77-.51-.19.38-1.23.72-1.77.51Zm-15.4-78.17c-.18-.51.96-.82,1.46-.64-.21.31-.7.51-1.46.64Zm5.85-2.54c2.08-.27,3.58-1.31,5.15-1.31.33.49-.42.61-.09,1.11-.53-.23-2.1.42-1.99-.36-.31.71-1.98.41-3.07.57Zm.65.06c.58.2.46.98-.74,1.04.71-1.21-1.35.35-1.72-.59,1.28-.09,1.07-.17,2.46-.45Zm2.69-3.94c.72-.66,1.16-.37,2.15-.4-.72.67-1.16.37-2.15.4Zm36.24,81.39c-.14-.27.23-.35.2-.58.97-.22,1.34.07,2.45-.27-.02.58-1.95,1.02-2.65.85Zm-13.39-81.99c.61-.74,1.96-.27,2.32-1.15,1.6-.17,2.27.1,3.38-.63l.18.88c-1.73.08-3.85.91-5.88.9Zm18.49,80.87c1.15.08,1.46-.3,2.45-.27,0,.6-2.49.94-2.45.27Zm-12.41-82.35c.83-1.06,3.31-1.44,4.58-1.02,1.01-1.04,2.03-1.86,4.47-1.55-.69.65-2.97.4-3.14,1.85-2.62.19-4.64.86-5.91.73Zm1.07,2.16c-.1-.51,1.65-.73,2.12-.57-.1.51-.71.84-1.71,1.04-.02-.25-.05-.5-.41-.47Zm2.83-.16c.08-.68,1.23-.19,2.43-.63.02.32.45.3.45.64-1.02.04-2.08.13-2.87-.02Zm19.27,82.53c.59-.43,1.33-.56,2.08-.56-.17.74-1.03.22-2.08.56Zm-17.17-87.99c-.04-.39,1.29-.32,1.81-.52-.59.5.15.36.99.18-.23.77-1.91.25-2.8.34Zm2.06,2.34l-.1-.53c.51-.09,1.02-.19,1.53-.28.22.51-.93.55-1.43.81Zm17.89,85.5c.22-.35.87-.55,1.74-.67-.08.44-1.02.93-1.74.67Zm.39-2.78c-.03-.34,1.16-.06,1.54-.09-.2.76-1.17.32-1.54.09Zm2.28-1.12c-.05-.45.94-.52,1.74-.67.2.55-1.2.86-1.74.67Zm3.12,0c-.35.03-.2-.15-.03-.18,0-.48-1.2.06-1.04-.54.74-.06.59-.44,1.48-.44.16.13.32.27.67.24.06.46-1.13.46-1.07.91Zm-15.04-86.22c.09.2.59.05.96.01.36.27-.81.75.14.7-.25.33-1.36-.35-1.71-.61,1.08-.25.66-.61,1.82-.5-.05.26-.75.28-1.2.39Zm18.21,89.64c-.18-.56,1.51-1.07,1.51-.26-.35.29-1.07.42-1.51.26Zm-.42-3.73c-.25-.52.72-.6.73-1.03.43.05.64.28.74.6-.32.21-.76.37-1.48.44Zm-12.29-85.43c.14-.17.27-.34.21-.58.36,0,.84.18.38.3.23.14.74.06.72.42-.3-.06-.59-.12-.62.1-.34.02-.28-.31-.69-.24Zm2.02-1.08c.32.64.4.68-.07,1.28-.54-.28-1.21-1.04.07-1.28Zm18.5,87.06c0-.21-.13-.3-.37-.3.61-.48.63.28,1.81-.31-.05.31.3.29.67.24-.52.54-1.22-.32-2.11.37Zm-12.11-82.02c2.17-1.24,7.87-1.89,9.99-2.64-.7,1.25-6.84,1.93-9.99,2.64Zm3.15-1.81l-.1-.53c.76-.15,1.48-.28,1.88-.14.05.45-.96.52-1.78.67Zm2.05-.9c-.03-.17-.07-.35-.1-.52.6-.03,1.34-.17,1.33.31l-1.23.21Zm1-3.07c.02-.21.29-.15.31-.05.91-.99.33.43,1.3.14-.05.25-.74.28-1.2.39-.02-.25-.04-.51-.41-.47Zm6.56,2.66c-.05-.62,1.64-.61,2.36-.95-.25.87-1.45.44-2.36.95Zm28.33,86.62c.37-.34,1.47-.77,2.08-.54-.06.42-1.47.33-2.08.54Zm14.43-90.68c2.75.8,1.16,1.85-2.46,2.2.31.22,1.04.09,1.6.1.25.53-1.39.36-1.44.78-.43.01-.34-.4-.43-.65-2.96.66-3.17.78-6.41,1.4-.53-.6-1.56.25-2.29-.35-.81.29,1.01.24.13.7-2.19.21-2.07-.3-4.38.35.04.51,1.98-.54,1.64.27-1.47-.05-2.56.29-3.66.78-.17-.39-.07-.68.14-.93-.82.08-.97.41-.79.85-1.53.44-1.95-.02-2.59-.3,1.4-1.57,7.18-1.12,9.08-2.38,3.75-.15,7.04-.81,10.88-1.22-.11-.32-1.06.06-1.3-.15-.05-.55,1.82-.64,1.88-.12.81-.5.84-.65.4-1.33Zm-2.78,93.09c.14-.42,1.31-.82,1.75-.64-.22.35-.88.54-1.75.64Zm1.13,1.08c-.36-.64,1.32-.91,1.21-.2-.4.07-.8.13-1.21.2Zm-2.39-12.98c.51-.41,3.24-.95,2.82.08-1.04-.32-1.76-.13-2.82-.08Zm3.31,11.2c1.54-1.08,4.43-.63,6.01-1.16-.48.31-.71.71-.72,1.2-1.53.22-2.78-.26-3.99.29-.31-.21-.37-.64-1.31-.33Zm-13.94-85.86c.16-.43,1.71-.35,2.43-.58-.4.95-1.15.43-2.43.58Zm15.1,78.63c.2-.19.25-.45.17-.75.91-.28.67.39,1.58.11.05.45-.95.51-1.75.64Zm.61-1.72l-.09-.53c1.4-.65,2.27-.24,4-.29-1.15.63-2.49.23-3.9.81Zm3.87-.99c2.45-.94,4.65-.24,7.57-1.23-.22.48-.03.39-.11,1.1-1.51-.34-4.48-.22-4.87.61-.54.04-.74-.19-.73-.6-.85.3-.29.32-.17.75-.89.06-.85-.64-1.67-.63Zm-12.83-75.38c-.17-.79.94-.07,1.82-.48-.35.5-1.01.48-1.82.48Zm3.97,4.41c3.31-1.33,8.81-1.68,12.27-2.17.74-.3-.39-.74-1.05-.55.22-.54,1.31-.16,1.84-.3.09.31-.31.43-.18.75.2.37,1.53-.17,2.18-.17-3.88,2.38-8.35,1.76-14.66,2.92-.02-.25-.04-.5-.4-.47Zm-1.24-10.27c.26-.34,1.27-.4,1.78-.65.02.32.44.31.43.65-1.2.37-1.02-.37-2.22,0Zm18.43,80.79c-.09-.69,1.2-.85,2.29-1.09.1.31-.3.43-.18.75-.75-.3-1.17.25-2.12.34Zm-11.3-79.96c.02-.43.37-.74.09-1.28,1.73-.14,2.53.13,4.47.18-.89.94-2.73.51-4.56,1.1Zm8.98-4.71c-.51.08-1.02.17-1.54.25,2.46-.68,5.37-1.36,8.45-1.89,3.08-.53,6.31-.94,9.43-.98.33-.09.15-.38.56-.45.73-.05,1.31.02,1.91.07.02.56-1.48.53-2.41.72.02.25.04.5.4.48-2.96.79-8.42,1.22-12.79,2.94-1.03-.03-2.01-.1-2.62-.48-.88.29.28.53.15.88-.76.26-1.54-.46-1.88.12-.93,0-.4-.2-.43-.65-1.51.52-2.61.92-3.64.95-.21.64,1.01.12,1.61.1-.86.77-3.07.88-4.01.65-.35-.63,1.24-1.39-.53-1.18,1.25-.83,4.99-.21,5.51-1.08-2.41-.05-6.46,1.24-7.86.37,3.15-1.3,6.08-.73,9.56-1.55.04.23.08.47.12.7Zm-7.42,8.07c-.07-.48.55-.96,1.13-.73.18.45-.56.56-1.13.73Zm2.89-1.55c-.04.15-.28.22-.25.4,3.92-.62,4.3-.93,7.6-1.77,1.56,1.62-5.66,2.34-7.41,2.83-1.37-.26-1.74-.93.06-1.45Zm1.37-2.93c.13-.44.94-.63,1.07-1.08.51.46,2.65-.41,2.9.25-1.44-.3-2.32.95-3.97.82Zm13.04,5.65c.04.17.4.07.65.08-.02.26-.91.21-.86.5.4.35,1.95-.25,2.8-.27-1.16,1.03-4.34,1.29-5.34,1.95-.54-.3-.38-.92-.19-1.05-.38-.55-.69.09-1.29-.15-.82.37,1.03.2.77.78-2.37.4-2.93.25-3.94,1-1.03-.1,0-.3-1.88.12-.37-1.19,1.93-.57,2.64-1.15-1.16-.57-3.88,1.3-4.09.12,3.87-.43,8.47-2.51,12.94-1.92-.59.46-1.08-.29-2.21,0Zm-8.85-5.24c-1.09.13.66-.78-.43-.65.21-.59,1.05-.09,1.26-.03.17.39-.85.34-.83.68Zm1.11-.9c2.2-.79,7.43-1.35,6.28-.3-1.67-.49-3.65.62-6.28.3Zm7.72,13.2c-.49.01.21-.35-.37-.3.47-.89,2.6-.46,3.68-.6-.22.98-2.8.25-3.31.9Zm3.07-.5c.51-.08,1.02-.17,1.53-.25-.16.19-.32.37.06.35-.02.26-.9.21-.86.5-.55.04-.75-.19-.73-.6Zm-3.71-13.84c.98-.39,2.62-.65,4.46-.93,1.84-.27,3.88-.55,5.65-1.01-1.91,1.69-5.61,1.23-8.82,2.09.22-.58-.74-.2-1.29-.15Zm13.14,13.64c.76.22,2.57-.67,3.17.06.64-.25.97-.61,2.09-.68.24.34.98.43.46.83-.7.16-.43-.46-1.02-.39-.71.16-.63.58.09.53-3.08.79-4.59,1.07-7.38,1.11.66-.26,1.29-.96,2.09-.68-.16-1.09-1.51-.25-2.18.15-.12-.2-1.29-.52-.74-.61-.14-.55,1.52-.24,2.4-.72-.93-.39-3.51.64-4.03.43.27.4.78.81-.46.97-.03-1.25-1.62-1.24-3.35-1.09.21-.19.26-.45.18-.75,3.43.06,10.14-2.14,14.73-2.43.09.31-.31.43-.19.75.97-.23.97-.83,2.03-1.03l.12.7c.55-.06.61-.31,1.2-.36.68-.21-.42-.22.22-.57l1.54-.23c-.02.21.12.3.37.31-.52.46-.68,1.05-2,1.21.27.12.4.35.43.66-.78-.24-1.67.59-2.49.2-.39.18-.51.46-.49.8-2.57.17-4.05.29-6.79.85Zm-1.73-17.23c.36.52-.39.62-.47.97-1.78.05-2.18.25-4.04.43,1.88.58-3.77,1.16-4.31.68,2.79-1.23,6.93-.88,8.82-2.08Zm-1.36-.51c0-.42,1.34-.31,1.54-.23-.14.65-1.04.37-1.54.23Zm2.13,1.3c-.33-.62.36-.85,1.42-.94.31.45-.55.45-.5.8,2.55.14,4.98-.77,6.08.34-2.2.05-2.96.6-4.54,1.23-.44-.11-.69-.38-1.32-.34.39-.48.71-.38,1.51-.41-.38-.63-1.27-.85-2.65-.68Zm9.84-1.67c.17-.44,1.88-.46,1.6.12-.25.18-.66.29-1.2.36-.01-.26-.03-.51-.4-.48Zm22.37,90.9c.62-.83,1.57-.08,2.75-.24.22.47-1.67.11-1.45.58-.79.17-.35-.65-1.3-.34Zm9.32-3.57c1.7-.52,3.49-.09,5.08-1.13,1.06-.2.73.73,1.93.43.34.28-.81.73.12.7-1.45.69-2.46.82-4.14,1.17-.43-.17-.5-.59-.15-.88-.98-.07-2.15.01-2.84-.29Zm-8.77-86.46c-.03-.39,1.29-.27,1.82-.45.08.48-1.39.63-1.82.45Zm.68-3.53c.07-.41,1.51-.3,2.13-.5.04,1.02-.98.2-2.13.5Zm12.08.38c-.96-.18.59-.74,1.46-.74.44.82-1.48.47-1.46.74Zm22.04,76.1c.94-.38,2.33-.55,1.68-1.13,2.25-.52,3.42,1.52,1.64,2.47-1.28-.3-3.13-.16-3.32-1.34Zm1.9-60.56c-.23-.53.57-.65,1.46-.74,0,.32.43.32.42.66-.75.13-1.48.24-1.87.08Zm29.13,54.59c-.37-.81,1.06-.89,1.66-1.31-.07-1.42-1.31-1.63-.1-2.69,1.14-.24,1.48.16,2.21.25.52,1.48.37,1.5-.18,2.9-.79.27-2.39.23-2.02.99-.42-.12-1.14-.02-1.57-.14Zm-3.21-35.18c.07-.41,1.61-.37,1.84-.25-.16.26-.6.41-1.17.52.07-.32-.29-.3-.67-.27Zm8.67,32.29c.54-.09.67.13,1.24.02.33.46-.36.51-.17.92-.43-.26-1.1-.33-1.07-.94Zm-7.55-57.8c-.31-.63,2.27-.73,1.87-.06-.57.46-1.22.11-1.87.06Zm13.06,1.19l.62-.08c.03.58.85.76-.48.96.1-.59-.66-.47-.13-.88Z"/>
    <path class="cls-2" d="m301.08,137.68c-1.49-.11-3.18.65-4.77,1.17.08-.87-.73.4-.98-.16.54-.81,4.66-.78,5.56-1.88-.15-.22-.79.01-1.24.08-.45-.35,2.55-.6,2.52.02-1.18.24-1.76.26-1.08.77Z"/>
    <path class="cls-2" d="m290.41,53.98c.61-.13.28-.56,1.15-.6,1.39.04,3.08-.28,3.91-1.17.66-.03.71.14.42.46,3.48-1.26,6.25-1.35,9.28-2.91-.65.81,3.12-.17,2.11-.59,4.28-.3,10.73-1.78,14.24-3.7-1.46.55-4.33.45-5.45,1.43.54-.9-1.38.14-1.5.48l-.11-.52c-6.59,1.37-13.52,2.81-20.24,4.21-6.71,1.46-13.21,2.82-18.97,3.87-1.13.87-5.5.88-6.5,2.44-1.78-.03-2.39-.06-4.02.65.48-1.12-1.9.3-1.73-.55-1.33.66-3.15.17-3.63.94,1.93-.21,3.04-.96,3.79-.24-1.83.17-3.65,1.03-5.02.49-1.36.52-3.88,1.69-5.17,1.25.03.83-1.69.18-2.37.86-.05.32.56.35.12.52-1.12.62-2.77.17-3.67.76.38-.06.74-.1.69.22-.91.32-.97-.12-1.88.21.02.6,1.39,0,1.96.14.51-.68,4.01-1.45,4.55-1.13-.98.52-1.23,1-2.41.68-.11.52.69.22.77.57,1.02-.21.92-.78,2.02-.97-.09.51-.72.84-.98,1.3,1.11-.18.67-.86,1.67-1.08.37.26-.78.77.16.7.5-.64,1.65-.1,2.22-.1-.45-.97,1.55-.22,2.02-.97-.89.42-1.85-.13-1.07-.5.84.45,1.32-.07,2.57.01.04.17.29.16.38.29-1.42.31-.99,1.2-.27.24,1.95-.23,4.05-.45,5.32-.56-.38,0-.74-.04-1-.16,1.84-.44,1.67.32,1.8-.56,1.28-.31,1.25.56,2.07.66-.44-.57,1.34-.43,1.07-.95-.6.04-1.79.62-1.61-.03,2.02-.3,2.26-.35,3.94-1,0,.34.43.31.46.63-.97-.05-2.28.21-2.37.86,1.78-.13,2.57-.69,3.51-1.46.9.42,1.94-.23,1.8-.55.95.09.52.57.23,1.04,1.75-.53,2.34-.68,3.75-.41-.42.13-.27.45-.5.65,1.13-.69,1.35-.51,2.49-.33.94-.8,4.8-2.1,6.96-1.8,1.05-.94,2.25-.97,5.05-1.78.26-.86-1.83.38-1.95-.14.26-.65,2.27-1.6,3.29-1.04.21.39-1.41.19-.8.71,3.39-1.24-.97-1.56-2.57-1.47Zm-32.06,7.01c-.04-.17-.08-.35-.12-.52.92-.4.81.12,1.31.09-.04.26-.74.3-1.19.43Zm2.61.19c.89-.79,2.06-1.89,3.82-1.52l.16.7c-.52.22-1.39-.25-1.53.32-1.05.04.26-.41.19-.59-.87-.27-1.02,1.06-2.64,1.09Zm14.65-3.22c.59-.6,3.2-1.2,3.71-.59-1.23.18-2.9.77-3.71.59Zm2.11.84c.24-.52,1.57-.68,2.68-.92-.32.73-1.48.82-2.68.92Zm2.21-1.55c.32-.33.98-.55,1.76-.73.41.61-1.23.9-1.76.73Zm1.54,1.14c-.2-.44.29-.66,1.11-.78.2.44-.3.66-1.11.78Zm.61-1.58c.34-1.26,3.98-.67,3.52,0-1.16-.31-2.18-.31-3.52,0Zm2.6-1.27c-.49-.09,1.28-.33,2.41-.68-.21.82-1.64.84-2.41.68Zm1.65,1.66c-.43-.38.75-1.02-.23-1.04,1.44-.25,1.79-.19,4.06-.48-.44.78-1.91,1.22-3.83,1.52Z"/>
    <path class="cls-2" d="m53.67,171.52c.39-.27,2.4-1.44,2.68-.71-1.29.15-1.33.3-2.68.71Z"/>
    <path class="cls-2" d="m44.11,119.1c.25-.3,3.56-.62,4.18-1.29.99.37-3.48,1.35-4.18,1.29Z"/>
    <path class="cls-2" d="m76.13,156.67c.46-.35.62-.78,1.66-.97.12.46,1.05.13,1.13.63-.96-.18-1.55-.23-2.79.34Z"/>
    <path class="cls-2" d="m88.1,142.98c-1.04.36-.9-.42-1.94-.06.13-.45,1.81-.64,1.6-.04.35-.17.55-.38.46-.67,1.24-.09.38.47-.11.76Z"/>
    <path class="cls-2" d="m117.82,124.55c-.11-.51.52-.81.98-1.15,4.58-.58-.36-.02-.98,1.15Z"/>
    <path class="cls-2" d="m118.01,119.19c-.47.03.06-.25-.14-.52,1.05-.07,2.16-.19,3.16-.21-.52.76-2.42-.11-3.02.73Z"/>
    <path class="cls-2" d="m116.13,87.55c-.35.11-.17.38-.17.59-1.94.54-3.58-.33-5.31.73.23.36,1.61-.38,1.92-.09-.69.53-1.28.13-2.39.76-.43-.55-.15-.41-.58-.96,2.49-.81,2.26-.43,5.48-1.32-.75.82,1.75-.15,1.66.15-.3-.66.99-.85,1.82-.44.81-.38-.56-.35.12-.76,1.14.14,3.41-1.1,3.18-.22.35-.11.55-.09.65.03.69-.35-.79-.62.74-.91-.88.83.84.29,1.39.4-1.34,1.41-5.51,1.59-7.42,2.52-.46-.07-.73-.31-1.09-.47Z"/>
    <path class="cls-2" d="m115.49,108.43c-.4-.34,2.29-.27,3.37-.63-.79.74-2.41.44-3.37.63Z"/>
    <path class="cls-2" d="m122.9,119.47c.3-.4,1.72-.07,2.76-.48.26.45-1.68.26-1.42.71-.45-.07-.72-.32-1.35-.23Z"/>
    <path class="cls-2" d="m150.17,120.77c.75-.34,1.98-.63,3.32-.8-.73.31-2.18.81-3.32.8Z"/>
    <path class="cls-2" d="m158.06,93.83c.19-.47,1.85-.89,2.65-.97-.52.43-1.84.62-2.65.97Z"/>
    <path class="cls-2" d="m166.01,87.06c.45-.46,2.1-.55,1.96-1.18.95.21-1.27,1.44-1.96,1.18Z"/>
    <path class="cls-2" d="m170.28,75.84c.26-.8-1.65-.83-2.61-.13.3-.8,3.37-1.26,4.62-2.16-1.04.5-.97,1.28-1.66,1.11-.71.21,0,.81.48.62,0,.27-.9.27-.83.56Z"/>
    <path class="cls-2" d="m199.87,156.45c2.33-1.33,6.87-1.17,8.76-2.93.34.39,1.56-.05,1.71.52-3.07.23-3.96,1.47-6.33,1.27-.76.84-3.07.91-4.15,1.14Z"/>
    <path class="cls-2" d="m183.98,86.95c.39.44.51.09,1.26-.11,1.19.02-1.24.24-.48.66-.86.23-1.66.4-1.65-.17.25-.09.3,0,.35.1.25-.19.39-.42.48-.66.35-.05.21.14.04.17Z"/>
    <path class="cls-2" d="m193.37,84.61c.6-.06,1.32-.24,1.34.24-1.39.12-1.44.64-2.35.9.05.17.4.05.65.03-1.28,1.32-4.54,1.24-6.77,1.19,0-.37.5-.6.74-.9.6,1.01,5.3-.82,6.39-1.47Z"/>
    <path class="cls-2" d="m194.04,72.94c.72-.16.83-.51,1.79-.59-.09.29-.34.54-.44.83,4.43-1.86,11.86-1.75,16.36-4.14,1.88.78,3.46-1.6,4.67-.66-.34-.49-.29-.29-.21-.87-1.95,1.08-5.33,1.25-5.71.33.37.9.27-1.14,1.49-.51.32-.49-.94-.48-.17-.69.62.13,1.2.31,1.74.53.7-.22,1.21-.49,1.75-.75.1.19.07.5.43.45-.51-.94,1.52-.59,2.1-.64-.69-.49-2.43-.04-3.04-.61-.14.64-.55.21-1.49.51-.1-.19-.06-.5-.43-.45-.19.24-1.48-.08-2.1.64.66-.04.71.13.43.45-1.57.06-3.22.97-5.01.55.08,1-1.15.78-2.36.88.01.27.26.62-.14.76-.64.09-.72-.33-1.08-.49.54-.07,1.73-.72.79-.72.08.51-2.13.31-2.06.81.66-.18,1.01-.07,1.04.32-.85-.28-.56.51-1.79.57,0,.48.07.99-.32,1.35-.95-.72-1.61.71-2.66.95-.93-.21-1.76-.5-2.21-1.14-.93.34-1.25.27-1.48.52.64-.1.72.32,1.08.48-1.8.81-2.5.79-4.57,1.05-.28.57-.81.95-1.7.94,1.08.31,4.35-1.43,5.31-.67Zm11.83-2.99c-.37.05-.34-.26-.43-.45.32-.22.76-.41,1.48-.51.65.63-1.71.33-1.05.96Z"/>
    <path class="cls-2" d="m211.37,153.07c-.58-.33,1.49.02,2.43-.38-.26.56-1.51.82-2.57,1.14.32-.33,1.35-.83.13-.76Z"/>
    <path class="cls-2" d="m202.4,83.48c-.6.13-.27.56-1.13.61-.39-.28-.71-.63-1.43-.6.03-.21.57-.25.53-.48.71.77,2.2-.22,2.77.85-.39,0-.68-.08-.74-.39Z"/>
    <path class="cls-2" d="m203.31,83.28c-.36-.52.54-.4.61-.13.44-.08.87-.16.87-.37.79,0-.23.77-.75.89.02-.37-.19-.53-.73-.39Z"/>
    <path class="cls-2" d="m221.34,153.78c.33-.11.13-.21-.04-.17.59-.56,2.83-.6,3.52-1.13.05.09-3.77,2.29-4.11,1.27.34-.1.54-.08.64.04Z"/>
    <path class="cls-2" d="m225.62,153.21c-.29.53,1.81.36,2.65.52-.21-.5,3.07-.96,5.31-1.53-.96.77-6.54,2.45-7.53,1.46-1.67.24-1.8.36-3.34.55,1.92-1.1,6.51-2.03,8.57-2.42-.38.65-4.17,1.01-5.65,1.42Z"/>
    <path class="cls-2" d="m215.5,80.61c-1.26,0,0-.21-.17-.69.51-.11,1.02-.22,1.52-.33-.52.49.22.31.47.63.97-.18-.1-.99,1.36-1.03.26.35-.52.37-.48.65.95-.64,2.2-.91,3.35-.73-.37.61-1.09.46-1.83.4-.18.37-.67.65-.7,1.06-.3-.08-.73-.03-1.26.09,0-.21.52-.27.87-.37-.55.08-2.93-.33-3.13.32Z"/>
    <path class="cls-2" d="m234.57,151.07c.35.17.88.17,1.32.26-.04.26-.72.31-1.16.44.37-.35.1-.6-.72-.39.67-.37.48-1.02,1.59-1.26.54.6-.72.63-1.03.96Z"/>
    <path class="cls-2" d="m237.84,148.89c.59-.65,1.74-.2,2.36-.7-.1.68-1.72.57-2.36.7Z"/>
    <path class="cls-2" d="m222.73,78.67c.68-.2,1.16-.21,1.3.08.85-.34.28-.33.14-.76.41-.09.81-.18,1.22-.27-1.42.88.62.17.82.73-1.35-.02-2.61.88-3.48.21Z"/>
    <path class="cls-2" d="m230.34,77.01c-1.2.1-1.88.71-2.44.53.05-.25.47-.39.49-.65.82.06,2.85-.22,2.08.64-.47.03.07-.25-.12-.52Z"/>
    <path class="cls-2" d="m239.75,104.69c.25.5-3.56,1.41-2.04.81.94-.19.73-.74,2.04-.81Z"/>
    <path class="cls-2" d="m239.91,105.38c.55-.63,2.16-.45,3.03-.66-.46.54-1.84.15-3.03.66Z"/>
    <path class="cls-2" d="m239.63,76.98c-.3-.22-1.03-.05-1.08-.49,2.15-.55,2.95-.58,4.53-1.17-.58.55-.16.52-.41,1-.3.07-.61.13-.91.2,0-.21.52-.27.87-.37-.4-.56-3.01.27-3,.84Z"/>
    <path class="cls-2" d="m243.33,70.88c.97-.45,2.09-.18,3.66-.8-.87.68-2.41.79-3.66.8Z"/>
    <path class="cls-2" d="m245.03,63.03c-.91.34-.51-.52-1.61-.01.18-.54,1.36-.76,1.28-1.38.99.4-1.31,1.07.32,1.39Z"/>
    <path class="cls-2" d="m247,71.54c.69.21,1.98-.11,2.87-.06-.03-.11-.05-.23-.08-.35,1.49.34-2.84,1.24-2.79.41Z"/>
    <path class="cls-2" d="m250.48,64.44c-.21-.34.11-.51.15-.76.72-.05.83,1.09,2,.31.98-.02-.6.42-.49.65-.52-.1-.77-.43-1.65-.2Z"/>
    <path class="cls-2" d="m252.62,70.91c.25-.81,1.99-.37,2.79-.4-.13.17-.25.35-.18.59,1.12-.67.92.22,1.96.14.32-.11.12-.39.53-.47.94-.28,1.4-.13,1.38.44-1.63.03-1.43.06-3.05.63-.04-.17-.08-.35-.12-.52-.7.2-1.18.21-1.57.14.26.41.55.52-.1.93-.03.44,1.37-.38,1.03.33-.66-.05-1.29-.09-1.95-.14,1.3-.51.44-.7.02-1.28.66.21.77-.14,1.53-.32.04-.74-1.28-.26-2.26-.08Z"/>
    <path class="cls-2" d="m252.16,63.36c.85.06,1.01.19,1.88-.21.06.3.33.4.73.4-.06.04-2.46.39-2.61-.19Z"/>
    <path class="cls-2" d="m258.59,70.4c.77-.81,1.69.01,1.99.32.28-.18.22-.47.84-.54-.42,1.33-1.74.12-2.83.22Z"/>
    <path class="cls-2" d="m294.29,145.28c.51-.31,2.76-.41,3.94-.63-.78.55-2.89.53-3.94.63Z"/>
    <path class="cls-2" d="m289.5,102.77c-.6.05-1.07.35-.57.3-1.56.46-1.95.05-.5-.81.31-.08.78.62.95-.01.47-.02-.07.25.12.52Z"/>
    <path class="cls-2" d="m299.8,100.63c.01-.21.28-.16.3-.06.32-.27.44-.61,1.44-.66-.07.45-1.01.97-1.74.72Z"/>
    <path class="cls-2" d="m310.46,141.74c.72-.74,1.84-.54,3-.61-.3.38-1.89.17-3,.61Z"/>
    <path class="cls-2" d="m344.14,136.57c-.2.04-.4.08-.6.12.03-.16-.15-.14-.34-.12.77-.38,1.24-.87,2.26-1.17.2.56-1.26.38-1.32,1.17Z"/>
    <path class="cls-2" d="m355.43,133.63c-.47.56-3,.2-1.43.64-2.67-.11-4.89.18-7.29,1.07,2.03-.37,2.27.02,3.46.05-1.94.9-3.35-.14-4.51.89.48-.05.29.34.11.52.8-.15,1.75-.45,1.88,0-.27.39-2.58.07-2.63.88,3.76-.86,7.14-1.54,10.52-2.18,1.69-.31,3.38-.63,5.12-.95,1.74-.3,3.53-.62,5.41-.95-.52-.17-1.46.03-1.92-.19.23-.08.59-.12.57-.29-.24,0-.59.1-.64-.06,1.14-.04,2.78-.73,2-.91-.39.67-1.81.51-2.71.5-.69.47.82.79-.38,1.16-2.05-.28-4.97,1.49-6.13.63.98-.66,4.43-.26,4.97-1.69-1.72.3-3.72,1.14-5.19.64-.26.24-.52.47-.79.7-1.17-.09.18-.37-.41-.46Zm-4.97,1.7c-.2-.54,1.18-.89,1.73-.7-.21.36-.86.57-1.73.7Z"/>
    <path class="cls-2" d="m344.39,128.89c-.04-.39,1.26-.33,1.77-.53-.15.19-.3.38.07.35-.1.4-1.19-.03-1.85.18Z"/>
    <path class="cls-2" d="m364.67,128.42c.88-.45,2.44-1.32,3.85-1.07-.9.49-2.7.67-3.85,1.07Z"/>
    <path class="cls-2" d="m367,129.08c-.42.02-.34-.39-.45-.64.81-.08,2.53-1.16,2.49-.1-.99.05-2.26-.3-2.04.74Z"/>
    <path class="cls-2" d="m379.28,130.97c0-.21-.13-.3-.37-.29.95-.72,2.26-.6,3.35-.44-.64.5-1.88.21-2.98.73Z"/>
    <path class="cls-2" d="m364.35,39.48c-.78.23-1.87-.29-1.1-.7-.05-.27.44.5,1.1.7Z"/>
    <path class="cls-2" d="m383.14,125.37c-.53.12-.68-.1-1.24.05.56-.76,1.06-.58,2.31-.97.8.09-1.57.41-1.07.92Z"/>
    <path class="cls-2" d="m391.46,124.74c1.11-.78,3.69-.66,4.99-1.65-.7,1.15-3.3,1.19-4.99,1.65Z"/>
    <path class="cls-2" d="m394.99,125.17c-.05.32.3.29.67.24,0,.42-.72.55-1.17.4-.16-.36,1.04-1.49,1.1-.75-.2.04-.4.07-.6.11Z"/>
    <path class="cls-2" d="m380.43,35.42c-.53-.34,2.14.07,2.77-.51-.73.65.76.56,1.41.65-.48.73-1.52.41-2.73.69,1.33-.69-.67-.72-1.44-.82Z"/>
    <path class="cls-2" d="m381.04,17.73c.13.37-1.08.28-1.51.46-.04-.88,1.21-1.32,2.53-1.74-.8,1.01-.81.99-1.02,1.28Z"/>
    <path class="cls-2" d="m409.18,125.81c.21-.79,1.5-.24,2.42-.42-.23.45-1.43.01-2.42.42Z"/>
    <path class="cls-2" d="m421.54,27.24c-.08.28-.41,0-.92.16.38-.33.91-.55-.38-.3-.29-.25,1.7-.69,2.43-.6,0,.29-2.26.58-1.13.74Z"/>
    <path class="cls-2" d="m456.31,22.63c-.87.19,2.02-.83,2.31-1.28.35.27,1.8.67,2.26.17.72.85-1.63.2-3.09.5.15.34.89.22,1.33.32-.48.5-1.44-.29-2.81.28Z"/>
    <path class="cls-2" d="m466.51,22.78c-.59.02-1.81.54-1.6-.1,1.84-.1,1.99-1.14,1.01-1.43.17-.21.68-.3.52-.63,1.26.4.08,1.32.07,2.16Z"/>
    <path class="cls-2" d="m471.41,20c-.18.57,1.16.91.53,1.18-1.09.03-.21-.74-1.15-1.08.54-.02.56-.23.55-.45,1.97.09,2.56-.66,4.94-.8-.23.35-1,.63-1.51.43.79.59-1.04.69-1.97,1.4-.05-.29-.11-.59-.16-.88l-1.24.2Z"/>
    <path class="cls-2" d="m482.67,10.05c-.37.97,1.09.45,1.7.63-.67.72-3.92-.18-1.7-.63Z"/>
    <path class="cls-2" d="m498.41,18.21c-.67.17-4.37.6-.99-.21.26.13.61.18.99.21Z"/>
    <path class="cls-2" d="m501.99,16.95c-1.03.38-1.97.79-3.65.91.66-.53-.5-.61-.8-.96.77-.25,2.2-.32,2.57.15.44-.22-.13-.25.19-.75.44.18,1.5.02,1.85-.28.62.14-1.18.47-.16.92Z"/>
    <path class="cls-2" d="m501.93,18.4c1.08-1.02,6.08-2.73,9.28-3.21.36-.08.2-.36.22-.57.84.1,1.03.22.77.78,1.35-.19,1.38-.48,2.2-.15.37-.13.6-.32.53-.62,6.71-.63,11.88-1.97,16.3-3-.87.69,1.1.14.79.96.23-.13.47-.26.9-.32-.18-.32-1.22.04-1.04-.56,1.55.09,2.2-.2,2.96.64-.41.58-1.81-.57-1.49.58-9.43,1.38-14.66,1.97-25.41,3.48-.85,0-.53.45-.84.67-.24-.27-1.46.24-1.61-.12-.43.22-.93.41-.81.84-.82.24-2.49.15-2.75.6Z"/>
    <path class="cls-2" d="m529.13,29.43c-.08-.52,1.42-.45,1.76-.81-.25-.13-.6-.18-.98-.21,1.69-1.46,5.08-1.03,7.92-1.74-.73,1.15,6.36.45,6.84-.66.96-.29.72.37,1.32.35.75-.36,1.03-.91,2.02-1.18-.21.19-.27.45-.19.75,1.29-.47,2.09.59,3.28.8.27-.55,1.3-.53,2.13-.48-1.27.58.35.6,1.63.31-1.71.7-2.16,1.39-4.15,1.66.07-.25.5-.35.53-.61-1.04-.38-2.84-.28-4.09.03-.44-.17-.5-.59-.15-.88-.86.7-3.75.31-4.17,1.5-.71-.03-1.26-.19-2.22-.02.22-.75.94-.1,1.85-.28.27-.17.42-.39.53-.62-3.68.57-9.52,1.2-13.87,2.1Z"/>
    <path class="cls-2" d="m533.3,35.47c-.67-.39-2.39.05-2.92-.46,1.29-.15,3.07.09,3.75-.21.75,0-.68.48-.84.67Z"/>
    <path class="cls-2" d="m550.13,121.79c.21-.19.26-.45.19-.75.43.52,1.43.7,2.5.16.28.1.26.45.69.44-.15.67-.74.13-1.78.45.05-.57-.74-.47-1.59-.3Z"/>
    <path class="cls-2" d="m540.46,19.61c-1.76.55-2.73.54-4.57,1.05.1-.24.33-.42.87-.49-.19-.12-.37-.24-.39-.48,1.84.29,3.13-.25,4.6-.88-.4.22-2.51,1.13-.5.79Z"/>
    <path class="cls-2" d="m544.73,18.62c-.65-.37,1.29,0,1.04.57-.29-.1-.73-.09-1.27,0-.2-.23,1.14-.6.22-.57Z"/>
    <path class="cls-2" d="m545.61,14.36c-.08-.14.09-.18.28-.22-.02-.12-.04-.23-.06-.35.57.74,3.71-.52,3.6.76-.65.17-.63-.17-.7-.44-1.35.04-2.36.25-3.12.26Z"/>
    <path class="cls-2" d="m555.33.04c.9-.17,1.02.27,1.92.09-.68.27-1.28.98-2.4.87.01.32.44.32.42.66-1.14.12-1.23-.07-2.17.31.17.2.45.3.99.22-.36.57-.98.24-1.44.92-.67.03-.08-.77.17-.92-.5-.14-.84-.4-1.63-.31.17-.21.68-.28.53-.62,1.95-.48,2.87-.4,3.61-1.23Z"/>
    <path class="cls-2" d="m558.26,37.79c-.35.01-.2-.15-.03-.18-.23-.15-.74-.08-.7-.44.97-.03,1.42.34,2.27.4.94.4-1.73-.17-1.54.22Z"/>
    <path class="cls-2" d="m560.35,33.18c.39-.39.57-.88,1.74-.97-1.05,1.05,1.74-.53,2.8-.21.27-.09.7-.9.2-.75,1.38.1,6.12-.61,8.18-.06.49-1.23,2.28.08,2.66-1.1.57-.05.28.57.73.62,1.4-.82,3.14-.08,4.34-.43.47,0-.18,1.47,1.04.58.62.66-1.62.62-1.9-.09-1.33.29-2.19.24-3.44.12-.54.12-.66.4-.51.79-1.8.12-1.96-.21-3.39.48.33-1.95-4.26.56-6.08-.59-1.47.89-3.89.88-6.36,1.61Z"/>
    <path class="cls-2" d="m564.8,19.59c.23-.35.9-.52,1.8-.61.18-.53-.51-.39-.45-.83,1.7-.21,2.52-.77,3.6-1.23-.62,1.16,6.44-.22,7.13,1.16.25-.17.67-.29,1.21-.35.62.44,1.58.62,2.92.49,1.67,1.05,5.17.88,6.27,1.82-.92-.18-2.69.54-2.13.48-5.3,1.25-14.95.11-18.78,2.99,1.06.12,1.76-1.12,3.93-1.09-1.52.73-1.64,1.56-3.74,2.32.03.51,1.98-.49,1.63.31-.47.38-1.06-.01-2.16.3,1.17-1.36-3.18-.61-4.16-.32-.05-.35.81-.34.51-.79,1.13-.27,2.02.18,2.78-.39-1.53-1.01-3.61.03-5.98.12,2.27-.48,4.18-2.53,6.71-3.46,1.27-.01,2.94-.22,2.98-1.14.74-.05.67.53,1.63.31.92-.48-.24-.94,2.05-1.01.4-.17.52-.46.51-.79-.95-.65-4,.82-3.51-.23-.7,0-.39.4-.87.48-.06.44,1.39-.3,1.01.4-.53.43-1.47.31-1.32-.35-1.56.32-1.67,1.21-3.57,1.4Z"/>
    <path class="cls-2" d="m564.27,34.06c-.02-.4.81.12,1.54-.22.43.51.22.44-.17.92-.38-.32.02-.84-1.37-.71Z"/>
    <path class="cls-2" d="m577.15,31.9c1.19-.09,2.58-.33,4.06-.21-.31.04-3.73.82-4.06.21Z"/>
    <path class="cls-2" d="m581.23,23.77c-.01,1.56-3.64.43-5.3.38,1.96-.27,4.03-.64,5.3-.38Z"/>
    <path class="cls-2" d="m592.87,64.43c1.23-.24,1.06.62,1.97.62.68.19-2.23.14-1.97-.62Z"/>
    <path class="cls-2" d="m625.28,104.22c1.21-.16,1.13.7,1.97.83-.25.18-1.83-.27-1.97-.83Z"/>
    <path class="cls-2" d="m626.77,80.66c.15-.47.86.22,1.55-.02-.16.38-.74.58-1.45.73.22-.34.94-.68-.1-.71Z"/>
    <path class="cls-2" d="m634.93,104.77c.52,0,2.18-.3,2.83.36-1.48-.11-1.73.05-2.83-.36Z"/>
    <path class="cls-2" d="m636.1,106.42c.55-.66,1.32.13,1.87.12,2.16.05-1.54.23-1.87-.12Z"/>
    <path class="cls-2" d="m656.48,86.77c.55-.04.61-.29,1.19-.32.08.67-2.22.92-2.67.85,1.35-.6-.31-.81-.5-1.38.65-.58,1.7-1.11.72-1.52,1.17.16,2.51.17,3.2.7-1.35.02-2.97.11-1.93,1.66Z"/>
    <path class="cls-2" d="m689.34,80.38c-1.32-.23-.77.26-.23.57-.19-.8,2.02-.5,3.58-.96.22.35.82.42.75.99-.95.14-3.44-.18-2.95,1.07-2.2.89-6.05,1.07-7.75,2.17,1.23,1.68,3.25.64,5.53-.3-.14.69.88.5,1.34.74-1.33,2.1-5.32,1.05-7.92.93.72-.3-.71-.59.19-.92-1.79-.92-4.64-1.03-5.89-2.35-.74.01-.62.4-1.5.36.04-.42-.14-.67-.42-.85-1.02.48-2.41.82-1.9-.31-.53.1-1.55,0-1.17.5-.55-.17-.71-.63-1.34-.74-1.02-.1-.16.6-1.17.5-.37-.82-2.41-.39-2.66-1.3-1.31.78-3.36-.33-4.18-1.12,3.78-2.02,6.66.29,12.04-.34.11,1.14,1.8,1.19,3.5.67.55.1.75.47.75.99,1.1-.19,1.99-.21,2.77-.15,2.79-1.34,4.74-3.21,9.68-4.02.5.58.65.21,1.59.35-1.34.64-2.06,1.56-3.09,2.34.45.18.4.73.47,1.2Z"/>
    <path class="cls-2" d="m178.34,73.25c.57-.63,1.94-1.03,2.49-1.67.67-.13.76.28.82.72.33-.28.59-.29.65.03.79-.7,1.62-.45,2.61-1.15.73.24,1.19.74,2.65.3-2.07.86-4.35.73-5.44,1.43-.71-.12-1.15-.49-2.05-.44-.77.41-.89,1.02-2.27,1.25.02-.37-.2-.53-.73-.38.12-.18.25-.36.17-.59.46.07.72.32,1.09.48Z"/>
    <path class="cls-2" d="m247.68,70.3c.45-.24.33-.65,1.1-.78.01.83,1.46.37,2.6.19.28.68-1.86.59-2.67.92-.36-.09-.25-.62-1.04-.33Z"/>
    <path class="cls-2" d="m542.79,6.84c.24.37-1.02.27-.78,1.01-.49-.55-2.32-.02-2.37-.91-1.6.54-2.65,1.3-2.1,2.66-3.04,1.66-7.44,1.26-9.46.35-1.37-2.02-.32-3.78,2.11-4.46,3.63-1.02,8.05.84,10.7-.54,1.08.12,4.19-.26,5.73.1-.26.6.04.4.17,1.06-1.15.32-3.22.28-2.98,1.14-.46-.04-.8-.17-1.02-.4Z"/>
  </g>
  <g>
    <path class="cls-1" d="m57.28,56.81c-1.35,0-2.54-.2-3.55-.59-1.01-.4-1.81-.96-2.38-1.68s-.86-1.6-.86-2.62c0-.68.12-1.29.36-1.84.24-.55.59-1.06,1.04-1.54.45-.47,1.01-.92,1.67-1.35.58-.41,1.03-.78,1.36-1.12.33-.34.57-.65.74-.94.16-.29.28-.58.33-.87l.14-.64h2.96v.93c0,.52-.08,1.01-.23,1.46s-.4.9-.72,1.33-.77.88-1.33,1.32c-.6.48-1.05.92-1.35,1.3-.3.39-.45.82-.45,1.3,0,.39.11.71.32.96.21.25.52.44.91.56s.86.19,1.38.19c.91,0,1.81-.15,2.7-.45s1.74-.76,2.55-1.38l1.48,3.42c-.6.48-1.29.89-2.07,1.22-.78.33-1.6.58-2.46.75s-1.71.26-2.54.26Zm-2.09-15.22v-4.7h4.87v4.7h-4.87Z"/>
    <path class="cls-1" d="m69.92,51.27v-16.61h-6.75v-3.83h18.12v3.83h-6.75v16.61h-4.61Z"/>
    <path class="cls-1" d="m83.98,51.27v-20.44h4.58v20.44h-4.58Z"/>
    <path class="cls-1" d="m93.14,51.27v-20.44h14.23v3.65h-9.8v4.58h9.16v3.65h-9.16v4.9h9.8v3.65h-14.23Z"/>
    <path class="cls-1" d="m111.43,51.27v-20.44h3.51l10.75,13.74h-.46v-13.74h4.29v20.44h-3.59l-10.64-13.65h.43v13.65h-4.29Z"/>
    <path class="cls-1" d="m134.09,51.27v-20.44h14.23v3.65h-9.8v4.58h9.16v3.65h-9.16v4.9h9.8v3.65h-14.23Z"/>
    <path class="cls-1" d="m159.54,51.59c-1.1,0-2.17-.09-3.19-.26-1.02-.17-1.97-.42-2.83-.72-.86-.31-1.62-.69-2.28-1.13l1.36-3.62c.64.41,1.32.75,2.06,1.03.73.28,1.52.49,2.35.64.83.15,1.67.22,2.52.22,1.35,0,2.34-.21,2.97-.62.63-.42.94-.97.94-1.67,0-.39-.1-.71-.29-.97-.19-.26-.51-.48-.94-.65-.44-.17-1-.33-1.7-.46l-3.33-.67c-1.89-.37-3.29-1.03-4.19-2-.9-.97-1.35-2.22-1.35-3.77,0-1.29.36-2.42,1.07-3.38.71-.96,1.71-1.7,2.99-2.23s2.74-.8,4.41-.8c.96,0,1.89.09,2.78.26.89.17,1.71.42,2.46.75.75.33,1.4.72,1.94,1.19l-1.39,3.48c-.77-.62-1.65-1.08-2.64-1.38-.98-.3-2.05-.45-3.19-.45-.81,0-1.51.1-2.09.29-.58.19-1.03.47-1.35.84-.32.37-.48.8-.48,1.3,0,.56.21,1.01.62,1.35.42.34,1.14.6,2.16.8l3.3.64c1.93.39,3.37,1.03,4.32,1.94s1.42,2.12,1.42,3.62c0,1.28-.35,2.4-1.04,3.36-.7.97-1.68,1.72-2.94,2.26-1.27.54-2.76.81-4.48.81Z"/>
    <path class="cls-1" d="m188.53,51.59c-2.9,0-5.12-.73-6.65-2.2-1.54-1.47-2.3-3.64-2.3-6.52v-12.03h4.61v11.94c0,1.62.37,2.83,1.12,3.62.74.79,1.82,1.19,3.23,1.19s2.48-.4,3.22-1.2,1.1-2,1.1-3.61v-11.94h4.55v12.03c0,2.88-.76,5.05-2.28,6.52-1.52,1.47-3.71,2.2-6.59,2.2Z"/>
    <path class="cls-1" d="m201.78,51.27v-20.44h3.51l10.75,13.74h-.46v-13.74h4.29v20.44h-3.59l-10.64-13.65h.43v13.65h-4.29Z"/>
    <path class="cls-1" d="m232.85,51.27v-20.44h8.2c2.3,0,4.25.4,5.86,1.2s2.83,1.96,3.68,3.48c.85,1.52,1.28,3.36,1.28,5.52s-.43,4.01-1.28,5.54c-.85,1.53-2.08,2.69-3.7,3.49-1.61.8-3.56,1.2-5.84,1.2h-8.2Zm4.58-3.8h3.3c2.12,0,3.72-.54,4.78-1.61,1.06-1.07,1.59-2.68,1.59-4.83s-.54-3.75-1.61-4.81c-1.07-1.06-2.66-1.59-4.77-1.59h-3.3v12.84Z"/>
    <path class="cls-1" d="m255.81,51.27v-20.44h14.23v3.65h-9.8v4.58h9.16v3.65h-9.16v4.9h9.8v3.65h-14.23Z"/>
    <path class="cls-1" d="m281.26,51.59c-1.1,0-2.17-.09-3.19-.26-1.02-.17-1.97-.42-2.83-.72-.86-.31-1.62-.69-2.28-1.13l1.36-3.62c.64.41,1.32.75,2.06,1.03.73.28,1.52.49,2.35.64.83.15,1.67.22,2.52.22,1.35,0,2.34-.21,2.97-.62.63-.42.94-.97.94-1.67,0-.39-.1-.71-.29-.97-.19-.26-.51-.48-.94-.65s-1-.33-1.7-.46l-3.33-.67c-1.89-.37-3.29-1.03-4.19-2-.9-.97-1.35-2.22-1.35-3.77,0-1.29.36-2.42,1.07-3.38.71-.96,1.71-1.7,2.99-2.23s2.74-.8,4.41-.8c.97,0,1.89.09,2.78.26s1.71.42,2.46.75c.75.33,1.4.72,1.94,1.19l-1.39,3.48c-.77-.62-1.65-1.08-2.64-1.38-.99-.3-2.05-.45-3.19-.45-.81,0-1.51.1-2.09.29-.58.19-1.03.47-1.35.84s-.48.8-.48,1.3c0,.56.21,1.01.62,1.35s1.13.6,2.16.8l3.3.64c1.93.39,3.37,1.03,4.32,1.94.95.91,1.42,2.12,1.42,3.62,0,1.28-.35,2.4-1.04,3.36-.7.97-1.68,1.72-2.94,2.26-1.27.54-2.76.81-4.48.81Z"/>
    <path class="cls-1" d="m290.53,51.27l9.36-20.44h3.83l9.36,20.44h-4.67l-2.44-5.68,1.86,1.45h-12.12l1.86-1.45-2.41,5.68h-4.64Zm11.19-15.65l-3.71,8.87-.75-1.1h9.07l-.78,1.1-3.71-8.87h-.12Z"/>
    <path class="cls-1" d="m315.29,51.27v-20.44h14.09v3.65h-9.51v4.84h8.87v3.65h-8.87v8.29h-4.58Z"/>
    <path class="cls-1" d="m332.56,51.27v-20.44h4.58v20.44h-4.58Z"/>
    <path class="cls-1" d="m351.26,51.59c-1.53,0-2.92-.25-4.17-.75-1.26-.5-2.33-1.22-3.22-2.15s-1.58-2.04-2.07-3.33-.74-2.73-.74-4.32.25-3.05.74-4.33,1.19-2.39,2.09-3.32c.9-.93,1.97-1.64,3.22-2.13,1.25-.49,2.63-.74,4.16-.74s2.91.25,4.16.74c1.25.49,2.32,1.2,3.22,2.12.9.92,1.59,2.02,2.07,3.32.48,1.29.72,2.73.72,4.32s-.24,3.05-.72,4.35c-.48,1.29-1.17,2.41-2.06,3.35-.89.94-1.96,1.65-3.22,2.15-1.26.49-2.65.74-4.17.74Zm0-3.94c1.14,0,2.11-.26,2.91-.78.8-.52,1.42-1.28,1.86-2.26.43-.99.65-2.17.65-3.57s-.21-2.6-.64-3.58-1.04-1.72-1.86-2.23c-.81-.51-1.79-.77-2.93-.77s-2.09.26-2.91.77c-.82.51-1.44,1.26-1.87,2.23-.43.98-.64,2.17-.64,3.58s.21,2.58.64,3.57c.42.99,1.05,1.74,1.87,2.26.82.52,1.79.78,2.91.78Z"/>
    <path class="cls-1" d="m373.78,51.27v-20.44h9.54c1.51,0,2.8.26,3.87.78,1.07.52,1.89,1.27,2.46,2.25s.86,2.15.86,3.52-.29,2.52-.86,3.51-1.39,1.75-2.46,2.29c-1.07.54-2.36.81-3.87.81h-4.96v7.28h-4.58Zm4.58-10.9h4.15c1.16,0,2.03-.25,2.62-.74.59-.49.88-1.23.88-2.22s-.29-1.75-.88-2.23c-.59-.48-1.46-.72-2.62-.72h-4.15v5.91Z"/>
    <path class="cls-1" d="m389.26,51.27l9.36-20.44h3.83l9.36,20.44h-4.67l-2.44-5.68,1.86,1.45h-12.12l1.86-1.45-2.41,5.68h-4.64Zm11.19-15.65l-3.71,8.87-.75-1.1h9.07l-.78,1.1-3.71-8.87h-.12Z"/>
    <path class="cls-1" d="m414.01,51.27v-20.44h9.45c2.32,0,4.11.55,5.36,1.64s1.88,2.62,1.88,4.59c0,1.2-.25,2.23-.75,3.09-.5.86-1.21,1.54-2.13,2.03-.92.49-2.01.78-3.29.85l.17-.26.84.03c.64.04,1.21.24,1.72.61.51.37.97.93,1.38,1.68l3.33,6.17h-5.04l-3.42-6.35c-.19-.35-.42-.63-.67-.84-.25-.21-.54-.36-.86-.45s-.68-.13-1.09-.13h-2.32v7.77h-4.58Zm4.58-11.16h4.17c1.16,0,2.03-.24,2.61-.71.58-.47.87-1.18.87-2.13s-.29-1.65-.87-2.12-1.46-.7-2.64-.7h-4.14v5.65Z"/>
    <path class="cls-1" d="m432.1,51.27l9.36-20.44h3.83l9.36,20.44h-4.67l-2.44-5.68,1.86,1.45h-12.12l1.86-1.45-2.41,5.68h-4.64Zm11.19-15.65l-3.71,8.87-.75-1.1h9.07l-.78,1.1-3.71-8.87h-.12Z"/>
    <path class="cls-1" d="m465.26,51.27v-20.44h3.51l10.75,13.74h-.46v-13.74h4.29v20.44h-3.59l-10.64-13.65h.43v13.65h-4.29Z"/>
    <path class="cls-1" d="m497.46,51.59c-1.53,0-2.92-.25-4.17-.75-1.26-.5-2.33-1.22-3.22-2.15-.89-.93-1.58-2.04-2.07-3.33s-.74-2.73-.74-4.32.25-3.05.74-4.33,1.19-2.39,2.09-3.32,1.97-1.64,3.22-2.13c1.25-.49,2.63-.74,4.16-.74s2.91.25,4.16.74c1.25.49,2.32,1.2,3.22,2.12.9.92,1.59,2.02,2.07,3.32.48,1.29.72,2.73.72,4.32s-.24,3.05-.72,4.35c-.48,1.29-1.17,2.41-2.06,3.35-.89.94-1.96,1.65-3.22,2.15-1.26.49-2.65.74-4.17.74Zm0-3.94c1.14,0,2.11-.26,2.91-.78.8-.52,1.42-1.28,1.85-2.26s.65-2.17.65-3.57-.21-2.6-.64-3.58c-.43-.98-1.04-1.72-1.86-2.23-.81-.51-1.79-.77-2.93-.77s-2.09.26-2.91.77c-.82.51-1.44,1.26-1.87,2.23-.42.98-.64,2.17-.64,3.58s.21,2.58.64,3.57c.43.99,1.05,1.74,1.87,2.26.82.52,1.79.78,2.91.78Z"/>
    <path class="cls-1" d="m519.03,51.59c-1.1,0-2.17-.09-3.19-.26-1.02-.17-1.97-.42-2.83-.72-.86-.31-1.62-.69-2.28-1.13l1.36-3.62c.64.41,1.32.75,2.06,1.03.73.28,1.52.49,2.35.64.83.15,1.67.22,2.52.22,1.35,0,2.34-.21,2.97-.62.63-.42.94-.97.94-1.67,0-.39-.1-.71-.29-.97-.19-.26-.51-.48-.94-.65-.44-.17-1-.33-1.7-.46l-3.33-.67c-1.89-.37-3.29-1.03-4.19-2-.9-.97-1.35-2.22-1.35-3.77,0-1.29.36-2.42,1.07-3.38.71-.96,1.71-1.7,2.99-2.23s2.74-.8,4.41-.8c.96,0,1.89.09,2.78.26.89.17,1.71.42,2.46.75.75.33,1.4.72,1.94,1.19l-1.39,3.48c-.77-.62-1.65-1.08-2.64-1.38-.98-.3-2.05-.45-3.19-.45-.81,0-1.51.1-2.09.29-.58.19-1.03.47-1.35.84-.32.37-.48.8-.48,1.3,0,.56.21,1.01.62,1.35.42.34,1.14.6,2.16.8l3.3.64c1.93.39,3.37,1.03,4.32,1.94s1.42,2.12,1.42,3.62c0,1.28-.35,2.4-1.04,3.36-.7.97-1.68,1.72-2.94,2.26-1.27.54-2.76.81-4.48.81Z"/>
    <path class="cls-1" d="m540.39,51.59c-1.53,0-2.92-.25-4.17-.75-1.26-.5-2.33-1.22-3.22-2.15s-1.58-2.04-2.07-3.33-.74-2.73-.74-4.32.25-3.05.74-4.33,1.19-2.39,2.09-3.32c.9-.93,1.97-1.64,3.22-2.13,1.25-.49,2.63-.74,4.16-.74s2.91.25,4.16.74c1.25.49,2.32,1.2,3.22,2.12.9.92,1.59,2.02,2.07,3.32.48,1.29.72,2.73.72,4.32s-.24,3.05-.72,4.35c-.48,1.29-1.17,2.41-2.06,3.35-.89.94-1.96,1.65-3.22,2.15-1.26.49-2.65.74-4.17.74Zm0-3.94c1.14,0,2.11-.26,2.91-.78.8-.52,1.42-1.28,1.86-2.26.43-.99.65-2.17.65-3.57s-.21-2.6-.64-3.58-1.04-1.72-1.86-2.23c-.81-.51-1.79-.77-2.93-.77s-2.09.26-2.91.77c-.82.51-1.44,1.26-1.87,2.23-.43.98-.64,2.17-.64,3.58s.21,2.58.64,3.57c.42.99,1.05,1.74,1.87,2.26.82.52,1.79.78,2.91.78Z"/>
    <path class="cls-1" d="m558.16,51.27v-16.61h-6.75v-3.83h18.12v3.83h-6.75v16.61h-4.61Z"/>
    <path class="cls-1" d="m572.22,51.27v-20.44h9.45c2.32,0,4.11.55,5.36,1.64s1.88,2.62,1.88,4.59c0,1.2-.25,2.23-.75,3.09-.5.86-1.21,1.54-2.13,2.03-.92.49-2.01.78-3.29.85l.17-.26.84.03c.64.04,1.21.24,1.72.61.51.37.97.93,1.38,1.68l3.33,6.17h-5.04l-3.42-6.35c-.19-.35-.42-.63-.67-.84-.25-.21-.54-.36-.86-.45s-.68-.13-1.09-.13h-2.32v7.77h-4.58Zm4.58-11.16h4.17c1.16,0,2.03-.24,2.61-.71.58-.47.87-1.18.87-2.13s-.29-1.65-.87-2.12-1.46-.7-2.64-.7h-4.14v5.65Z"/>
    <path class="cls-1" d="m602.45,51.59c-1.53,0-2.92-.25-4.17-.75-1.26-.5-2.33-1.22-3.22-2.15s-1.58-2.04-2.07-3.33c-.49-1.29-.74-2.73-.74-4.32s.25-3.05.74-4.33c.49-1.29,1.19-2.39,2.09-3.32.9-.93,1.97-1.64,3.22-2.13,1.25-.49,2.63-.74,4.16-.74s2.91.25,4.16.74c1.25.49,2.32,1.2,3.22,2.12.9.92,1.59,2.02,2.07,3.32s.72,2.73.72,4.32-.24,3.05-.72,4.35-1.17,2.41-2.06,3.35c-.89.94-1.96,1.65-3.22,2.15-1.26.49-2.65.74-4.17.74Zm0-3.94c1.14,0,2.11-.26,2.91-.78.8-.52,1.42-1.28,1.86-2.26.43-.99.65-2.17.65-3.57s-.21-2.6-.64-3.58c-.42-.98-1.04-1.72-1.86-2.23-.81-.51-1.79-.77-2.93-.77s-2.09.26-2.91.77c-.82.51-1.45,1.26-1.87,2.23s-.64,2.17-.64,3.58.21,2.58.64,3.57,1.05,1.74,1.87,2.26c.82.52,1.79.78,2.91.78Z"/>
    <path class="cls-1" d="m624.02,51.59c-1.1,0-2.17-.09-3.19-.26-1.02-.17-1.97-.42-2.83-.72-.86-.31-1.62-.69-2.28-1.13l1.36-3.62c.64.41,1.32.75,2.06,1.03.73.28,1.52.49,2.35.64.83.15,1.67.22,2.52.22,1.35,0,2.34-.21,2.97-.62.63-.42.94-.97.94-1.67,0-.39-.1-.71-.29-.97-.19-.26-.51-.48-.94-.65-.44-.17-1-.33-1.7-.46l-3.33-.67c-1.89-.37-3.29-1.03-4.19-2-.9-.97-1.35-2.22-1.35-3.77,0-1.29.36-2.42,1.07-3.38.71-.96,1.71-1.7,2.99-2.23s2.74-.8,4.41-.8c.96,0,1.89.09,2.78.26.89.17,1.71.42,2.46.75.75.33,1.4.72,1.94,1.19l-1.39,3.48c-.77-.62-1.65-1.08-2.64-1.38-.98-.3-2.05-.45-3.19-.45-.81,0-1.51.1-2.09.29-.58.19-1.03.47-1.35.84-.32.37-.48.8-.48,1.3,0,.56.21,1.01.62,1.35.42.34,1.14.6,2.16.8l3.3.64c1.93.39,3.37,1.03,4.32,1.94s1.42,2.12,1.42,3.62c0,1.28-.35,2.4-1.04,3.36-.7.97-1.68,1.72-2.94,2.26-1.27.54-2.76.81-4.48.81Z"/>
    <path class="cls-1" d="m638.95,44.57v-1.13c0-.58.07-1.12.22-1.62.15-.5.39-.99.72-1.45.34-.46.77-.94,1.29-1.42.41-.37.74-.7,1.01-1,.27-.3.48-.6.62-.9.15-.3.22-.62.22-.97,0-.39-.11-.71-.33-.97-.22-.26-.53-.45-.93-.58-.4-.13-.86-.19-1.38-.19-.91,0-1.8.15-2.68.46-.88.31-1.73.8-2.56,1.48l-1.48-3.42c.62-.52,1.32-.95,2.1-1.29.78-.34,1.6-.6,2.46-.78.86-.18,1.7-.28,2.51-.28,1.35,0,2.54.21,3.57.62,1.02.42,1.82,1,2.38,1.75.56.75.84,1.66.84,2.72,0,.68-.13,1.3-.38,1.87-.25.57-.6,1.11-1.06,1.61-.45.5-1.01,1-1.67,1.48-.58.43-1.04.83-1.38,1.2s-.58.73-.74,1.07c-.16.34-.25.68-.29,1.03l-.12.7h-2.96Zm-.96,6.7v-4.67h4.87v4.67h-4.87Z"/>
  </g>
  <g>
    <polygon class="cls-1" points="49.37 139.94 66.98 139.94 71.78 115.75 95.7 115.75 90.9 139.94 108.51 139.94 114.33 110.84 55.19 110.84 49.37 139.94"/>
    <polygon class="cls-1" points="163.2 114.86 147.11 114.86 149.48 110.84 132.24 110.84 113.58 139.94 132.16 139.94 139.37 127.84 165.87 127.84 168.36 139.94 185.88 139.94 178.86 110.84 162.37 110.84 163.2 114.86"/>
    <path class="cls-1" d="m190.95,139.94h34.24c16.01,0,28.55-6.23,28.55-19.74,0-3.83-1.33-6.98-3.77-9.36h-53.19l-5.82,29.1Zm37.97-25.35c4.27,0,7.29,1.51,7.29,5.25,0,4.98-3.91,7.38-10.05,7.38h-15.3l2.49-12.63h15.56Z"/>
    <polygon class="cls-1" points="259.34 139.94 306.65 139.94 309.5 125.97 279.8 125.97 282.81 110.84 265.16 110.84 259.34 139.94"/>
    <polygon class="cls-1" points="313.59 139.94 363.48 139.94 366.33 126.33 333.69 126.33 335.91 114.95 363.66 114.95 364.47 110.84 319.41 110.84 313.59 139.94"/>
    <polygon class="cls-1" points="373.36 139.94 389.54 139.94 395.38 110.84 379.18 110.84 373.36 139.94"/>
    <polygon class="cls-1" points="429.47 139.94 445.75 139.94 451.48 110.84 435.15 110.84 429.47 139.94"/>
    <polygon class="cls-1" points="414.71 113.7 413.55 110.84 397.7 110.84 407.42 133.8 415.15 133.8 432.99 110.84 416.96 110.84 414.71 113.7"/>
    <path class="cls-1" d="m493.33,126.6c-9.34,0-14.67-5.6-14.67-13.87,0-.63.03-1.26.07-1.89h-17.74c-.07.97-.11,1.95-.11,2.95,0,16.1,11.83,27.39,30.95,27.39,20.3,0,35.19-12.42,38.27-30.34h-17.86c-2.06,8.97-8.84,15.76-18.9,15.76Z"/>
    <path class="cls-1" d="m569.01,121.97c0,3.38-3.91,5.51-10.67,5.51-7.12,0-14.41-2.13-20.72-6.14l-6.94,13.16c5.6,3.82,15.3,6.67,25.97,6.67,18.23,0,29.97-8.8,29.97-22.15,0-3.44-.98-6.09-2.57-8.2h-38.59c8.9,5.78,23.56,5.31,23.56,11.13Z"/>
    <polygon class="cls-1" points="621.84 117.26 635.27 117.26 637.1 110.84 622.57 110.84 621.84 117.26"/>
    <g>
      <polygon class="cls-1" points="117.33 74.96 99.72 74.96 95.09 98.26 71.17 98.26 75.8 74.96 58.19 74.96 51.74 107.21 110.88 107.21 117.33 74.96"/>
      <polygon class="cls-1" points="155.39 91.95 158.55 107.21 175.01 107.21 167.22 74.96 149.88 74.96 129.19 107.21 146.38 107.21 155.39 91.95"/>
      <path class="cls-1" d="m241.75,105.11c6.76-2.85,11.12-8.09,11.12-15.56,0-9.34-7.56-14.59-21.61-14.59h-31.48l-6.45,32.25h51.99c-1.04-.82-2.23-1.52-3.56-2.1Zm-16.9-5.43h-12.63l2.4-12.01h12.45c4.62,0,7.38,1.51,7.38,4.89,0,4.62-3.38,7.12-9.6,7.12Z"/>
      <polygon class="cls-1" points="285.77 74.96 268.16 74.96 261.71 107.21 279.36 107.21 285.77 74.96"/>
      <polygon class="cls-1" points="362.61 99.06 334.95 99.06 337 88.57 368.39 88.57 371.15 74.96 322.41 74.96 315.96 107.21 361.01 107.21 362.61 99.06"/>
      <polygon class="cls-1" points="432.25 104.4 431.7 107.21 448.03 107.21 454.39 74.96 439.36 74.96 414.04 107.21 430.06 107.21 432.25 104.4"/>
      <polygon class="cls-1" points="392.49 104.4 393.68 107.21 409.55 107.21 396.49 74.96 382.18 74.96 375.73 107.21 391.93 107.21 392.49 104.4"/>
      <path class="cls-1" d="m494.59,88.3c9.34,0,14.67,5.6,14.67,13.87,0,1.73-.16,3.41-.47,5.03h17.82c.29-1.97.45-4.01.45-6.1,0-16.1-11.83-27.39-30.95-27.39-21.47,0-36.9,13.89-38.69,33.49h17.76c1.08-10.48,8.21-18.91,19.42-18.91Z"/>
      <path class="cls-1" d="m552.75,93.46c0-3.38,3.91-6.05,11.21-6.05,6.14,0,12.18,1.6,17.08,4.71l6.4-13.07c-5.6-3.47-13.61-5.34-22.41-5.34-18.41,0-29.88,8.8-29.88,22.23,0,5.27,2.2,8.77,5.41,11.26h39.11c-7.87-8.65-26.98-6.97-26.91-13.75Z"/>
      <polygon class="cls-1" points="642.93 74.96 622.74 74.96 619.05 107.21 633.73 107.21 642.93 74.96"/>
    </g>
    <path class="cls-1" d="m626.2,122.24c-5.96,0-10.58,4.09-10.58,9.87,0,4.8,3.91,8.63,9.6,8.63s10.58-4.45,10.58-10.05c0-4.8-3.91-8.45-9.6-8.45Z"/>
  </g>
</svg>