<?xml version="1.0" encoding="UTF-8"?>
<svg id="Capa_1" data-name="Capa 1" xmlns="http://www.w3.org/2000/svg" viewBox="0 0 396.62 73.93">
  <defs>
    <style>
      .cls-1 {
        fill: #fff;
      }
    </style>
  </defs>
  <g>
    <path class="cls-1" d="m5.04,17.53c-.85,0-1.6-.13-2.24-.39-.64-.26-1.14-.62-1.49-1.08-.36-.46-.53-1.01-.53-1.63,0-.36.05-.71.16-1.05.11-.34.29-.66.55-.99s.61-.65,1.07-.99c.41-.3.73-.57.96-.83.23-.26.39-.5.5-.72.11-.22.18-.43.2-.64l.12-.54h1.74v.81c0,.34-.05.66-.14.98-.09.32-.23.62-.43.92s-.46.61-.79.93c-.37.34-.63.62-.77.86-.14.24-.21.49-.21.76,0,.22.06.41.16.58.11.17.28.29.51.38.23.08.52.13.85.13.61,0,1.19-.1,1.75-.29.56-.19,1.1-.48,1.62-.87l.97,2.21c-.36.3-.79.55-1.3.77-.5.22-1.03.39-1.59.5-.56.12-1.12.17-1.69.17Zm-1.39-10.07v-3.1h3.14v3.1h-3.14Z"/>
    <path class="cls-1" d="m14.28,13.85V2.67h-4.53V.19h12.05v2.48h-4.51v11.18h-3Z"/>
    <path class="cls-1" d="m23.26,13.85V.19h3v13.66h-3Z"/>
    <path class="cls-1" d="m29,13.85V.19h9.36v2.34h-6.47v3.2h6.02v2.34h-6.02v3.43h6.47v2.34h-9.36Z"/>
    <path class="cls-1" d="m40.73,13.85V.19h2.23l7.34,9.36h-.54V.19h2.81v13.66h-2.23l-7.34-9.37h.52v9.37h-2.79Z"/>
    <path class="cls-1" d="m55.32,13.85V.19h9.36v2.34h-6.47v3.2h6.02v2.34h-6.02v3.43h6.47v2.34h-9.36Z"/>
    <path class="cls-1" d="m71.94,14.04c-.71,0-1.4-.06-2.07-.17-.67-.12-1.28-.29-1.84-.51-.56-.23-1.05-.49-1.49-.8l.87-2.34c.41.27.86.51,1.34.71.48.2.99.36,1.53.46.54.11,1.1.16,1.67.16.93,0,1.6-.14,2.01-.43.41-.28.62-.65.62-1.08,0-.26-.06-.47-.19-.65-.13-.17-.34-.33-.62-.46-.28-.13-.66-.24-1.12-.33l-2.19-.46c-1.24-.27-2.16-.72-2.75-1.35-.59-.63-.89-1.45-.89-2.47,0-.86.23-1.62.7-2.28.46-.65,1.11-1.16,1.95-1.51.83-.35,1.8-.53,2.9-.53.62,0,1.22.06,1.8.17.58.12,1.12.29,1.62.52.5.23.92.5,1.27.81l-.87,2.25c-.52-.43-1.1-.74-1.75-.95-.65-.21-1.35-.31-2.1-.31-.54,0-1,.07-1.38.21-.38.14-.67.34-.86.59-.19.25-.29.55-.29.9s.13.66.4.89c.26.23.73.42,1.4.56l2.17.47c1.28.27,2.23.71,2.86,1.31.63.6.94,1.39.94,2.37,0,.84-.23,1.58-.7,2.23-.46.65-1.11,1.14-1.95,1.49-.83.35-1.82.52-2.95.52Z"/>
    <path class="cls-1" d="m90.68,14.04c-1.94,0-3.41-.49-4.43-1.48-1.01-.99-1.52-2.46-1.52-4.41V.19h3v7.96c0,1.11.25,1.95.76,2.51.5.56,1.23.84,2.19.84s1.67-.28,2.17-.84c.5-.56.76-1.4.76-2.51V.19h2.96v7.96c0,1.95-.5,3.42-1.5,4.41-1,.99-2.46,1.48-4.39,1.48Z"/>
    <path class="cls-1" d="m99.23,13.85V.19h2.23l7.34,9.36h-.54V.19h2.81v13.66h-2.23l-7.34-9.37h.52v9.37h-2.79Z"/>
    <path class="cls-1" d="m119.18,13.85V.19h5.35c1.56,0,2.89.26,3.97.79s1.91,1.3,2.49,2.31c.57,1.01.86,2.25.86,3.71s-.29,2.7-.86,3.71c-.57,1.01-1.4,1.79-2.49,2.32s-2.41.8-3.97.8h-5.35Zm3-2.46h2.15c1.47,0,2.57-.36,3.29-1.08.72-.72,1.08-1.82,1.08-3.29s-.36-2.57-1.08-3.28c-.72-.72-1.82-1.07-3.29-1.07h-2.15v8.74Z"/>
    <path class="cls-1" d="m134.15,13.85V.19h9.36v2.34h-6.47v3.2h6.02v2.34h-6.02v3.43h6.47v2.34h-9.36Z"/>
    <path class="cls-1" d="m150.77,14.04c-.71,0-1.4-.06-2.07-.17-.67-.12-1.28-.29-1.84-.51-.56-.23-1.05-.49-1.49-.8l.87-2.34c.41.27.86.51,1.34.71.48.2.99.36,1.53.46.54.11,1.1.16,1.67.16.93,0,1.6-.14,2.01-.43.41-.28.62-.65.62-1.08,0-.26-.06-.47-.19-.65-.13-.17-.34-.33-.62-.46-.28-.13-.66-.24-1.12-.33l-2.19-.46c-1.24-.27-2.16-.72-2.75-1.35-.59-.63-.89-1.45-.89-2.47,0-.86.23-1.62.7-2.28.46-.65,1.11-1.16,1.95-1.51.83-.35,1.8-.53,2.9-.53.62,0,1.22.06,1.8.17.58.12,1.12.29,1.62.52.5.23.92.5,1.27.81l-.87,2.25c-.52-.43-1.1-.74-1.75-.95-.65-.21-1.35-.31-2.1-.31-.54,0-1,.07-1.38.21-.38.14-.67.34-.86.59-.19.25-.29.55-.29.9s.13.66.4.89c.26.23.73.42,1.4.56l2.17.47c1.28.27,2.23.71,2.86,1.31.63.6.94,1.39.94,2.37,0,.84-.23,1.58-.7,2.23-.46.65-1.11,1.14-1.95,1.49-.83.35-1.82.52-2.95.52Z"/>
    <path class="cls-1" d="m156.75,13.85L163.03.19h2.4l6.28,13.66h-3.02l-1.63-3.8,1.2.83h-8.08l1.2-.83-1.61,3.8h-3.02Zm7.46-10.46l-2.5,5.93-.52-.77h6.06l-.5.77-2.5-5.93h-.04Z"/>
    <path class="cls-1" d="m172.88,13.85V.19h9.22v2.34h-6.22v3.31h5.81v2.36h-5.81v5.64h-3Z"/>
    <path class="cls-1" d="m183.92,13.85V.19h3v13.66h-3Z"/>
    <path class="cls-1" d="m195.99,14.04c-1.01,0-1.92-.16-2.75-.49-.83-.33-1.54-.81-2.13-1.43-.59-.63-1.05-1.37-1.37-2.23-.32-.86-.48-1.82-.48-2.88s.16-2.02.47-2.89c.32-.86.77-1.61,1.37-2.23.59-.62,1.31-1.09,2.14-1.41.83-.32,1.75-.48,2.76-.48s1.94.16,2.77.49c.83.33,1.54.8,2.13,1.4.59.61,1.05,1.34,1.38,2.21.32.87.48,1.83.48,2.91s-.16,2.02-.47,2.89c-.32.87-.77,1.61-1.37,2.24-.6.63-1.31,1.1-2.14,1.42-.83.32-1.75.48-2.77.48Zm0-2.54c.76,0,1.41-.18,1.95-.54.54-.36.95-.88,1.24-1.55.29-.67.44-1.47.44-2.4s-.14-1.75-.43-2.42c-.28-.67-.69-1.18-1.23-1.53-.54-.35-1.19-.52-1.97-.52s-1.39.17-1.94.52c-.54.35-.96.86-1.24,1.52-.28.67-.43,1.48-.43,2.43s.14,1.75.43,2.42c.28.67.7,1.19,1.24,1.54.54.36,1.19.53,1.94.53Z"/>
    <path class="cls-1" d="m210.44,13.85V.19h6.24c1.02,0,1.89.17,2.6.51.71.34,1.25.84,1.62,1.49.37.65.55,1.44.55,2.35s-.18,1.7-.55,2.36c-.37.66-.91,1.16-1.62,1.51-.71.35-1.58.52-2.6.52h-3.23v4.9h-3Zm3-7.24h2.73c.77,0,1.37-.17,1.77-.51.41-.34.61-.86.61-1.54s-.2-1.17-.61-1.51c-.41-.34-1-.5-1.77-.5h-2.73v4.07Z"/>
    <path class="cls-1" d="m221.75,13.85L228.03.19h2.4l6.28,13.66h-3.02l-1.63-3.8,1.2.83h-8.08l1.2-.83-1.61,3.8h-3.02Zm7.46-10.46l-2.5,5.93-.52-.77h6.06l-.5.77-2.5-5.93h-.04Z"/>
    <path class="cls-1" d="m237.89,13.85V.19h6.24c1.51,0,2.68.37,3.52,1.1.83.74,1.25,1.76,1.25,3.08,0,.85-.19,1.59-.56,2.21-.37.62-.92,1.1-1.63,1.43-.71.34-1.57.5-2.58.5l.17-.31h.77c.54,0,1.02.13,1.42.39.41.26.75.66,1.04,1.2l2.21,4.05h-3.29l-2.38-4.34c-.12-.25-.26-.44-.44-.57-.17-.14-.37-.23-.57-.28-.21-.05-.45-.08-.72-.08h-1.45v5.27h-3Zm3-7.46h2.71c.79,0,1.38-.16,1.79-.48.41-.32.61-.81.61-1.45s-.2-1.11-.61-1.43c-.41-.32-1-.48-1.79-.48h-2.71v3.85Z"/>
    <path class="cls-1" d="m249.82,13.85l6.28-13.66h2.4l6.28,13.66h-3.02l-1.63-3.8,1.2.83h-8.08l1.2-.83-1.61,3.8h-3.02Zm7.46-10.46l-2.5,5.93-.52-.77h6.06l-.5.77-2.5-5.93h-.04Z"/>
    <path class="cls-1" d="m271.32,13.85V.19h2.23l7.34,9.36h-.54V.19h2.81v13.66h-2.23l-7.34-9.37h.52v9.37h-2.79Z"/>
    <path class="cls-1" d="m292.23,14.04c-1.01,0-1.92-.16-2.75-.49s-1.54-.81-2.13-1.43c-.59-.63-1.05-1.37-1.37-2.23-.32-.86-.48-1.82-.48-2.88s.16-2.02.47-2.89c.32-.86.77-1.61,1.37-2.23.59-.62,1.31-1.09,2.14-1.41.83-.32,1.75-.48,2.76-.48s1.94.16,2.77.49c.83.33,1.54.8,2.13,1.4s1.05,1.34,1.38,2.21.48,1.83.48,2.91-.16,2.02-.47,2.89-.77,1.61-1.37,2.24c-.6.63-1.31,1.1-2.14,1.42-.83.32-1.75.48-2.77.48Zm0-2.54c.76,0,1.41-.18,1.95-.54.54-.36.95-.88,1.24-1.55.29-.67.44-1.47.44-2.4s-.14-1.75-.43-2.42-.69-1.18-1.23-1.53c-.54-.35-1.19-.52-1.97-.52s-1.4.17-1.94.52c-.54.35-.96.86-1.24,1.52-.28.67-.43,1.48-.43,2.43s.14,1.75.43,2.42c.28.67.7,1.19,1.24,1.54.54.36,1.19.53,1.94.53Z"/>
    <path class="cls-1" d="m306.2,14.04c-.71,0-1.4-.06-2.07-.17-.67-.12-1.28-.29-1.84-.51-.56-.23-1.05-.49-1.49-.8l.87-2.34c.41.27.86.51,1.34.71.48.2.99.36,1.53.46.54.11,1.1.16,1.67.16.93,0,1.6-.14,2.01-.43.41-.28.62-.65.62-1.08,0-.26-.06-.47-.19-.65-.13-.17-.34-.33-.62-.46-.28-.13-.66-.24-1.12-.33l-2.19-.46c-1.24-.27-2.16-.72-2.75-1.35-.59-.63-.89-1.45-.89-2.47,0-.86.23-1.62.7-2.28.47-.65,1.11-1.16,1.95-1.51.83-.35,1.8-.53,2.9-.53.62,0,1.22.06,1.8.17.58.12,1.12.29,1.62.52.5.23.92.5,1.27.81l-.87,2.25c-.52-.43-1.1-.74-1.75-.95-.65-.21-1.35-.31-2.1-.31-.54,0-1,.07-1.38.21-.38.14-.67.34-.86.59-.19.25-.29.55-.29.9s.13.66.4.89c.26.23.73.42,1.4.56l2.17.47c1.28.27,2.23.71,2.86,1.31s.94,1.39.94,2.37c0,.84-.23,1.58-.7,2.23-.47.65-1.11,1.14-1.95,1.49-.83.35-1.82.52-2.95.52Z"/>
    <path class="cls-1" d="m320.07,14.04c-1.01,0-1.92-.16-2.75-.49s-1.54-.81-2.13-1.43c-.59-.63-1.05-1.37-1.37-2.23-.32-.86-.48-1.82-.48-2.88s.16-2.02.47-2.89c.32-.86.77-1.61,1.37-2.23.59-.62,1.31-1.09,2.14-1.41.83-.32,1.75-.48,2.76-.48s1.94.16,2.77.49c.83.33,1.54.8,2.13,1.4s1.05,1.34,1.38,2.21.48,1.83.48,2.91-.16,2.02-.47,2.89-.77,1.61-1.37,2.24c-.6.63-1.31,1.1-2.14,1.42-.83.32-1.75.48-2.77.48Zm0-2.54c.76,0,1.41-.18,1.95-.54.54-.36.95-.88,1.24-1.55.29-.67.44-1.47.44-2.4s-.14-1.75-.43-2.42-.69-1.18-1.23-1.53c-.54-.35-1.19-.52-1.97-.52s-1.4.17-1.94.52c-.54.35-.96.86-1.24,1.52-.28.67-.43,1.48-.43,2.43s.14,1.75.43,2.42c.28.67.7,1.19,1.24,1.54.54.36,1.19.53,1.94.53Z"/>
    <path class="cls-1" d="m332.4,13.85V2.67h-4.53V.19h12.05v2.48h-4.51v11.18h-3Z"/>
    <path class="cls-1" d="m341.39,13.85V.19h6.24c1.51,0,2.68.37,3.52,1.1.83.74,1.25,1.76,1.25,3.08,0,.85-.19,1.59-.56,2.21-.37.62-.92,1.1-1.63,1.43-.71.34-1.57.5-2.58.5l.17-.31h.78c.54,0,1.02.13,1.42.39.41.26.75.66,1.04,1.2l2.21,4.05h-3.29l-2.38-4.34c-.12-.25-.26-.44-.44-.57-.17-.14-.37-.23-.57-.28-.21-.05-.45-.08-.72-.08h-1.45v5.27h-3Zm3-7.46h2.71c.79,0,1.38-.16,1.79-.48.41-.32.61-.81.61-1.45s-.2-1.11-.61-1.43c-.41-.32-1-.48-1.79-.48h-2.71v3.85Z"/>
    <path class="cls-1" d="m361.2,14.04c-1.01,0-1.92-.16-2.75-.49-.83-.33-1.54-.81-2.13-1.43s-1.05-1.37-1.37-2.23c-.32-.86-.48-1.82-.48-2.88s.16-2.02.47-2.89c.32-.86.77-1.61,1.37-2.23.59-.62,1.31-1.09,2.14-1.41.83-.32,1.75-.48,2.76-.48s1.94.16,2.77.49c.83.33,1.54.8,2.13,1.4.59.61,1.05,1.34,1.37,2.21.32.87.48,1.83.48,2.91s-.16,2.02-.47,2.89c-.32.87-.78,1.61-1.38,2.24s-1.31,1.1-2.14,1.42c-.83.32-1.75.48-2.77.48Zm0-2.54c.76,0,1.41-.18,1.95-.54s.95-.88,1.24-1.55c.29-.67.44-1.47.44-2.4s-.14-1.75-.43-2.42c-.28-.67-.69-1.18-1.23-1.53-.54-.35-1.19-.52-1.97-.52s-1.39.17-1.94.52c-.54.35-.96.86-1.24,1.52-.28.67-.43,1.48-.43,2.43s.14,1.75.43,2.42c.28.67.7,1.19,1.24,1.54.54.36,1.19.53,1.94.53Z"/>
    <path class="cls-1" d="m375.17,14.04c-.71,0-1.4-.06-2.07-.17-.67-.12-1.28-.29-1.84-.51s-1.05-.49-1.49-.8l.87-2.34c.41.27.86.51,1.34.71s.99.36,1.53.46c.54.11,1.1.16,1.67.16.93,0,1.6-.14,2.01-.43.41-.28.62-.65.62-1.08,0-.26-.07-.47-.19-.65s-.34-.33-.62-.46c-.28-.13-.66-.24-1.12-.33l-2.19-.46c-1.24-.27-2.16-.72-2.75-1.35-.59-.63-.89-1.45-.89-2.47,0-.86.23-1.62.7-2.28.46-.65,1.11-1.16,1.95-1.51.83-.35,1.8-.53,2.9-.53.62,0,1.22.06,1.8.17.58.12,1.12.29,1.62.52.5.23.92.5,1.27.81l-.87,2.25c-.52-.43-1.1-.74-1.75-.95-.65-.21-1.35-.31-2.1-.31-.54,0-1,.07-1.38.21-.38.14-.67.34-.86.59s-.29.55-.29.9.13.66.4.89c.26.23.73.42,1.4.56l2.17.47c1.28.27,2.23.71,2.86,1.31.63.6.94,1.39.94,2.37,0,.84-.23,1.58-.7,2.23-.46.65-1.11,1.14-1.95,1.49s-1.82.52-2.95.52Z"/>
    <path class="cls-1" d="m384.87,9.53v-.91c0-.39.04-.75.14-1.08.09-.34.24-.67.46-1,.21-.33.48-.68.8-1.06.23-.26.42-.49.57-.69.15-.2.25-.39.31-.58s.09-.38.09-.57c0-.25-.06-.45-.17-.62-.12-.17-.29-.3-.51-.39-.23-.09-.51-.14-.84-.14-.61,0-1.19.1-1.76.31s-1.11.54-1.63.99l-.95-2.25c.37-.32.81-.6,1.31-.82.5-.23,1.02-.4,1.58-.53.56-.13,1.11-.19,1.67-.19.85,0,1.6.14,2.24.42.64.28,1.14.66,1.5,1.15.36.49.54,1.07.54,1.74,0,.39-.06.76-.17,1.11-.12.36-.3.7-.55,1.04-.25.34-.61.7-1.07,1.08-.4.32-.72.62-.95.9-.23.28-.4.54-.51.77-.11.24-.18.48-.22.73l-.08.58h-1.76Zm-.7,4.32v-3.1h3.16v3.1h-3.16Z"/>
  </g>
  <g>
    <polygon class="cls-1" points="0 73.1 11.77 73.1 14.98 56.93 30.96 56.93 27.75 73.1 39.52 73.1 43.41 53.65 3.89 53.65 0 73.1"/>
    <polygon class="cls-1" points="76.07 56.34 65.31 56.34 66.9 53.65 55.38 53.65 42.91 73.1 55.33 73.1 60.14 65.01 77.85 65.01 79.51 73.1 91.22 73.1 86.53 53.65 75.51 53.65 76.07 56.34"/>
    <path class="cls-1" d="m94.61,73.1h22.88c10.7,0,19.08-4.16,19.08-13.19,0-2.56-.89-4.67-2.52-6.25h-35.54l-3.89,19.44Zm25.37-16.94c2.85,0,4.87,1.01,4.87,3.51,0,3.33-2.61,4.93-6.71,4.93h-10.22l1.66-8.44h10.4Z"/>
    <polygon class="cls-1" points="140.31 73.1 171.92 73.1 173.82 63.77 153.97 63.77 155.99 53.65 144.2 53.65 140.31 73.1"/>
    <polygon class="cls-1" points="176.56 73.1 209.89 73.1 211.8 64 189.99 64 191.47 56.4 210.01 56.4 210.55 53.65 180.44 53.65 176.56 73.1"/>
    <polygon class="cls-1" points="216.49 73.1 227.31 73.1 231.21 53.65 220.38 53.65 216.49 73.1"/>
    <polygon class="cls-1" points="253.99 73.1 264.86 73.1 268.7 53.65 257.78 53.65 253.99 73.1"/>
    <polygon class="cls-1" points="244.12 55.56 243.35 53.65 232.76 53.65 239.25 68.99 244.42 68.99 256.34 53.65 245.63 53.65 244.12 55.56"/>
    <path class="cls-1" d="m296.66,64.18c-6.24,0-9.8-3.74-9.8-9.27,0-.42.02-.84.05-1.26h-11.86c-.05.65-.08,1.31-.08,1.97,0,10.76,7.9,18.3,20.68,18.3,13.57,0,23.51-8.3,25.57-20.28h-11.93c-1.38,5.99-5.91,10.53-12.63,10.53Z"/>
    <path class="cls-1" d="m347.23,61.09c0,2.26-2.61,3.68-7.13,3.68-4.75,0-9.63-1.43-13.85-4.1l-4.64,8.8c3.74,2.56,10.22,4.46,17.35,4.46,12.18,0,20.03-5.88,20.03-14.8,0-2.3-.66-4.07-1.72-5.48h-25.79c5.95,3.86,15.74,3.55,15.74,7.44Z"/>
    <polygon class="cls-1" points="382.53 57.94 391.5 57.94 392.73 53.65 383.02 53.65 382.53 57.94"/>
    <g>
      <polygon class="cls-1" points="45.41 29.68 33.65 29.68 30.56 45.25 14.57 45.25 17.66 29.68 5.89 29.68 1.58 51.23 41.1 51.23 45.41 29.68"/>
      <polygon class="cls-1" points="70.85 41.03 72.96 51.23 83.95 51.23 78.75 29.68 67.16 29.68 53.34 51.23 64.83 51.23 70.85 41.03"/>
      <path class="cls-1" d="m128.55,49.82c4.52-1.9,7.43-5.41,7.43-10.4,0-6.24-5.05-9.75-14.44-9.75h-21.04l-4.31,21.55h34.74c-.69-.55-1.49-1.02-2.38-1.4Zm-11.29-3.63h-8.44l1.6-8.02h8.32c3.09,0,4.93,1.01,4.93,3.27,0,3.09-2.26,4.75-6.42,4.75Z"/>
      <polygon class="cls-1" points="157.97 29.68 146.2 29.68 141.89 51.23 153.68 51.23 157.97 29.68"/>
      <polygon class="cls-1" points="209.31 45.78 190.83 45.78 192.2 38.77 213.17 38.77 215.02 29.68 182.45 29.68 178.14 51.23 208.24 51.23 209.31 45.78"/>
      <polygon class="cls-1" points="255.84 49.35 255.48 51.23 266.39 51.23 270.64 29.68 260.6 29.68 243.68 51.23 254.38 51.23 255.84 49.35"/>
      <polygon class="cls-1" points="229.28 49.35 230.07 51.23 240.68 51.23 231.95 29.68 222.38 29.68 218.08 51.23 228.9 51.23 229.28 49.35"/>
      <path class="cls-1" d="m297.5,38.59c6.24,0,9.81,3.74,9.81,9.27,0,1.15-.11,2.28-.32,3.36h11.9c.2-1.32.3-2.68.3-4.08,0-10.76-7.9-18.3-20.68-18.3-14.35,0-24.65,9.28-25.85,22.38h11.87c.72-7.01,5.49-12.63,12.98-12.63Z"/>
      <path class="cls-1" d="m336.37,42.04c0-2.26,2.61-4.04,7.49-4.04,4.1,0,8.14,1.07,11.41,3.15l4.28-8.74c-3.74-2.32-9.09-3.57-14.98-3.57-12.3,0-19.97,5.88-19.97,14.86,0,3.52,1.47,5.86,3.61,7.52h26.13c-5.26-5.78-18.03-4.66-17.98-9.19Z"/>
      <polygon class="cls-1" points="396.62 29.68 383.13 29.68 380.66 51.23 390.47 51.23 396.62 29.68"/>
    </g>
    <path class="cls-1" d="m385.44,61.27c-3.98,0-7.07,2.73-7.07,6.6,0,3.21,2.61,5.76,6.42,5.76s7.07-2.97,7.07-6.72c0-3.21-2.61-5.65-6.42-5.65Z"/>
  </g>
</svg>