<?xml version="1.0" encoding="UTF-8"?>
<svg id="Capa_1" data-name="Capa 1" xmlns="http://www.w3.org/2000/svg" viewBox="0 0 1231.81 142.14">
  <defs>
    <style>
      .cls-1 {
        fill: #e20e1c;
        stroke-width: 0px;
      }
    </style>
  </defs>
  <g>
    <path class="cls-1" d="M0,54.44V.84h14.22v20.61h21.82V.84h14.22v53.6h-14.22v-21.21H14.22v21.21H0Z"/>
    <path class="cls-1" d="M54.74,54.44L79.68.84h11.71l24.94,53.6h-14.37l-6.31-14.67,5.47,4.49h-31.33l5.47-4.49-6.23,14.67h-14.3ZM85.31,15.36l-8.82,21.14-2.13-3.42h22.2l-2.05,3.42-8.9-21.14h-.31Z"/>
    <path class="cls-1" d="M120.82,54.44V.84h10.49l26.38,32.77h-1.22V.84h13.23v53.6h-10.8l-26.08-32.47h1.22v32.47h-13.23Z"/>
    <path class="cls-1" d="M230.23,55.35c-5.78,0-10.8-1.14-15.05-3.42-4.26-2.28-7.54-5.49-9.85-9.62-2.31-4.13-3.46-9.04-3.46-14.71s1.15-10.57,3.46-14.67c2.3-4.11,5.57-7.29,9.81-9.54,4.23-2.25,9.26-3.38,15.09-3.38,3.6,0,7.02.51,10.26,1.52,3.24,1.01,5.88,2.41,7.91,4.18l-4.26,11.18c-2.18-1.62-4.37-2.79-6.58-3.5-2.21-.71-4.47-1.07-6.8-1.07-4.46,0-7.92,1.29-10.38,3.88-2.46,2.58-3.69,6.39-3.69,11.4s1.22,8.83,3.65,11.44c2.43,2.61,5.9,3.92,10.42,3.92,2.33,0,4.6-.34,6.8-1.03,2.2-.68,4.4-1.84,6.58-3.46l4.26,11.1c-2.03,1.77-4.67,3.18-7.91,4.22-3.24,1.04-6.67,1.56-10.26,1.56Z"/>
    <path class="cls-1" d="M280.94,55.28c-4.11,0-7.85-.66-11.22-1.98-3.37-1.32-6.27-3.19-8.71-5.63-2.43-2.43-4.31-5.35-5.63-8.74-1.32-3.4-1.98-7.2-1.98-11.4s.66-7.92,1.98-11.29c1.32-3.37,3.19-6.27,5.63-8.71,2.43-2.43,5.33-4.3,8.71-5.59,3.37-1.29,7.11-1.94,11.22-1.94s7.77.65,11.14,1.94c3.37,1.29,6.27,3.14,8.71,5.55,2.43,2.41,4.31,5.31,5.63,8.71,1.32,3.4,1.98,7.17,1.98,11.33s-.66,8.01-1.98,11.4c-1.32,3.4-3.19,6.32-5.63,8.78-2.43,2.46-5.33,4.33-8.71,5.63-3.37,1.29-7.08,1.94-11.14,1.94ZM280.94,43.34c2.69,0,4.98-.63,6.88-1.9,1.9-1.27,3.36-3.07,4.37-5.4,1.01-2.33,1.52-5.14,1.52-8.44s-.51-6.11-1.52-8.44c-1.01-2.33-2.47-4.12-4.37-5.36-1.9-1.24-4.22-1.86-6.96-1.86s-4.92.62-6.84,1.86c-1.93,1.24-3.4,3.03-4.41,5.36-1.01,2.33-1.52,5.14-1.52,8.44s.51,6.11,1.52,8.44c1.01,2.33,2.48,4.13,4.41,5.4,1.93,1.27,4.23,1.9,6.92,1.9Z"/>
    <path class="cls-1" d="M317.82,54.44V.84h10.49l26.38,32.77h-1.22V.84h13.23v53.6h-10.8l-26.08-32.47h1.22v32.47h-13.23Z"/>
    <path class="cls-1" d="M377.66,54.44V.84h38.09v11.1h-23.88v10.49h22.28v11.1h-22.28v20.91h-14.22Z"/>
    <path class="cls-1" d="M423.5,54.44V.84h14.22v53.6h-14.22Z"/>
    <path class="cls-1" d="M442.21,54.44L467.15.84h11.71l24.94,53.6h-14.37l-6.31-14.67,5.47,4.49h-31.33l5.47-4.49-6.23,14.67h-14.29ZM472.77,15.36l-8.82,21.14-2.13-3.42h22.2l-2.05,3.42-8.9-21.14h-.3Z"/>
    <path class="cls-1" d="M508.28,54.44V.84h22.73c6.08,0,11.28,1.05,15.59,3.15,4.31,2.1,7.6,5.15,9.88,9.12,2.28,3.98,3.42,8.81,3.42,14.48s-1.14,10.52-3.42,14.52c-2.28,4-5.58,7.06-9.88,9.16-4.31,2.1-9.5,3.16-15.59,3.16h-22.73ZM522.5,42.81h7.6c5.02,0,8.79-1.27,11.33-3.8,2.53-2.53,3.8-6.34,3.8-11.41s-1.28-8.86-3.84-11.37c-2.56-2.51-6.32-3.76-11.29-3.76h-7.6v30.34Z"/>
    <path class="cls-1" d="M595.34,55.28c-4.11,0-7.85-.66-11.22-1.98-3.37-1.32-6.27-3.19-8.71-5.63-2.43-2.43-4.31-5.35-5.63-8.74-1.32-3.4-1.98-7.2-1.98-11.4s.66-7.92,1.98-11.29c1.32-3.37,3.19-6.27,5.63-8.71,2.43-2.43,5.33-4.3,8.71-5.59,3.37-1.29,7.11-1.94,11.22-1.94s7.77.65,11.14,1.94c3.37,1.29,6.27,3.14,8.71,5.55,2.43,2.41,4.31,5.31,5.63,8.71,1.32,3.4,1.98,7.17,1.98,11.33s-.66,8.01-1.98,11.4c-1.32,3.4-3.19,6.32-5.63,8.78-2.43,2.46-5.34,4.33-8.71,5.63-3.37,1.29-7.08,1.94-11.14,1.94ZM595.34,43.34c2.69,0,4.98-.63,6.88-1.9,1.9-1.27,3.36-3.07,4.37-5.4,1.01-2.33,1.52-5.14,1.52-8.44s-.51-6.11-1.52-8.44c-1.01-2.33-2.47-4.12-4.37-5.36-1.9-1.24-4.22-1.86-6.96-1.86s-4.92.62-6.84,1.86c-1.93,1.24-3.4,3.03-4.41,5.36-1.01,2.33-1.52,5.14-1.52,8.44s.51,6.11,1.52,8.44c1.01,2.33,2.48,4.13,4.41,5.4,1.93,1.27,4.23,1.9,6.92,1.9Z"/>
    <path class="cls-1" d="M654.95,54.44V.84h38.47v11.1h-24.86v9.81h23.19v11.03h-23.19v10.57h24.86v11.1h-38.47Z"/>
    <path class="cls-1" d="M703.46,54.44V.84h10.49l26.38,32.77h-1.22V.84h13.23v53.6h-10.8l-26.08-32.47h1.22v32.47h-13.23Z"/>
    <path class="cls-1" d="M786.03,54.44V.84h10.49l26.38,32.77h-1.22V.84h13.23v53.6h-10.8l-26.08-32.47h1.22v32.47h-13.23Z"/>
    <path class="cls-1" d="M871.87,55.28c-4.11,0-7.85-.66-11.22-1.98-3.37-1.32-6.27-3.19-8.71-5.63-2.43-2.43-4.31-5.35-5.63-8.74-1.32-3.4-1.98-7.2-1.98-11.4s.66-7.92,1.98-11.29c1.32-3.37,3.19-6.27,5.63-8.71,2.43-2.43,5.33-4.3,8.71-5.59,3.37-1.29,7.11-1.94,11.22-1.94s7.77.65,11.14,1.94c3.37,1.29,6.27,3.14,8.71,5.55,2.43,2.41,4.31,5.31,5.63,8.71,1.32,3.4,1.98,7.17,1.98,11.33s-.66,8.01-1.98,11.4c-1.32,3.4-3.19,6.32-5.63,8.78-2.43,2.46-5.33,4.33-8.71,5.63-3.37,1.29-7.08,1.94-11.14,1.94ZM871.87,43.34c2.69,0,4.98-.63,6.88-1.9,1.9-1.27,3.36-3.07,4.37-5.4,1.01-2.33,1.52-5.14,1.52-8.44s-.51-6.11-1.52-8.44-2.47-4.12-4.37-5.36c-1.9-1.24-4.22-1.86-6.96-1.86s-4.92.62-6.84,1.86c-1.93,1.24-3.4,3.03-4.41,5.36-1.01,2.33-1.52,5.14-1.52,8.44s.51,6.11,1.52,8.44,2.48,4.13,4.41,5.4c1.93,1.27,4.23,1.9,6.92,1.9Z"/>
    <path class="cls-1" d="M929.05,55.28c-2.84,0-5.64-.2-8.4-.61-2.76-.4-5.31-1.01-7.64-1.82-2.33-.81-4.36-1.75-6.08-2.81l4.11-11.02c1.57.96,3.34,1.79,5.32,2.47,1.98.68,4.05,1.22,6.24,1.6,2.18.38,4.33.57,6.46.57,3.24,0,5.58-.44,7-1.33,1.42-.89,2.13-2.04,2.13-3.46,0-.81-.22-1.49-.65-2.05-.43-.56-1.13-1.04-2.09-1.44-.96-.4-2.26-.73-3.88-.99l-8.9-1.75c-5.02-.96-8.73-2.74-11.14-5.32-2.41-2.58-3.61-5.93-3.61-10.04,0-3.5.98-6.54,2.93-9.12,1.95-2.59,4.66-4.59,8.14-6.01,3.47-1.42,7.49-2.13,12.05-2.13,2.53,0,4.99.22,7.37.65,2.38.43,4.57,1.05,6.58,1.86,2,.81,3.71,1.78,5.13,2.89l-4.11,10.64c-1.98-1.47-4.26-2.57-6.84-3.31-2.59-.73-5.35-1.1-8.29-1.1-1.88,0-3.49.22-4.83.65-1.34.43-2.37,1.03-3.08,1.79-.71.76-1.07,1.67-1.07,2.74s.47,2.04,1.41,2.78c.94.74,2.62,1.33,5.06,1.79l8.82,1.67c5.02.96,8.77,2.67,11.25,5.13,2.48,2.46,3.73,5.69,3.73,9.69,0,3.5-.95,6.55-2.85,9.16-1.9,2.61-4.59,4.64-8.06,6.08-3.47,1.44-7.54,2.17-12.2,2.17Z"/>
    <path class="cls-1" d="M986.15,55.28c-4.11,0-7.85-.66-11.22-1.98-3.37-1.32-6.27-3.19-8.71-5.63-2.43-2.43-4.31-5.35-5.63-8.74-1.32-3.4-1.98-7.2-1.98-11.4s.66-7.92,1.98-11.29c1.32-3.37,3.19-6.27,5.63-8.71,2.43-2.43,5.33-4.3,8.71-5.59,3.37-1.29,7.11-1.94,11.22-1.94s7.77.65,11.14,1.94c3.37,1.29,6.27,3.14,8.71,5.55,2.43,2.41,4.31,5.31,5.63,8.71,1.32,3.4,1.98,7.17,1.98,11.33s-.66,8.01-1.98,11.4c-1.32,3.4-3.19,6.32-5.63,8.78-2.43,2.46-5.33,4.33-8.71,5.63-3.37,1.29-7.08,1.94-11.14,1.94ZM986.15,43.34c2.69,0,4.98-.63,6.88-1.9,1.9-1.27,3.36-3.07,4.37-5.4,1.01-2.33,1.52-5.14,1.52-8.44s-.51-6.11-1.52-8.44c-1.01-2.33-2.47-4.12-4.37-5.36-1.9-1.24-4.22-1.86-6.96-1.86s-4.92.62-6.84,1.86c-1.93,1.24-3.4,3.03-4.41,5.36-1.01,2.33-1.52,5.14-1.52,8.44s.51,6.11,1.52,8.44,2.48,4.13,4.41,5.4c1.93,1.27,4.23,1.9,6.92,1.9Z"/>
    <path class="cls-1" d="M1032.6,54.44V12.55h-17.03V.84h48.28v11.71h-17.03v41.89h-14.22Z"/>
    <path class="cls-1" d="M1070.47,54.44V.84h26.08c6.23,0,11.03,1.47,14.37,4.41,3.35,2.94,5.02,7.05,5.02,12.32,0,3.19-.67,5.93-2.01,8.21-1.34,2.28-3.23,4.07-5.66,5.36-2.43,1.29-5.32,2.04-8.67,2.24l.38-.68,2.66.08c1.72.1,3.27.63,4.64,1.6,1.37.96,2.56,2.43,3.57,4.41l8.52,15.66h-15.59l-8.9-16.5c-.41-.76-.89-1.36-1.44-1.79-.56-.43-1.18-.75-1.86-.95-.68-.2-1.48-.3-2.39-.3h-4.49v19.54h-14.22ZM1084.69,24.63h9.58c2.64,0,4.62-.53,5.97-1.6,1.34-1.06,2.02-2.69,2.02-4.87s-.67-3.73-2.02-4.79c-1.34-1.07-3.33-1.6-5.97-1.6h-9.58v12.85Z"/>
    <path class="cls-1" d="M1151.52,55.28c-4.11,0-7.85-.66-11.22-1.98-3.37-1.32-6.27-3.19-8.71-5.63-2.43-2.43-4.31-5.35-5.63-8.74-1.32-3.4-1.98-7.2-1.98-11.4s.66-7.92,1.98-11.29c1.32-3.37,3.19-6.27,5.63-8.71,2.43-2.43,5.33-4.3,8.71-5.59,3.37-1.29,7.11-1.94,11.22-1.94s7.77.65,11.14,1.94c3.37,1.29,6.27,3.14,8.71,5.55,2.43,2.41,4.31,5.31,5.63,8.71,1.32,3.4,1.98,7.17,1.98,11.33s-.66,8.01-1.98,11.4c-1.32,3.4-3.19,6.32-5.63,8.78-2.43,2.46-5.33,4.33-8.71,5.63-3.37,1.29-7.08,1.94-11.14,1.94ZM1151.52,43.34c2.69,0,4.98-.63,6.88-1.9,1.9-1.27,3.36-3.07,4.37-5.4,1.01-2.33,1.52-5.14,1.52-8.44s-.51-6.11-1.52-8.44c-1.01-2.33-2.47-4.12-4.37-5.36-1.9-1.24-4.22-1.86-6.96-1.86s-4.92.62-6.84,1.86c-1.93,1.24-3.4,3.03-4.41,5.36-1.01,2.33-1.52,5.14-1.52,8.44s.51,6.11,1.52,8.44,2.48,4.13,4.41,5.4c1.93,1.27,4.23,1.9,6.92,1.9Z"/>
    <path class="cls-1" d="M1208.7,55.28c-2.84,0-5.64-.2-8.4-.61-2.76-.4-5.31-1.01-7.64-1.82-2.33-.81-4.36-1.75-6.08-2.81l4.11-11.02c1.57.96,3.34,1.79,5.32,2.47,1.98.68,4.05,1.22,6.24,1.6,2.18.38,4.33.57,6.46.57,3.24,0,5.58-.44,7-1.33,1.42-.89,2.13-2.04,2.13-3.46,0-.81-.22-1.49-.65-2.05-.43-.56-1.13-1.04-2.09-1.44-.96-.4-2.26-.73-3.88-.99l-8.9-1.75c-5.02-.96-8.73-2.74-11.14-5.32-2.41-2.58-3.61-5.93-3.61-10.04,0-3.5.98-6.54,2.93-9.12,1.95-2.59,4.66-4.59,8.14-6.01,3.47-1.42,7.49-2.13,12.05-2.13,2.53,0,4.99.22,7.37.65,2.38.43,4.57,1.05,6.58,1.86,2,.81,3.71,1.78,5.13,2.89l-4.11,10.64c-1.98-1.47-4.26-2.57-6.84-3.31-2.59-.73-5.35-1.1-8.29-1.1-1.88,0-3.49.22-4.83.65-1.34.43-2.37,1.03-3.08,1.79-.71.76-1.07,1.67-1.07,2.74s.47,2.04,1.41,2.78c.94.74,2.62,1.33,5.06,1.79l8.82,1.67c5.02.96,8.77,2.67,11.25,5.13,2.48,2.46,3.73,5.69,3.73,9.69,0,3.5-.95,6.55-2.85,9.16-1.9,2.61-4.59,4.64-8.06,6.08-3.47,1.44-7.54,2.17-12.2,2.17Z"/>
  </g>
  <rect class="cls-1" x="456.99" y="138.14" width="317.83" height="4"/>
</svg>