<?xml version="1.0" encoding="UTF-8"?>
<svg id="Capa_1" data-name="Capa 1" xmlns="http://www.w3.org/2000/svg" viewBox="0 0 713.81 687.97">
  <defs>
    <style>
      .cls-1 {
        fill: #fff;
      }
    </style>
  </defs>
  <g id="hMsalE.tif">
    <g>
      <path class="cls-1" d="m487.62,30.92c-6.23,14.27-12.4,28.4-18.59,42.57-6.54-2.7-12.84-5.61-19.35-7.92-9.85-3.49-19.72-7.07-29.82-9.67-10.57-2.72-21.36-4.71-32.17-6.3-10.05-1.48-20.22-2.24-30.37-2.92-7.43-.5-14.93-.81-22.35-.37-10.79.63-21.57,1.74-32.3,3.13-16.33,2.12-32.29,5.97-47.98,11.01-16,5.13-31.48,11.46-46.36,19.22-19.03,9.92-36.93,21.59-53.45,35.32-12.89,10.71-24.66,22.56-35.63,35.22-11.58,13.37-21.72,27.77-30.7,42.99-7.09,12.03-13.12,24.58-18.49,37.47-4.87,11.67-9,23.6-12.28,35.79-2.13,7.92-4.03,15.93-5.43,24.01-1.65,9.51-2.74,19.12-3.89,28.7-1.54,12.89-1.83,25.85-1.28,38.8.33,7.78.84,15.59,1.79,23.32,1.86,15.23,4.8,30.27,8.99,45.06,3.77,13.28,8.09,26.38,13.89,38.9,5.03,10.85,10.59,21.47,16.29,31.99,6.84,12.62,15.18,24.3,24.09,35.53,4.81,6.06,10.02,11.8,15.15,17.59,8.46,9.55,17.94,18.06,27.68,26.27,13.52,11.39,27.88,21.64,43.43,30.07,9.89,5.36,20.2,9.96,30.33,14.9.7.34,1.39.7,2.31,1.16-6.38,14.6-12.7,29.06-19.1,43.68-3.63-1.59-7.17-3-10.59-4.68-8.61-4.24-17.42-8.15-25.66-13.03-11.31-6.7-22.38-13.87-33.16-21.4-18.29-12.77-34.63-27.85-49.79-44.19-9.94-10.72-19.24-21.98-27.73-33.88-13.24-18.55-24.79-38.1-34.12-58.92-8.08-18.04-14.95-36.53-19.71-55.71-2.91-11.73-5.09-23.66-7.19-35.57-1.29-7.31-2.07-14.73-2.61-22.13-.75-10.31-1.36-20.65-1.46-30.98-.09-8.82.35-17.66,1.05-26.46,1.4-17.7,4.16-35.22,8.32-52.48,5.15-21.37,12.21-42.09,21.13-62.21,12.44-28.06,28.4-53.92,47.65-77.76,11.3-14,23.77-26.92,37.17-38.92,16.9-15.14,35.16-28.46,54.73-39.95,22.32-13.11,45.79-23.68,70.45-31.55,14.5-4.63,29.22-8.46,44.26-10.92,8.11-1.33,16.25-2.55,24.42-3.44,7.82-.85,15.69-1.37,23.55-1.75,7.52-.36,15.07-.64,22.59-.42,8.88.26,17.77.8,26.6,1.75,20.82,2.25,41.29,6.28,61.37,12.34,14.68,4.43,28.94,9.89,42.98,16,.39.17.75.42,1.36.76Z"/>
      <path class="cls-1" d="m629.1,213.4c7.23,0,14.25,0,21.28,0,9.58,0,19.16.04,28.74-.04,1.43-.01,2.05.51,2.48,1.74,7.29,20.94,13.38,42.19,17.53,64,3.28,17.24,5.1,34.63,6.1,52.14.93,16.35.06,32.61-1.75,48.86-2.3,20.64-6.59,40.88-12.77,60.68-3.37,10.81-7.06,21.58-11.38,32.04-4.36,10.58-9.37,20.92-14.65,31.08-10.73,20.68-23.75,39.87-38.53,57.9-16.25,19.81-34.54,37.48-54.66,53.3-24.74,19.45-51.75,34.99-80.83,46.99-19.67,8.12-39.86,14.66-60.75,18.63-13.57,2.58-27.31,4.43-41.06,5.85-18.84,1.95-37.75,1.82-56.63.15-19.87-1.75-39.56-4.83-58.8-10.11-12.87-3.53-25.5-7.96-38.23-12-.53-.17-1.01-.49-1.69-.82,2.07-4.79,4.1-9.49,6.15-14.19,3.91-8.96,7.83-17.93,11.75-26.88,1.1-2.5,1.67-2.58,4.26-1.78,11.57,3.55,23.05,7.55,34.8,10.33,11.61,2.75,23.48,4.44,35.29,6.2,6.76,1.01,13.63,1.54,20.47,1.77,11.08.37,22.19.79,33.25.31,9.55-.41,19.09-1.79,28.58-3.16,18.98-2.74,37.36-7.92,55.28-14.64,27.38-10.27,52.85-24.15,76.01-42.02,9.37-7.24,18.46-14.93,27.05-23.08,10.49-9.95,20.02-20.87,28.8-32.39,9.04-11.86,17.27-24.27,24.39-37.37,10.21-18.81,18.85-38.32,24.62-58.98,3.02-10.81,5.83-21.71,8.09-32.7,1.62-7.89,2.21-16,3.22-24.01,1.68-13.39,2.01-26.85,1.7-40.31-.28-11.91-1.29-23.78-3.45-35.51-1.62-8.78-3.03-17.64-5.3-26.26-2.85-10.79-6.24-21.45-9.88-32.01-2.51-7.28-5.82-14.28-8.76-21.42-.27-.65-.44-1.35-.75-2.29Z"/>
      <path class="cls-1" d="m152.03,160.63c6.82-6.25,15.03-9.25,23.46-11.68,10.43-3,21.07-5.03,31.95-5.26,7-.15,14.02-.22,21.01.17,9.32.52,17.83,3.89,25.9,8.48,14.04,7.98,25.34,18.78,32.78,33.14,4.11,7.93,7.38,16.31,10.76,24.6,10.29,25.24,20.54,50.5,30.62,75.83,4.21,10.58,8.66,21,15.88,29.94,3.22,3.99,6.79,7.69,10.24,11.48.97,1.06,2.09,1.98,3.11,2.94-6.02,13.76-11.96,27.3-17.88,40.85-6,13.76-11.98,27.53-17.97,41.29-3.37,7.74-6.77,15.47-10.11,23.22-.6,1.4-1.31,1.37-2.53.72-9.6-5.19-18.37-11.57-26.67-18.61-11.25-9.54-21.26-20.26-30.42-31.78-8.9-11.19-17-22.96-23.12-35.92-4.06-8.59-7.52-17.46-11.12-26.26-6.07-14.85-12.04-29.73-18.04-44.6-4.47-11.08-8.9-22.18-13.37-33.26-4.35-10.79-8.74-21.58-13.1-32.37-5.36-13.28-10.7-26.56-16.06-39.84-1.75-4.34-3.52-8.66-5.32-13.08Z"/>
      <path class="cls-1" d="m285.97,561.87c1.85-3.4,3.7-6.06,6.94-7.71,9.96-5.07,20.54-8.5,31.09-12.05,5.81-1.96,11.84-3.5,17.3-6.19,19.63-9.71,31.53-25.6,35.32-47.16,2.66-15.16,1.03-29.96-5.95-43.9-1.45-2.89-3.23-5.65-5.07-8.31-.62-.89-1.86-1.62-2.95-1.88-5.81-1.38-11.69-2.48-17.5-3.88-3.2-.77-6.31-1.93-9.72-2.99,15.06-34.45,30.01-68.66,44.88-102.65,4.61,1.41,8.95,3.01,13.41,4.06,8.58,2.02,17.3,2.07,26.08,1.5,10.35-.67,20.48-2.53,30.38-5.45,6.76-2,13.4-4.44,20.04-6.86,9.27-3.38,18.73-5.57,28.63-6.2,17.66-1.13,34.02,2.66,48.82,12.4,12.4,8.17,21.61,19.34,28.8,32.19,4.02,7.16,7.62,14.56,11.56,22.14-4.04,1.67-7.61,3.17-11.2,4.63-35.01,14.23-70.01,28.5-105.05,42.67-13.08,5.29-26.56,9.32-40.56,11.23-7.64,1.04-15.38,1.37-23.08,1.81-2.78.16-5.59-.29-8.93-.5.26,5.5.23,10.7.82,15.83,1.33,11.64,5.22,22.43,12.3,31.84,7.44,9.88,17.49,15.86,29.46,18.75,9.33,2.25,18.81,2.82,28.32,2.08,6.46-.5,12.83-1.99,19.28-2.65,7.61-.78,15.21-2.38,22.9-1.14,2.55.41,5.05,1.15,7.54,1.89,1.6.48,1.71,1.53.38,2.47-2.24,1.57-4.45,3.25-6.87,4.48-11.48,5.79-23.69,9.74-35.93,13.54-8.91,2.77-17.87,5.4-26.88,7.82-13.47,3.61-26.95,7.19-40.52,10.38-14.45,3.39-28.99,6.38-43.51,9.42-8.22,1.72-16.44,3.48-24.74,4.71-12.54,1.86-25.13,3.42-37.73,4.8-4.65.51-9.39.21-14.08.09-1.27-.03-2.52-.75-3.95-1.2Z"/>
      <path class="cls-1" d="m579.11,74.18h2.36c13.06,0,26.13.03,39.19-.04,1.69,0,2.37.52,2.82,2.15,7.47,26.79,15,53.57,22.53,80.35.21.74.51,1.45.97,2.72,1.69-6.05,3.22-11.53,4.74-17.01,6.13-21.98,12.27-43.96,18.34-65.96.47-1.69,1.18-2.26,2.97-2.25,12.84.08,25.69.04,38.54.05.63,0,1.26.08,2.23.14-1.66,4.25-3.21,8.28-4.79,12.29-13.34,33.76-26.72,67.5-39.97,101.3-.97,2.48-2.08,3.31-4.79,3.27-12.33-.18-24.67-.11-37.01-.04-1.58,0-2.27-.54-2.83-1.96-14.75-37.42-29.54-74.82-44.31-112.23-.31-.79-.57-1.59-1-2.77Z"/>
      <path class="cls-1" d="m507.1,45.03h39.41v29.99h25.71v24.6h-25.49c-.06.82-.13,1.38-.13,1.94,0,16.18-.02,32.37.07,48.55.02,2.96.35,5.94.85,8.86.74,4.26,3.26,7.23,7.62,7.88,3.99.59,8.07.61,12.12.86.85.05,1.7,0,2.8,0v7.33c0,5.15-.02,10.31.01,15.46,0,1.08-.18,1.76-1.44,1.94-13.21,1.92-26.44,2.8-39.62.03-3.49-.74-6.99-2.05-10.13-3.76-7.3-3.98-10.2-10.88-10.93-18.73-.56-5.99-.76-12.02-.8-18.04-.1-16.76-.04-33.53-.04-50.29,0-.57-.06-1.13-.1-1.93h-18.23v-24.65h18.33v-30.05Z"/>
    </g>
  </g>
</svg>