<?xml version="1.0" encoding="UTF-8"?>
<svg id="Capa_1" data-name="Capa 1" xmlns="http://www.w3.org/2000/svg" viewBox="0 0 1784.93 181.6">
  <defs>
    <style>
      .cls-1 {
        fill: #fff;
        stroke-width: 0px;
      }
    </style>
  </defs>
  <polygon class="cls-1" points="700.87 100.78 698.6 104.02 697.35 100.78 659.53 100.78 680.45 151.38 705.43 151.38 741.63 100.78 700.87 100.78"/>
  <g>
    <polygon class="cls-1" points="50.92 90.8 64.71 2.75 18 2.75 4.01 90.8 50.92 90.8"/>
    <path class="cls-1" d="M189.28,90.8c1.08-8.93,3.18-16.89,6.33-23.85,4-8.83,9.49-15.65,16.49-20.48,7-4.83,15.32-7.25,24.98-7.25,11.99,0,21.19,3.71,27.6,11.12,6.41,7.41,9.2,18.36,8.37,32.85-.11,2.61-.32,5.14-.61,7.62h48.03c.22-2.18.41-4.38.54-6.62,1-17.32-1.75-32.31-8.25-44.96-6.49-12.65-16.11-22.36-28.85-29.1-12.74-6.74-27.94-10.12-45.59-10.12-13.66,0-26.27,2.29-37.85,6.87-11.57,4.58-21.69,11.12-30.35,19.61-8.66,8.49-15.53,18.74-20.61,30.73-4.33,10.23-7.11,21.43-8.35,33.59h48.1Z"/>
    <path class="cls-1" d="M364.99,90.8h111.92c-7.34-7.14-17.65-12.03-31-14.61l-28.73-6c-6.66-1.5-11.45-3.5-14.36-6-2.92-2.5-4.21-5.83-3.87-9.99.16-3.16,1.5-5.95,4-8.37,2.5-2.41,6.03-4.33,10.62-5.74,4.58-1.41,9.95-2.12,16.11-2.12,8.16,0,16.65,1.13,25.48,3.37,8.82,2.25,16.73,5.96,23.73,11.12l15.99-34.47c-8.49-6.16-18.32-10.7-29.48-13.61-11.16-2.91-22.48-4.37-33.97-4.37-10.33,0-20.11,1.25-29.35,3.75-9.24,2.5-17.45,6.16-24.6,10.99-7.16,4.83-12.91,10.74-17.24,17.74-4.33,6.99-6.66,15.07-6.99,24.23-.67,12.49,2.5,23.03,9.49,31.6.71.87,1.48,1.69,2.26,2.49Z"/>
    <polygon class="cls-1" points="638.5 90.8 640.42 78.68 645.43 90.8 683.55 90.8 649.74 2.75 610.03 2.75 596.04 90.8 638.5 90.8"/>
    <polygon class="cls-1" points="738.78 90.8 748.05 77.84 745.98 90.8 788.14 90.8 802.12 2.75 759.66 2.75 697.89 90.8 738.78 90.8"/>
    <polygon class="cls-1" points="945.57 90.8 948.51 71.44 872.32 71.44 877.56 39.22 959.25 39.22 965.24 2.75 838.59 2.75 824.73 90.8 945.57 90.8"/>
    <polygon class="cls-1" points="1056.35 90.8 1070.4 2.75 1023.69 2.75 1009.78 90.8 1056.35 90.8"/>
    <path class="cls-1" d="M1136.26,90.8c1.08-8.93,3.18-16.89,6.33-23.85,4-8.83,9.49-15.65,16.49-20.48,6.99-4.83,15.32-7.25,24.98-7.25,11.99,0,21.19,3.71,27.6,11.12,6.41,7.41,9.2,18.36,8.37,32.85-.11,2.61-.32,5.14-.61,7.62h48.03c.22-2.18.41-4.38.54-6.62,1-17.32-1.75-32.31-8.24-44.96-6.5-12.65-16.11-22.36-28.85-29.1-12.74-6.74-27.94-10.12-45.59-10.12-13.66,0-26.27,2.29-37.84,6.87-11.58,4.58-21.69,11.12-30.35,19.61-8.66,8.49-15.53,18.74-20.61,30.73-4.33,10.23-7.1,21.43-8.35,33.59h48.1Z"/>
    <path class="cls-1" d="M1439.79,90.8c1.78-1.86,3.43-3.85,4.93-5.99,5.41-7.74,8.28-17.53,8.62-29.35.66-11.16-1.29-20.65-5.87-28.48-4.58-7.83-11.54-13.82-20.86-17.99-9.33-4.16-20.9-6.25-34.72-6.25h-78.94l-13.99,88.05h140.83ZM1354.17,38.72h29.48c8.82,0,15.24,1.62,19.23,4.87,4,3.25,5.75,8.2,5.25,14.86-.34,7.49-2.84,13.16-7.5,16.99-4.66,3.83-11.33,5.74-19.98,5.74h-33.23l6.75-42.47Z"/>
    <polygon class="cls-1" points="1602.03 90.8 1604.97 71.44 1528.78 71.44 1534.02 39.22 1615.71 39.22 1621.7 2.75 1495.06 2.75 1481.19 90.8 1602.03 90.8"/>
    <path class="cls-1" d="M1650.94,90.8h111.93c-7.34-7.14-17.65-12.03-31-14.61l-28.72-6c-6.66-1.5-11.45-3.5-14.36-6-2.92-2.5-4.21-5.83-3.87-9.99.17-3.16,1.5-5.95,4-8.37,2.5-2.41,6.03-4.33,10.62-5.74,4.58-1.41,9.95-2.12,16.11-2.12,8.16,0,16.65,1.13,25.48,3.37,8.83,2.25,16.74,5.96,23.73,11.12l15.98-34.47c-8.49-6.16-18.32-10.7-29.47-13.61-11.16-2.91-22.48-4.37-33.97-4.37-10.33,0-20.11,1.25-29.35,3.75-9.24,2.5-17.45,6.16-24.61,10.99-7.16,4.83-12.91,10.74-17.23,17.74-4.33,6.99-6.66,15.07-7,24.23-.67,12.49,2.5,23.03,9.49,31.6.71.87,1.48,1.69,2.26,2.49Z"/>
  </g>
  <g>
    <polygon class="cls-1" points="59.33 100.78 12.4 100.78 0 178.86 125.4 178.86 131.4 139.89 53.21 139.89 59.33 100.78"/>
    <path class="cls-1" d="M280.7,100.78c-1.13,4.82-2.63,9.33-4.54,13.51-4.08,8.91-9.62,15.82-16.61,20.73-7,4.92-15.41,7.37-25.23,7.37-11.83,0-20.94-3.75-27.35-11.24-6.01-7.03-8.8-17.18-8.44-30.37h-48c-.44,15.79,2.32,29.6,8.35,41.36,6.5,12.66,16.11,22.4,28.85,29.23,12.74,6.83,27.93,10.24,45.59,10.24,13.65,0,26.27-2.29,37.85-6.87,11.57-4.58,21.69-11.12,30.35-19.61,8.66-8.49,15.53-18.73,20.61-30.73,3.11-7.34,5.42-15.22,6.93-23.62h-48.35Z"/>
    <path class="cls-1" d="M389.6,100.78c4.47,1.98,9.49,3.54,15.08,4.64l28.73,6c4.66.83,8.49,1.96,11.49,3.37,3,1.42,5.16,3.16,6.5,5.24,1.33,2.08,1.91,4.54,1.75,7.37-.17,3.17-1.46,5.96-3.87,8.37-2.42,2.42-5.87,4.33-10.37,5.74-4.49,1.42-9.99,2.12-16.48,2.12s-13.24-.54-20.24-1.62c-7-1.08-13.91-2.83-20.73-5.25-6.83-2.41-13.32-5.45-19.49-9.12l-15.49,35.47c6.16,4.17,13.07,7.62,20.73,10.37,7.66,2.75,15.82,4.79,24.48,6.12,8.66,1.33,17.4,2,26.23,2,10.66,0,20.77-1.21,30.35-3.62,9.57-2.41,18.07-6.04,25.48-10.87,7.41-4.83,13.32-10.87,17.74-18.11,4.41-7.24,6.87-15.69,7.37-25.35.59-8.58-.89-16.2-4.41-22.88h-104.84Z"/>
    <polygon class="cls-1" points="754.37 100.78 741.9 178.86 784.12 178.86 796.53 100.78 754.37 100.78"/>
    <polygon class="cls-1" points="604.43 100.78 592.03 178.86 634.49 178.86 646.89 100.78 604.43 100.78"/>
    <polygon class="cls-1" points="952.99 107.66 954.03 100.78 833.14 100.78 820.84 178.86 947.24 178.86 952.99 142.39 871.05 142.39 876.8 107.66 952.99 107.66"/>
    <path class="cls-1" d="M1018.18,100.78l-3.5,22.13c-.67,4.33-1.83,7.91-3.5,10.74-1.67,2.83-3.96,4.96-6.87,6.37-2.91,1.42-6.45,2.29-10.62,2.62l-22.48,1-1.75,37.97,27.48-1.25c13.65-.83,24.86-3.33,33.6-7.49,8.74-4.16,15.53-10.16,20.36-17.99,4.83-7.83,8.07-17.32,9.74-28.48l4.09-25.62h-46.56Z"/>
    <path class="cls-1" d="M1227.68,100.78c-1.13,4.82-2.63,9.33-4.54,13.51-4.08,8.91-9.62,15.82-16.61,20.73-6.99,4.92-15.4,7.37-25.23,7.37-11.83,0-20.95-3.75-27.35-11.24-6.02-7.03-8.8-17.18-8.44-30.37h-48c-.44,15.79,2.32,29.6,8.36,41.36,6.5,12.66,16.11,22.4,28.85,29.23,12.74,6.83,27.94,10.24,45.59,10.24,13.65,0,26.27-2.29,37.84-6.87,11.57-4.58,21.69-11.12,30.35-19.61,8.66-8.49,15.53-18.73,20.61-30.73,3.11-7.34,5.41-15.22,6.93-23.62h-48.35Z"/>
    <path class="cls-1" d="M1425.22,114.16c-3.14-2.96-6.9-4.9-11.27-5.85,6.8-1.21,13.15-3.12,19.01-5.76,1.23-.55,2.42-1.15,3.58-1.77h-129.19l-12.4,78.08h46.96l9.99-64.2h15.99c3.33,0,6.08.37,8.24,1.12,2.16.75,4.04,2,5.62,3.75,1.58,1.75,2.96,4.12,4.12,7.12l19.49,52.21h48.46l-17.99-47.71c-2.84-7.33-6.37-12.99-10.62-16.99Z"/>
    <polygon class="cls-1" points="1609.45 107.66 1610.49 100.78 1489.6 100.78 1477.3 178.86 1603.7 178.86 1609.45 142.39 1527.51 142.39 1533.26 107.66 1609.45 107.66"/>
    <path class="cls-1" d="M1675.55,100.78c4.47,1.98,9.49,3.54,15.08,4.64l28.72,6c4.66.83,8.5,1.96,11.49,3.37,3,1.42,5.16,3.16,6.5,5.24,1.33,2.08,1.91,4.54,1.75,7.37-.17,3.17-1.46,5.96-3.87,8.37-2.42,2.42-5.87,4.33-10.37,5.74-4.5,1.42-9.99,2.12-16.49,2.12s-13.24-.54-20.23-1.62c-7-1.08-13.91-2.83-20.74-5.25-6.83-2.41-13.32-5.45-19.48-9.12l-15.49,35.47c6.16,4.17,13.07,7.62,20.73,10.37,7.66,2.75,15.82,4.79,24.48,6.12,8.66,1.33,17.4,2,26.23,2,10.66,0,20.77-1.21,30.35-3.62,9.57-2.41,18.07-6.04,25.48-10.87,7.41-4.83,13.32-10.87,17.73-18.11,4.41-7.24,6.87-15.69,7.37-25.35.59-8.58-.89-16.2-4.41-22.88h-104.84Z"/>
  </g>
</svg>