<?xml version="1.0" encoding="UTF-8"?>
<svg id="Capa_1" data-name="Capa 1" xmlns="http://www.w3.org/2000/svg" viewBox="0 0 350.34 80.18">
  <defs>
    <style>
      .cls-1 {
        fill: #fff;
      }

      .cls-2 {
        fill: #e20e1c;
      }
    </style>
  </defs>
  <g>
    <polygon class="cls-1" points="137.56 19.78 137.12 20.42 136.87 19.78 129.45 19.78 133.56 29.71 138.46 29.71 145.56 19.78 137.56 19.78"/>
    <g>
      <polygon class="cls-1" points="9.99 17.82 12.7 .54 3.53 .54 .79 17.82 9.99 17.82"/>
      <path class="cls-1" d="m37.15,17.82c.21-1.75.62-3.31,1.24-4.68.78-1.73,1.86-3.07,3.24-4.02,1.37-.95,3.01-1.42,4.9-1.42,2.35,0,4.16.73,5.42,2.18,1.26,1.45,1.81,3.6,1.64,6.45-.02.51-.06,1.01-.12,1.49h9.43c.04-.43.08-.86.11-1.3.2-3.4-.34-6.34-1.62-8.83-1.27-2.48-3.16-4.39-5.66-5.71-2.5-1.32-5.48-1.99-8.95-1.99-2.68,0-5.16.45-7.43,1.35-2.27.9-4.26,2.18-5.96,3.85-1.7,1.67-3.05,3.68-4.05,6.03-.85,2.01-1.39,4.21-1.64,6.59h9.44Z"/>
      <path class="cls-1" d="m71.64,17.82h21.97c-1.44-1.4-3.46-2.36-6.08-2.87l-5.64-1.18c-1.31-.29-2.25-.69-2.82-1.18-.57-.49-.83-1.14-.76-1.96.03-.62.29-1.17.78-1.64.49-.47,1.18-.85,2.08-1.13.9-.28,1.95-.42,3.16-.42,1.6,0,3.27.22,5,.66,1.73.44,3.28,1.17,4.66,2.18l3.14-6.77c-1.67-1.21-3.6-2.1-5.79-2.67-2.19-.57-4.41-.86-6.67-.86-2.03,0-3.95.25-5.76.74-1.81.49-3.42,1.21-4.83,2.16-1.41.95-2.53,2.11-3.38,3.48-.85,1.37-1.31,2.96-1.37,4.76-.13,2.45.49,4.52,1.86,6.2.14.17.29.33.44.49Z"/>
      <polygon class="cls-1" points="125.32 17.82 125.7 15.44 126.68 17.82 134.16 17.82 127.53 .54 119.73 .54 116.99 17.82 125.32 17.82"/>
      <polygon class="cls-1" points="145 17.82 146.82 15.28 146.42 17.82 154.69 17.82 157.44 .54 149.1 .54 136.98 17.82 145 17.82"/>
      <polygon class="cls-1" points="185.59 17.82 186.17 14.02 171.21 14.02 172.24 7.7 188.28 7.7 189.45 .54 164.59 .54 161.87 17.82 185.59 17.82"/>
      <polygon class="cls-1" points="207.33 17.82 210.09 .54 200.92 .54 198.19 17.82 207.33 17.82"/>
      <path class="cls-1" d="m223.02,17.82c.21-1.75.62-3.31,1.24-4.68.78-1.73,1.86-3.07,3.24-4.02,1.37-.95,3.01-1.42,4.9-1.42,2.35,0,4.16.73,5.42,2.18,1.26,1.45,1.81,3.6,1.64,6.45-.02.51-.06,1.01-.12,1.49h9.43c.04-.43.08-.86.11-1.3.2-3.4-.34-6.34-1.62-8.83-1.27-2.48-3.16-4.39-5.66-5.71-2.5-1.32-5.48-1.99-8.95-1.99-2.68,0-5.16.45-7.43,1.35-2.27.9-4.26,2.18-5.96,3.85-1.7,1.67-3.05,3.68-4.05,6.03-.85,2.01-1.39,4.21-1.64,6.59h9.44Z"/>
      <path class="cls-1" d="m282.59,17.82c.35-.37.67-.76.97-1.18,1.06-1.52,1.63-3.44,1.69-5.76.13-2.19-.25-4.05-1.15-5.59-.9-1.54-2.26-2.71-4.09-3.53-1.83-.82-4.1-1.23-6.82-1.23h-15.49l-2.75,17.28h27.64Zm-16.81-10.22h5.79c1.73,0,2.99.32,3.77.96.78.64,1.13,1.61,1.03,2.92-.07,1.47-.56,2.58-1.47,3.33-.92.75-2.22,1.13-3.92,1.13h-6.52l1.32-8.33Z"/>
      <polygon class="cls-1" points="314.44 17.82 315.01 14.02 300.06 14.02 301.09 7.7 317.12 7.7 318.3 .54 293.44 .54 290.72 17.82 314.44 17.82"/>
      <path class="cls-1" d="m324.04,17.82h21.97c-1.44-1.4-3.46-2.36-6.09-2.87l-5.64-1.18c-1.31-.29-2.25-.69-2.82-1.18-.57-.49-.83-1.14-.76-1.96.03-.62.29-1.17.78-1.64.49-.47,1.18-.85,2.08-1.13.9-.28,1.95-.42,3.16-.42,1.6,0,3.27.22,5,.66,1.73.44,3.29,1.17,4.66,2.18l3.14-6.77c-1.67-1.21-3.6-2.1-5.79-2.67-2.19-.57-4.41-.86-6.67-.86-2.03,0-3.95.25-5.76.74-1.81.49-3.42,1.21-4.83,2.16-1.41.95-2.53,2.11-3.38,3.48-.85,1.37-1.31,2.96-1.37,4.76-.13,2.45.49,4.52,1.86,6.2.14.17.29.33.44.49Z"/>
    </g>
    <g>
      <polygon class="cls-1" points="11.65 19.78 2.43 19.78 0 35.1 24.61 35.1 25.79 27.46 10.44 27.46 11.65 19.78"/>
      <path class="cls-1" d="m55.09,19.78c-.22.95-.52,1.83-.89,2.65-.8,1.75-1.89,3.11-3.26,4.07-1.37.96-3.02,1.45-4.95,1.45-2.32,0-4.11-.74-5.37-2.21-1.18-1.38-1.73-3.37-1.66-5.96h-9.42c-.09,3.1.46,5.81,1.64,8.12,1.27,2.48,3.16,4.4,5.66,5.74,2.5,1.34,5.48,2.01,8.95,2.01,2.68,0,5.16-.45,7.43-1.35,2.27-.9,4.26-2.18,5.96-3.85,1.7-1.67,3.05-3.68,4.05-6.03.61-1.44,1.06-2.99,1.36-4.64h-9.49Z"/>
      <path class="cls-1" d="m76.47,19.78c.88.39,1.86.69,2.96.91l5.64,1.18c.91.16,1.67.38,2.26.66.59.28,1.01.62,1.27,1.03.26.41.38.89.34,1.45-.03.62-.29,1.17-.76,1.64s-1.15.85-2.03,1.13c-.88.28-1.96.42-3.24.42s-2.6-.11-3.97-.32c-1.37-.21-2.73-.56-4.07-1.03-1.34-.47-2.62-1.07-3.82-1.79l-3.04,6.96c1.21.82,2.57,1.5,4.07,2.03,1.5.54,3.11.94,4.8,1.2,1.7.26,3.42.39,5.15.39,2.09,0,4.08-.24,5.96-.71,1.88-.47,3.55-1.18,5-2.13,1.45-.95,2.61-2.13,3.48-3.55.87-1.42,1.35-3.08,1.45-4.98.12-1.68-.17-3.18-.87-4.49h-20.58Z"/>
      <polygon class="cls-1" points="148.06 19.78 145.62 35.1 153.9 35.1 156.34 19.78 148.06 19.78"/>
      <polygon class="cls-1" points="118.63 19.78 116.2 35.1 124.53 35.1 126.97 19.78 118.63 19.78"/>
      <polygon class="cls-1" points="187.05 21.13 187.25 19.78 163.52 19.78 161.11 35.1 185.92 35.1 187.05 27.95 170.96 27.95 172.09 21.13 187.05 21.13"/>
      <path class="cls-1" d="m199.84,19.78l-.69,4.34c-.13.85-.36,1.55-.69,2.11-.33.56-.78.97-1.35,1.25-.57.28-1.27.45-2.08.51l-4.41.2-.34,7.45,5.39-.25c2.68-.16,4.88-.65,6.59-1.47,1.72-.82,3.05-1.99,4-3.53.95-1.54,1.58-3.4,1.91-5.59l.8-5.03h-9.14Z"/>
      <path class="cls-1" d="m240.96,19.78c-.22.95-.52,1.83-.89,2.65-.8,1.75-1.89,3.11-3.26,4.07-1.37.96-3.02,1.45-4.95,1.45-2.32,0-4.11-.74-5.37-2.21-1.18-1.38-1.73-3.37-1.66-5.96h-9.42c-.09,3.1.45,5.81,1.64,8.12,1.27,2.48,3.16,4.4,5.66,5.74,2.5,1.34,5.48,2.01,8.95,2.01,2.68,0,5.16-.45,7.43-1.35,2.27-.9,4.26-2.18,5.96-3.85,1.7-1.67,3.05-3.68,4.05-6.03.61-1.44,1.06-2.99,1.36-4.64h-9.49Z"/>
      <path class="cls-1" d="m279.73,22.41c-.62-.58-1.35-.96-2.21-1.15,1.34-.24,2.58-.61,3.73-1.13.24-.11.48-.23.7-.35h-25.36l-2.43,15.33h9.22l1.96-12.6h3.14c.65,0,1.19.07,1.62.22.42.15.79.39,1.1.74.31.34.58.81.81,1.4l3.82,10.25h9.51l-3.53-9.36c-.56-1.44-1.25-2.55-2.08-3.33Z"/>
      <polygon class="cls-1" points="315.89 21.13 316.1 19.78 292.37 19.78 289.96 35.1 314.77 35.1 315.89 27.95 299.81 27.95 300.94 21.13 315.89 21.13"/>
      <path class="cls-1" d="m328.87,19.78c.88.39,1.86.69,2.96.91l5.64,1.18c.92.16,1.67.38,2.26.66.59.28,1.01.62,1.27,1.03.26.41.38.89.34,1.45-.03.62-.29,1.17-.76,1.64s-1.15.85-2.03,1.13c-.88.28-1.96.42-3.24.42s-2.6-.11-3.97-.32c-1.37-.21-2.73-.56-4.07-1.03-1.34-.47-2.62-1.07-3.82-1.79l-3.04,6.96c1.21.82,2.57,1.5,4.07,2.03,1.5.54,3.1.94,4.8,1.2,1.7.26,3.42.39,5.15.39,2.09,0,4.08-.24,5.96-.71,1.88-.47,3.55-1.18,5-2.13,1.45-.95,2.61-2.13,3.48-3.55.87-1.42,1.35-3.08,1.45-4.98.12-1.68-.17-3.18-.87-4.49h-20.58Z"/>
    </g>
  </g>
  <g>
    <path class="cls-2" d="m54.28,62.5v-10.52h2.79v4.04h4.28v-4.04h2.79v10.52h-2.79v-4.16h-4.28v4.16h-2.79Z"/>
    <path class="cls-2" d="m65.03,62.5l4.9-10.52h2.3l4.9,10.52h-2.82l-1.24-2.88,1.07.88h-6.15l1.07-.88-1.22,2.88h-2.81Zm6-7.67l-1.73,4.15-.42-.67h4.36l-.4.67-1.75-4.15h-.06Z"/>
    <path class="cls-2" d="m77.99,62.5v-10.52h2.06l5.18,6.43h-.24v-6.43h2.6v10.52h-2.12l-5.12-6.37h.24v6.37h-2.6Z"/>
    <path class="cls-2" d="m99.47,62.68c-1.13,0-2.12-.22-2.95-.67-.84-.45-1.48-1.08-1.93-1.89-.45-.81-.68-1.77-.68-2.89s.23-2.07.68-2.88c.45-.81,1.09-1.43,1.92-1.87.83-.44,1.82-.66,2.96-.66.71,0,1.38.1,2.01.3.64.2,1.15.47,1.55.82l-.84,2.19c-.43-.32-.86-.55-1.29-.69-.43-.14-.88-.21-1.34-.21-.88,0-1.55.25-2.04.76-.48.51-.72,1.25-.72,2.24s.24,1.73.72,2.25c.48.51,1.16.77,2.04.77.46,0,.9-.07,1.34-.2.43-.13.86-.36,1.29-.68l.84,2.18c-.4.35-.92.62-1.55.83-.64.2-1.31.31-2.01.31Z"/>
    <path class="cls-2" d="m109.42,62.66c-.81,0-1.54-.13-2.2-.39-.66-.26-1.23-.63-1.71-1.1-.48-.48-.85-1.05-1.1-1.72-.26-.67-.39-1.41-.39-2.24s.13-1.55.39-2.22c.26-.66.63-1.23,1.1-1.71.48-.48,1.05-.84,1.71-1.1.66-.25,1.4-.38,2.2-.38s1.52.13,2.19.38c.66.25,1.23.62,1.71,1.09.48.47.85,1.04,1.1,1.71.26.67.39,1.41.39,2.22s-.13,1.57-.39,2.24c-.26.67-.63,1.24-1.1,1.72-.48.48-1.05.85-1.71,1.1-.66.25-1.39.38-2.19.38Zm0-2.34c.53,0,.98-.12,1.35-.37.37-.25.66-.6.86-1.06s.3-1.01.3-1.66-.1-1.2-.3-1.66-.48-.81-.86-1.05c-.37-.24-.83-.37-1.37-.37s-.97.12-1.34.37c-.38.24-.67.59-.87,1.05s-.3,1.01-.3,1.66.1,1.2.3,1.66.49.81.87,1.06c.38.25.83.37,1.36.37Z"/>
    <path class="cls-2" d="m116.66,62.5v-10.52h2.06l5.18,6.43h-.24v-6.43h2.6v10.52h-2.12l-5.12-6.37h.24v6.37h-2.6Z"/>
    <path class="cls-2" d="m128.41,62.5v-10.52h7.48v2.18h-4.69v2.06h4.37v2.18h-4.37v4.1h-2.79Z"/>
    <path class="cls-2" d="m137.4,62.5v-10.52h2.79v10.52h-2.79Z"/>
    <path class="cls-2" d="m141.08,62.5l4.9-10.52h2.3l4.89,10.52h-2.82l-1.24-2.88,1.07.88h-6.15l1.07-.88-1.22,2.88h-2.81Zm6-7.67l-1.73,4.15-.42-.67h4.36l-.4.67-1.75-4.15h-.06Z"/>
    <path class="cls-2" d="m154.04,62.5v-10.52h4.46c1.19,0,2.21.21,3.06.62.85.41,1.49,1.01,1.94,1.79.45.78.67,1.73.67,2.84s-.22,2.06-.67,2.85c-.45.79-1.09,1.39-1.94,1.8-.85.41-1.87.62-3.06.62h-4.46Zm2.79-2.28h1.49c.98,0,1.73-.25,2.22-.75s.75-1.24.75-2.24-.25-1.74-.75-2.23c-.5-.49-1.24-.74-2.22-.74h-1.49v5.95Z"/>
    <path class="cls-2" d="m171.13,62.66c-.81,0-1.54-.13-2.2-.39-.66-.26-1.23-.63-1.71-1.1-.48-.48-.85-1.05-1.1-1.72-.26-.67-.39-1.41-.39-2.24s.13-1.55.39-2.22c.26-.66.63-1.23,1.1-1.71s1.05-.84,1.71-1.1c.66-.25,1.4-.38,2.2-.38s1.52.13,2.19.38c.66.25,1.23.62,1.71,1.09.48.47.85,1.04,1.1,1.71.26.67.39,1.41.39,2.22s-.13,1.57-.39,2.24c-.26.67-.63,1.24-1.1,1.72-.48.48-1.05.85-1.71,1.1-.66.25-1.39.38-2.19.38Zm0-2.34c.53,0,.98-.12,1.35-.37.37-.25.66-.6.86-1.06.2-.46.3-1.01.3-1.66s-.1-1.2-.3-1.66c-.2-.46-.49-.81-.86-1.05-.37-.24-.83-.37-1.37-.37s-.97.12-1.34.37c-.38.24-.67.59-.87,1.05-.2.46-.3,1.01-.3,1.66s.1,1.2.3,1.66c.2.46.49.81.87,1.06.38.25.83.37,1.36.37Z"/>
    <path class="cls-2" d="m182.83,62.5v-10.52h7.55v2.18h-4.88v1.93h4.55v2.16h-4.55v2.07h4.88v2.18h-7.55Z"/>
    <path class="cls-2" d="m192.35,62.5v-10.52h2.06l5.18,6.43h-.24v-6.43h2.6v10.52h-2.12l-5.12-6.37h.24v6.37h-2.6Z"/>
    <path class="cls-2" d="m208.56,62.5v-10.52h2.06l5.18,6.43h-.24v-6.43h2.6v10.52h-2.12l-5.12-6.37h.24v6.37h-2.6Z"/>
    <path class="cls-2" d="m225.41,62.66c-.81,0-1.54-.13-2.2-.39-.66-.26-1.23-.63-1.71-1.1-.48-.48-.85-1.05-1.1-1.72-.26-.67-.39-1.41-.39-2.24s.13-1.55.39-2.22c.26-.66.63-1.23,1.1-1.71.48-.48,1.05-.84,1.71-1.1.66-.25,1.4-.38,2.2-.38s1.52.13,2.19.38c.66.25,1.23.62,1.71,1.09.48.47.85,1.04,1.1,1.71.26.67.39,1.41.39,2.22s-.13,1.57-.39,2.24c-.26.67-.63,1.24-1.1,1.72-.48.48-1.05.85-1.71,1.1-.66.25-1.39.38-2.19.38Zm0-2.34c.53,0,.98-.12,1.35-.37.37-.25.66-.6.86-1.06s.3-1.01.3-1.66-.1-1.2-.3-1.66-.48-.81-.86-1.05c-.37-.24-.83-.37-1.37-.37s-.97.12-1.34.37c-.38.24-.67.59-.87,1.05s-.3,1.01-.3,1.66.1,1.2.3,1.66.49.81.87,1.06c.38.25.83.37,1.36.37Z"/>
    <path class="cls-2" d="m236.63,62.66c-.56,0-1.11-.04-1.65-.12-.54-.08-1.04-.2-1.5-.36s-.86-.34-1.19-.55l.81-2.16c.31.19.66.35,1.04.48.39.13.8.24,1.22.31.43.07.85.11,1.27.11.64,0,1.09-.09,1.37-.26.28-.17.42-.4.42-.68,0-.16-.04-.29-.13-.4-.08-.11-.22-.2-.41-.28-.19-.08-.44-.14-.76-.19l-1.75-.34c-.98-.19-1.71-.54-2.19-1.04-.47-.51-.71-1.16-.71-1.97,0-.69.19-1.28.57-1.79.38-.51.92-.9,1.6-1.18.68-.28,1.47-.42,2.37-.42.5,0,.98.04,1.45.13.47.08.9.21,1.29.37.39.16.73.35,1.01.57l-.81,2.09c-.39-.29-.84-.5-1.34-.65-.51-.14-1.05-.22-1.63-.22-.37,0-.68.04-.95.13-.26.08-.47.2-.6.35s-.21.33-.21.54.09.4.28.54c.18.14.51.26.99.35l1.73.33c.98.19,1.72.52,2.21,1.01.49.48.73,1.12.73,1.9,0,.69-.19,1.29-.56,1.8-.37.51-.9.91-1.58,1.19-.68.28-1.48.43-2.4.43Z"/>
    <path class="cls-2" d="m247.84,62.66c-.81,0-1.54-.13-2.2-.39-.66-.26-1.23-.63-1.71-1.1-.48-.48-.85-1.05-1.1-1.72-.26-.67-.39-1.41-.39-2.24s.13-1.55.39-2.22c.26-.66.63-1.23,1.1-1.71.48-.48,1.05-.84,1.71-1.1.66-.25,1.4-.38,2.2-.38s1.52.13,2.19.38c.66.25,1.23.62,1.71,1.09.48.47.85,1.04,1.1,1.71.26.67.39,1.41.39,2.22s-.13,1.57-.39,2.24c-.26.67-.63,1.24-1.1,1.72-.48.48-1.05.85-1.71,1.1-.66.25-1.39.38-2.19.38Zm0-2.34c.53,0,.98-.12,1.35-.37.37-.25.66-.6.86-1.06s.3-1.01.3-1.66-.1-1.2-.3-1.66-.48-.81-.86-1.05c-.37-.24-.83-.37-1.37-.37s-.97.12-1.34.37c-.38.24-.67.59-.87,1.05s-.3,1.01-.3,1.66.1,1.2.3,1.66.49.81.87,1.06c.38.25.83.37,1.36.37Z"/>
    <path class="cls-2" d="m256.96,62.5v-8.22h-3.34v-2.3h9.48v2.3h-3.34v8.22h-2.79Z"/>
    <path class="cls-2" d="m264.39,62.5v-10.52h5.12c1.22,0,2.16.29,2.82.87.66.58.98,1.38.98,2.42,0,.63-.13,1.16-.4,1.61s-.63.8-1.11,1.05-1.04.4-1.7.44l.07-.13.52.02c.34.02.64.12.91.31.27.19.5.48.7.87l1.67,3.07h-3.06l-1.75-3.24c-.08-.15-.17-.27-.28-.35-.11-.08-.23-.15-.37-.19-.13-.04-.29-.06-.47-.06h-.88v3.84h-2.79Zm2.79-5.85h1.88c.52,0,.91-.1,1.17-.31.26-.21.4-.53.4-.96s-.13-.73-.4-.94c-.26-.21-.65-.31-1.17-.31h-1.88v2.52Z"/>
    <path class="cls-2" d="m280.3,62.66c-.81,0-1.54-.13-2.2-.39-.66-.26-1.23-.63-1.71-1.1-.48-.48-.85-1.05-1.1-1.72-.26-.67-.39-1.41-.39-2.24s.13-1.55.39-2.22c.26-.66.63-1.23,1.1-1.71.48-.48,1.05-.84,1.71-1.1.66-.25,1.4-.38,2.2-.38s1.52.13,2.19.38c.66.25,1.23.62,1.71,1.09.48.47.85,1.04,1.1,1.71.26.67.39,1.41.39,2.22s-.13,1.57-.39,2.24c-.26.67-.63,1.24-1.1,1.72-.48.48-1.05.85-1.71,1.1-.66.25-1.39.38-2.19.38Zm0-2.34c.53,0,.98-.12,1.35-.37.37-.25.66-.6.86-1.06s.3-1.01.3-1.66-.1-1.2-.3-1.66-.48-.81-.86-1.05c-.37-.24-.83-.37-1.37-.37s-.97.12-1.34.37c-.38.24-.67.59-.87,1.05s-.3,1.01-.3,1.66.1,1.2.3,1.66.49.81.87,1.06c.38.25.83.37,1.36.37Z"/>
    <path class="cls-2" d="m291.52,62.66c-.56,0-1.11-.04-1.65-.12-.54-.08-1.04-.2-1.5-.36s-.86-.34-1.19-.55l.81-2.16c.31.19.66.35,1.04.48.39.13.8.24,1.22.31.43.07.85.11,1.27.11.64,0,1.09-.09,1.37-.26.28-.17.42-.4.42-.68,0-.16-.04-.29-.13-.4-.08-.11-.22-.2-.41-.28-.19-.08-.44-.14-.76-.19l-1.75-.34c-.98-.19-1.71-.54-2.19-1.04-.47-.51-.71-1.16-.71-1.97,0-.69.19-1.28.57-1.79.38-.51.92-.9,1.6-1.18.68-.28,1.47-.42,2.37-.42.5,0,.98.04,1.45.13.47.08.9.21,1.29.37.39.16.73.35,1.01.57l-.81,2.09c-.39-.29-.84-.5-1.34-.65-.51-.14-1.05-.22-1.63-.22-.37,0-.68.04-.95.13-.26.08-.47.2-.6.35s-.21.33-.21.54.09.4.28.54c.18.14.51.26.99.35l1.73.33c.98.19,1.72.52,2.21,1.01.49.48.73,1.12.73,1.9,0,.69-.19,1.29-.56,1.8-.37.51-.9.91-1.58,1.19-.68.28-1.48.43-2.4.43Z"/>
  </g>
  <rect class="cls-2" x="143.79" y="78.67" width="62.64" height="1.51"/>
</svg>