<?xml version="1.0" encoding="UTF-8"?>
<svg id="Capa_1" xmlns="http://www.w3.org/2000/svg" viewBox="0 0 148.27 65.15">
  <defs>
    <style>
      .cls-1 {
        fill: #fff;
      }
    </style>
  </defs>
  <path class="cls-1" d="M52.02,25.02V.34h5.46v21h5.67v3.69h-11.12Z"/>
  <path class="cls-1" d="M72.2,25.39c-1.85,0-3.31-.33-4.39-.98-1.08-.65-1.85-1.58-2.32-2.8-.47-1.22-.7-2.67-.7-4.36v-9.17c0-1.71.23-3.16.7-4.36.47-1.2,1.24-2.12,2.32-2.76,1.08-.64,2.54-.96,4.39-.96s3.35.32,4.43.96c1.09.64,1.86,1.56,2.33,2.76.47,1.2.7,2.65.7,4.36v9.17c0,1.69-.23,3.14-.7,4.36-.47,1.22-1.24,2.15-2.33,2.8-1.09.65-2.57.98-4.43.98ZM72.2,21.52c.57,0,.99-.14,1.25-.43.26-.28.44-.65.52-1.1.08-.45.12-.9.12-1.37V6.74c0-.49-.04-.95-.12-1.39-.08-.44-.25-.8-.52-1.08-.26-.28-.68-.43-1.25-.43-.53,0-.92.14-1.19.43-.26.28-.44.65-.52,1.08-.08.44-.12.9-.12,1.39v11.89c0,.47.04.92.11,1.37.07.45.23.81.49,1.1.25.28.67.43,1.23.43Z"/>
  <path class="cls-1" d="M89.54,25.39c-1.54,0-2.83-.27-3.87-.82-1.04-.55-1.82-1.4-2.35-2.54-.53-1.15-.82-2.64-.88-4.46l4.66-.7c.02,1.06.12,1.91.29,2.56.17.65.42,1.12.73,1.4.31.28.7.43,1.14.43.57,0,.94-.19,1.11-.58.17-.39.26-.79.26-1.22,0-1.02-.24-1.87-.73-2.58-.49-.7-1.15-1.41-1.98-2.12l-2.13-1.86c-.93-.79-1.72-1.69-2.36-2.7-.64-1.01-.96-2.25-.96-3.73,0-2.09.62-3.69,1.86-4.8,1.24-1.11,2.93-1.66,5.06-1.66,1.32,0,2.38.22,3.18.67.8.45,1.41,1.03,1.83,1.75.42.72.7,1.48.85,2.29.15.8.24,1.57.26,2.3l-4.69.58c-.02-.73-.07-1.37-.14-1.9-.07-.54-.22-.95-.44-1.25-.22-.29-.57-.44-1.04-.44-.51,0-.88.21-1.11.64-.23.43-.35.85-.35,1.28,0,.91.22,1.66.66,2.24.44.58,1.01,1.18,1.72,1.81l2.04,1.8c1.08.91,1.99,1.95,2.73,3.11.74,1.16,1.11,2.59,1.11,4.3,0,1.16-.26,2.21-.79,3.15-.53.94-1.28,1.69-2.24,2.24-.97.55-2.11.82-3.43.82Z"/>
  <path class="cls-1" d="M0,64.28L.58,30.57h7.99l3.7,19.6,3.99-19.6h7.7l.58,33.71h-5.28l-.62-22.43-3.91,22.43h-4.7l-4.16-22.6-.5,22.6H0Z"/>
  <path class="cls-1" d="M29.42,64.28V30.57h15.15v5.08h-7.7v8.36h5.87v5.16h-5.87v10.07h7.78v5.04h-15.23Z"/>
  <path class="cls-1" d="M46.07,65.15v-5.2c.75,0,1.39-.04,1.91-.12.53-.08.94-.24,1.25-.48.3-.24.53-.58.67-1.04.14-.46.21-1.05.21-1.77v-25.97h7.45v26.3c0,1.83-.23,3.36-.69,4.6-.46,1.23-1.26,2.16-2.39,2.77-1.14.61-2.73.92-4.79.92h-3.62Z"/>
  <path class="cls-1" d="M72.2,64.78c-2.52,0-4.52-.44-5.99-1.33-1.47-.89-2.52-2.16-3.16-3.83-.64-1.66-.96-3.65-.96-5.95v-12.53c0-2.33.32-4.31.96-5.95.64-1.64,1.69-2.89,3.16-3.77,1.47-.87,3.47-1.31,5.99-1.31s4.57.44,6.05,1.31c1.48.87,2.54,2.13,3.18,3.77.64,1.64.96,3.62.96,5.95v12.53c0,2.3-.32,4.29-.96,5.95-.64,1.66-1.7,2.94-3.18,3.83-1.48.89-3.5,1.33-6.05,1.33ZM72.2,59.49c.78,0,1.35-.19,1.71-.58.36-.39.6-.89.71-1.5.11-.61.17-1.23.17-1.87v-16.23c0-.67-.06-1.3-.17-1.89-.11-.6-.35-1.09-.71-1.48-.36-.39-.93-.58-1.71-.58-.72,0-1.26.19-1.62.58-.36.39-.6.88-.71,1.48-.11.6-.17,1.23-.17,1.89v16.23c0,.64.05,1.26.15,1.87.1.61.32,1.11.67,1.5.35.39.91.58,1.69.58Z"/>
  <path class="cls-1" d="M86.93,64.28V30.57h9.28c2.27,0,4.24.25,5.91.75,1.66.5,2.96,1.39,3.89,2.68.93,1.29,1.39,3.11,1.39,5.47,0,1.39-.11,2.62-.33,3.7-.22,1.08-.63,2.02-1.23,2.81-.6.79-1.45,1.45-2.56,1.98l4.62,16.31h-7.7l-3.7-15.11h-2.12v15.11h-7.45ZM94.38,44.88h2.08c1.05,0,1.87-.19,2.46-.56.58-.37.99-.92,1.23-1.62.24-.71.35-1.56.35-2.56,0-1.44-.26-2.57-.79-3.37-.53-.8-1.5-1.21-2.91-1.21h-2.41v9.32Z"/>
  <path class="cls-1" d="M111.9,64.28V30.57h15.15v5.08h-7.7v8.36h5.87v5.16h-5.87v10.07h7.78v5.04h-15.23Z"/>
  <path class="cls-1" d="M139.45,64.78c-2.11,0-3.87-.37-5.28-1.12-1.42-.75-2.48-1.91-3.2-3.47-.72-1.57-1.12-3.6-1.21-6.1l6.37-.96c.03,1.44.16,2.61.4,3.5.24.89.57,1.53,1,1.91.43.39.95.58,1.56.58.78,0,1.28-.26,1.52-.79.24-.53.35-1.08.35-1.66,0-1.39-.33-2.56-1-3.52-.67-.96-1.57-1.92-2.7-2.89l-2.91-2.54c-1.28-1.08-2.35-2.31-3.22-3.68s-1.31-3.07-1.31-5.1c0-2.86.85-5.04,2.54-6.55,1.69-1.51,3.99-2.27,6.91-2.27,1.8,0,3.25.31,4.35.92,1.1.61,1.93,1.41,2.5,2.39.57.99.96,2.03,1.17,3.12.21,1.1.33,2.14.35,3.14l-6.41.79c-.03-1-.09-1.87-.19-2.6-.1-.73-.3-1.3-.6-1.71-.31-.4-.78-.6-1.41-.6-.69,0-1.2.29-1.52.87-.32.58-.48,1.17-.48,1.75,0,1.25.3,2.27.89,3.06.6.79,1.38,1.62,2.35,2.48l2.79,2.46c1.47,1.25,2.71,2.66,3.72,4.24,1.01,1.58,1.52,3.54,1.52,5.87,0,1.58-.36,3.02-1.08,4.31-.72,1.29-1.74,2.31-3.06,3.06-1.32.75-2.88,1.12-4.68,1.12Z"/>
</svg>