<?xml version="1.0" encoding="UTF-8"?>
<svg id="Capa_1" data-name="Capa 1" xmlns="http://www.w3.org/2000/svg" viewBox="0 0 354.38 158">
  <defs>
    <style>
      .cls-1 {
        fill: #fff;
      }

      .cls-2 {
        fill: #e20e1c;
      }
    </style>
  </defs>
  <g>
    <g>
      <path class="cls-2" d="m30.74,138.42v-13.29h3.53v5.11h5.41v-5.11h3.53v13.29h-3.53v-5.26h-5.41v5.26h-3.53Z"/>
      <path class="cls-2" d="m44.31,138.42l6.18-13.29h2.9l6.18,13.29h-3.56l-1.56-3.64,1.36,1.11h-7.77l1.36-1.11-1.55,3.64h-3.54Zm7.58-9.69l-2.19,5.24-.53-.85h5.51l-.51.85-2.21-5.24h-.08Z"/>
      <path class="cls-2" d="m60.7,138.42v-13.29h2.6l6.54,8.13h-.3v-8.13h3.28v13.29h-2.68l-6.47-8.05h.3v8.05h-3.28Z"/>
      <path class="cls-2" d="m87.83,138.65c-1.43,0-2.68-.28-3.73-.85-1.06-.57-1.87-1.36-2.44-2.38-.57-1.02-.86-2.24-.86-3.65s.29-2.62.86-3.64c.57-1.02,1.38-1.81,2.43-2.37,1.05-.56,2.3-.84,3.74-.84.89,0,1.74.13,2.55.38.8.25,1.46.6,1.96,1.04l-1.06,2.77c-.54-.4-1.08-.69-1.63-.87-.55-.18-1.11-.26-1.69-.26-1.11,0-1.96.32-2.57.96-.61.64-.91,1.58-.91,2.83s.3,2.19.9,2.84c.6.65,1.46.97,2.58.97.58,0,1.14-.08,1.69-.25.55-.17,1.09-.46,1.63-.86l1.06,2.75c-.5.44-1.16.79-1.96,1.05-.8.26-1.65.39-2.55.39Z"/>
      <path class="cls-2" d="m100.4,138.63c-1.02,0-1.95-.16-2.78-.49-.84-.33-1.56-.79-2.16-1.4-.6-.6-1.07-1.33-1.4-2.17-.33-.84-.49-1.78-.49-2.83s.16-1.96.49-2.8c.33-.84.79-1.56,1.4-2.16.6-.6,1.32-1.07,2.16-1.39.84-.32,1.76-.48,2.78-.48s1.93.16,2.76.48c.84.32,1.56.78,2.16,1.38.6.6,1.07,1.32,1.4,2.16.33.84.49,1.78.49,2.81s-.16,1.99-.49,2.83c-.33.84-.79,1.57-1.4,2.18-.6.61-1.32,1.07-2.16,1.4-.84.32-1.76.48-2.76.48Zm0-2.96c.67,0,1.23-.16,1.71-.47.47-.31.83-.76,1.08-1.34s.38-1.28.38-2.09-.13-1.51-.38-2.09-.61-1.02-1.08-1.33c-.47-.31-1.05-.46-1.72-.46s-1.22.15-1.7.46c-.48.31-.84.75-1.09,1.33s-.38,1.28-.38,2.09.13,1.51.38,2.09.62,1.02,1.09,1.34c.48.31,1.05.47,1.72.47Z"/>
      <path class="cls-2" d="m109.55,138.42v-13.29h2.6l6.54,8.13h-.3v-8.13h3.28v13.29h-2.68l-6.47-8.05h.3v8.05h-3.28Z"/>
      <path class="cls-2" d="m124.39,138.42v-13.29h9.45v2.75h-5.92v2.6h5.52v2.75h-5.52v5.18h-3.53Z"/>
      <path class="cls-2" d="m135.75,138.42v-13.29h3.53v13.29h-3.53Z"/>
      <path class="cls-2" d="m140.39,138.42l6.18-13.29h2.9l6.18,13.29h-3.56l-1.56-3.64,1.36,1.11h-7.77l1.36-1.11-1.55,3.64h-3.54Zm7.58-9.69l-2.19,5.24-.53-.85h5.51l-.51.85-2.21-5.24h-.08Z"/>
      <path class="cls-2" d="m156.78,138.42v-13.29h5.64c1.51,0,2.8.26,3.87.78,1.07.52,1.89,1.28,2.45,2.26.57.99.85,2.18.85,3.59s-.28,2.61-.85,3.6c-.57.99-1.38,1.75-2.45,2.27-1.07.52-2.36.78-3.87.78h-5.64Zm3.53-2.88h1.89c1.24,0,2.18-.31,2.81-.94s.94-1.57.94-2.83-.32-2.2-.95-2.82c-.63-.62-1.57-.93-2.8-.93h-1.89v7.52Z"/>
      <path class="cls-2" d="m178.36,138.63c-1.02,0-1.95-.16-2.78-.49-.84-.33-1.56-.79-2.16-1.4-.6-.6-1.07-1.33-1.4-2.17-.33-.84-.49-1.78-.49-2.83s.16-1.96.49-2.8c.33-.84.79-1.56,1.4-2.16s1.32-1.07,2.16-1.39c.84-.32,1.76-.48,2.78-.48s1.93.16,2.76.48c.84.32,1.56.78,2.16,1.38.6.6,1.07,1.32,1.4,2.16.33.84.49,1.78.49,2.81s-.16,1.99-.49,2.83c-.33.84-.79,1.57-1.4,2.18-.6.61-1.32,1.07-2.16,1.4-.84.32-1.76.48-2.76.48Zm0-2.96c.67,0,1.23-.16,1.71-.47.47-.31.83-.76,1.08-1.34.25-.58.38-1.28.38-2.09s-.13-1.51-.38-2.09c-.25-.58-.61-1.02-1.08-1.33-.47-.31-1.05-.46-1.73-.46s-1.22.15-1.7.46c-.48.31-.84.75-1.09,1.33-.25.58-.38,1.28-.38,2.09s.13,1.51.38,2.09c.25.58.62,1.02,1.09,1.34.48.31,1.05.47,1.72.47Z"/>
      <path class="cls-2" d="m193.15,138.42v-13.29h9.54v2.75h-6.16v2.43h5.75v2.73h-5.75v2.62h6.16v2.75h-9.54Z"/>
      <path class="cls-2" d="m205.17,138.42v-13.29h2.6l6.54,8.13h-.3v-8.13h3.28v13.29h-2.68l-6.47-8.05h.3v8.05h-3.28Z"/>
      <path class="cls-2" d="m225.65,138.42v-13.29h2.6l6.54,8.13h-.3v-8.13h3.28v13.29h-2.68l-6.47-8.05h.3v8.05h-3.28Z"/>
      <path class="cls-2" d="m246.93,138.63c-1.02,0-1.95-.16-2.78-.49-.84-.33-1.56-.79-2.16-1.4-.6-.6-1.07-1.33-1.4-2.17-.33-.84-.49-1.78-.49-2.83s.16-1.96.49-2.8c.33-.84.79-1.56,1.4-2.16.6-.6,1.32-1.07,2.16-1.39.84-.32,1.76-.48,2.78-.48s1.93.16,2.76.48c.84.32,1.56.78,2.16,1.38.6.6,1.07,1.32,1.4,2.16.33.84.49,1.78.49,2.81s-.16,1.99-.49,2.83c-.33.84-.79,1.57-1.4,2.18-.6.61-1.32,1.07-2.16,1.4-.84.32-1.76.48-2.76.48Zm0-2.96c.67,0,1.23-.16,1.71-.47.47-.31.83-.76,1.08-1.34s.38-1.28.38-2.09-.13-1.51-.38-2.09-.61-1.02-1.08-1.33c-.47-.31-1.05-.46-1.72-.46s-1.22.15-1.7.46c-.48.31-.84.75-1.09,1.33s-.38,1.28-.38,2.09.13,1.51.38,2.09.62,1.02,1.09,1.34c.48.31,1.05.47,1.72.47Z"/>
      <path class="cls-2" d="m261.11,138.63c-.7,0-1.4-.05-2.08-.15-.69-.1-1.32-.25-1.89-.45s-1.08-.43-1.51-.7l1.02-2.73c.39.24.83.44,1.32.61.49.17,1.01.3,1.55.4.54.09,1.07.14,1.6.14.8,0,1.38-.11,1.73-.33.35-.22.53-.51.53-.86,0-.2-.05-.37-.16-.51-.11-.14-.28-.26-.52-.36-.24-.1-.56-.18-.96-.25l-2.21-.43c-1.24-.24-2.17-.68-2.76-1.32-.6-.64-.9-1.47-.9-2.49,0-.87.24-1.62.73-2.26.48-.64,1.16-1.14,2.02-1.49.86-.35,1.86-.53,2.99-.53.63,0,1.24.05,1.83.16.59.11,1.13.26,1.63.46.5.2.92.44,1.27.72l-1.02,2.64c-.49-.36-1.06-.64-1.7-.82-.64-.18-1.33-.27-2.06-.27-.47,0-.86.05-1.2.16-.33.11-.59.25-.76.44s-.26.41-.26.68.12.51.35.69c.23.18.65.33,1.25.44l2.19.41c1.24.24,2.17.66,2.79,1.27.62.61.92,1.41.92,2.4,0,.87-.24,1.62-.71,2.27-.47.65-1.14,1.15-2,1.51-.86.36-1.87.54-3.03.54Z"/>
      <path class="cls-2" d="m275.27,138.63c-1.02,0-1.95-.16-2.78-.49-.84-.33-1.56-.79-2.16-1.4-.6-.6-1.07-1.33-1.4-2.17-.33-.84-.49-1.78-.49-2.83s.16-1.96.49-2.8c.33-.84.79-1.56,1.4-2.16.6-.6,1.32-1.07,2.16-1.39.84-.32,1.76-.48,2.78-.48s1.93.16,2.76.48c.84.32,1.56.78,2.16,1.38.6.6,1.07,1.32,1.4,2.16.33.84.49,1.78.49,2.81s-.16,1.99-.49,2.83c-.33.84-.79,1.57-1.4,2.18-.6.61-1.32,1.07-2.16,1.4-.84.32-1.76.48-2.76.48Zm0-2.96c.67,0,1.23-.16,1.71-.47.47-.31.83-.76,1.08-1.34s.38-1.28.38-2.09-.13-1.51-.38-2.09-.61-1.02-1.08-1.33c-.47-.31-1.05-.46-1.72-.46s-1.22.15-1.7.46c-.48.31-.84.75-1.09,1.33s-.38,1.28-.38,2.09.13,1.51.38,2.09.62,1.02,1.09,1.34c.48.31,1.05.47,1.72.47Z"/>
      <path class="cls-2" d="m286.79,138.42v-10.39h-4.22v-2.9h11.97v2.9h-4.22v10.39h-3.53Z"/>
      <path class="cls-2" d="m296.18,138.42v-13.29h6.47c1.55,0,2.73.36,3.56,1.09.83.73,1.24,1.75,1.24,3.05,0,.79-.17,1.47-.5,2.04s-.8,1.01-1.4,1.33-1.32.51-2.15.56l.09-.17.66.02c.43.03.81.16,1.15.4.34.24.63.6.89,1.09l2.11,3.88h-3.87l-2.21-4.09c-.1-.19-.22-.34-.36-.44-.14-.11-.29-.19-.46-.24-.17-.05-.37-.08-.59-.08h-1.11v4.85h-3.53Zm3.53-7.39h2.38c.65,0,1.15-.13,1.48-.4.33-.26.5-.67.5-1.21s-.17-.92-.5-1.19c-.33-.26-.83-.4-1.48-.4h-2.38v3.19Z"/>
      <path class="cls-2" d="m316.28,138.63c-1.02,0-1.95-.16-2.78-.49-.84-.33-1.56-.79-2.16-1.4-.6-.6-1.07-1.33-1.4-2.17-.33-.84-.49-1.78-.49-2.83s.16-1.96.49-2.8c.33-.84.79-1.56,1.4-2.16.6-.6,1.32-1.07,2.16-1.39.84-.32,1.76-.48,2.78-.48s1.93.16,2.76.48c.84.32,1.56.78,2.16,1.38.6.6,1.07,1.32,1.4,2.16.33.84.49,1.78.49,2.81s-.16,1.99-.49,2.83c-.33.84-.79,1.57-1.4,2.18-.6.61-1.32,1.07-2.16,1.4-.84.32-1.76.48-2.76.48Zm0-2.96c.67,0,1.23-.16,1.71-.47.47-.31.83-.76,1.08-1.34s.38-1.28.38-2.09-.13-1.51-.38-2.09-.61-1.02-1.08-1.33c-.47-.31-1.05-.46-1.72-.46s-1.22.15-1.7.46c-.48.31-.84.75-1.09,1.33s-.38,1.28-.38,2.09.13,1.51.38,2.09.62,1.02,1.09,1.34c.48.31,1.05.47,1.72.47Z"/>
      <path class="cls-2" d="m330.46,138.63c-.7,0-1.4-.05-2.08-.15-.69-.1-1.32-.25-1.89-.45s-1.08-.43-1.51-.7l1.02-2.73c.39.24.83.44,1.32.61.49.17,1.01.3,1.55.4.54.09,1.07.14,1.6.14.8,0,1.38-.11,1.73-.33.35-.22.53-.51.53-.86,0-.2-.05-.37-.16-.51-.11-.14-.28-.26-.52-.36-.24-.1-.56-.18-.96-.25l-2.21-.43c-1.24-.24-2.17-.68-2.76-1.32-.6-.64-.9-1.47-.9-2.49,0-.87.24-1.62.73-2.26.48-.64,1.16-1.14,2.02-1.49.86-.35,1.86-.53,2.99-.53.63,0,1.24.05,1.83.16.59.11,1.13.26,1.63.46.5.2.92.44,1.27.72l-1.02,2.64c-.49-.36-1.06-.64-1.7-.82-.64-.18-1.33-.27-2.06-.27-.47,0-.86.05-1.2.16-.33.11-.59.25-.76.44s-.26.41-.26.68.12.51.35.69c.23.18.65.33,1.25.44l2.19.41c1.24.24,2.17.66,2.79,1.27.62.61.92,1.41.92,2.4,0,.87-.24,1.62-.71,2.27-.47.65-1.14,1.15-2,1.51-.86.36-1.87.54-3.03.54Z"/>
    </g>
    <rect class="cls-2" x="143.64" y="155.99" width="79.82" height="2.01"/>
  </g>
  <g>
    <g>
      <path class="cls-1" d="m128.56,38.97L134.65.65h10.01l-4.73,30h16.97l-1.31,8.32h-27.03Z"/>
      <path class="cls-1" d="m180.55,39.62c-3.66,0-6.85-.69-9.57-2.07-2.72-1.38-4.82-3.35-6.31-5.92-1.49-2.57-2.23-5.65-2.23-9.24,0-3.3.49-6.31,1.47-9.05.98-2.74,2.38-5.1,4.22-7.09,1.83-1.99,4.02-3.53,6.58-4.62,2.56-1.09,5.41-1.63,8.57-1.63,3.66,0,6.85.69,9.57,2.07,2.72,1.38,4.83,3.34,6.34,5.9,1.5,2.55,2.26,5.63,2.26,9.21,0,3.33-.51,6.37-1.52,9.1-1.02,2.74-2.44,5.1-4.27,7.09-1.83,1.99-4.02,3.53-6.55,4.62-2.54,1.09-5.38,1.63-8.54,1.63Zm.16-8.42c2.14,0,3.99-.58,5.55-1.74,1.56-1.16,2.74-2.78,3.54-4.86.8-2.08,1.2-4.48,1.2-7.2,0-3.08-.71-5.34-2.12-6.79-1.41-1.45-3.34-2.17-5.77-2.17-2.18,0-4.03.58-5.58,1.74-1.54,1.16-2.72,2.77-3.54,4.84-.82,2.07-1.22,4.48-1.22,7.23,0,3.04.71,5.3,2.12,6.77s3.35,2.2,5.82,2.2Z"/>
      <path class="cls-1" d="m219.39,39.62c-1.85,0-3.71-.18-5.58-.54-1.87-.36-3.64-.87-5.33-1.52s-3.25-1.49-4.7-2.5l3.32-7.55c1.45.94,2.95,1.69,4.49,2.26,1.54.56,3.05.98,4.54,1.25,1.49.27,2.9.41,4.24.41s2.54-.15,3.48-.46c.94-.31,1.67-.73,2.18-1.28.51-.54.76-1.16.76-1.85,0-.54-.15-1.04-.44-1.49-.29-.45-.74-.84-1.36-1.17-.62-.33-1.41-.6-2.39-.82l-6.25-1.47c-2.79-.65-4.99-1.84-6.58-3.56-1.6-1.72-2.39-3.87-2.39-6.44,0-2.07.44-3.89,1.31-5.49.87-1.59,2.07-2.93,3.59-4.02,1.52-1.09,3.25-1.92,5.19-2.5,1.94-.58,4-.87,6.17-.87,2.39,0,4.83.35,7.32,1.06,2.48.71,4.76,1.8,6.83,3.29l-3.48,7.12c-1.63-1.16-3.42-1.99-5.36-2.5-1.94-.51-3.73-.76-5.36-.76-1.31,0-2.45.15-3.43.46-.98.31-1.72.73-2.23,1.28-.51.54-.76,1.18-.76,1.9,0,.83.31,1.51.92,2.04.62.53,1.56.95,2.83,1.28l6.31,1.52c2.97.65,5.28,1.87,6.91,3.64,1.63,1.78,2.45,3.9,2.45,6.36,0,2.17-.46,4.07-1.39,5.68-.92,1.61-2.19,2.95-3.81,4.02-1.61,1.07-3.45,1.88-5.52,2.42-2.07.54-4.22.82-6.47.82Z"/>
    </g>
    <g>
      <path class="cls-1" d="m0,105.45l8.57-53.95h11.1l13.01,33.36h-2.3l23.65-33.36h12.09l-8.57,53.95h-12.7l5.13-32.52h1.68l-17.6,24.49h-7.65l-10.25-23.95h1.61l-5.05,31.99H0Z"/>
      <path class="cls-1" d="m67.57,105.45l8.49-53.95h38.11l-1.76,10.87h-24.64l-1.61,10.25h22.88l-1.61,10.87h-22.96l-1.84,11.1h24.72l-1.76,10.87h-38.03Z"/>
      <path class="cls-1" d="m109.89,106.29l.38-11.25,6.5-.38c1.27-.05,2.35-.29,3.21-.73.87-.43,1.57-1.1,2.1-1.99.54-.89.88-2,1.03-3.33l5.89-37.11h14.08l-5.97,38.03c-.56,3.42-1.52,6.3-2.87,8.65-1.35,2.35-3.36,4.15-6.01,5.39-2.65,1.25-6.15,2.03-10.48,2.33l-7.88.38Z"/>
      <path class="cls-1" d="m172.79,106.37c-5.15,0-9.64-.97-13.47-2.91-3.83-1.94-6.79-4.72-8.88-8.34-2.09-3.62-3.14-7.96-3.14-13.01,0-4.64.69-8.89,2.07-12.74,1.38-3.85,3.35-7.18,5.93-9.99,2.58-2.8,5.66-4.97,9.26-6.5,3.6-1.53,7.61-2.3,12.05-2.3,5.15,0,9.64.97,13.47,2.91,3.83,1.94,6.8,4.71,8.92,8.3,2.12,3.6,3.18,7.92,3.18,12.97,0,4.69-.72,8.97-2.14,12.82-1.43,3.85-3.43,7.18-6.01,9.99-2.58,2.81-5.65,4.97-9.22,6.5-3.57,1.53-7.58,2.3-12.01,2.3Zm.23-11.86c3.01,0,5.61-.82,7.81-2.45,2.19-1.63,3.85-3.91,4.97-6.85,1.12-2.93,1.68-6.31,1.68-10.14,0-4.34-.99-7.52-2.98-9.57-1.99-2.04-4.69-3.06-8.11-3.06-3.06,0-5.68.82-7.84,2.45-2.17,1.63-3.83,3.9-4.97,6.81-1.15,2.91-1.72,6.3-1.72,10.18,0,4.28,1,7.46,2.98,9.53,1.99,2.07,4.72,3.1,8.19,3.1Z"/>
      <path class="cls-1" d="m206.15,105.45l8.57-53.95h23.26c4.08,0,7.54.63,10.37,1.87,2.83,1.25,4.99,3.01,6.47,5.28,1.48,2.27,2.22,5.04,2.22,8.3,0,4.18-.92,7.63-2.75,10.33-1.84,2.7-4.37,4.69-7.61,5.97-3.24,1.28-6.93,1.91-11.06,1.91v-1.38h2.91c2.6,0,4.73.73,6.39,2.18,1.66,1.45,2.97,3.38,3.94,5.78l5.28,13.7h-14.46l-6.12-16.22c-.31-.97-.72-1.73-1.22-2.3-.51-.56-1.1-.97-1.76-1.22-.66-.25-1.48-.38-2.45-.38h-4.74l-3.14,20.13h-14.08Zm18.82-30.07h10.18c2.7,0,4.78-.6,6.24-1.8,1.45-1.2,2.18-3,2.18-5.39,0-1.99-.64-3.47-1.91-4.44-1.28-.97-3.32-1.45-6.12-1.45h-8.49l-2.07,13.09Z"/>
      <path class="cls-1" d="m260.33,105.45l8.49-53.95h38.11l-1.76,10.87h-24.64l-1.61,10.25h22.88l-1.61,10.87h-22.96l-1.84,11.1h24.72l-1.76,10.87h-38.03Z"/>
      <path class="cls-1" d="m328.52,106.37c-2.6,0-5.22-.26-7.84-.77-2.63-.51-5.13-1.22-7.5-2.14-2.37-.92-4.58-2.09-6.62-3.52l4.67-10.64c2.04,1.33,4.14,2.39,6.31,3.18,2.17.79,4.3,1.38,6.39,1.76,2.09.38,4.08.57,5.97.57s3.57-.22,4.9-.65c1.33-.43,2.35-1.03,3.06-1.8.71-.77,1.07-1.63,1.07-2.6,0-.76-.2-1.47-.61-2.1-.41-.64-1.05-1.19-1.91-1.65-.87-.46-1.99-.84-3.37-1.15l-8.8-2.07c-3.93-.92-7.02-2.59-9.26-5.01-2.25-2.42-3.37-5.44-3.37-9.07,0-2.91.61-5.48,1.84-7.73,1.22-2.24,2.91-4.13,5.05-5.66,2.14-1.53,4.58-2.7,7.31-3.52,2.73-.82,5.62-1.22,8.69-1.22,3.37,0,6.8.5,10.29,1.49,3.49.99,6.7,2.54,9.6,4.63l-4.9,10.03c-2.3-1.63-4.81-2.81-7.54-3.52-2.73-.71-5.24-1.07-7.54-1.07-1.84,0-3.44.22-4.82.65-1.38.43-2.42,1.03-3.14,1.8-.72.77-1.07,1.66-1.07,2.68,0,1.17.43,2.13,1.3,2.87.87.74,2.19,1.34,3.98,1.8l8.88,2.14c4.18.92,7.42,2.63,9.72,5.13,2.3,2.5,3.44,5.48,3.44,8.95,0,3.06-.65,5.73-1.95,8-1.3,2.27-3.09,4.16-5.36,5.66-2.27,1.51-4.86,2.64-7.77,3.41-2.91.77-5.94,1.15-9.11,1.15Z"/>
    </g>
  </g>
</svg>