<?xml version="1.0" encoding="UTF-8"?>
<svg id="Capa_1" data-name="Capa 1" xmlns="http://www.w3.org/2000/svg" viewBox="0 0 448.25 169.26">
  <defs>
    <style>
      .cls-1 {
        fill: #fff;
      }

      .cls-2 {
        fill: #ff0000;
      }
    </style>
  </defs>
  <g>
    <g>
      <path class="cls-1" d="m28.22,8.64h10.58c6.69,0,9.32,3.71,8.12,10.52l-3.8,21.53c-1.2,6.81-5.14,10.52-11.83,10.52h-10.58l7.51-42.58Zm5.62,6.08l-5.36,30.41h3.77c2.13,0,3.6-1.1,4.14-4.14l3.9-22.14c.54-3.04-.55-4.14-2.68-4.14h-3.77Z"/>
      <path class="cls-1" d="m53.03,8.64h6.69l-7.51,42.58h-6.69s7.51-42.58,7.51-42.58Z"/>
      <path class="cls-1" d="m73.67,8.15c6.51,0,9.17,3.89,7.97,10.71l-.24,1.34h-6.33l.31-1.76c.54-3.04-.48-4.2-2.61-4.2s-3.55,1.16-4.09,4.2c-1.54,8.76,11.24,10.4,9.1,22.57-1.2,6.81-5.29,10.71-11.86,10.71-6.57,0-9.29-3.89-8.09-10.71l.46-2.62h6.33l-.54,3.04c-.54,3.04.61,4.14,2.74,4.14,2.13,0,3.66-1.09,4.2-4.14,1.54-8.76-11.24-10.4-9.1-22.57,1.2-6.81,5.23-10.71,11.74-10.71Z"/>
      <path class="cls-1" d="m90.86,26.58h9.18l-1.07,6.08h-9.18l-2.2,12.47h11.56s-1.07,6.08-1.07,6.08h-18.25l7.51-42.58h18.25l-1.07,6.08h-11.56l-2.09,11.86Z"/>
      <path class="cls-1" d="m113.6,20.38l-5.44,30.84h-6.02s7.51-42.58,7.51-42.58h8.39l2.38,25.49,4.49-25.49h5.96l-7.51,42.58h-6.87s-2.9-30.84-2.9-30.84ZM126.8,0l2.83,2.25c-1.7,3.1-3.77,4.14-5.9,4.14-2.55,0-3.38-1.52-5.21-1.52-1.09,0-1.93.24-2.93,1.76l-2.83-2.25c1.7-3.1,3.77-4.14,5.9-4.14,2.55,0,3.38,1.52,5.21,1.52,1.09,0,1.93-.24,2.93-1.76Z"/>
      <path class="cls-1" d="m149.82,51.22h-6.75s.21-7.73.21-7.73h-8.21l-2.52,7.73h-6.14s14.32-42.58,14.32-42.58h9.79l-.7,42.58Zm-12.89-13.5h6.45s.57-21.53.57-21.53l-7.02,21.53Z"/>
      <path class="cls-1" d="m160.43,8.64h10.58c6.69,0,9.32,3.71,8.12,10.52l-3.8,21.53c-1.2,6.81-5.14,10.52-11.83,10.52h-10.58l7.51-42.58Zm5.62,6.08l-5.36,30.41h3.77c2.13,0,3.6-1.1,4.14-4.14l3.9-22.14c.54-3.04-.55-4.14-2.68-4.14h-3.77Z"/>
      <path class="cls-1" d="m182.89,18.86c1.2-6.81,5.48-10.71,12.05-10.71,6.57,0,9.47,3.89,8.27,10.71l-3.9,22.14c-1.2,6.81-5.48,10.71-12.05,10.71-6.57,0-9.47-3.89-8.27-10.71l3.9-22.14Zm2.71,22.57c-.54,3.04.6,4.2,2.73,4.2s3.67-1.16,4.21-4.2l4.05-22.99c.54-3.04-.6-4.2-2.73-4.2s-3.67,1.16-4.21,4.2l-4.05,22.99Z"/>
      <path class="cls-1" d="m215.81,51.22c-.17-1.1-.3-1.76.31-5.23l1.18-6.69c.7-3.95-.38-5.41-3.42-5.41h-2.31l-3.06,17.34h-6.69l7.51-42.58h10.1c6.93,0,9.35,3.22,8.19,9.79l-.59,3.35c-.77,4.38-2.68,7.24-5.9,8.64,3.1,1.4,3.63,4.62,2.84,9.06l-1.16,6.57c-.36,2.07-.57,3.59-.18,5.17h-6.81Zm-.86-36.5l-2.31,13.08h2.62c2.49,0,4.21-1.1,4.81-4.5l.74-4.2c.54-3.04-.26-4.38-2.63-4.38h-3.22Z"/>
      <path class="cls-1" d="m237.3,26.58h9.19l-1.07,6.08h-9.19l-2.2,12.47h11.56l-1.07,6.08h-18.25s7.51-42.58,7.51-42.58h18.25l-1.07,6.08h-11.56l-2.09,11.86Z"/>
      <path class="cls-1" d="m265.25,8.15c6.51,0,9.17,3.89,7.97,10.71l-.24,1.34h-6.32s.31-1.76.31-1.76c.54-3.04-.48-4.2-2.61-4.2s-3.55,1.16-4.09,4.2c-1.54,8.76,11.24,10.4,9.1,22.57-1.2,6.81-5.29,10.71-11.86,10.71s-9.29-3.89-8.09-10.71l.46-2.62h6.32l-.54,3.04c-.54,3.04.61,4.14,2.74,4.14,2.13,0,3.66-1.09,4.2-4.14,1.54-8.76-11.24-10.4-9.1-22.57,1.2-6.81,5.23-10.71,11.74-10.71Z"/>
    </g>
    <g>
      <path class="cls-1" d="m279.07,24.7h6.45c4.08,0,5.68,2.35,4.95,6.67l-2.31,13.66c-.73,4.32-3.13,6.67-7.21,6.67h-6.45l4.58-27Zm3.42,3.86l-3.27,19.29h2.3c1.3,0,2.19-.69,2.52-2.62l2.38-14.04c.33-1.93-.33-2.62-1.63-2.62h-2.3Z"/>
      <path class="cls-1" d="m296.34,36.08h5.6l-.65,3.86h-5.6l-1.34,7.91h7.04l-.65,3.86h-11.12l4.58-27h11.12l-.65,3.86h-7.04s-1.27,7.52-1.27,7.52Z"/>
    </g>
    <g>
      <path class="cls-1" d="m23.75,88.1h15.48l-1.81,10.25h-15.48l-3.71,21.02h19.48l-1.81,10.25H5.14s12.66-71.78,12.66-71.78h30.76s-1.81,10.25-1.81,10.25h-19.48l-3.53,19.99Z"/>
      <path class="cls-1" d="m93.17,57.85l-17.94,34.86,6.1,36.91h-11.89l-4.22-28.4-14.34,28.4h-10.56l19.12-36.91-5.64-34.86h11.69s3.85,26.45,3.85,26.45l13.38-26.45h10.46Z"/>
      <path class="cls-1" d="m129.93,75.59l-1.65,9.33c-2.02,11.48-8.66,17.74-19.94,17.74h-5.33l-4.76,26.97h-11.28l12.66-71.78h16.61c11.28,0,15.71,6.25,13.69,17.74Zm-20.83-7.49l-4.28,24.3h5.33c3.59,0,5.83-1.64,6.73-6.77l1.9-10.77c.9-5.13-.75-6.77-4.34-6.77h-5.33Z"/>
      <path class="cls-1" d="m144.23,88.1h15.48l-1.81,10.25h-15.48l-3.71,21.02h19.48l-1.81,10.25h-30.76s12.66-71.78,12.66-71.78h30.76l-1.81,10.25h-19.48l-3.53,19.99Z"/>
      <path class="cls-1" d="m186.95,129.63c-.29-1.85-.5-2.97.53-8.82l1.99-11.28c1.18-6.66-.65-9.13-5.77-9.13h-3.9l-5.15,29.22h-11.28s12.66-71.78,12.66-71.78h17.02c11.69,0,15.76,5.43,13.8,16.51l-.99,5.64c-1.3,7.38-4.51,12.2-9.95,14.56,5.22,2.36,6.11,7.79,4.79,15.28l-1.95,11.07c-.61,3.49-.97,6.05-.31,8.72h-11.49Zm-1.46-61.52l-3.89,22.05h4.41c4.2,0,7.09-1.85,8.1-7.59l1.25-7.08c.9-5.13-.44-7.38-4.44-7.38h-5.43Z"/>
      <path class="cls-1" d="m217.24,57.85h11.28s-12.66,71.78-12.66,71.78h-11.28l12.66-71.78Z"/>
      <path class="cls-1" d="m242.67,88.1h15.48l-1.81,10.25h-15.48l-3.71,21.02h19.48l-1.81,10.25h-30.76s12.66-71.78,12.66-71.78h30.76s-1.81,10.25-1.81,10.25h-19.48l-3.53,19.99Z"/>
      <path class="cls-1" d="m281.01,77.64l-9.17,51.99h-10.15l12.66-71.78h14.15s4.01,42.96,4.01,42.96l7.58-42.96h10.05s-12.66,71.78-12.66,71.78h-11.59l-4.88-51.99Z"/>
      <path class="cls-1" d="m343.01,102.87l-1.68,9.54c-2.03,11.48-8.92,18.05-20,18.05-11.07,0-15.66-6.56-13.63-18.05l6.58-37.32c2.03-11.48,8.92-18.05,20-18.05,11.07,0,15.66,6.56,13.63,18.05l-1.23,6.97h-10.66l1.36-7.69c.9-5.13-1.01-7.07-4.6-7.07s-6.19,1.95-7.09,7.07l-6.83,38.76c-.9,5.13,1.03,6.97,4.61,6.97s6.17-1.85,7.07-6.97l1.81-10.25h10.66Z"/>
      <path class="cls-1" d="m357.81,57.85h11.28s-12.66,71.78-12.66,71.78h-11.28l12.66-71.78Z"/>
      <path class="cls-1" d="m401.14,129.63h-11.38s.35-13.02.35-13.02h-13.84l-4.24,13.02h-10.36l24.14-71.78h16.51s-1.17,71.78-1.17,71.78Zm-21.72-22.76h10.87l.97-36.3-11.83,36.3Z"/>
      <path class="cls-1" d="m434.35,57.03c10.97,0,15.45,6.56,13.43,18.05l-.4,2.26h-10.66l.52-2.97c.9-5.13-.8-7.07-4.39-7.07-3.59,0-5.98,1.95-6.89,7.07-2.6,14.77,18.95,17.53,15.34,38.04-2.03,11.48-8.92,18.05-20,18.05-11.07,0-15.66-6.56-13.63-18.05l.78-4.41h10.66l-.9,5.13c-.9,5.13,1.03,6.97,4.62,6.97s6.17-1.85,7.07-6.97c2.6-14.77-18.95-17.53-15.34-38.04,2.03-11.48,8.82-18.05,19.79-18.05Z"/>
    </g>
  </g>
  <g>
    <path class="cls-2" d="m12.4,162.06c.17,0,.31.07.44.2l1.22,1.32c-.67.84-1.51,1.48-2.49,1.92-.99.45-2.17.67-3.55.67-1.24,0-2.35-.21-3.33-.63-.99-.42-1.83-1.01-2.53-1.76-.7-.75-1.23-1.65-1.61-2.69-.37-1.04-.56-2.18-.56-3.42s.21-2.4.62-3.43c.41-1.04,1-1.93,1.75-2.69.75-.75,1.65-1.34,2.7-1.75,1.05-.42,2.2-.63,3.47-.63s2.31.2,3.24.59c.92.4,1.72.92,2.38,1.57l-1.04,1.44c-.06.09-.14.17-.24.24-.1.07-.23.1-.4.1s-.36-.07-.54-.21c-.18-.14-.42-.29-.7-.45-.28-.16-.64-.31-1.08-.45-.43-.14-.98-.21-1.65-.21-.78,0-1.5.14-2.16.41-.66.27-1.22.66-1.69,1.17-.47.51-.84,1.12-1.1,1.85s-.4,1.54-.4,2.45.13,1.77.4,2.5c.26.73.62,1.34,1.08,1.84s.99.88,1.6,1.14c.61.26,1.27.4,1.98.4.42,0,.8-.02,1.15-.07.34-.05.66-.12.94-.22.29-.1.56-.23.82-.39.26-.16.51-.35.77-.58.08-.07.16-.12.24-.17.08-.04.18-.06.28-.06Z"/>
    <path class="cls-2" d="m19.6,159.49v6.5h-3.1v-16.64h5.07c1.14,0,2.11.12,2.92.35.81.23,1.47.56,1.99.98.52.42.9.93,1.14,1.51.24.59.36,1.23.36,1.94,0,.56-.08,1.09-.25,1.59s-.4.95-.71,1.36c-.31.41-.69.76-1.15,1.07s-.98.55-1.56.74c.39.22.73.54,1.01.96l4.17,6.14h-2.78c-.27,0-.5-.05-.68-.16-.19-.11-.35-.26-.48-.46l-3.5-5.33c-.13-.2-.27-.34-.43-.43-.16-.08-.39-.13-.7-.13h-1.32Zm0-2.22h1.93c.58,0,1.09-.07,1.52-.22.43-.15.79-.35,1.07-.6.28-.26.49-.56.63-.91.14-.35.21-.74.21-1.16,0-.84-.28-1.49-.83-1.94-.56-.45-1.41-.68-2.55-.68h-1.98v5.52Z"/>
    <path class="cls-2" d="m41.97,149.35v2.46h-7.38v4.61h5.81v2.38h-5.81v4.71h7.38v2.47h-10.49v-16.64h10.49Z"/>
    <path class="cls-2" d="m59.27,165.99h-2.39c-.27,0-.49-.07-.66-.2s-.3-.3-.37-.5l-1.24-3.39h-6.89l-1.24,3.39c-.06.18-.18.34-.36.48-.18.15-.4.22-.66.22h-2.41l6.54-16.64h3.16l6.54,16.64Zm-10.77-6.28h5.3l-2.03-5.53c-.09-.25-.19-.54-.31-.87-.11-.33-.22-.7-.33-1.09-.11.39-.21.76-.32,1.09-.1.34-.21.63-.31.89l-2.03,5.51Z"/>
    <path class="cls-2" d="m69.7,159.85c.11.26.22.53.33.8.11-.28.22-.55.33-.82.12-.27.24-.53.37-.77l4.93-9.22c.06-.12.12-.21.19-.28.06-.07.14-.12.22-.15s.17-.05.27-.06.22-.01.36-.01h2.34v16.64h-2.73v-10.75c0-.2,0-.42.02-.66.01-.24.03-.48.05-.72l-5.03,9.44c-.11.21-.26.38-.45.5s-.4.18-.64.18h-.43c-.25,0-.46-.06-.64-.18s-.33-.29-.45-.5l-5.1-9.47c.03.25.05.5.06.74.01.24.02.47.02.67v10.75h-2.73v-16.64h2.34c.14,0,.26,0,.36.01s.19.03.27.06c.08.03.16.08.22.15s.13.16.2.28l4.97,9.24c.13.25.25.5.36.77Z"/>
    <path class="cls-2" d="m98.35,157.67c0,1.22-.2,2.35-.61,3.39-.41,1.04-.98,1.94-1.71,2.7s-1.62,1.35-2.66,1.78c-1.04.43-2.18.64-3.44.64s-2.41-.21-3.45-.64c-1.04-.43-1.93-1.02-2.67-1.78s-1.31-1.66-1.72-2.7c-.41-1.04-.61-2.17-.61-3.39s.2-2.35.61-3.39c.41-1.04.98-1.94,1.72-2.7.74-.76,1.63-1.35,2.67-1.78s2.19-.64,3.45-.64,2.4.21,3.44.64,1.92,1.02,2.66,1.78c.74.76,1.31,1.65,1.71,2.69.41,1.04.61,2.17.61,3.39Zm-3.18,0c0-.91-.12-1.73-.36-2.46-.24-.73-.59-1.34-1.04-1.85-.45-.51-1-.89-1.65-1.16-.65-.27-1.38-.4-2.19-.4s-1.55.13-2.2.4c-.65.27-1.21.66-1.66,1.16s-.81,1.12-1.05,1.85c-.25.72-.37,1.54-.37,2.46s.12,1.73.37,2.46c.25.72.6,1.34,1.05,1.84s1.01.89,1.66,1.16c.65.27,1.38.4,2.2.4s1.54-.13,2.19-.4c.65-.27,1.2-.65,1.65-1.16.45-.5.8-1.12,1.04-1.84.24-.73.36-1.54.36-2.46Z"/>
    <path class="cls-2" d="m109.71,152.38c-.08.17-.18.29-.29.36-.11.07-.24.1-.4.1s-.33-.06-.52-.18c-.19-.12-.42-.25-.68-.4-.26-.15-.57-.28-.91-.4s-.76-.18-1.24-.18c-.43,0-.8.05-1.12.16-.32.1-.59.25-.81.43s-.38.4-.49.66c-.11.26-.16.54-.16.85,0,.39.11.72.33.98.22.26.51.48.87.67.36.18.77.35,1.23.49.46.15.93.3,1.41.47.48.17.95.36,1.41.58.46.22.87.49,1.23.83.36.33.65.74.87,1.23.22.48.33,1.07.33,1.76,0,.75-.13,1.46-.39,2.11-.26.66-.63,1.23-1.13,1.71s-1.1.87-1.81,1.15-1.53.42-2.45.42c-.53,0-1.05-.05-1.57-.16-.51-.1-1.01-.25-1.48-.44-.47-.19-.91-.42-1.32-.69-.41-.27-.78-.57-1.1-.9l.9-1.48c.08-.11.19-.2.31-.27.12-.07.25-.11.4-.11.19,0,.4.08.62.24.22.16.49.33.79.52.3.19.66.37,1.07.52.41.16.9.24,1.48.24.88,0,1.57-.21,2.05-.63.48-.42.72-1.02.72-1.8,0-.44-.11-.79-.33-1.07s-.51-.51-.87-.7-.77-.35-1.23-.48c-.46-.13-.93-.27-1.4-.43-.48-.15-.94-.34-1.4-.55-.46-.21-.87-.49-1.23-.84-.36-.35-.65-.78-.87-1.3-.22-.52-.33-1.16-.33-1.92,0-.61.12-1.2.36-1.77.24-.58.59-1.09,1.06-1.53.46-.44,1.03-.8,1.71-1.07.67-.27,1.45-.4,2.31-.4.98,0,1.89.15,2.72.46s1.53.74,2.12,1.29l-.76,1.46Z"/>
    <path class="cls-2" d="m112.38,164.24c0-.21.04-.42.12-.6s.19-.35.34-.49c.15-.14.32-.25.53-.33s.43-.12.68-.12c.29,0,.54.05.76.16s.4.25.54.43.25.39.32.62c.07.23.1.48.1.74,0,.37-.06.76-.17,1.16-.11.41-.27.81-.49,1.22-.21.41-.48.8-.79,1.19-.31.38-.67.74-1.08,1.06l-.49-.45c-.14-.11-.21-.26-.21-.43,0-.06.02-.13.06-.21.04-.08.09-.15.16-.21.08-.09.19-.21.31-.34.12-.13.25-.29.37-.46.12-.17.24-.36.34-.56.1-.2.18-.42.22-.65-.24,0-.46-.04-.66-.13s-.37-.21-.51-.36-.25-.33-.33-.54c-.08-.21-.12-.43-.12-.68Z"/>
    <path class="cls-2" d="m125.96,160.13v5.86h-3.1v-16.64h5.42c1.11,0,2.07.13,2.89.39.81.26,1.48.63,2.01,1.09.53.47.92,1.03,1.17,1.68.25.65.38,1.37.38,2.14s-.13,1.54-.4,2.22c-.27.67-.67,1.25-1.21,1.73-.54.48-1.21.86-2.01,1.13-.81.27-1.75.4-2.83.4h-2.32Zm0-2.42h2.32c.57,0,1.06-.07,1.48-.21.42-.14.77-.35,1.05-.61.28-.26.48-.59.62-.97.14-.38.21-.8.21-1.27s-.07-.85-.21-1.21c-.14-.36-.35-.67-.62-.92s-.63-.45-1.05-.58c-.42-.13-.92-.2-1.48-.2h-2.32v5.97Z"/>
    <path class="cls-2" d="m140.34,159.49v6.5h-3.1v-16.64h5.07c1.14,0,2.11.12,2.92.35.81.23,1.47.56,1.99.98.52.42.9.93,1.14,1.51.24.59.36,1.23.36,1.94,0,.56-.08,1.09-.25,1.59s-.4.95-.71,1.36c-.31.41-.69.76-1.15,1.07s-.98.55-1.56.74c.39.22.73.54,1.01.96l4.17,6.14h-2.78c-.27,0-.5-.05-.68-.16-.19-.11-.35-.26-.48-.46l-3.5-5.33c-.13-.2-.27-.34-.43-.43-.16-.08-.39-.13-.7-.13h-1.32Zm0-2.22h1.93c.58,0,1.09-.07,1.52-.22.43-.15.79-.35,1.07-.6.28-.26.49-.56.63-.91.14-.35.21-.74.21-1.16,0-.84-.28-1.49-.83-1.94-.56-.45-1.41-.68-2.55-.68h-1.98v5.52Z"/>
    <path class="cls-2" d="m167.62,157.67c0,1.22-.2,2.35-.61,3.39-.41,1.04-.98,1.94-1.71,2.7s-1.62,1.35-2.66,1.78c-1.04.43-2.18.64-3.44.64s-2.41-.21-3.45-.64c-1.04-.43-1.93-1.02-2.67-1.78s-1.31-1.66-1.72-2.7c-.41-1.04-.61-2.17-.61-3.39s.2-2.35.61-3.39c.41-1.04.98-1.94,1.72-2.7.74-.76,1.63-1.35,2.67-1.78s2.19-.64,3.45-.64,2.4.21,3.44.64,1.92,1.02,2.66,1.78c.74.76,1.31,1.65,1.71,2.69.41,1.04.61,2.17.61,3.39Zm-3.18,0c0-.91-.12-1.73-.36-2.46-.24-.73-.59-1.34-1.04-1.85-.45-.51-1-.89-1.65-1.16-.65-.27-1.38-.4-2.19-.4s-1.55.13-2.2.4c-.65.27-1.21.66-1.66,1.16s-.81,1.12-1.05,1.85c-.25.72-.37,1.54-.37,2.46s.12,1.73.37,2.46c.25.72.6,1.34,1.05,1.84s1.01.89,1.66,1.16c.65.27,1.38.4,2.2.4s1.54-.13,2.19-.4c.65-.27,1.2-.65,1.65-1.16.45-.5.8-1.12,1.04-1.84.24-.73.36-1.54.36-2.46Z"/>
    <path class="cls-2" d="m184.84,157.67c0,1.22-.2,2.34-.61,3.36-.41,1.02-.98,1.9-1.71,2.64-.74.74-1.62,1.31-2.66,1.71-1.04.41-2.18.61-3.44.61h-6.35v-16.64h6.35c1.26,0,2.4.21,3.44.62,1.04.41,1.92.98,2.66,1.71.74.73,1.31,1.61,1.71,2.63.41,1.02.61,2.14.61,3.36Zm-3.16,0c0-.91-.12-1.73-.37-2.46-.25-.73-.59-1.34-1.05-1.84-.45-.5-1-.89-1.65-1.16s-1.38-.4-2.19-.4h-3.23v11.71h3.23c.81,0,1.54-.13,2.19-.4.65-.27,1.2-.65,1.65-1.16.45-.5.8-1.12,1.05-1.84.25-.73.37-1.54.37-2.46Z"/>
    <path class="cls-2" d="m193.96,163.49c.6,0,1.13-.1,1.61-.3s.87-.48,1.2-.84c.33-.36.58-.8.75-1.31.17-.51.26-1.09.26-1.73v-9.96h3.1v9.96c0,.99-.16,1.9-.48,2.74-.32.84-.78,1.56-1.37,2.17-.6.61-1.32,1.09-2.17,1.43-.85.34-1.81.51-2.88.51s-2.03-.17-2.88-.51c-.85-.34-1.57-.82-2.17-1.43-.59-.61-1.05-1.33-1.37-2.17-.32-.84-.48-1.75-.48-2.74v-9.96h3.1v9.95c0,.64.09,1.21.26,1.73.17.51.42.95.74,1.32.32.36.72.65,1.19.85.47.2,1.01.3,1.61.3Z"/>
    <path class="cls-2" d="m215.46,162.06c.17,0,.31.07.44.2l1.22,1.32c-.67.84-1.51,1.48-2.49,1.92-.99.45-2.17.67-3.55.67-1.24,0-2.35-.21-3.33-.63-.99-.42-1.83-1.01-2.53-1.76-.7-.75-1.23-1.65-1.61-2.69-.37-1.04-.56-2.18-.56-3.42s.21-2.4.62-3.43c.41-1.04,1-1.93,1.75-2.69.75-.75,1.65-1.34,2.7-1.75,1.05-.42,2.2-.63,3.47-.63s2.31.2,3.24.59c.92.4,1.72.92,2.38,1.57l-1.04,1.44c-.06.09-.14.17-.24.24-.1.07-.23.1-.4.1s-.36-.07-.54-.21c-.18-.14-.42-.29-.7-.45-.28-.16-.64-.31-1.08-.45-.43-.14-.98-.21-1.65-.21-.78,0-1.5.14-2.16.41-.66.27-1.22.66-1.69,1.17-.47.51-.84,1.12-1.1,1.85s-.4,1.54-.4,2.45.13,1.77.4,2.5c.26.73.62,1.34,1.08,1.84s.99.88,1.6,1.14c.61.26,1.27.4,1.98.4.42,0,.8-.02,1.15-.07.34-.05.66-.12.94-.22.29-.1.56-.23.82-.39.26-.16.51-.35.77-.58.08-.07.16-.12.24-.17.08-.04.18-.06.28-.06Z"/>
    <path class="cls-2" d="m222.94,165.99h-3.11v-16.64h3.11v16.64Z"/>
    <path class="cls-2" d="m235.39,159.85c.11.26.22.53.33.8.11-.28.22-.55.33-.82.11-.27.24-.53.37-.77l4.93-9.22c.06-.12.12-.21.19-.28s.14-.12.22-.15c.08-.03.17-.05.27-.06.1,0,.22-.01.36-.01h2.34v16.64h-2.73v-10.75c0-.2,0-.42.02-.66.01-.24.03-.48.05-.72l-5.03,9.44c-.12.21-.26.38-.45.5s-.4.18-.64.18h-.43c-.25,0-.46-.06-.64-.18-.18-.12-.33-.29-.45-.5l-5.1-9.47c.03.25.05.5.06.74.01.24.02.47.02.67v10.75h-2.73v-16.64h2.34c.14,0,.26,0,.36.01.1,0,.19.03.27.06.08.03.16.08.22.15.07.07.13.16.2.28l4.97,9.24c.13.25.25.5.36.77Z"/>
    <path class="cls-2" d="m264.04,157.67c0,1.22-.2,2.35-.61,3.39-.41,1.04-.98,1.94-1.72,2.7-.74.76-1.62,1.35-2.66,1.78-1.04.43-2.18.64-3.44.64s-2.41-.21-3.45-.64c-1.04-.43-1.93-1.02-2.67-1.78s-1.31-1.66-1.72-2.7c-.41-1.04-.61-2.17-.61-3.39s.2-2.35.61-3.39c.41-1.04.98-1.94,1.72-2.7.74-.76,1.63-1.35,2.67-1.78,1.04-.43,2.19-.64,3.45-.64s2.41.21,3.44.64,1.92,1.02,2.66,1.78c.74.76,1.31,1.65,1.72,2.69.41,1.04.61,2.17.61,3.39Zm-3.18,0c0-.91-.12-1.73-.36-2.46-.24-.73-.59-1.34-1.04-1.85-.45-.51-1-.89-1.65-1.16-.65-.27-1.38-.4-2.19-.4s-1.55.13-2.2.4c-.65.27-1.21.66-1.66,1.16-.46.51-.81,1.12-1.05,1.85-.25.72-.37,1.54-.37,2.46s.12,1.73.37,2.46c.25.72.6,1.34,1.05,1.84.46.5,1.01.89,1.66,1.16.65.27,1.38.4,2.2.4s1.54-.13,2.19-.4c.65-.27,1.2-.65,1.65-1.16.45-.5.8-1.12,1.04-1.84.24-.73.36-1.54.36-2.46Z"/>
    <path class="cls-2" d="m275.4,152.38c-.08.17-.18.29-.29.36-.11.07-.24.1-.4.1s-.33-.06-.52-.18-.42-.25-.68-.4c-.26-.15-.57-.28-.91-.4s-.76-.18-1.24-.18c-.43,0-.8.05-1.12.16-.32.1-.59.25-.81.43s-.38.4-.49.66c-.11.26-.16.54-.16.85,0,.39.11.72.33.98.22.26.51.48.87.67.36.18.77.35,1.23.49.46.15.93.3,1.41.47.48.17.95.36,1.41.58s.87.49,1.23.83c.36.33.65.74.87,1.23.22.48.33,1.07.33,1.76,0,.75-.13,1.46-.39,2.11-.26.66-.63,1.23-1.13,1.71s-1.1.87-1.81,1.15-1.53.42-2.45.42c-.53,0-1.05-.05-1.56-.16-.51-.1-1.01-.25-1.48-.44-.47-.19-.91-.42-1.32-.69-.41-.27-.78-.57-1.1-.9l.9-1.48c.08-.11.19-.2.3-.27.12-.07.25-.11.4-.11.19,0,.4.08.62.24.22.16.49.33.79.52.3.19.66.37,1.07.52s.9.24,1.48.24c.88,0,1.56-.21,2.05-.63.48-.42.72-1.02.72-1.8,0-.44-.11-.79-.33-1.07s-.51-.51-.87-.7c-.36-.19-.77-.35-1.23-.48s-.93-.27-1.4-.43c-.48-.15-.94-.34-1.4-.55s-.87-.49-1.23-.84c-.36-.35-.65-.78-.87-1.3-.22-.52-.33-1.16-.33-1.92,0-.61.12-1.2.36-1.77.24-.58.59-1.09,1.06-1.53.46-.44,1.03-.8,1.71-1.07.68-.27,1.45-.4,2.31-.4.98,0,1.89.15,2.72.46s1.53.74,2.12,1.29l-.76,1.46Z"/>
    <path class="cls-2" d="m290.67,159.52v6.47h-3.1v-6.47l-6.06-10.17h2.73c.27,0,.48.07.64.2s.29.3.4.49l3.05,5.56c.18.33.33.64.46.94.13.3.25.59.36.87.1-.29.21-.58.34-.88.13-.3.28-.6.45-.93l3.03-5.56c.08-.17.21-.33.38-.47.17-.15.38-.22.64-.22h2.74l-6.05,10.17Z"/>
    <path class="cls-2" d="m305.97,159.49v6.5h-3.1v-16.64h5.08c1.14,0,2.11.12,2.92.35.81.23,1.47.56,1.99.98.52.42.9.93,1.14,1.51.24.59.36,1.23.36,1.94,0,.56-.08,1.09-.25,1.59s-.4.95-.71,1.36c-.31.41-.69.76-1.15,1.07s-.98.55-1.56.74c.39.22.73.54,1.01.96l4.17,6.14h-2.78c-.27,0-.5-.05-.68-.16-.19-.11-.35-.26-.48-.46l-3.5-5.33c-.13-.2-.27-.34-.43-.43s-.39-.13-.7-.13h-1.32Zm0-2.22h1.93c.58,0,1.09-.07,1.52-.22.43-.15.79-.35,1.07-.6.28-.26.49-.56.63-.91.14-.35.21-.74.21-1.16,0-.84-.28-1.49-.83-1.94-.56-.45-1.41-.68-2.55-.68h-1.98v5.52Z"/>
    <path class="cls-2" d="m328.34,149.35v2.46h-7.38v4.61h5.81v2.38h-5.81v4.71h7.38v2.47h-10.49v-16.64h10.49Z"/>
    <path class="cls-2" d="m345.65,165.99h-2.39c-.27,0-.49-.07-.66-.2-.17-.13-.3-.3-.37-.5l-1.24-3.39h-6.89l-1.24,3.39c-.06.18-.18.34-.36.48s-.4.22-.66.22h-2.41l6.54-16.64h3.16l6.54,16.64Zm-10.77-6.28h5.3l-2.03-5.53c-.09-.25-.19-.54-.3-.87-.11-.33-.22-.7-.33-1.09-.11.39-.21.76-.32,1.09-.1.34-.21.63-.3.89l-2.03,5.51Z"/>
    <path class="cls-2" d="m350.46,163.43h6.66v2.55h-9.76v-16.64h3.1v14.08Z"/>
    <path class="cls-2" d="m362.75,165.99h-3.11v-16.64h3.11v16.64Z"/>
    <path class="cls-2" d="m378.37,149.35v1.14c0,.35-.1.68-.3.97l-8.54,12.06h8.63v2.47h-12.65v-1.22c0-.15.03-.3.08-.44.05-.14.12-.27.21-.4l8.56-12.12h-8.31v-2.46h12.31Z"/>
    <path class="cls-2" d="m395.31,165.99h-2.39c-.27,0-.49-.07-.66-.2-.17-.13-.3-.3-.37-.5l-1.24-3.39h-6.89l-1.24,3.39c-.06.18-.18.34-.36.48s-.4.22-.66.22h-2.41l6.54-16.64h3.16l6.54,16.64Zm-10.77-6.28h5.3l-2.03-5.53c-.09-.25-.19-.54-.3-.87-.11-.33-.22-.7-.33-1.09-.11.39-.21.76-.32,1.09-.1.34-.21.63-.3.89l-2.03,5.51Z"/>
    <path class="cls-2" d="m405.74,159.85c.11.26.22.53.33.8.11-.28.22-.55.33-.82.11-.27.24-.53.37-.77l4.93-9.22c.06-.12.12-.21.19-.28s.14-.12.22-.15c.08-.03.17-.05.27-.06.1,0,.22-.01.36-.01h2.34v16.64h-2.73v-10.75c0-.2,0-.42.02-.66.01-.24.03-.48.05-.72l-5.03,9.44c-.12.21-.26.38-.45.5s-.4.18-.64.18h-.43c-.25,0-.46-.06-.64-.18-.18-.12-.33-.29-.45-.5l-5.1-9.47c.03.25.05.5.06.74.01.24.02.47.02.67v10.75h-2.73v-16.64h2.34c.14,0,.26,0,.36.01.1,0,.19.03.27.06.08.03.16.08.22.15.07.07.13.16.2.28l4.97,9.24c.13.25.25.5.36.77Z"/>
    <path class="cls-2" d="m434.39,157.67c0,1.22-.2,2.35-.61,3.39-.41,1.04-.98,1.94-1.72,2.7-.74.76-1.62,1.35-2.66,1.78-1.04.43-2.18.64-3.44.64s-2.41-.21-3.45-.64c-1.04-.43-1.93-1.02-2.67-1.78s-1.31-1.66-1.72-2.7c-.41-1.04-.61-2.17-.61-3.39s.2-2.35.61-3.39c.41-1.04.98-1.94,1.72-2.7.74-.76,1.63-1.35,2.67-1.78,1.04-.43,2.19-.64,3.45-.64s2.41.21,3.44.64,1.92,1.02,2.66,1.78c.74.76,1.31,1.65,1.72,2.69.41,1.04.61,2.17.61,3.39Zm-3.18,0c0-.91-.12-1.73-.36-2.46-.24-.73-.59-1.34-1.04-1.85-.45-.51-1-.89-1.65-1.16-.65-.27-1.38-.4-2.19-.4s-1.55.13-2.2.4c-.65.27-1.21.66-1.66,1.16-.46.51-.81,1.12-1.05,1.85-.25.72-.37,1.54-.37,2.46s.12,1.73.37,2.46c.25.72.6,1.34,1.05,1.84.46.5,1.01.89,1.66,1.16.65.27,1.38.4,2.2.4s1.54-.13,2.19-.4c.65-.27,1.2-.65,1.65-1.16.45-.5.8-1.12,1.04-1.84.24-.73.36-1.54.36-2.46Z"/>
    <path class="cls-2" d="m445.75,152.38c-.08.17-.18.29-.29.36-.11.07-.24.1-.4.1s-.33-.06-.52-.18-.42-.25-.68-.4c-.26-.15-.57-.28-.91-.4s-.76-.18-1.24-.18c-.43,0-.8.05-1.12.16-.32.1-.59.25-.81.43s-.38.4-.49.66c-.11.26-.16.54-.16.85,0,.39.11.72.33.98.22.26.51.48.87.67.36.18.77.35,1.23.49.46.15.93.3,1.41.47.48.17.95.36,1.41.58s.87.49,1.23.83c.36.33.65.74.87,1.23.22.48.33,1.07.33,1.76,0,.75-.13,1.46-.39,2.11-.26.66-.63,1.23-1.13,1.71s-1.1.87-1.81,1.15-1.53.42-2.45.42c-.53,0-1.05-.05-1.56-.16-.51-.1-1.01-.25-1.48-.44-.47-.19-.91-.42-1.32-.69-.41-.27-.78-.57-1.1-.9l.9-1.48c.08-.11.19-.2.3-.27.12-.07.25-.11.4-.11.19,0,.4.08.62.24.22.16.49.33.79.52.3.19.66.37,1.07.52s.9.24,1.48.24c.88,0,1.56-.21,2.05-.63.48-.42.72-1.02.72-1.8,0-.44-.11-.79-.33-1.07s-.51-.51-.87-.7c-.36-.19-.77-.35-1.23-.48s-.93-.27-1.4-.43c-.48-.15-.94-.34-1.4-.55s-.87-.49-1.23-.84c-.36-.35-.65-.78-.87-1.3-.22-.52-.33-1.16-.33-1.92,0-.61.12-1.2.36-1.77.24-.58.59-1.09,1.06-1.53.46-.44,1.03-.8,1.71-1.07.68-.27,1.45-.4,2.31-.4.98,0,1.89.15,2.72.46s1.53.74,2.12,1.29l-.76,1.46Z"/>
  </g>
</svg>