<?xml version="1.0" encoding="UTF-8"?>
<svg id="Capa_1" data-name="Capa 1" xmlns="http://www.w3.org/2000/svg" viewBox="0 0 533.6 157.09">
  <defs>
    <style>
      .cls-1 {
        fill: #fff;
      }
    </style>
  </defs>
  <g>
    <path class="cls-1" d="m27.78,10.4h12.75c8.06,0,11.22,4.47,9.78,12.67l-4.57,25.93c-1.45,8.2-6.19,12.67-14.25,12.67h-12.75L27.78,10.4Zm6.77,7.33l-6.46,36.62h4.54c2.56,0,4.33-1.32,4.98-4.98l4.7-26.66c.65-3.66-.66-4.98-3.22-4.98h-4.54Z"/>
    <path class="cls-1" d="m57.66,10.4h8.06l-9.04,51.27h-8.06s9.04-51.27,9.04-51.27Z"/>
    <path class="cls-1" d="m82.52,9.82c7.84,0,11.04,4.69,9.59,12.89l-.28,1.61h-7.62l.37-2.12c.65-3.66-.57-5.05-3.14-5.05s-4.27,1.39-4.92,5.05c-1.86,10.55,13.54,12.53,10.96,27.18-1.45,8.2-6.37,12.89-14.29,12.89-7.91,0-11.19-4.69-9.74-12.89l.56-3.15h7.62l-.65,3.66c-.65,3.66.73,4.98,3.3,4.98,2.56,0,4.41-1.32,5.05-4.98,1.86-10.55-13.54-12.53-10.96-27.18,1.45-8.2,6.3-12.89,14.14-12.89Z"/>
    <path class="cls-1" d="m103.22,32.01h11.06s-1.29,7.32-1.29,7.32h-11.06l-2.65,15.02h13.92s-1.29,7.32-1.29,7.32h-21.97l9.04-51.27h21.97l-1.29,7.33h-13.92l-2.52,14.28Z"/>
    <path class="cls-1" d="m130.61,24.54l-6.55,37.14h-7.25s9.04-51.27,9.04-51.27h10.11l2.86,30.69,5.41-30.69h7.18l-9.04,51.27h-8.28s-3.49-37.14-3.49-37.14ZM146.51,0l3.4,2.71c-2.05,3.74-4.54,4.98-7.1,4.98-3.08,0-4.07-1.83-6.27-1.83-1.32,0-2.32.29-3.52,2.12l-3.4-2.71c2.05-3.74,4.54-4.98,7.1-4.98,3.08,0,4.07,1.83,6.27,1.83,1.32,0,2.32-.29,3.52-2.12Z"/>
    <path class="cls-1" d="m174.23,61.68h-8.13s.25-9.3.25-9.3h-9.89l-3.03,9.3h-7.4s17.25-51.27,17.25-51.27h11.79l-.84,51.27Zm-15.52-16.26h7.76s.69-25.93.69-25.93l-8.45,25.93Z"/>
    <path class="cls-1" d="m187,10.4h12.75c8.06,0,11.23,4.47,9.78,12.67l-4.57,25.93c-1.45,8.2-6.19,12.67-14.25,12.67h-12.75l9.04-51.27Zm6.77,7.33l-6.46,36.62h4.54c2.56,0,4.34-1.32,4.98-4.98l4.7-26.66c.65-3.66-.66-4.98-3.22-4.98h-4.54Z"/>
    <path class="cls-1" d="m214.05,22.71c1.45-8.2,6.59-12.89,14.51-12.89,7.91,0,11.41,4.69,9.96,12.89l-4.7,26.66c-1.45,8.2-6.6,12.89-14.51,12.89-7.91,0-11.41-4.69-9.96-12.89l4.7-26.66Zm3.27,27.18c-.65,3.66.72,5.05,3.28,5.05,2.56,0,4.42-1.39,5.07-5.05l4.88-27.69c.65-3.66-.72-5.05-3.28-5.05s-4.42,1.39-5.07,5.05l-4.88,27.69Z"/>
    <path class="cls-1" d="m253.69,61.68c-.21-1.32-.36-2.12.38-6.3l1.42-8.06c.84-4.76-.46-6.52-4.12-6.52h-2.78l-3.68,20.88h-8.06l9.04-51.27h12.16c8.35,0,11.25,3.88,9.86,11.79l-.71,4.03c-.93,5.27-3.22,8.72-7.11,10.4,3.73,1.68,4.37,5.57,3.42,10.91l-1.39,7.91c-.44,2.49-.69,4.32-.22,6.23h-8.2Zm-1.04-43.95l-2.78,15.75h3.15c3,0,5.07-1.32,5.79-5.42l.89-5.05c.65-3.66-.32-5.27-3.17-5.27h-3.88Z"/>
    <path class="cls-1" d="m279.57,32.01h11.06l-1.29,7.32h-11.06l-2.65,15.02h13.92l-1.29,7.32h-21.97s9.04-51.27,9.04-51.27h21.97l-1.29,7.33h-13.92l-2.52,14.28Z"/>
    <path class="cls-1" d="m313.22,9.82c7.84,0,11.04,4.69,9.59,12.89l-.28,1.61h-7.62s.37-2.12.37-2.12c.65-3.66-.57-5.05-3.14-5.05s-4.27,1.39-4.92,5.05c-1.86,10.55,13.54,12.53,10.96,27.18-1.45,8.2-6.38,12.89-14.29,12.89s-11.19-4.69-9.74-12.89l.56-3.15h7.62l-.65,3.66c-.65,3.66.73,4.98,3.3,4.98,2.56,0,4.41-1.32,5.05-4.98,1.86-10.55-13.54-12.53-10.96-27.18,1.45-8.2,6.3-12.89,14.14-12.89Z"/>
  </g>
  <g>
    <path class="cls-1" d="m329.87,29.75h7.77c4.91,0,6.84,2.83,5.96,8.04l-2.79,16.44c-.88,5.2-3.77,8.04-8.68,8.04h-7.77l5.51-32.52Zm4.12,4.64l-3.94,23.23h2.77c1.56,0,2.64-.84,3.03-3.16l2.87-16.91c.39-2.32-.4-3.16-1.96-3.16h-2.77Z"/>
    <path class="cls-1" d="m350.67,43.45h6.74l-.79,4.65h-6.74l-1.61,9.52h8.48l-.79,4.65h-13.39l5.51-32.52h13.39l-.79,4.64h-8.48s-1.53,9.06-1.53,9.06Z"/>
  </g>
  <g>
    <path class="cls-1" d="m22.4,106.1h18.65l-2.18,12.35h-18.65l-4.46,25.31h23.46l-2.18,12.35H0s15.24-86.43,15.24-86.43h37.04s-2.18,12.35-2.18,12.35h-23.46l-4.25,24.08Z"/>
    <path class="cls-1" d="m106,69.67l-21.6,41.98,7.35,44.45h-14.32l-5.08-34.2-17.27,34.2h-12.72l23.03-44.45-6.8-41.98h14.08s4.63,31.86,4.63,31.86l16.11-31.86h12.59Z"/>
    <path class="cls-1" d="m150.26,91.03l-1.98,11.24c-2.44,13.83-10.43,21.36-24.02,21.36h-6.42l-5.73,32.47h-13.58l15.24-86.43h20c13.58,0,18.92,7.53,16.48,21.36Zm-25.08-9.01l-5.16,29.26h6.42c4.32,0,7.02-1.98,8.1-8.15l2.29-12.97c1.09-6.17-.91-8.15-5.23-8.15h-6.42Z"/>
    <path class="cls-1" d="m167.49,106.1h18.65l-2.18,12.35h-18.65l-4.46,25.31h23.46l-2.18,12.35h-37.04s15.24-86.43,15.24-86.43h37.04l-2.18,12.35h-23.46l-4.25,24.08Z"/>
    <path class="cls-1" d="m218.93,156.1c-.35-2.22-.6-3.58.64-10.62l2.4-13.58c1.42-8.03-.78-10.99-6.95-10.99h-4.69l-6.21,35.19h-13.58s15.24-86.43,15.24-86.43h20.5c14.08,0,18.97,6.54,16.62,19.88l-1.2,6.79c-1.57,8.89-5.43,14.69-11.98,17.53,6.29,2.84,7.36,9.38,5.77,18.4l-2.35,13.34c-.74,4.2-1.16,7.28-.37,10.5h-13.83Zm-1.75-74.09l-4.68,26.55h5.31c5.06,0,8.54-2.22,9.76-9.14l1.5-8.52c1.09-6.17-.53-8.89-5.35-8.89h-6.54Z"/>
    <path class="cls-1" d="m255.41,69.67h13.58s-15.24,86.43-15.24,86.43h-13.58l15.24-86.43Z"/>
    <path class="cls-1" d="m286.03,106.1h18.65l-2.18,12.35h-18.65l-4.46,25.31h23.46l-2.18,12.35h-37.04s15.24-86.43,15.24-86.43h37.04s-2.18,12.35-2.18,12.35h-23.46l-4.25,24.08Z"/>
    <path class="cls-1" d="m332.21,93.5l-11.04,62.6h-12.22l15.24-86.43h17.04s4.83,51.74,4.83,51.74l9.12-51.74h12.1s-15.24,86.43-15.24,86.43h-13.95l-5.88-62.6Z"/>
    <path class="cls-1" d="m406.86,123.88l-2.02,11.48c-2.44,13.83-10.75,21.73-24.08,21.73-13.34,0-18.86-7.9-16.42-21.73l7.93-44.95c2.44-13.83,10.75-21.73,24.08-21.73,13.34,0,18.86,7.9,16.42,21.73l-1.48,8.4h-12.84l1.63-9.26c1.09-6.17-1.21-8.52-5.54-8.52s-7.45,2.35-8.54,8.52l-8.23,46.68c-1.09,6.17,1.24,8.4,5.56,8.4s7.43-2.22,8.52-8.4l2.18-12.35h12.84Z"/>
    <path class="cls-1" d="m424.69,69.67h13.58s-15.24,86.43-15.24,86.43h-13.58l15.24-86.43Z"/>
    <path class="cls-1" d="m476.87,156.1h-13.71s.42-15.68.42-15.68h-16.67s-5.11,15.68-5.11,15.68h-12.47l29.07-86.43h19.88s-1.41,86.43-1.41,86.43Zm-26.16-27.41h13.09l1.16-43.71-14.25,43.71Z"/>
    <path class="cls-1" d="m516.86,68.68c13.21,0,18.61,7.9,16.17,21.73l-.48,2.72h-12.84l.63-3.58c1.09-6.17-.97-8.52-5.29-8.52-4.32,0-7.2,2.35-8.29,8.52-3.14,17.78,22.82,21.12,18.47,45.81-2.44,13.83-10.75,21.73-24.08,21.73-13.34,0-18.86-7.9-16.42-21.73l.94-5.31h12.84l-1.09,6.17c-1.09,6.17,1.24,8.4,5.56,8.4s7.43-2.22,8.52-8.4c3.14-17.78-22.82-21.12-18.47-45.81,2.44-13.83,10.62-21.73,23.84-21.73Z"/>
  </g>
</svg>