<?xml version="1.0" encoding="UTF-8"?>
<svg id="Capa_1" xmlns="http://www.w3.org/2000/svg" viewBox="0 0 66.73 74.55">
  <defs>
    <style>
      .cls-1 {
        fill: #fff;
      }
    </style>
  </defs>
  <path class="cls-1" d="M35.6,29.84c-.17-.01-.28-.02-.38-.03l.12-.28c.11.05.27.08.26.3Z"/>
  <path class="cls-1" d="M52.08,45.96l-.07-.12s.08.05.12.08c-.03.02-.04.03-.05.04Z"/>
  <path class="cls-1" d="M36.28,27.36l.11-.26s.01.09.02.13c-.04.04-.09.08-.13.12Z"/>
  <polygon class="cls-1" points="62.82 22.45 62.82 22.46 62.82 22.46 62.82 22.46 62.81 22.46 62.82 22.45"/>
  <path class="cls-1" d="M43.92,10.28s-.02.02-.03.04c0,0-.01,0-.02-.01.02,0,.03-.02.05-.02Z"/>
  <path class="cls-1" d="M39.97,18.84s-.05.1-.09.16c0,0,0,0,0,0l.09-.2s0,.03,0,.04Z"/>
  <path class="cls-1" d="M60.8,27.21l.12-.27s.08.04.12.06c-.08.07-.16.14-.24.21Z"/>
  <path class="cls-1" d="M15.8,47.66l-.1.21s-.07.03-.12.04c0-.12-.05-.06.21-.25Z"/>
  <path class="cls-1" d="M60.87,14.02l-.06-.11s0-.02,0-.03c.02.03.04.05.06.07,0,.02,0,.05,0,.07Z"/>
  <path class="cls-1" d="M66.73,18.71l-.1-.16-1.25-2.11-2.32-3.91c-.08.09-.13.15-.18.2-.12-.03-.08.04-.17-.33.1,0,.19.02.29.03l-1.13-1.91c-.08.07-.15.15-.24.19-.43-.17-.37-.13-.39-.23.4-.13.43-.09.53-.13l-4.7-7.91-.17-.28-1.28-2.16-1.67,5.1c.13-.03.28.01.38.18.22.36.12.33.37.21-.06.28-.11.5-.38.56-.01.21-.02.4-.04.63-.17-.04-.31-.08-.46-.12.05-.09.07-.14.11-.2-.07-.08-.31-.13-.14-.26.17-.13.09-.17,0-.5l-1.04,3.17c.09,0,.15-.01.29-.02-.1.15-.12.3-.32.29,0-.03,0-.06,0-.09,0,.03-.02.07-.03.11,0-.02-.01-.03-.02-.04l-3.07,9.39c.12-.04.23-.04.33.08.1.12.1.26,0,.37-.13-.1-.24-.2-.37-.3l-.26.81-.2-.43c-.09-.04-.13-.12-.11-.23l-3.64-7.88c-.1-.21-.26-.38-.45-.48.02.11.04.22.07.33-.36.21-.51.19-.74-.09-.12.12-.24.25-.38.38-.07-.06-.14-.12-.21-.18.33-.3.17-.08-.16-.09-.03.05-.06.1-.08.15l-.17.4s.03.08.05.12c-.03,0-.06-.02-.08-.03l-.36.84c.1.02.2,0,.28-.12,0,0,0,0,0,0,0,0,0,0,0,0,0-.02-.02-.06-.06-.2.32-.06.29-.11.06.2,0,0,0,0,0,0h0s0,0,0,0c.14.1.39-.02.45.23,0,0,0,0,0,0,0,0,0,0,.01,0,.03-.04.09-.22.25-.21-.03.16-.09.25-.25.21,0,0-.01.01-.01,0h0s0,0,0,0c-.2.12-.4.19-.58.22.03.05.05.11.07.17-.1-.01-.18,0-.22-.03-.06-.06-.12-.07-.18-.07l-.1.23c.16,0,.3.02.46.02-.22.26-.35.29-.5.07l-1.01,2.34c.18.19.13.16.3.02,0,.07,0,.14,0,.2.01,0,.03,0,.06-.02.08.23.08.18-.03.22-.02-.06-.03-.09-.04-.12,0,.08-.03.15-.08.21,0,.07.02.1.01.13-.03.08-.08.17-.11.25.02.08.03.17.05.26,0,.01.02.02.03.04.02.02-.05.19-.11.23-.09.06-.18,0-.21-.11,0-.03-.01-.05-.02-.07-.04,0-.09,0-.13,0,.02-.09.03-.15.05-.21-.04-.03-.14-.04-.19-.08l-.29.67s.09.05.13.1c.26-.07.3.03.27.2,0,0-.03.01-.06.03-.05-.06-.11-.12-.2-.21.03.04.06.09.07.16,0,.04.31.18.24.55.19-.04.28.12.48.2-.2.12-.34.22-.51.32-.05-.12-.06-.15-.07-.15,0,0,0,0,0,0,0,0,0,0,0,0,0,0,0,0,0,0-.1-.04-.19-.09-.33-.15.06-.12.12-.22.18-.34-.08-.1-.15-.25-.27-.31-.03-.01-.06-.02-.1-.03l-.11.26s0,0,0,0c0,0,0,0,0,0l-.35.82c.1.02.21.01.31.02.04-.04.08-.08.15-.15.04.24.14.42.28.55.03-.01.06-.02.1-.03-.01.03-.02.06-.03.09.06.04.12.07.19.1.18.07.14.15.15.24-.05,0-.12.01-.14-.01-.09-.11-.22-.02-.35.05-.18-.07-.12-.22-.15-.39-.22.22-.13.19-.41.26,0,0,0,.01,0,.02,0,0-.01-.01-.02-.02-.02,0-.04,0-.06.01.03.2.18.34.33.47-.06.05-.1.09-.15.13.06.04.11.08.16.12-.3.19-.34.18-.78-.12.02-.2.16-.11.25-.09-.02-.11-.04-.2-.07-.31-.05.02-.1.05-.17.08,0-.01,0-.03-.01-.04l-1.58,3.68c.11.06.21.11.21.28-.11,0-.2,0-.32-.01l-.42.98s.03.04.05.07c-.02,0-.05,0-.07-.01l-1.06,2.47s.04,0,.07.02c0,0,0,.03.01.07-.04.02-.09.05-.15.08l-.04.09c.11.13.21.25.31.36-.53.35-.26.93-.48.42,0,0,0,0,0,0-.04-.03-.08-.07-.13-.11l-.68,1.57c.55-.02.13.02.22.24.06.13.05.37-.04.47-.1.12-.31.14-.48.21-.02-.02-.05-.04-.07-.06l-2,4.65-.19-.36s-.06.1-.1.17c-.07-.08-.11-.14-.17-.22.14-.05.18-.07.2-.07l-.46-.86s-.05.05-.08.08c-.02-.16-.04-.26-.04-.32l-4.8-8.97s0,0,0,0c0,0,0,0,0,0l-.72-1.35c-.16-.31-.47-.51-.8-.55,0,0,0,0,0,0-.07,0-.13,0-.2-.01-.26.01-.5.13-.69.31.01.01.02.02.03.04-.06.01-.1.04-.13.07,0,.01-.02.03-.03.04-.04.07-.04.17-.05.28-.03-.03-.05-.05-.06-.08l-1,2.17s0,0,0,0c0,0-.01.06-.02.06,0,0,0,0-.01,0l-.02.03s.05.08.14.22c-.09.07-.05.09-.2-.08l-.13.28s0,.05-.04.08l-.34.75c.35-.02.29-.03.66-.35-.09.39-.11.4-.53.54-.08.03-.16.03-.23.01l-.08.17s.01.02.02.04c-.03.02-.04.03-.06.03l-.1.22s.08-.03.13-.05c-.02.15-.04.26-.06.41.17.1.34.21.53.33-.45,1.05-.39,1-.57.38-.14.09-.24.16-.37.24-.03-.2-.04-.34-.05-.44l-1.69,3.69s.08.05.16.1c-.07.06-.11.1-.15.11-.02,0-.07-.04-.08-.07l-.64,1.38c.02.06.03.11-.02.17.05.01.08.08.12.19-.09-.05-.15-.08-.21-.12l-.73,1.58s.07,0,.1,0c.06,0,.29.11.18.36-.13-.02-.26-.04-.41-.07l-.27.58s.03.05.05.08c-.02,0-.05-.02-.07-.03l-.65,1.41c.08,0,.11,0,.12,0,0,0,0,0,0,0,0,0,0,0,0,0,.01-.01.05-.06.16-.21.05.18.01.28-.16.21,0,0,0,0,0,0,0,0,0,0,0,0-.03.1.06.26-.17.28,0-.04-.02-.08-.03-.12l-2.58,5.63c-.02.09-.06.19-.08.28-.02,0-.03,0-.05,0l-.48,1.04c.24,0,.45.16.71.17,0-.01,0-.02,0-.02.04-.01.09-.03.14-.04,0,0,0-.02,0-.02.02,0,.03,0,.04.01,0,0,0,0,.01,0,0,0,0,0,0,0,.02,0-.01-.04-.12-.21.27-.07.39.13.6.16-.14.15-.08.09-.23.24.09.25-.04.45-.26.44-.07-.05.16-.24-.09-.2.01-.1.02-.21.03-.31-.04,0-.07.01-.11.02,0,0,0,0,0,0-.09.11-.16.18-.22.25.11.12.19.21.3.34-.16.02-.3.04-.44.06-.01.08-.02.17-.04.27-.15-.03-.28-.06-.42-.09,0-.17.02-.31.03-.53.07.04.12.07.18.1,0-.03,0-.06,0-.09.03-.2-.04-.29-.21-.33l-.03.07s0,.05,0,.09c-.01,0-.02,0-.03-.01l-.19.41s.01.03.02.04c-.02,0-.03,0-.04,0l-2.12,4.61c.1-.1.2-.14.3-.05.09.08-.11.4-.3.06l-1.08,2.34s.03,0,.04-.01c.02.04.03.03-.04.07.06.2.07.15-.09.22,0-.03,0-.05-.01-.07l-1.22,2.67c0,.08.02.16.03.24.05.04.09.07.12.1-.12.05-.18.04-.19-.03.01.08-.08.18-.18.15l-.53,1.16c.05.12.07.07-.09.21,0,0,0,0,0,0l-.8,1.75-6.7-4.98c-.35-.26-.83-.28-1.2-.05-.37.23-.57.67-.49,1.1l.6,3.25c.21,0,.38-.1.48-.33.02-.04.11-.05.16-.06-.12.62-.04.5-.31.6q.07.23-.03.38c-.11-.09-.18-.14-.22-.18l.13.7c.07,0,.17-.02.33-.03-.13.17-.23.21-.3.21l.28,1.5s.02.03.03.04c0,0-.01,0-.02,0l.65,3.53c.02-.08.04-.17.06-.28q.18.13,0,.56h0s.21,1.14.21,1.14c.11-.07.14.06.2.16-.07.01-.12.03-.16.03l.18.98s.04.01.18.11c-.1,0-.13.02-.15.01l1.22,6.63c.02.13.07.24.13.35.08.14.2.26.33.35.03.02.07.04.11.05,0-.03,0-.06,0-.11.12.01.22.05.22.19.16.04.34.05.51,0l1.62-.38c0-.09,0-.16,0-.23.11.04.19.07.31.11-.09.04-.16.07-.24.1l7.67-1.81c-.03-.12-.06-.27-.1-.46.15,0,.23-.25.45-.12-.06.1-.11.19-.16.27.04.08.19.15.18.22l5.07-1.2s0-.04,0-.05c.04,0,.08.02.12.02l1.06-.25c.06-.01.12-.03.17-.06,0-.05.02-.11.02-.17.04.04.08.08.11.11.23-.13.4-.35.47-.61-.14.09-.27.17-.33.11-.07-.07.08-.34.35-.2,0,0,0,0,0,0,.08-.41-.07-.82-.41-1.07l-2.7-2.01s-.04.09-.06.15c.16.04.09.21.15.3.02.03-.05.11-.08.19-.08-.07-.12-.11-.18-.16-.07.38-.05.41-.24.1-.06.06-.15.15-.21.03-.03-.06.01-.16.02-.24.11,0,.18-.01.24-.01.04-.08.06-.17.12-.22.1-.1.12-.16.12-.22l-.31-.23s-.08.08-.14.13c0-.11-.01-.16-.02-.21-.27-.13-.31.22-.53.22.04-.15,0-.32.15-.39.17.03.21.06.26.04l-2.86-2.13.43-.71s-.06-.01-.09-.02c.12-.11.2-.2.27-.26l.37-.61c-.19.06-.15.06-.17,0,.04-.06.08-.12.13-.17.07-.07.17-.12.11-.25-.05-.12-.16-.05-.24-.07-.1-.03-.11-.5.09-.5.03.06.07.12.11.21.25-.34.14-.37.32-.12.09-.03.16-.05.23-.07l.18-.29c-.02-.05-.04-.1-.07-.16-.07.06-.12.09-.17.13,0-.25-.06-.5.25-.63.04.23.08.38.1.48l.36-.59c-.01-.1,0-.11-.1-.07,0,.04-.01.07-.05.14-.15-.06-.2-.16-.22-.28-.01.01-.02.03-.03.04.05.01.03.01.02.09-.04-.02-.06-.02-.07-.03-.01.02-.03.03-.04.05-.02-.2-.03-.25.09-.46,0-.03-.01-.06-.03-.09.06-.07.13-.14.17-.19.01,0,.02,0,.03.01.05-.06.1-.12.16-.17,0,0-.02.01-.03.02-.08-.16-.09-.12,0-.17.04.08.06.11.06.12.03-.02.06-.05.08-.07.03-.02.18.06.22.13.03.06,0,.16-.01.23.04.03.09.05.13.07l.73-1.2c-.16-.12-.25-.2-.22-.28-.09-.03-.14,0-.26.1,0,0,0,0,0,0,0,0,0,0,0,0,0,0,0,0,0,0,0,0,.05.05.22.22.18-.1.15-.11.16.03-.12-.02-.15-.02-.16-.03,0,0-.03.04-.26.37-.08-.11-.15-.2-.22-.29,0,0,0,0,0-.01-.03-.04-.06-.09-.08-.13.09.02.13.03.16.04.06-.07.12-.14.18-.21,0,0,0,0,0,0,0,0,0,0,0,0,0,0,0,0,0,0,0,0,0,0,0,0,0,0,0,0,.01,0,.02-.03-.21-.06-.22-1.06.22.15.41.28.61.42-.12.07-.22.14-.34.22q.28.12.58-.36c.04.16,0,.28-.04.39.03-.02.06-.04.09-.06.03-.02.06-.03.1-.04.02-.02.04-.03.06-.05,0-.03.02-.05.03-.07-.01,0-.02,0-.04,0,.05-.12.04-.2.14-.16.04-.04.1-.08.16-.11l.05-.08c-.15.07-.22-.1-.1-.17.05-.03.12-.03.23-.05l.17-.28c-.17-.32-.14-.36.22-.49,0,.04,0,.07.01.11l.37-.61c-.06-.07-.05-.13-.02-.3.06.04.11.07.16.07l.18-.29c-.06,0-.07-.03-.18-.08.04-.05.06-.12.11-.16.2-.14.3.08.07-.29.17,0,.25-.3.44-.19l.33-.53s-.04-.02-.06-.02c-.09.03-.18.06-.29.1.03-.07.05-.13.07-.18-.02,0-.04-.02-.07-.03.04-.11.09-.17.15-.19,0-.02.01-.04.02-.06.02.02.03.03.05.05.04,0,.09.02.13.03.05.02.09.05.11.08l.19-.31s0,0,0-.01c-.07-.13-.16-.14-.25-.03-.07.09-.13.14-.26.09.06-.2.22-.27.38-.36.11.1.17.16.21.2l.22-.36c-.14-.08-.11-.16-.03-.24.01.06.02.13.04.22l2.95-4.83s-.09.03-.15.05c.09-.18.1-.19.19-.1l2.12-3.47,2.56,4.46s.03.01.09.1c-.01,0-.02,0-.03,0l1.24,2.17c.03-.06.02-.05.1-.03-.03.07-.02.07-.08.06l1.87,3.26c.11.2.29.35.49.44,0-.03-.01-.06-.02-.09.11.06.16.09.17.14.07.02.14.03.21.04,0,0,0-.01,0-.01,0,0,0,0,0,.01.03,0,.07,0,.1,0,.28,0,.55-.13.74-.33-.14-.03-.26-.07-.38-.08-.15,0-.21-.08-.22-.22.11-.05.26-.06.31-.14.09-.13.22-.12.33-.14.18-.04.26-.03.3,0l.18-.35s-.03.02-.05.03c-.11-.15-.06-.03.18-.28l2.21-4.43c-.05-.06-.1-.12-.16-.2.03.01.11-.08.26-.01l.15-.3c-.06.04-.11.08-.17.12-.11-.11-.2-.21-.27-.28,0,0-.02.02-.02.02-.06-.04-.12-.08-.18-.13.02-.02.03-.04.05-.06-.11-.15,0-.11.32-.07-.02-.12-.04-.22-.06-.34.35.09.41.15.63.11l1.22-2.44c.04-.16.1-.28.17-.34l.21-.41c-.07-.1-.1-.17-.1-.23.1-.02.18-.04.24-.05l2.49-4.99s-.03-.05-.04-.08c.03,0,.05.01.07.02l.42-.85c-.06-.06-.09-.1-.15-.17.12-.01.17.02.19.09l.63-1.27c-.07-.05-.05-.06-.05-.21,0,0,0,0,.01,0,.02-.13,0-.1.11-.11,0,.08,0,.1-.02.1.02,0,.04,0,.06,0l1.09-2.18s0-.03.02-.04l.07-.14s-.05-.04-.08-.06c-.09-.08-.09-.22-.05-.24.08-.05.15-.02.27.04l.75-1.5.62,1.11c.05-.09.1-.18.17-.31.13.11.24.2.34.3.15.16-.14.38-.35.29l6.07,10.89c.01-.13,0-.26.19-.3q.24.4.49.48c-.12.24-.25.34-.37.37l.56,1c.2.36.58.57.99.55.41-.02.77-.27.93-.65l2.09-4.91s-.09-.03-.13-.08c.09-.05.14-.07.19-.07l.21-.5s0-.06,0-.1c0-.21-.13-.37-.18-.64.15.12.26.21.37.3l.19-.46s-.03.02-.06.03c-.05-.09-.05-.16.04-.2.03-.01.06.01.07.05l2.19-5.14c-.12.04-.17.07-.19-.16,0-.02.1-.07.12-.06.04.02.07.07.11.12l1.28-3s-.07-.08-.2-.19c.12-.03.21-.02.28.02l.1-.23c-.33-.04-.56-.11-.49-.35,0,0,.01,0,.02,0-.04-.15-.07-.29-.08-.43-.03-.07-.05-.15-.1-.21.04-.02.08-.04.12-.06.04-.16.13-.3.32-.43.11.12.24.24.35.37.07.08.19.05.29.08l.14-.32c-.11,0-.21-.09-.31-.15.18-.09.3-.05.38,0l.18-.43c-.15.05-.12.28-.25.34-.12-.09-.2-.18-.25-.27-.16-.04-.29-.15-.43-.25.21-.58.14-.42.25-.56.15.07.15.12.05.24-.13.15-.09.26.1.31,0,0,0,0,0,0,.01-.11.05-.24.13-.4.2.26.22.31.3.35.03-.08.07-.17.11-.28.05.06.1.11.15.16l.1-.23s-.02,0-.03,0c-.03-.24-.05-.18.09-.21,0,.02,0,.04,0,.05l.05-.12s-.02-.04-.02-.06c.01,0,.03.02.04.02l.09-.2s-.1.04-.17.05c-.02-.08-.02-.14,0-.19,0,0,0,0,0,0,0,0,0,0,0,0,0,0,0,0,0,0-.09-.12-.04-.23.16-.37,0-.02.01-.03.02-.04.07.03.15.02.22.02l.81-1.91c-.1-.02-.26-.05-.53-.11-.08-.02.09-.28.02-.59q-.41.08-.37.46c.01.14.05.06-.33.46.19.08.32.14.45.19.12.36.02.55-.34.64-.39.1-.52-.26-.78-.68,0,0,0,0,0,0,0,.01-.02.04-.09.19-.1.2-.14.26-.25.21-.04.05-.07.1-.11.15.06.04.12.09.18.13-.23.02-.44.15-.68.15l-.13.31s0,0,0,0c0,.01-.01.02-.02.03l-.18.42s.02-.02.04-.03c.07-.05.21.06.18.26.08,0,.16.01.24.01-.16.08-.21.1-.26.07-.03.08-.08.17-.16.28-.06-.21-.11-.32-.12-.4l-.22.52c.07-.06.2-.09.39-.09.03.16.08.32-.01.41,0,.05.02.1.03.16-.11-.03-.21-.03-.23-.06,0,0,0-.02,0-.02-.12,0-.23-.05-.25-.2,0-.01,0-.02,0-.03l-.19.45c.31.09.33.18.18.74-.1-.04-.2-.08-.28-.11.03-.2.05-.39.08-.59l-.23.54s.07.04.12.06c-.07.05-.13.09-.2.11l-3.7,8.69s.01.07.02.12c-.02-.01-.03-.02-.05-.03l-.11.25s.11-.02.21,0c-.09.1-.15.17-.19.21.02.04.04.08.07.13-.12-.03-.2.09-.29.14l-.36.84s.04.02.06.03c0-.03.02-.06.02-.09.16.08.28.15.42.22-.1.14-.13.18-.3.15.15.05.3.11.45.16-.23.2-.38.23-.54.11-.11-.08-.07-.16,0-.27-.1.1-.16.11-.28.06l-.24.56c.14-.03.15-.02.17.1.03.2.02.16.09.18-.08-.25.21-.3.21-.51.14.02.29,0,.36.07.13.14.29.16.46.19-.07.12-.12.22-.19.34-.11-.02-.24.14-.36-.03-.07.13-.19.18-.34.22-.04-.2-.2-.14-.33-.15,0,0,0,0,0,0,0,0,0,0,0,0,0,.01,0,.06.03.21-.07-.06-.1-.09-.15-.12.05-.04.08-.06.12-.09,0,0,0,0,0,0,0,0,0,0,0,0,.02,0-.08-.09-.07-.09.07-.09,0-.16-.03-.23l-1.04,2.44-.57-1.02c-.08.11-.16.22-.24.33q-.2-.1-.16-.2c.05-.15.19-.24.34-.24l-.32-.58c-.07.08-.1.21-.2.31-.07-.11-.16-.2-.18-.29-.03-.17-.1-.31-.23-.44-.12.1.06.27-.12.34-.23-.31-.22-.15,0-.69.18.08.2.29.14.34.13.02.26.05.39.08l-.93-1.66s-.06.02-.11.02c.02-.06.03-.1.04-.14l-.83-1.49s-.01,0-.02,0c0,0,0-.01.01-.02l-1.9-3.41s-.04,0-.04-.01c0-.02,0-.04,0-.06l-.9-1.61s-.03.02-.05.02c-.16.07-.22-.03-.24-.11.05-.06.09-.12.14-.18l-1.65-2.95c-.19-.35-.56-.56-.96-.55-.4,0-.75.24-.93.59l-4.74,9.5s.03.08.06.15c-.06.02-.11.02-.15.02l-5.54,11.11c.53.02.38,0,.6.15,0,.03-.02.06-.02.09-.62.02-.42-.07-.86.44,0-.05,0-.09,0-.13l-.13.26-1.45-2.54s-.02-.02-.04-.03c0,0,0,0,.01-.01l-1.31-2.29c-.08-.04-.14-.07-.21-.1.04-.01.08-.03.12-.05l-.73-1.27c-.05.05-.04.03-.17-.06.05-.07.05-.1.09-.08l-1.96-3.42c-.09-.16-.21-.28-.35-.37-.01,0-.02,0-.04-.01,0,0,0,0,0-.01-.16-.09-.33-.14-.52-.14-.38,0-.73.19-.93.51l-2.05,3.35s.06.05.05.08c0-.05-.01,0,.07-.19.02.03.04.05.06.08,0-.04,0-.09,0-.14.13.09.16.16.1.26.02.02.04.05.06.07-.06.03-.11.04-.15.03,0,0,0,0,0,0,0,0,0,0,0-.01-.05-.02-.09-.06-.13-.1-.04.01-.1.03-.13.04l-.27.44s0,0,.01,0q.22-.32.4-.21c-.07.1-.14.21-.22.32-.1-.03-.22-.05-.31.06l-.02.04s-.01.02-.02.03c.14.04.26.08.4.13-.11.08-.21.22-.33.12-.05-.04-.1-.08-.16-.12l-1.96,3.2c.04.06.08.12.14.18-.12.06-.22.11-.33.16,0,0,0,0,0,0l-2.27,3.72s.01.06.02.1c0,0-.07.03-.07.03,0,0,0-.02-.01-.03l-.3.5s.09.03.14.05c-.09.06-.17.11-.26.17.07.05.13.1.21.16-.24.07-.19.1-.33.01l-.33.54c.02.06.06.1.14.14.02,0,.01,0,.01,0,0,0,0,0-.01,0-.02,0-.08,0-.22,0l-.11.18c.14-.05.27-.11.4-.08-.03-.04-.04-.09-.05-.1.2-.06.24-.25.31-.45.12.06.23.11.32.15-.08.12-.12.22-.19.29-.11.12-.19.17-.25.17,0,0,.01,0,.02.01-.24.12-.48.24-.75.38,0-.01,0-.03-.01-.04l-.36.59s0,.07-.01.1c.04.28.11.53.33.73-.07.1.02.09-.52-.04-.05-.14-.08-.23-.1-.3l-.4.65c.05.08,0,.12-.14.23l-.1.16s.05.04.07.06c-.04.2-.08.37-.11.52-.09,0-.19-.03-.28-.05l-.68,1.12s-.01.08-.08.13l-.11.18c-.03.17-.03.15-.1.16l-.6.99s0,0,0,0c.32-.04.35-.36.56-.51.04.05.07.1.1.15.17-.06.28-.09.39-.13-.07.14-.17.23-.37.15.04.06.09.13.13.19-.12.18-.14.13.03.23.03-.07.06-.12.1-.21.28.35.24.28.23.38-.24-.19-.33.07-.52.13-.17-.22-.2-.28-.35-.27.02.02.04.03.06.05-.06.07-.03.08-.16-.04-.07.01-.16.03-.28.05l-1.51,2.46c-.29.47-.17,1.08.27,1.41l.14.1s.05-.08.08-.12c.02.05.05.09.04.1-.02.02-.03.05-.05.07l1.55,1.16c0-.06.03-.14,0-.16-.19-.16.04-.49.21-.82.04.03.08.06.14.1-.24.32.15.35-.07.71-.06.09-.07.22-.08.33l.12.09s.05-.03.1-.06c-.02.03-.03.07-.03.11l3.05,2.27-2.02.48c-.16.12-.3.25-.53.22-.1-.01-.17.08-.21.19-.01.04-.08.06-.16.11.08-.24.08-.31.13-.35l-7.3,1.73s.01.05.02.09c-.04-.03-.06-.05-.08-.07l-2.52.6-.22-1.17s0,0-.01,0c0,0,0,0,.01,0l-.16-.86s-.01,0-.02,0c0,0,.01,0,.02-.01l-.17-.93s0,0-.01,0c0,0,0,0,.01,0l-.09-.47c-.02.08-.07.15-.19.2-.05-.23-.08-.32-.07-.37,0,0,0,0,0,0q-.12-.01-.21-.17c.22.13.22.12.21.15.02-.04.08-.04.21-.08l-.04-.21c-.03.09-.03.07-.16.03.06-.19.04-.17.14-.15l-.08-.44s0-.02,0-.03l-.48-2.59s-.03.03-.04.05c-.08-.09-.15-.16-.26-.27.09-.05.17-.11.23-.14l-.03-.18s-.09.01-.24-.09c.11-.04.17-.07.21-.08l-1.35-7.35.51.38s0-.01.01-.02c.13.11.18.13.17.16l4.88,3.63c.26.19.59.26.9.18.1-.03.2-.07.29-.13-.03-.02-.06-.05-.11-.08.08-.04.12-.08.17-.08.02,0,.08.06.07.08.12-.1.22-.23.28-.37l.78-1.69c-.18-.04-.19-.13-.07-.31.04.12.06.2.08.27l1.05-2.29s-.03-.01,0-.1c.02,0,.03,0,.05.01l.3-.65c0-.1,0-.22.01-.37.06.02.11,0,.17-.03l.52-1.13s-.06.02-.07.02c-.14-.08-.05-.16-.02-.22-.02,0,.06.03.08.06.02.04.03.07.03.09l.12-.26c-.05,0-.11-.07-.16-.11,0,0,0,0,0,0,0,0,0,0,0,0,0,0,0,0,0,0-.02.07-.04.15-.07.22.02,0-.06-.05-.08-.1-.01-.05,0-.1,0-.15.05.01.1.02.15.04,0,0,0,0,0,0t0,0s0,0,0,0c.02,0,.07,0,.22-.03l.67-1.47s-.13-.02-.27-.04c.02-.13-.03-.12.3-.04l.86-1.88s0,0,0,0c-.17,0-.35,0-.52.01-.52-.65-.27-.61.31-.72-.25-.2-.59-.11-.65-.46.09-.01.18-.02.38-.05-.04-.03-.08-.05-.12-.07-.02.06-.08.1-.13.07-.08-.06-.07-.11-.04-.17-.05-.03-.09-.05-.13-.08.2-.2.42-.22.67-.17-.05.21-.09.4-.14.64.2-.05.32-.08.45-.11.08.11.17.22.26.32l.1-.21s-.04-.09-.05-.15c.04.02.07.03.11.04l.6-1.3s-.07.04-.12.08c-.2-.39.04-.54.08-.62.1-.19.12-.19.29,0l1.46-3.18c-.11-.03-.09-.01-.1-.15.12,0,.12-.01.14.08l1.7-3.7s0-.08.06-.14l1.79-3.9s-.02-.01-.03-.02c-.04.05-.13.11-.34.11-.06-.26.15-.22.4-.23-.02,0-.02.02-.03.05,0,0,.02,0,.03,0l.03-.06c-.05-.02-.06-.05-.16-.19.08,0,.15.02.22.06l.93-2.02c-.07.06-.11.03-.25-.05.04-.07.07-.13.13-.23.08.06.13.1.19.14l.02-.05s-.03-.02-.07-.07c.04-.02.08-.06.11-.02l.12-.26s-.05.02-.07.02c-.01-.04-.03-.08-.05-.15.07,0,.14-.02.19-.02l.05-.1s.01-.03.02-.04l.31-.67s-.06.02-.11.04c-.03-.09-.06-.07.14-.1,0,0,0,0,0,0l.27-.58s0,0,0,0c.02-.04.03-.06.04-.08l.8-1.74s0-.01,0-.02c0,0,.01,0,.02,0l.8-1.75c-.23,0-.27-.2-.3-.42.17-.02.34-.05.5-.07,0,.01,0,.02,0,.04l.95-2.07c-.09,0-.16-.02-.27-.03.1-.08.15-.13.23-.2.02.08.03.13.05.2l.17-.36.29.54s.09-.1.2-.15c0,.16,0,.26-.02.35,0,0-.03.01-.06.02l2.18,4.08c.09.03.2.06.35.1-.09.05-.17.07-.26.07l2.72,5.08s.07-.07.17-.15c.1.15.13.09-.11.27l.27.5s.07-.01.1-.02c.03.05.05.1.08.14.02,0,.04,0,.07-.01-.02.03-.03.04-.04.06.09.17.17.33.18.53l.3.56s.04.06.06.09c.02.02.05.04.08.07,0,0,0,.01-.01.02.21.25.53.4.86.38.11,0,.21-.03.31-.06.03-.03.07-.07.12-.11,0,.01.02.02.03.04.09-.05.17-.11.24-.18-.04-.04-.09-.08-.18-.04-.18.07-.27-.04-.33-.18,0-.01.01-.04.02-.06.07.02.13.04.29.08-.05-.15-.08-.25-.11-.34-.15-.07-.37,0-.37-.25.08-.02.19-.02.23-.07.19-.25.47-.17.72-.22.12-.02.2.03.23.12l.62-1.44s-.04-.08-.05-.12c.04-.01.08-.02.12-.04l.11-.25s-.03-.03-.04-.04c.16-.36.21-.77.51-1.05v-.02c-.15-.08-.06-.2-.07-.35.07.05.12.09.18.12l.02-.05s-.04,0-.05,0c.03-.05.06-.09.1-.11l.44-1.03s-.05-.04-.06-.08c.04-.04.08-.04.11-.04l.37-.86s-.03-.1-.03-.17c.03.02.06.03.09.05l.85-1.98s-.04.01-.06.02c0-.13-.03-.24.14-.3,0,.04,0,.07,0,.09l2.62-6.08c0-.05-.02-.12-.03-.21.03.03.06.05.09.08l.11-.25s-.05.02-.11.04c-.03-.07-.05-.04.1-.11,0,.02.01.02.02.03l.25-.59s-.02-.06-.04-.09c-.2-.53-.28-.27-.05-.7-.13-.09-.28-.16-.32-.35.2-.07.26.08.37.23.14-.41.11-.44.29-.43.16-.32.16-.32.4-.21,0,.01-.01.03-.02.04.01,0,.02-.01.04-.02l.05-.12c-.06.01-.12.02-.2.04-.07-.15-.05-.29.13-.4-.41-.25-.32-.13-.42-.55-.32.11-.37.09-.36-.14.05.02.1.03.15.05.04-.13.09-.26.15-.44.06.07.11.13.16.19,0-.02,0-.04,0-.05,0-.02.06-.03.12-.06.01.07.03.12.02.14-.01.02-.06.03-.09.03.02.02.04.05.06.07.04-.04.08-.09.15-.17.04.14.07.24.09.34.11.03.24.05.15.23.12-.03.09-.12.07-.2-.01.01-.03,0-.06,0-.02-.15-.06-.1.16-.22-.01.03-.02.05-.03.07,0,0,.01,0,.02,0,.05.06.1.12.14.17l.22-.5c-.11.07-.21.18-.36.04.04-.08.07-.15.12-.25.1.05.19.09.27.14l.34-.79s-.04-.07-.06-.1c.05-.02.09-.03.13-.05l1.54-3.57s-.05-.04-.06-.07c-.23-.4.08-.67.33-.54l.04-.09.09.2s.02.02.03.04c.02.03.02.06.03.09l3.93,8.51c.19.4.59.64,1.03.62.44-.03.82-.32.95-.73l.1-.31c-.03-.06-.08-.15-.14-.28.09.03.16.04.22.04l.97-2.98s-.11,0-.12-.1c.08-.04.11,0,.15.04l1.44-4.41s-.07-.02-.11-.02c-.17,0-.35.08-.53.15.07.03.13.06.15.14-.18.05-.35.1-.55.17.12-.22-.29-.19-.16-.42-.17-.1-.3-.23-.37-.43.24-.32.58-.4.98-.46-.03.24-.05.43-.08.63-.09.02-.19.04-.28.06-.03.2.09.26.21.3.01-.18.18-.23.27-.34.14-.18.31.03.45-.02.03-.09.06-.16.1-.26.02.01.04.02.07.03l1.5-4.58s-.04-.09-.06-.21c.05.02.08.04.11.05l1.18-3.6,4.54,7.64c.07-.03.14-.05.21-.08-.31-.56-.85-.4.02-.49.01.1.1.15.19.2.11-.08.22-.11.3.01.07.1-.05.2-.17.21,0,0,0,0,0,.01,0,.02,0,.05.02.08.08.02.15.03.16.06.04.19.19.17.31.21.14.04.27.1.44.17-.23.23-.06.37.07.54.08-.04.15-.07.23-.12-.17-.26.04-.37.19-.57.19.4.1.34.37.29.21.3.13.26.35.2.17.36.16.18-.18.38-.41.24-.5.07-.64.09-.26.22-.26.26-.23.58-.17.02-.33.23-.54,0,.22-.14.19-.01.07-.6.18.12.32.13.43.07-.41,0-.61-.51-.99-.38-.04.01-.07.02-.1.02l3.07,5.17-1.28,3s0,0,0,0c0,0,0,0,0,0,0,0,0,0,0,0,0,0,0,0,0,0,0,0,0,0,0,0,0,0,.03.03.14.11-.06.08-.02.09-.2.02l-.19.44s.04.08.07.13c-.05.01-.09.01-.13,0l-1.46,3.42s.03.03.04.05c.08.07.16.08.25-.01.13-.13.18.02.25.08,0,0,0,0,0,0,0,0,.04,0,.23-.01.92-1.55.06-1.6,1.8-1.03-.25.2-.14.32-.05.45l.77-1.82c-.08-.26-.05-.32.07-.34-.01,0-.03-.02-.11-.09.08-.08.05-.09.14.06-.02.02-.02.03-.03.03.02,0,.05,0,.07,0l.19-.45s0-.03-.02-.06c.02,0,.04-.01.06-.02l2-4.71ZM63.89,24.9s.04.04.03.05c-.01.02-.04.04-.08.08,0-.05-.04-.17.05-.13ZM61.97,25.51c.05.04.08.02-.07.16,0,0-.03-.03-.05-.04.04-.04.08-.08.12-.12ZM64.52,23.43c0,.12.02.2,0,.22-.1.07-.21.15-.42.07.15-.1.26-.18.43-.29ZM64.76,23.08c-.02-.12-.04-.23.17-.36-.08.44-.03.37-.17.36ZM63.24,23.7s.08-.03.13-.05c.01.05.03.09.02.1-.12.12-.13,0-.15-.06ZM64.61,22.49c.2-.1.14-.14.26.08-.19.07-.12.07-.26-.08ZM64.02,22.73c.15-.02.11-.04.15.09-.17-.01-.13,0-.15-.09ZM64.51,22.39c-.09.05-.15.07-.2.1,0-.13.05-.18.2-.1ZM65.34,21.49c.11,0,.09-.03.07.18-.07,0-.05.03-.07-.18ZM65.89,19.36c.11,0,.21,0,.3,0-.1.12-.19.17-.3,0ZM63.13,21.77c.12.08.09.05.08.13-.12-.04-.09-.01-.08-.13ZM65.02,20.3c.05.05.09.09.15.14q-.2.05-.15-.14ZM64.43,20.46c.09.05.03.34-.31.14.08-.14.16-.23.31-.14ZM65.51,19.57c.17,0,.17.09.16.19,0,0,0,0,0,0h0s0,0,0,0c0,0,0,0,0,0,0,0,0,0,0,0,.22-.03.34.11.49.27-.37.18-.26.19-.53,0-.06.16-.12.3-.18.45-.24-.16-.25-.21-.09-.33.03-.02.08-.07.07-.09-.06-.21.11-.23.24-.28,0,0,0,0,0,0,0,0,0,0,0,0-.01-.02-.05-.06-.16-.19ZM24.91,44.56c-.33-.2-.35-.25-.12-.42.08.13.23.23.12.42ZM25.36,44.95s-.08.02-.12.03c-.08-.21-.06-.15-.05-.21.13-.11.27.05.17.18ZM24.16,45.5c.05-.17.2-.15.35-.17-.06.25-.1.26-.35.17ZM44.75,31.11l-.18-.3c.21-.01.24.02.18.3ZM54.45,42.59c0-.11-.03-.1.12-.09-.02.08.01.06-.12.09ZM60.88,28.21c-.19-.07-.22-.2-.21-.37.24.04.19.2.21.37ZM62.68,26.63c.06-.11.09-.17.12-.24q.09.17-.12.24ZM62.41,27.96c-.06.03-.12.05-.22.09.02-.12.02-.2.03-.27.11-.04.07-.07.18.18ZM61.67,28.47c-.19-.15-.22-.25-.04-.44.02.17.03.27.04.44ZM60.95,29.13q.06-.24.23-.3-.03.2-.23.3ZM60.89,29.26s0,.06,0,.11c-.27-.02-.22,0-.27-.09.15-.14.14-.2.27-.02ZM61.74,28.71c.16.07.28.13.43.2-.11.1-.2.19-.34.32-.04-.22-.06-.35-.09-.52ZM60.39,30.08s-.05-.05-.08-.08c.02-.02.05-.03.08-.05.02.03.05.06.06.08,0,.01-.05.05-.06.05ZM60.27,30.68s-.02-.03-.04-.05c.05-.03.09-.05.14-.08.03.06.06.05-.1.13ZM55.71,40.87c-.01.13,0,.1-.09.11.02-.1-.01-.07.09-.11ZM56.41,38.96c-.01.1.08.24-.17.31.11-.38.07-.32.17-.31ZM56.05,38.61c.17.04.23.12.15.31-.19-.07-.25-.15-.15-.31ZM56.76,37.81c.28.2.24.09.28.41.2.13.27.15.25.17.04,0,.1.03.37.13-.21.12-.22.12-.47-.09-.02.23-.24.22-.4.32,0-.3,0-.59-.01-.95ZM58.47,33.36c.22-.03.18.13.22.25.06.18-.04.22-.21.32,0-.22-.01-.39-.02-.57ZM60.59,31.76c-.17.05-.28.08-.49.14.1-.2.15-.31.23-.46.1.12.17.2.27.32ZM60.42,32.18s-.08.04-.11.05c-.16-.05-.13-.16-.07-.28.12-.05.07-.08.19.22ZM59.73,32.63c.17-.13.12-.13.2-.05-.16.14-.12.12-.2.05ZM58.97,33.49c.02-.53-.04-.69.27-.59-.08.22-.01.46-.27.59ZM59.87,33.11c-.42.04-.36.06-.39-.03q.2-.13.39.03ZM60.29,33.65c-.31-.56-.3-.45-.17-.56.32.37.26.22.17.56ZM57.86,35.62c-.16-.37-.18-.21.18-.7.17.14.13.36.05.38-.19.06-.02.3-.23.32ZM59.04,35.46c-.07-.03-.12-.1-.24-.21.16-.03.24-.06.29-.04.25.08.13.32-.05.25ZM57.75,36.57c.02-.11.03-.23.05-.37-.17.03-.26.05-.4.08,0-.13.02-.24.06-.33-.04.01-.09.03-.14.05.08-.21.12-.32.2-.52.06.09.11.15.14.2,0,0,0,0,.01,0,.37-.03.21.4.5.46-.33.51-.26.45-.41.43ZM57.73,36.97c0-.09-.13-.22.15-.26-.09.34-.05.29-.15.26ZM57.83,38.65c-.03-.07-.1-.15-.07-.27-.1,0-.2-.03-.32-.07.22-.13.46-.21.4-.48-.04-.03-.08-.06-.12-.06-.06,0-.11-.02-.15-.05-.13,0-.27.06-.42.11-.03-.16-.06-.31-.09-.43.18-.01.31-.04.44-.03.03,0,.06,0,.09.01-.01,0-.03-.03-.06-.06.1-.07.05-.07.17.02-.04.02-.06.04-.08.04.07.01.13.03.17.05,0-.01.02-.02.03-.03,0,.02,0,.04.01.06.09.06.09.14.07.21.05.08.14.15.35.29,0,0-.01,0-.02,0,.04.04.06.12.09.26-.08-.04-.15-.07-.24-.11.02.03.05.06.08.1-.08.08-.15.12-.23.14.03.16-.03.18-.11.29ZM57.45,38.72c0-.1-.04-.09.23-.04-.02.09.03.08-.23.04ZM57.83,39.27c-.08,0-.13,0-.19,0-.24.25-.44.24-.58.2-.02.04-.07.08-.13.14-.04-.06-.08-.12-.12-.18-.14-.02-.17-.05-.12-.19-.01-.02-.03-.05-.04-.07.04-.03.08-.06.11-.09,0,0,0,0,0-.01,0,0,0,0,0,0,.07-.06.13-.11.2-.17.02.01.03.03.04.04.07-.15.07-.35.3-.33.01.04.02.07.03.1.01,0,.03-.01.04-.01.01.09.03.18.04.27.04.1.09.15.17.2.07-.04.14,0,.23.12ZM56.69,40.36c-.09-.03-.16-.05-.22-.06-.19.25-.49.11-.77.1.05-.08.08-.15.13-.17.33-.12.28-.15-.02-.7.03-.03.06-.05.08-.08.25.2.44.47.67.65,0,.02-.01.04-.02.06.05.03.09.1.15.2ZM56.01,40.92c0,.05-.04.1-.07.2-.04-.12-.07-.18-.11-.28.1,0,.18-.05.18.08ZM56.43,40.7c-.06.11-.03.09-.14.07.09-.12.06-.1.14-.07ZM57.08,40.35c.14-.07.11-.08.15,0-.14.08-.1.08-.15,0ZM55.92,41.42c.06,0,.1,0,.12.01.01.01,0,.07,0,.08-.02.02-.07.01-.09,0-.01,0,0-.05-.02-.1ZM56.71,41.52c-.49-.16-.58-.39-.27-.67.07.02.3.03.42.3.07.17-.08.26-.15.37ZM53.92,43.95c.1,0,.08-.03.11.1-.09,0-.06.03-.11-.1ZM54.44,42.98s.06,0,.12,0c-.01.06-.02.1-.04.13,0,.01-.09,0-.09,0,0-.04,0-.09,0-.13ZM55.69,42.45c-.07,0-.05.03-.07-.13.08,0,.06-.03.07.13ZM54.94,42.93c.05-.13,0-.12.16-.09-.05.11,0,.09-.16.09ZM54.39,43.98c-.11-.13-.18-.04-.08-.62,0-.03.09-.07.12-.06.09.03.17.09.23.12-.1.21-.18.38-.27.56ZM55.64,43.91c.16,0,.21.05.15.16-.11.2-.06.25-.15-.16ZM55.5,44.18q-.13.19-.28.04c.1-.02.17-.03.28-.04ZM54.17,44.15c.38.09.61.06.63.38,0,.08-.06.17-.1.27-.18-.22-.33-.41-.53-.65ZM52.56,44.9c.11.18.05.21,0,.34-.06-.07-.17-.13-.11-.31,0-.02.11-.04.11-.03ZM52.92,44.74c-.13-.02-.24-.04-.41-.07.24-.23.28-.22.41.07ZM52.13,44.06c-.09.08-.05.09-.16.02.07-.08.03-.08.16-.02ZM51.8,43.96c.08.06.07.02.06.13-.11-.06-.09-.03-.06-.13ZM51.71,42.54c.33-.12.29.32.57.31-.11.32-.14.43-.17.47,0,0,0,0,0,.01.09.04.12.15.11.32-.03-.02-.06-.04-.09-.06,0,.15,0,.13-.08.12,0-.06-.08-.11-.06-.18-.16.08-.23.04-.52-.15.2-.17.36-.22.5-.16,0-.07-.02-.15-.03-.24-.15.07-.23.11-.35.17-.05-.26-.04-.46.11-.63ZM50.72,39.47c-.08.03-.06.05-.11-.11.08-.02.06-.05.11.11ZM51.17,40.76c-.1.05-.06.08-.18-.16.1-.05.06-.08.18.16ZM51.24,41.83c.09.03.17.02.18.15,0,.01-.07.04-.08.03-.03-.03-.04-.07-.1-.19ZM50.14,41.97c.16-.05.12-.06.16.03-.16.05-.13.06-.16-.03ZM50.73,41.41c.31-.13.43-.12.54.03.12.16.01.29-.07.45-.16-.17-.31-.31-.47-.48ZM50.98,40.95c-.02.08.01.07-.18.01.03-.07-.01-.07.18-.01ZM50.74,40.47q.11.2-.02.37c0-.11.01-.23.02-.37ZM50.82,39.95c.2-.09.21.02.2.13,0,.03-.05.06-.1.12-.04-.1-.07-.17-.1-.25ZM49.77,38.65c.07.03.13.06.19.09,0-.01,0-.02,0-.03.2-.15.22.03.27.12-.03,0-.05,0-.08.01,0,0,.01,0,.02,0,0,.41.03.29-.22.48.13.04.29.14.25.32-.04.21-.24.16-.39.12-.02.1-.05.18-.08.32-.1-.14-.16-.22-.2-.27.07-.22.22-.44.16-.57-.1-.24.02-.39.06-.6ZM49.07,37.98c.06.12.17.26.16.37-.03.2.11.46-.19.6-.08-.04-.17-.09-.27-.14.23-.94.17-.82.3-.83ZM48.62,37.35c.18.11.37.23.57.36-.21.16-.27.19-.3.11-.08-.17-.37-.17-.33-.43,0-.01.04-.02.06-.04ZM47.92,37.38c.18.07.17,0,.03.34-.15-.06-.13.01-.03-.34ZM48.35,35.46c.1.17.17.34.03.49-.13.14-.28.02-.44.02-.06-.35.27-.34.41-.51ZM47.99,34.88c.04.06.07.04-.09.13,0,0-.02-.03-.03-.04.04-.03.08-.06.12-.09ZM46.95,34.24c.13.05.12,0,.11.14-.11-.02-.09.02-.11-.14ZM46.99,33.81s.06.01.07.03c0,.02,0,.06-.01.06-.03,0-.05,0-.08-.01,0-.02.02-.04.03-.08ZM44.42,31.9s-.1.02-.17.03c.04-.12.06-.16.07-.2.04.02.1.03.13.06.02.02,0,.1-.03.11ZM45.94,31.65c.1.04.17.07.29.11-.44.34-.4.34-.29-.11ZM45.64,32.57c-.05-.19.05-.24.26-.31-.07.18-.09.3-.26.31ZM43.08,34.39s-.08-.04-.09-.06c0-.01,0-.06.02-.06.03,0,.06,0,.09,0,0,.03,0,.06-.02.12ZM44.11,34.36c-.33-.14-.29-.1-.26-.2.13-.06.17.05.26.2ZM44.43,34.29s-.05.01-.07.02c0-.02,0-.05,0-.08.04,0,.06.01.08.02,0,0,0,.04,0,.05ZM40.82,38.74s.25-.14.48.35c-.27.21-.34-.05-.48-.35ZM40.48,38.87c-.07.12-.14.24-.2.35-.22-.12-.3-.24-.23-.35.12-.17.26-.09.43,0ZM40.73,38.39c.11.44.13.28-.07.6-.07-.2-.07-.38.07-.6ZM42.48,37.82c-.03-.18.06-.25.22-.31,0,.18-.04.28-.22.31ZM41.54,39.11c0-.14,0-.26.11-.32-.09-.06-.07-.2.04-.26-.03-.03-.06-.07-.1-.1-.15.06-.3.11-.47.18-.45-.8-.44-.74.03-.55.01-.13.02-.23.03-.35.48.27.35.31,1.09.26.18-.01.22.1.24.24-.21.05-.4.09-.59.13-.02.07-.04.14-.07.22.02.02.03.03.05.05-.09.15-.11.18-.13.19-.02.19-.03.2-.23.31ZM41.4,39.69c.07-.18.06-.4.33-.44.05.48.02.53-.33.44ZM37.75,43.74c.14-.09.21-.07.31.07-.13-.03-.2-.05-.31-.07ZM37.67,43.68c-.04.07-.01.06-.15,0,.07-.09.04-.1.15,0ZM40.77,41.24c-.1-.08-.16-.13-.22-.19,0,0,.04-.1.07-.1.12,0,.2.06.15.29ZM40.54,41.34c-.1-.04-.2-.08-.31-.13.15-.09.27-.08.31.13ZM39.87,41.58c.1.01.18.02.3.04-.33.42-.29.41-.3-.04ZM39.6,42.11q-.16-.27.11-.35c-.04.12-.07.23-.11.35ZM39.81,42.5c-.09-.17,0-.24.17-.35-.02.18-.01.3-.17.35ZM38.29,43.54q-.11,0-.11-.1s.07.07.11.1ZM39.82,43c-.15-.08-.1-.01-.2-.25.18.04.26.08.2.25ZM37.68,44.28c-.02-.15-.03-.11.06-.13.01.15.03.13-.06.13ZM37.49,45s-.06,0-.11,0c0-.04,0-.08,0-.08.13-.02.1.02.1.09ZM38.97,44.76c-.07.02-.13.03-.21.05.01-.12.02-.21.03-.31q.17.09.18.27ZM38.72,45.03c-.13.03-.21.03-.17-.13.12.02.08-.03.17.13ZM38.12,45.75c-.04.08,0,.08-.17,0,.06-.11.02-.1.17,0ZM38.98,45.34c-.07.01-.15.03-.25.05,0-.15.05-.22.16-.21.09,0,.13.05.09.16ZM37.41,46.9c-.12-.14-.09-.08-.12-.25.16.03.13-.03.12.25ZM35.72,48.62c-.29-.1-.11-.84.17-.42-.06.15-.11.28-.17.42ZM35.14,49.07c-.11-.17-.12-.09.04-.27.13.19.16.12-.04.27ZM35.8,49.01s-.06,0-.06,0c-.02-.23-.03-.19.09-.19-.01.06-.02.13-.04.19ZM35.93,48.99c.33-.1.27-.1.29-.01-.08.05-.15.15-.29.01ZM34.91,50.99c.04.11.07.22.1.32q-.32-.15-.1-.32ZM34.59,50.54c-.12-.01-.24-.02-.43-.04.22-.22.31-.03.43.04ZM35.52,49.74c-.01.06-.02.13-.04.23-.16-.14-.05-.18.04-.23ZM36.72,49.63c-.06-.1-.1-.2-.11-.31-.04.04-.1.05-.19.03.06-.06.13-.12.2-.18,0-.04.01-.07.03-.11.2.38.18.23.08.58ZM36.41,49.94c-.23-.06-.34-.15-.29-.27.07-.19.22-.15.39-.11-.04.13-.07.25-.1.38ZM36.07,50.69s0-.05,0-.05c.04-.01.07-.02.11-.02.01.07.04.08-.1.07ZM35.81,51.11c-.13.08-.22.08-.25-.03-.01-.04.06-.11.1-.16,0,0,0,0,0,0h0s0,0,0,0c-.14-.05-.39.05-.37-.25.32.02.33.02.37.25,0,0,0,0,0,0,0,0,0,0,0,0,0,.01.04.05.14.19ZM34.01,54.4c-.07-.21-.06-.13-.02-.28.11.11.15.18.02.28ZM33.55,54.04c-.04.12-.07.18-.09.24,0,0,0,0,0,0,.01,0,.05-.03.17-.1-.02.17-.03.27-.05.3.03.01.05.04.11.1-.16.02-.26.17-.44.09.2-.13.27-.19.32-.19-.02-.02-.05-.08-.11-.19,0,0,0,0,0,0,0,0,0,0,0,0,0,0,0,0,0,0,0,0,0,0,0,0,0,0-.03-.02-.15-.08.08-.06.14-.09.24-.17ZM33.18,53.93c-.06.15-.03.33-.22.45-.06-.07-.11-.14-.17-.21.39-.32.32-.29.39-.24ZM33.5,52.97c.22.07.38-.03.53-.17-.18.03-.34.03-.5-.1.05-.05.09-.08.13-.12.07.05.13.09.24.16.12-.12.27-.22.33-.35.06-.14.04-.32.06-.5.18.05.15.21.21.31.07.12-.05.19-.1.26,0,.03.01.07.02.1.03.03.07.07.11.11-.13.1-.24.19-.36.29.07.14.02.28-.1.41q-.27-.03-.31-.15c.09-.04.24.04.3-.12-.19-.08-.42.09-.56-.13ZM33.34,52.73c-.12.14-.09.4-.38.36.04-.1.1-.18.11-.27.02-.19.01-.19.19-.18.22,0,.17-.05.21.24-.04.02-.02.04-.12-.14ZM32.46,53.39c0,.11.03.08-.23.06,0-.1-.04-.08.23-.06ZM32.67,53.1s.06.01.09.01c.04.11.08.23.1.34.02.08-.12.16-.21.1-.26-.16-.01-.41.02-.46ZM31.59,53.29q.27-.01.33.21c-.11.01-.21.02-.32.03,0-.09,0-.17-.01-.24ZM32.09,52.95c.27-.2.07-.27.49,0-.12.07-.24.11-.29.18-.12.16-.22.06-.43-.07.09-.05.17-.08.23-.12ZM33.04,51.82c-.12-.01-.2-.02-.33-.04.16-.14.23-.09.33.04ZM31.06,51.92l.15.26c-.18.05-.2.05-.22,0-.05-.1-.04-.18.07-.26ZM32.11,51.18c.34.02.29,0,.32.09-.07.07-.14.13-.24.22-.03-.12-.05-.2-.08-.31ZM31.32,49.45s-.09-.04-.09-.06c0-.05.04-.09.07-.14.06.04.09.07.12.09-.03.04-.06.09-.1.12ZM32.15,50.46c.09.21.13.14-.09.3-.11-.16-.14-.08.09-.3ZM32.02,50.53c-.07.1-.03.11-.2-.06.06-.07.01-.07.2.06ZM30.88,50.12c.07.22.12.38.16.53q-.18.04-.54-.22c.12-.1.24-.2.38-.32ZM31.15,49.79c.07-.02.04-.04.1.06-.09.02-.06.04-.1-.06ZM30.25,49.13c.13-.06.24,0,.28.12.09.3.25.58-.09.96-.08.09-.13.03-.2,0,0,.03,0,.06,0,.09-.03.11-.17.13-.17.04,0-.05.05-.1.09-.15-.02,0-.05.01-.07.03-.16.11-.26.03-.35-.09,0-.01,0-.04,0-.06.07,0,.13,0,.29,0-.08-.13-.13-.21-.18-.29-.15-.03-.34.1-.4-.15.02-.01.04-.02.06-.03.02-.02.02-.03.04-.02.04-.02.08-.04.1-.07.12-.28.4-.27.62-.38ZM29.5,48.89c0,.23.02.16-.1.22-.06-.16-.07-.1.1-.22ZM29.96,47.87c.12.1.14.19,0,.33-.12-.12-.1-.21,0-.33ZM28.89,47.92c-.06.15-.13.14-.24.05.07-.1.13-.12.24-.05ZM28.46,47.08c-.02.08-.04.15-.07.25-.08-.06-.13-.1-.21-.16.21-.15.14-.12.28-.09ZM28.5,45.02c.04.12.07.09-.17.15-.03-.1-.06-.06.17-.15ZM27.49,45.19c.11,0,.09-.05.12.16-.12.02-.09.05-.12-.16ZM22.32,49.81c.15.03.29-.15.43,0,0,0,0,.03,0,.06-.06.02-.12.04-.17.06-.03.02-.06.04-.09.03-.08.03-.16.06-.24.09,0-.21.01-.26.08-.25ZM21.52,49.36c.06-.03.14-.06.22-.1.49.61.44.5.38.6-.11-.02-.25-.02-.31-.08-.11-.11-.35-.16-.29-.41ZM22.03,48.9c-.02.05.01.05-.18-.03.02-.05-.01-.05.18.03ZM22.93,48.18c.06,0,.05-.03.05.14-.08,0-.07.03-.05-.14ZM22.51,47.96s-.01-.07-.02-.11c.15.05.26.09.39.13-.04.09-.06.16-.09.22-.04.08-.18.1-.2.03-.03-.07-.04-.15-.06-.23-.01.01-.04.04-.1.08-.05-.13-.08-.09.06-.17,0,.02.02.03.03.04ZM28.2,43.73c-.11-.04-.09,0-.06-.16.11.11.09.07.06.16ZM24.18,46.17s.04,0,.06,0c-.04.16-.03.32-.23.26-.05-.02-.13-.11-.12-.16.02-.1.07-.13.13-.13,0,0,0,0-.01-.01.15-.38.21-.41.41-.25-.12.14-.19.23-.25.28ZM24.44,46.37c-.03-.12-.05-.2-.08-.31.1-.02.18-.04.25-.06.04-.09.09-.13.23-.08-.1.1-.12.13-.15.12.01.03-.05.08-.25.32ZM25.54,46.03c-.11-.09-.16-.16-.09-.29.13.07.13.16.09.29ZM25.32,46.35c-.04-.12-.07-.19-.09-.27.19-.06.12-.06.26.04-.05.07-.09.12-.17.23ZM25.45,46.85c-.21-.03-.28-.13-.22-.32.22.03.16-.03.22.32ZM24.96,47.33c-.16-.22-.34-.03-.54-.02.01-.07.02-.12.03-.17,0,0,0,.01,0,0-.12.07-.15-.05-.22-.09-.07-.04-.17-.03-.25-.05-.07-.02-.14-.07-.23-.11-.02-.08-.09-.18.03-.3.14.27.38.14.52.16.11.1.17.15.22.19-.05.14-.07.18-.07.2,0,0,0,0,0,0,0,0,0,0,0,0-.03.08.42-.23.43-.23-.06-.09-.11-.15-.15-.22.24-.08.29.2.47.22.01,0,.01.16.02.25-.07.05-.16.1-.26.17ZM23.73,48.42c-.01-.06-.03-.11-.02-.14.01-.02.08-.04.1-.03.03.02.05.07.05.1,0,.03-.06.04-.12.07ZM23.65,48.79c-.1,0-.17,0-.25.01-.04-.18-.02-.39-.25-.42,0,0,0-.1.01-.15.3.07.45.24.49.56ZM23.08,48.96c.12,0,.19-.01.33-.02-.13.17-.21.18-.33.02ZM22.83,49.26c.11-.07.05-.09.23.15-.14.08-.08.11-.23-.15ZM23.39,49.51q0-.28.29-.24c-.21.19-.13.12-.29.24ZM21.14,51.04c-.08.04-.14.08-.25.14,0-.14,0-.23,0-.32.09-.04.04-.06.25.18ZM21.22,51.96q.14.18-.08.35c-.03-.15-.05-.27.08-.35ZM21.84,51.8s.01-.04.03-.08c.07,0,.16.01.32.03-.2.21-.13.25-.35.06ZM19.14,54.32c.02.13.04.21.05.29-.15.05-.28.09-.42.14-.1-.08-.15,0,.36-.43ZM21.02,52.87c.02.14.07.1-.29.15-.03-.16-.08-.11.29-.15ZM21.25,52.79c.08-.1.02-.12.28.11-.06.07,0,.08-.28-.11ZM20.85,53.19c.13.03.24.05.38.08q-.26.2-.38-.08ZM20.03,54.25c-.23-.11-.3-.15-.32-.16,0,0,0,0,0,0,0,0,0,0,0,0-.21.34-.13.29-.37.16.08-.12.07-.15.14-.16,0-.03.02-.05.03-.09.02.03.03.06.04.09.04,0,.09,0,.16,0,0,0,0,0,0,0,0,0,0,0,0,0,0,0,0,0,0,0,0,0,0,0,0,0,0,0,0,0,0,0,0-.43.42-.51.54-.22-.08.14-.16.27-.22.37ZM19.81,54.41s-.05-.02.12-.15c.04.05.06.02-.12.15ZM19.53,54.7c-.11-.07-.11,0-.05-.24.11.15.12.09.05.24ZM19.28,54.94c-.06-.09-.08-.12-.1-.15.02-.01.05-.04.07-.04.14.02.07.09.03.18ZM15.73,60.35s.06,0,.1.01c-.02.06-.03.11-.06.2-.12-.11-.13-.17-.04-.22ZM14.82,60.52s.07.09.06.1c-.09.07-.18.13-.27.19-.03-.24.04-.33.2-.29ZM15.98,59.25c.14.16.19.26,0,.35-.41.22-.16.21-.81.16.13-.39.57-.25.8-.52ZM20.01,55.18c-.25-.2-.19-.31-.02-.4.16.05.15-.03.02.4ZM19.57,56.43c-.13-.01-.22,0-.26-.03,0,0,0,0,0,0-.07.05-.14.1-.22.17-.09-.21-.11-.27-.12-.28,0,0,0,0,0,0,0,0,0,0,0,0-.02,0-.1-.02-.34-.09.19-.15.33-.16.34.09,0,0,0,0,0,0,0,0,0,0,0,0,.1-.01.21-.12.32-.06.02-.05.05-.1.06-.17.09.15.14.23.23.38ZM17.68,57.24c-.15-.23-.05-.45.17-.52.19-.06.19.03.49.58-.28-.02-.48-.04-.66-.06ZM17.14,59.12s0,0,0,0c-.02.02-.02.02-.01,0-.04,0-.08,0-.1-.01.02.03-.01.04-.16.13.03.02.06.04.1.06-.11.04-.18.04-.22.02,0,0,0,0,0,0,0,0,0,0,0,0-.05-.03-.05-.09-.05-.17,0,0,0,0,0,0,0,0,0,0,0,0,0,0,0,0,0,0-.01,0-.05,0-.17.02-.04.11-.07.22-.12.37-.44-.37-.06-.62.07-.97.23.25.2.09.21.58,0,0,0,0,0,0,0,0,0,0,0,0,0,0,0,0,0,0,0,0,.02.01.05.03.02-.08.08-.11.15-.11-.01-.04.01-.11.05-.28-.3-.31-.14-.21-.63-.39.39-.14.36-.53.53-.77.18.16.35.31.53.46,0,.29-.35.19-.48.36.07.24.09.29.08.31,0,0,0,0,0,0,.31.02.18.3.16.37,0,0,.01,0,.02,0,0,0,0,0,0,0,.02,0,.07.02.21.06-.21.31-.15.35-.21-.06ZM16.58,59.89q-.07-.23.09-.25c-.02.33,0,.28-.09.25ZM16.37,60.24c-.08,0-.12,0-.14-.01-.03.07-.07.14-.12.15-.05.02-.11,0-.15,0-.06-.13,0-.25.08-.32-.08,0-.16,0-.25-.02,0,0,0-.01.01-.02-.04-.15-.1-.25.05-.29.03,0,.06.02.1.04-.03.05-.06.1-.09.17.17-.2.38-.16.6-.15-.07.15-.15.22-.25.25.02.01.03.03.04.05,0,0,0,.02,0,.02.06-.01.05,0,.12.14ZM15.27,61.19c.18-.14.3-.23.48-.15q-.09.22-.48.15ZM13.62,62.64c.07.08.12.13.22.24-.6.1-.61.15-.22-.24ZM14.37,61.65c-.08-.04-.08,0,.03-.2.08.04.08,0-.03.2ZM14.87,61.81c-.15.05-.11.04-.17.03,0,0-.02-.01-.02-.01.02-.05,0-.17.16-.1.02,0,.02.06.03.09ZM14.58,62.05c-.13-.1-.26-.19-.43-.32.39-.12.75.15.43.32ZM14.2,62.42c-.03-.14.02-.21.13-.24q.08.18-.13.24ZM14.86,62.43c-.1-.16-.08-.26.06-.33.14.13,0,.2-.06.33ZM14.12,63.01s.09-.06.18-.11c-.04.32-.21.13-.18.11ZM14.82,63.6c0-.09-.02-.16-.03-.28q.21.19.03.28ZM13.82,64.27c-.05-.04-.1-.07-.16-.11.11-.17.15-.37.4-.51-.13.23-.01.48-.24.63ZM14.59,64.24c-.15,0-.24,0-.22-.19.08.07.13.11.22.19ZM14.3,65.05c.19.46.25.41-.13.22.03-.06.07-.11.13-.22ZM15.39,64.93c-.05,0-.13.04-.15.02-.07-.06-.03-.13.05-.18.13.12.11.08.1.16ZM14.02,66.12c-.08-.05-.08-.01.02-.16.06.03.06,0-.02.16ZM16,65.61c-.09-.1-.13-.02.26-.37.09.33-.1.34-.26.37ZM17.39,66.27s-.07.03-.11.03c-.02,0-.05-.06-.04-.07.01-.03.05-.05.1-.1.03.07.04.11.05.15ZM17.16,66.58s0-.08.02-.11c0,0,.06,0,.06,0,.03.12,0,.09-.07.11ZM15.99,67.3s-.05-.09-.07-.14c.03-.01.06-.02.08-.03.02.05.04.09.05.14,0,0-.06.03-.06.02ZM16.26,67.73c-.04-.12-.1-.21.06-.3.02.11.09.2-.06.3ZM18.08,66.95c-.1,0-.19.01-.29.02-.07-.26.2-.14.25-.26.06.04.05,0,.04.24ZM13.67,72.18s.03.04.04.07c-.05.06-.09.11-.15.18-.11-.07-.11-.15-.05-.22.03-.03.1-.03.16-.03ZM8.18,71.91q-.16.08-.33-.03c.04-.05.09-.1.11-.13.09.06.15.1.22.15ZM11.83,71.58c0-.15-.03-.11.11-.14-.03.18,0,.13-.11.14ZM14.3,70.22c0,.07,0,.15,0,.22.02,0-.07-.03-.1-.08-.02-.04-.03-.09-.04-.14.05,0,.1,0,.14,0,0,0,0,0,0,0h0s0,0,0,0c.02,0,.06-.03.22-.09.03.26-.13.13-.22.09,0,0,0,0,0,0,0,0,0,0,0,0,0,0,0,0,0,0ZM14.36,70.64c-.15-.04-.08-.13-.07-.2-.02,0,.06.01.09.04.11.11,0,.16-.02.16ZM18.06,67.88c-.29.02-.22.05-.25-.13.07-.03.02-.05.25.13ZM18.05,68.14c.08-.1.16-.19.23-.29.1.11.23-.04.36.03-.15.31-.32.39-.59.26ZM18.03,68.81c-.1-.06-.19-.12-.28-.19.23-.29.05-.22.82-.3-.11.27-.33.38-.53.49ZM18.9,68.47s0-.03.02-.06c.06.02.12.03.22.06-.12.11-.19.11-.24,0ZM18.08,69.06c.06-.31.42-.19.55-.43.07.4-.13.57-.55.43ZM19.01,68.84c-.01-.07-.03-.05.12-.07.01.06.04.04-.12.07ZM19.27,68.84c.11-.11.18-.13.26-.01-.08.11-.15.12-.26.01ZM18.55,69.32c-.08.07-.15.13-.26.09q.08-.13.26-.09ZM18.11,69.71s-.02-.09,0-.12c.09-.13.18-.07.31.02-.11.09-.18.17-.3.09ZM20.31,70.49c-.1-.01-.2-.02-.3-.03.08-.17.09-.11-.1-.29.16-.36.26-.38.52-.08.11-.1.23-.18.41-.05-.04.04-.07.08-.09.08-.15.01-.26.04-.23.25.01.07-.1.14-.21.12ZM17.78,71.28c.03.07.05.04-.1.11-.03-.07-.05-.05.1-.11ZM19.31,70.07c.26-.12.32.21.51.19-.08.17-.14.31-.21.46-.32-.05.04-.27-.2-.45-.05-.03-.06-.12-.09-.2ZM19.53,69.84c0-.19-.14-.22-.36-.34.04-.11.07-.21.13-.37l.23.39c.06-.01.14-.02.19-.03,0,.18,0,.34,0,.52-.12-.01-.19-.05-.19-.17ZM18.57,69.71c.26.06.32.22.33.43-.15-.1-.22-.25-.33-.43ZM18.45,69.91c0,.08.03.06-.14.06,0-.07-.03-.06.14-.06ZM19.03,69.78c.07.03.07,0-.04.17-.06-.04-.06,0,.04-.17ZM18.03,70.61s-.04.04-.12.14c-.06-.17.06-.12.12-.14ZM18.31,70.39q-.1.14-.28.21s-.07-.22.28-.21ZM15.44,71.53c-.1.18-.19.33-.28.48q-.02-.48.28-.48ZM17.21,70.63c-.06-.12-.08-.07.08-.18.08.12.09.08-.08.18ZM15.88,70.86c.2.05.16.03.15.11-.2-.02-.16,0-.15-.11ZM16.7,69.73c.32.26.25.18,1,.06-.02.08-.04.13-.05.17-.12,0-.23-.1-.33,0,.12.19.28.26.49.22.15-.03.27.09.17.23-.04.05-.11.08-.16.11-.06-.06-.1-.1-.14-.14-.08.05-.15.1-.23.15l-.23-.38c-.08.02-.2.02-.25.08-.13.16-.3.2-.46.26-.07-.13-.18-.29-.16-.32.12-.15.16-.37.36-.45ZM11.6,72.09c.07-.26.36-.22.47-.42.05.14.09.25.14.37-.32.24-.18.22-.61.05ZM11.11,71.53c.31-.28.31.29.35.63-.28-.02-.23-.07-.35-.63ZM9.83,72.72c-.02.09.02.07-.2.06.02-.14-.02-.13.2-.06ZM9.36,72.31s.11-.08.17-.09c.03,0,.1.06.1.1,0,.21-.16.24-.27.31-.01.08.03.07-.26-.01.11-.1.3-.1.25-.3ZM8.9,72.07c.04-.13.1-.2.26-.21-.06.18-.04.33.12.49-.13.04-.22.07-.31.1-.19-.12-.12-.25-.08-.38ZM7.27,73c.02-.08-.03-.07.31-.03,0-.06.02-.1.02-.14.05.04.1.1.08.14-.04.16-.25.07-.42.03ZM6.86,73.27c.07-.08.03-.09.17.07-.05.05-.01.06-.17-.07ZM6.66,73.19c.08,0,.05-.06.08.29-.19-.11-.09-.2-.08-.29ZM6.16,73.61c.14-.26.14-.27.36-.14-.12.05-.23.09-.36.14ZM5.07,74.12s.04.02-.11.11c-.03-.05-.04-.02.11-.11ZM7.54,72.17c.05-.06.12-.09.17-.01-.17.38-.13.32-.22.32.01,0,.01,0,0,0,0,0,0,0,0,0,0,0-.02.03-.07.1-.05-.04-.05-.02.07-.1,0,0,0,0,0,0,0,0,0,0,0,0,0,0,0,0,0,0-.03-.03-.12-.12.05-.31ZM6.53,72.44c.08-.02.13-.04.19-.05-.09.1.09.26-.1.32-.03-.09-.06-.17-.09-.27ZM6.78,72.15c.05-.07.1-.13.15-.19.51.4.39.35-.15.19ZM3.72,73.68s0,.03,0,.04c-.04,0-.08,0-.11,0,0-.05-.03-.06.11-.05ZM5.13,72.58c.29.08.36.18.27.36-.16.05-.09.11-.27-.36ZM5.63,72.3c.04.08.07.03-.13.25-.04-.25-.1-.2.13-.25ZM4.9,71.24s.09-.02.14-.03c.21.46.19.39.13.43-.08-.14-.32-.14-.27-.4ZM4.66,70.84s0,.05-.12-.02c.05-.06.02-.07.12.02ZM4.55,70.2c0,.13.01.23.02.36q-.19-.25-.02-.36ZM4.33,69.34c0,.09,0,.08-.06.06,0-.07-.01-.06.06-.06ZM3.67,68.98s.01.09,0,.13c-.02.03-.07.06-.1.06-.03,0-.05-.05-.08-.08.13-.11.08-.09.19-.11ZM4.17,66.63c-.14,0-.11.03-.13-.08.12-.02.09-.03.13.08ZM2.86,68.84c.09-.02.18-.03.27-.05q-.16.17-.27.05ZM3.39,68.15c.05.03.1.07.17.12-.1.09-.09.15-.24-.04,0,0,.06-.08.07-.08ZM3.19,66.76c.54.19.27.66.39.99-.33,0-.62-.03-.72-.35-.09-.29.2-.42.32-.64ZM3.9,66.33c0,.1.04.07-.15.12-.02-.17-.05-.14.15-.12ZM3.75,65.16c.1-.03.06-.06.16.1-.14.02-.1.05-.16-.1ZM3.7,64.26c-.38.05-.32.05-.36-.02.28-.19.18-.19.36.02ZM1.9,63.53c.12-.02.21-.04.34-.07q-.13.2-.34.07ZM3,62.69c-.04.07,0,.06-.18,0,.05-.1,0-.09.18,0ZM1.14,53.8s-.03-.02-.05-.04c.04-.04.08-.08.12-.12.05.04.08.03-.07.16ZM1.09,58.57c.03.13.06.23.09.36-.14.03-.26.09-.36-.08.09-.09.17-.17.27-.27ZM1.48,58.03c.28.17.41-.18.65-.08-.18.29-.42.34-.65.08ZM1.18,56.64q.26.01.14.28c-.06-.13-.1-.2-.14-.28ZM1.11,54.29c.14.2.14.13.01.28-.15-.16-.12-.09-.01-.28ZM1.38,54.53s0,.03-.1-.36c.15.11.34,0,.35.22,0,.14-.11.18-.24.14ZM1.22,54.68c.02-.18.08-.15.14-.17.03.04.03.11.02.12-.07.15-.16.06-.16.05ZM1.92,55.04c.12-.11.08-.09.19,0-.1.13-.06.13-.19,0ZM2.02,55.82c.4.4.04.4.37.76-.53.01-.35.2-.62.51-.17-.39-.3-.69-.45-1.02.09-.01.16-.02.24-.03-.08-.54-.11-.42.11-.56-.1-.05-.19-.09-.31-.14.13-.16.23-.29.34-.41.08.19.15.34.2.49.08.2-.15.15.11.41ZM3.08,55.44c.07-.09.15-.11.22-.02.08.09-.15.25-.22.02ZM2.41,56.15c1.04-.25.8-.26.94.14-.26.18-.27.18-.32-.11-.52.08-.6.14-.62-.03ZM3.88,55.54s-.07.02-.08,0c-.02-.02-.03-.06-.02-.08,0-.01.05-.02.09-.03,0,.04.01.07.02.1ZM3.6,55.98s-.3-.15-.28-.35c.25.05.28.08.28.35ZM3.67,56.27c-.12-.07-.11-.16-.07-.25.03.04.24.11.07.25ZM1.85,57.4c.15-.01.29-.03.44-.03.07,0,.15.09.22.14-.08.05-.19.16-.23.14-.29-.15-.57-.05-.87.02,0-.06.02-.1.03-.14-.07-.03-.12-.06-.14-.1-.03-.08.04-.19.07-.3-.12-.07-.09-.04-.1-.08.27-.07.29-.07.28.37.03,0,.06-.01.1-.01.01,0,.03,0,.04,0,.01-.14.04-.15.25-.19-.06.08-.09.14-.12.18ZM3.91,57.56s-.11-.06-.11-.09c0-.06.04-.13.06-.19.04.02.07.04.11.06.02.04.06.1.05.13-.01.04-.07.09-.11.09ZM5.14,58.57c-.18-.1-.14-.05-.09-.25.19.16.17.1.09.25ZM7.31,58.18s-.04-.02-.1-.04c.02-.02.03-.05.05-.06.02,0,.06,0,.06.02,0,.03,0,.06-.01.09ZM9.32,58.5c0-.09-.02-.17-.03-.27.22.13.22.14.03.27ZM9.46,58.99q0-.18-.14-.27.16-.12.32-.1c-.07.13.05.32-.18.38ZM9.91,58.83c.06.08.08.03-.1.19-.07-.1-.08-.05.1-.19ZM8.1,59.47c.24.2.24.22-.07.42.06-.16-.07-.29.07-.42ZM8.91,58.9c.11.02.21.03.31.05-.03.2-.32.23-.31-.05ZM11.16,57.45c-.03.17-.05.25-.08.38q-.16-.21.08-.38ZM7.23,59.44c-.18.54-.12.46-.24.43.04-.16.06-.32.24-.43ZM11.73,56.03c-.08-.03-.08,0-.04-.13.07.02.06,0,.04.13ZM11.01,57.07c-.16-.02-.13.02-.08-.22.11.01.09-.03.08.22ZM10.69,57.23c-.05.1,0,.09-.25,0,.11-.14.15-.07.25,0ZM9.14,57.73c.2-.06.13-.07.25.06-.2.08-.14.11-.25-.06ZM9.1,57.72s-.03.06-.05.09c.06.02.09.03.15.05l-.49.29c.08-.21.13-.37.2-.53,0-.02.14-.1.19.1ZM10.93,56.28c.02.12.05.24-.21.28.12-.37.07-.32.21-.28ZM11.58,55.9c-.1.07-.16.11-.22.16-.02-.04-.08-.09-.07-.13.03-.11.11-.14.29-.03ZM11.7,55.44c.15-.04.08-.04.26-.02-.09.12-.16.13-.26.02ZM12.29,54.75c-.03-.06-.07-.12-.06-.13.03-.03.08-.06.12-.07.02,0,.07.07.06.09-.02.04-.07.06-.12.11ZM11.97,54.87c-.07-.07-.06-.04-.03-.09.07.06.06.03.03.09ZM10.9,55.59c-.07-.07-.08-.02.09-.19.06.06.08.02-.09.19ZM10.53,55.45c.04-.08.1-.17.16-.28.15.21.3.23-.01.5-.01.01-.19-.11-.18-.13,0,0,0,0,0,0-.03-.01-.06-.03-.11-.06.05-.1.03-.11.14-.03ZM10.53,55.15s.05-.02.06,0c.02.03.03.07.04.1-.03,0-.05.02-.1.03,0-.05,0-.09,0-.13ZM10.6,54.78c.17.02.13.05.09.14-.07-.04-.05,0-.09-.14ZM10.3,54.62c.08.01.17,0,.22.04.1.07.07.15-.05.24-.22-.24-.2-.19-.17-.27ZM12.64,52.93c.24.2.21.16.19.23-.25-.02-.19.02-.19-.23ZM11.36,52.65c.19-.02.19-.06.37.08,0,0-.02.08-.04.08-.23.02-.21-.03-.33-.16ZM13.08,51.02c.15.06.24.09.32.13-.11.04-.2.04-.32-.13ZM15.21,46.48c.04.06.08.1.08.14-.01.27.02.24.5.2.01.03.02.06.03.08-.22.11-.46.17-.66.28-.31-.27-.06-.46.05-.7ZM15.65,46.21s.02.05.03.08c.02-.01.04-.02.08-.03.06.11.12.23.19.38-.11,0-.2.01-.3.02.03-.04.03-.08.02-.12-.19-.08-.17-.12-.02-.33ZM15.38,45.97c.1.17-.05.2-.15.32-.06-.19-.02-.28.15-.32ZM15.58,45.76c.11-.15-.02-.18-.11-.26.07-.04.13-.07.19-.1.03.1.06.17.09.25.19-.08.15-.08.2-.02-.04.05-.12.1-.13.16-.03.23-.19.28-.36.3.04-.11.05-.24.12-.33ZM15.28,45.8c-.12.1-.21.17-.31.26q-.13-.3.05-.47c.08.06.16.13.26.21ZM19.88,36.92c-.15,0-.13.05-.1-.23.11,0,.09-.04.1.23ZM19.85,37.4s.08.04.14.08c-.13.02-.24.01-.17.15-.02,0-.05,0-.07.01,0-.04-.02-.07-.02-.1,0,0,0,0-.01.01-.03-.19-.07-.37-.1-.57.26.2.33.28.24.42ZM19.48,37.42c-.11-.05-.1,0,0-.19.07.03.06,0,0,.19ZM20.59,37.16q-.16-.09-.18-.27c.13.06.23.1.18.27ZM20.18,37.41c.11-.04.15-.05.24-.08-.05.14-.1.13-.24.08ZM19.64,38.05c-.1-.02-.16-.04-.22-.05.01-.12.02-.23.03-.33.09-.04.04-.11.19.39ZM19.29,37.93s.01.05,0,.06c-.05.09-.08.02-.14-.04.08-.01.1-.02.13-.02ZM19.06,38.5c-.09.1-.02.12-.29-.11.21-.12.28-.04.29.11ZM19.26,38.21c.08-.06.03-.08.18.04-.14.03-.1.06-.18-.04ZM20.03,37.89s0-.06,0-.06c.06,0,.12,0,.18,0,0,.1.03.11-.18.06ZM18.43,41.76s-.14-.01-.19-.05c-.07-.05-.11-.13-.17-.21.17-.19.17-.06-.04-.59.24,0,.43,0,.63,0,0,.17-.08.25-.29.26.09.23.25.47.06.59ZM17.33,42.44c.05-.06.02-.07.18.08-.06.06-.02.07-.18-.08ZM15.91,44.05c.04.09.06.05-.15.15-.05-.1-.08-.07.15-.15ZM16.41,43.38s.02.02.03.03c0,0,0,0,0,0q.17.14.09.29c-.02-.07-.08-.11-.1-.17-.01,0-.02.01-.03.02-.02-.04-.05-.07-.06-.11,0-.01.06-.05.07-.05ZM16.49,43.1c0,.09.04.06-.16.08,0-.08-.04-.06.16-.08ZM16.3,42.86s.06.01-.05.13c-.05-.04-.06-.01.05-.13ZM16.73,42.46c.07.1.12.18.21.32-.36-.01-.37-.04-.21-.32ZM18.08,41.61c0,.39,0,.4-.36.63-.16.1-.31.11-.51-.03.71-.25.52-.11.87-.59ZM15.85,42.84s0,.06,0,.06c-.06,0-.12,0-.18,0,.01-.1-.02-.1.18-.05ZM16.56,42.08c.08.28.08.23.01.27-.12-.12-.1-.06-.01-.27ZM16.95,41.84q.17.11.12.25c-.04-.09-.07-.15-.12-.25ZM17.11,41.44c.1-.26.23-.18.35-.14-.11.04-.21.08-.35.14ZM16.4,41.62c.14-.05.09-.07.22.08-.18.03-.13.06-.22-.08ZM16.72,41.3c.22.26.21.2.13.29-.1-.05-.18-.12-.13-.29ZM19.29,39.11c.14.12.09.22,0,.3-.02.02-.05.04-.07.05.05.04.03.1-.05.2-.05-.07-.08-.12-.17-.24,0,0,.01,0,.02,0,0,0-.01,0-.02-.02.09-.1.18-.19.29-.29ZM19.38,38.54c.07.01.12.03.15.06.07-.06.09-.08.1-.09,0,0,0,0,0,0,0,0,0,0,0,0-.18-.25-.17-.18,0-.31.09.14.11.07,0,.31,0,0,0,0,0,0,0,0,0,0,0,0,0,0,0,0,0,0,0,0,0,0,0,0,0,0,0,0,0,0,.31.13.23.45-.01.45-.05-.06-.09-.12-.13-.18-.07,0-.16-.06-.11-.24ZM18.55,38.29s.07.08.08.13c.04.18-.15.18.19.14-.06.13.18.3-.05.39-.13-.09-.25-.18-.37-.27.05-.39.02-.27.16-.39ZM18.05,38.06q.17-.07.34.04c-.18.1-.13.25-.1.41-.2-.1-.21-.28-.24-.44ZM18.95,37.01c.28-.08.29-.08.41.14-.19.1-.22-.13-.41-.14ZM20.88,35.66c0,.12.02.17.01.21.03,0,.06-.01.08,0,.03-.01.08-.03.14-.05,0,.03.01.06.02.09-.03.02-.05.06-.08.08,0,.09-.07.15-.16.22-.01-.02-.02-.03-.04-.05-.07.05-.07.05-.15,0,0,.01-.02.02-.03.04,0-.02,0-.04,0-.06,0,0-.01,0-.02-.02,0-.01.01-.02.02-.03,0-.15,0-.3.2-.43ZM20.48,35.92c-.14.07-.08.12-.29-.26.15-.08.08-.12.29.26ZM18.93,36.29c.08,0,.16.02.28.03-.16.21.03.49-.24.61-.01-.21-.03-.41-.04-.64ZM20.89,35.04c.2.18.14.24-.04.29.01-.09.02-.16.04-.29ZM21.22,34.51c.07-.07.13-.14.23-.25.03.25-.13.21-.23.25ZM19.14,35.7c.09-.04.14-.08.2-.1,0,0,.06.06.05.08-.04.09-.1.12-.25.02ZM19.14,35.51c.06-.06.12-.12.18-.18.02.14-.03.21-.18.18ZM20.41,34.87s.04.09.05.15c0,0,0,0,0,0h0s0,0,0,0c.1-.06.16-.27.34-.12-.17.2-.17.2-.34.12,0,0,0,0,0,0,0,0,0,0,0,0-.01,0-.05,0-.19,0,.01-.12.06-.18.14-.14ZM20.53,34.4q.25-.13.25.09c-.09-.03-.17-.06-.25-.09ZM21.81,32.79c0-.08-.01-.16-.02-.26.09.04.15.06.24.1-.18.21-.14.18-.21.16ZM22.32,32.81c.15,0,.12-.05.15.2-.18-.04-.15.02-.15-.2ZM20.04,34.18c-.2.22-.29.04-.4.03.03-.1-.04-.08.4-.03ZM20.31,33.51c.05.04.09.08.17.15-.19.05-.2-.02-.17-.15ZM20.85,33.02c.21.14.16.38.33.46-.33.39-.22.28-.43.36-.02-.02-.03-.04-.05-.06.29-.4.25-.23.14-.76ZM23.98,29.41c-.26.15-.21.13-.28-.01.08-.02.16-.04.25-.06,0,0,.03.07.03.07ZM23.05,30.91c.05-.1,0-.1.22.06-.04.06,0,.07-.22-.06ZM21.4,31.58c.07.06.12.14.2.25-.19.04-.25.14-.35-.16,0-.01.13-.1.15-.09ZM22.05,31.05c.17.25.02.42-.11.59q-.03-.38.11-.59ZM21.82,31.06c-.03.11.01.25-.15.23-.11-.01-.18-.26.15-.23ZM22.92,30.09c-.03.09,0,.08-.18.02.05-.1.01-.1.18-.02ZM22.94,29.65c.21,0,.39-.01.58-.02.03.39-.96.57-.58.02ZM21.82,29.85c.15-.02.43-.08.48,0,.08.11-.08.24-.25.43-.22-.15-.28-.27-.24-.42ZM22.23,29.51s.07.03.14.06c-.07.06-.12.11-.18.17-.04-.11-.1-.2.05-.23ZM24.23,27.92c-.15.22-.32.35-.65.39.35-.44.18-.34.65-.39ZM23.76,27.38c.02-.05.05-.11.08-.18.41.11.21.38.01.74,0-.02-.02-.03-.06-.07-.05.02-.16.06-.16.22,0,.14-.1.16-.28.08.05-.13.12-.26.16-.39.08-.24,0-.51.26-.46,0,.02-.01.04-.02.06ZM24,25.32c.24.06.43.12.64.17-.03.15-.12.21-.28.2.04.11.04.08-.06.12,0,0,0,0,0,0,.04.21.07.42-.11.48-.05.02-.14-.05-.18-.1-.05-.07-.08-.16-.12-.25.22-.14.19-.02.11-.61ZM25.41,23.16c-.09.12.1.34-.15.39-.11-.13-.2-.24-.31-.37.16-.38.09-.27.26-.35.02.05.05.1.04.15,0,.19-.2.15.15.19ZM25.4,22.98c.25-.06.29.03.26.18-.11.08-.05.11-.26-.18ZM25.91,22.63c.08,0,.11,0,.14.01,0,.02,0,.05,0,.06-.08.08-.09,0-.13-.07ZM26.37,22.86c-.09-.05-.15-.08-.21-.11.04-.12.08-.22.12-.33.1-.02.07-.1.09.44ZM26.22,23.01c-.13.03-.2.05-.32.08.02-.05.05-.09.07-.12,0-.01-.01-.03-.02-.05.07-.03.07-.05.11,0,.04,0,.1.03.17.09ZM26.11,23.77c-.05-.12-.09-.23-.13-.32.18-.09.24-.12.26-.13,0,0,0,0,0,0,0,0,0,0,0,0-.11-.3-.12-.22.08-.31.05.17.09.1-.08.31,0,0,0,0,0,0,0,0,0,0,0,0h0s0,0,0,0c0,0,0,0,0,0,.28.21.12.52-.13.45ZM25.67,24.15c-.12.07-.22.04-.3-.08.12-.07.23-.14.37-.22.11.16.03.25-.07.31ZM24.14,25.25c0-.35.36-.2.52-.46-.11.46-.12.48-.52.46ZM26.02,24.69q0-.26.24-.2c-.08.07-.15.13-.24.2ZM25.96,24.75s-.05.03-.1.05c-.02-.05-.04-.09-.04-.13,0,0,.07-.04.08-.03.03.03.04.07.06.1ZM26.38,24.75c-.1-.06-.1,0,.05-.26.11.06.11,0-.05.26ZM25.99,24.97c-.05-.03-.1-.05-.19-.1.14-.07.17,0,.19.1ZM25.18,25.52c-.07-.08-.11-.13-.13-.17-.1.02-.07.02-.13-.09.12-.04.12-.05.15,0,.04-.03.1-.06.2-.11-.04.15-.06.25-.09.36ZM26.55,24.78s-.02-.05-.02-.05c.05-.03.1-.05.15-.07.04.09.07.07-.13.12ZM25.03,25.77c.03-.14-.02-.11.14-.13,0,.1.04.07-.14.13ZM24.95,25.96c-.14.1-.22.1-.25-.02,0-.02.02-.06.04-.09.06.03.12.06.21.1ZM23.15,27q.25-.17.53-.04c-.19.13-.33.24-.53.04ZM27.92,25.12c-.1,0-.08.02-.09-.1.07,0,.06-.03.09.1ZM26.52,26.05c-.03-.23-.09-.2.13-.25,0,0,.02.03.04.06-.04.04-.08.09-.17.19ZM27.48,25.72c0-.07.02-.13.03-.23.09.07.15.11.21.15-.02.08.02.06-.24.07ZM26.75,26.65c-.21-.08-.28-.21-.11-.4.04.13.07.27.11.4ZM27.61,27.2s-.06,0-.12,0c0-.06-.02-.16.13-.09.01,0,.01.07,0,.09ZM28.4,27.34s-.04-.02.1-.1c.02.04.04.02-.1.1ZM27.36,28.2c-.01-.23-.01-.14,0-.3q.18.14,0,.3ZM27.7,28.19c-.05-.17-.01-.22.15-.22-.05.08-.09.13-.15.22ZM28.8,28.1c-.09-.01-.07.02-.08-.12.11.03.09,0,.08.12ZM27.95,28.78s-.07,0-.09-.02c-.01-.02,0-.06.02-.11.05.02.08.03.1.06,0,.02-.01.07-.03.08ZM28.56,29.5c-.1.04-.19.07-.34.13.08-.31.19-.27.34-.13ZM28.63,29.34c.17-.11.26-.17.39-.25.04.32-.11.3-.39.25ZM29.85,29.81c-.23.06-.31-.06-.36-.27.13,0,.22,0,.33,0,.01.1.02.18.03.28ZM38.33,27.88c-.14.06-.09.07-.17-.02.12-.07.07-.06.17.02ZM37.05,30.31c.03-.16-.09-.2-.21-.26.16-.08.28,0,.4.06q-.04.15-.19.2ZM36.46,30.53c-.02-.1-.06-.07.21-.13-.03.19-.11.2-.21.13ZM36.44,30.9c.05-.11.01-.09.12-.1,0,.08.03.06-.12.1ZM36.71,30.96s-.04-.01-.04-.03c-.03-.08.03-.06.09-.07-.03.06-.04.08-.05.09ZM36.47,31.12c.06-.05.1-.08.14-.11.07.07.13.12.2.18-.02.08.05.08-.34-.07ZM36.33,31.59c-.06-.05-.08-.03.05-.14,0,0,.04.03.04.03-.03.04-.06.08-.09.12ZM35.63,32.51c-.01-.12-.02-.19-.03-.26.04,0,.09-.02.12,0,.08.07.09.15-.09.27ZM34.91,32.66c.04.07.05.05-.08.1-.02-.05-.03-.03.08-.1ZM34.13,33.94s.02.03.03.04c-.11.12-.07.09-.18.09,0-.06-.03-.03.15-.13ZM35.92,33.21s-.13-.06-.08-.21c.15.2.14.16.08.21ZM35.7,33.32c.03-.06,0-.06.21.05-.04.07,0,.08-.21-.05ZM35.23,33.86c-.3-.24-.27-.18-.2-.27.07.06.19.05.2.27ZM34.91,34.15s-.05-.06-.07-.08c.01.02.02.03.03.06-.28.06-.41-.12-.56-.26.16-.02.31-.03.44.08-.06-.09-.03-.12.14-.14.08.35.08.3.02.34ZM35.17,34.03c.04-.09-.02-.09.27.01-.04.12,0,.11-.27-.01ZM35.22,34.31s0-.05.11-.01c-.11.07-.09.07-.11.01ZM35.12,34.89c-.04-.29-.05-.24.04-.25.04.07.1.15-.04.25ZM35.04,35.09c-.11-.09-.19-.16-.27-.22.14,0,.33-.1.27.22ZM32.5,37.57c-.07.08-.03.09-.2-.07.05-.06.01-.07.2.07ZM32.39,37.28c.09.04.19.04.17.16,0,.06-.25.14-.17-.16ZM33.04,36.84c.17-.01.12-.03.16.11-.19-.03-.14,0-.16-.11ZM33.39,36.57c-.02-.18-.05-.12.16-.2-.06.23-.02.17-.16.2ZM32.65,36.77c0,.16.03.11-.1.16.01-.18,0-.14.1-.16ZM34.68,35.45c-.17-.23-.44-.29-.61-.47.06-.21.11-.39.16-.58.29.21.26.11.19.45.26.07.5.09.27.6ZM33.17,35.89c.04.06.05.03-.09.14-.07-.08-.08-.05.09-.14ZM32.53,35.94c.03-.09.06-.17.09-.26.09.11.15.2.23.3-.06.05-.11.13-.18.16-.12.05-.15.12-.11.23,0,.02-.02.06-.03.1-.22-.15-.12-.39-.25-.58.11.02.18.04.25.05ZM32.06,35.56c.08.17.07.25-.14.31.06-.13.09-.2.14-.31ZM32.43,35.14c.2.03.36.02.29.24-.02.05-.1.08-.19.15-.04-.15-.06-.25-.1-.39ZM29.99,30.1c.05-.31.35-.1.48-.24-.07.29-.35.08-.48.24ZM29.32,30.66s0-.04,0-.06c.05,0,.09.01.14.02,0,.07.02.07-.14.05ZM30.31,31.02c-.1.18-.16.29-.22.4-.09-.2.01-.28.22-.4ZM30.59,31.17c-.23-.06-.2-.02-.16-.16.22.09.18.05.16.16ZM30.71,31.53c-.07-.02-.14-.04-.2-.06.03-.18.13-.2.3-.17-.04.09-.06.15-.1.23ZM30.84,32.24c-.17-.06-.13-.03-.13-.14.18.03.14,0,.13.14ZM31.3,33.1c.28-.22.19-.17.35-.13-.01.05-.02.11-.05.14-.08.07-.18.08-.31,0ZM31.81,34.02c-.03-.22-.06-.4-.08-.61.13-.04.25-.08.4-.13.06.28-.17.42-.15.63,0,.03-.1.07-.17.11ZM32.19,35.23c-.18.02-.25-.2-.34-.49,0,.08-.01.2-.02.4-.24-.13-.21.04-.16-.74.06.07.11.11.14.14.11-.05.21-.09.29-.11.02-.04.04-.08.07-.12.03.04.06.07.08.1.13,0,.23.05.32.14-.09.23-.23.67-.38.69ZM33.04,35.08s-.07.02-.27.1c-.03-.08-.06-.15-.13-.3.18.09.29.15.39.2ZM33.93,34.8c-.3.64-1,.98-.92.76.04-.12.07-.19.1-.25-.06.03-.11,0-.18-.09.08-.07.15-.08.22-.02.02-.05-.01-.06-.1-.13,0,.02.08-.06.15-.06.2,0,.24-.14.25-.3.02-.28-.29-.42.48.09ZM33.76,34.37c-.03.09.03.09-.3,0,.03-.1-.03-.09.3,0ZM35.74,32.77c.12-.11.21-.2.37-.04-.12.1-.22.14-.37.04ZM33.78,33.35c.35.05.36.13.08.53-.18-.15-.05-.33-.08-.53ZM34.73,32.15c.14.1.27.18.4.27-.21.16-.29.17-.49.03-.02.14-.03.24-.06.42-.1-.2-.19-.3,0-.45,0,0,0,0-.01-.01.05-.08.09-.15.16-.26ZM35,31.33c.11.03.18.1.22.18,0,0,0,0,0,0q.2.27.14.39c-.07-.04-.12-.08-.15-.12-.05.07-.15.11-.31.07-.11-.03-.2-.1-.32-.16.13-.31.23-.4.41-.35ZM35.9,30.66c.1,0,.19,0,.27,0,0,.16.01.21.01.22,0,0,0,0,0,0,0,0,0,0,0,0,.25.01.2-.02.2.15-.14-.01-.09.03-.2-.15,0,0,0,0,0,0,0,0,0,0,0,0s0,0,0,0c0,0,0,0,0,0,0,0,0,0,0,0-.23.13-.4-.07-.28-.22ZM36.32,30.13c.12-.04.23-.07.35-.1.22.22.16.15.17.29-.04,0-.08,0-.12-.01-.13-.06-.04-.18-.18.05-.06-.1-.27-.03-.23-.22ZM35.77,30.24s0-.05,0-.07c-.05.01-.08-.03-.1-.13.07,0,.12,0,.24.01,0,0,0,0,0,.01,0,0,.01,0,.02,0,.01.11.03.21.05.33-.15.03-.18-.05-.19-.15ZM35.35,30.54c-.02-.08-.05-.15-.07-.23q.18.08.07.23ZM35.29,30.66c-.08.06-.04.07-.17-.11.07-.05.03-.07.17.11ZM35.2,30.31c0,.13.04.11-.2.09,0-.09-.03-.07.2-.09ZM36.6,29.01c.16.11.31.2.45.29-.2.05-.41.1-.66.16.08-.17.15-.32.21-.45ZM36.13,29.14c.11.04.2.08.35.14-.14.09-.22.14-.35.23,0-.16,0-.26,0-.37ZM37.75,28.01c.06.08.09.07-.12.16,0,0-.02-.03-.04-.05.05-.04.1-.07.16-.11ZM37.07,28.07c.08.25-.1.28-.27.4.04-.22.09-.34.27-.4ZM36.23,28.5s.05.01.05.02c-.01.05-.02.09-.04.14-.08-.03-.09,0-.01-.15ZM38.23,27.17s.03-.01.05-.02l.04.12s-.05.04-.08-.11ZM38.44,26.75c.07.13.11.21.19.37-.17-.02-.27-.03-.46-.06.12-.14.18-.21.27-.32ZM38.82,24.53s0-.04,0-.09c.09,0,.17,0,.32.01-.15.15-.23.15-.31.07ZM38.77,24.82c.07-.04.15-.08.26-.13-.01.26-.14.18-.26.13ZM38.38,25.46c.15-.09.24-.14.39-.22,0,.37.02.25-.03.44-.12-.07-.21-.12-.36-.22ZM37.82,25.3c.05-.02.1-.03.16-.04,0,0,.03.08.03.08-.04.03-.09.05-.15.08-.02-.06-.03-.09-.04-.12ZM38.14,24.82c.25.15.15.39.21.56-.19-.12-.27-.28-.21-.56ZM37.48,24.71c.11.04.26.03.23.28-.35-.26-.31-.2-.23-.28ZM40.79,20.82c.02.11.03.2-.09.23-.08.02-.16-.2.09-.23ZM40.44,21.93c-.23-.03-.2,0-.18-.13.08-.08.16-.08.21.05,0,.01-.01.03-.03.08ZM39.25,23.6s-.07-.06-.11-.09c.06-.07.05-.09.15.05,0,0-.04.04-.04.04ZM38.17,23.95c0,.41.03.34-.08.35q-.11-.21.08-.35ZM38.56,23.61q-.06.25-.19.12c.07-.04.13-.08.19-.12ZM39.39,22.04c.1.08.12.15.1.24.09.18.13.18.11.3.01.05.03.09.07.11-.04.02-.08.04-.11.05-.02.08-.06.18-.1.32-.18-.17-.22-.06-.07-.5,0-.04,0-.09,0-.14-.1-.14-.04-.25.01-.37ZM39.8,21.28c.14-.01.28-.02.44-.03-.01.3-.28.38-.31.6,0,.03-.12.04-.2.07.03-.23.05-.42.07-.64ZM39.26,21.2c.04.23-.09.3-.24.35-.08-.09-.1-.02.24-.35ZM41.7,18.35c.13.04.22.07.33.11q-.21.06-.33-.11ZM40.43,18.13c-.06,0-.11,0-.16,0q.07-.12.16,0ZM40.53,17.99c.04-.08,0-.07.17.01-.03.06,0,.06-.17-.01ZM43.36,14.83c-.01.11.07.26-.1.31-.09-.15.02-.22.1-.31ZM42.46,14.48s.03.08.05.13c-.05.02-.1.04-.1.04-.09-.15-.03-.13.05-.16ZM43.22,14.04c-.03.06,0,.06-.14-.01.04-.08.01-.08.14.01ZM44.95,11.33s-.1.26-.49.09c.18-.13.31-.22.49-.09ZM45.24,11.17s0,0,0,0c0,0,0,0,0,0-.02,0-.07.04-.27.16,0,0,0,0,0,0,0,0,0,0,0,0,0,0,0,0,0,0-.02-.08-.04-.16-.08-.33.17.08.26.13.36.17ZM45.53,11.42c-.13-.12-.21-.19-.29-.26,0,.04.23-.1.29.26ZM45.29,11.97c-.31.1-.6.2-.92.31,0-.21,0-.36,0-.51.08.03.18.08.18.08.1-.16.18-.06.4-.05-.02-.01-.02-.06-.05-.22.15.05.19.11.12.22.09.06.3-.04.27.19ZM43.13,13.56c-.16-.02-.13.02-.09-.21.12,0,.09-.03.09.21ZM44.45,13.64c-.79-.17-.68-.12-.69-.23.42-.24.21-.06.23-.45,0-.04.08-.09.12-.09.04,0,.12.08.11.1-.08.2.08.29.17.41.03.05.03.12.07.26ZM44.54,13.89c-.05-.2-.1-.14.24-.28-.11.21-.04.15-.24.28ZM46.21,17.59c.09-.21.18-.32.37-.33.02.27-.17.26-.37.33ZM47.05,17.83c-.18-.22-.16-.3.03-.4-.01.14-.02.23-.03.4ZM47.81,19.17c.1-.1.06-.08.14-.05-.07.11-.04.09-.14.05ZM49.68,20.28c-.09-.04-.08,0-.07-.13.1.02.09-.02.07.13ZM49.58,20.6s-.05,0-.09-.01c.02-.04.03-.08.06-.1,0,0,.07.02.06.03,0,.03-.01.06-.03.09ZM49.76,22.03c.06-.2.16-.27.39-.18-.08.21-.2.23-.39.18ZM50.04,22.24c-.15.04-.25.07-.39.11-.01-.11-.02-.19-.04-.29.09.06.18.07.28.07.04,0,.07.05.14.11ZM49.52,22.56c0-.08.04-.12.18-.11-.15.19-.11.17-.18.11ZM50.28,22.24c0-.06-.03-.04.15-.05-.01.07.02.06-.15.05ZM48.57,21.85c.08.05.24.1.23.15,0,.16.13.35-.1.49.18.07.23.19.13.34.06.03.1.05.16.08-.01.03-.06.23-.12.22-.08-.02-.13-.07-.29-.46-.03-.07-.03-.14-.04-.2-.4-.19-.27-.28.03-.62ZM48.85,20.52c.02.07.09.12.11.18.05-.02.1-.04.17-.06-.02-.03-.02-.09,0-.21q.22.06.19.26c-.05,0-.09-.01-.12-.02.1.11.34.05.36.27.01.13.46.22.17.6.04.06.07.1.15.2-.27-.07-.17-.02-.4-.17.04.34,0,.38-.4.42.14-.14.1-.28,0-.4.06-.03.09-.04.19-.08-.12-.1-.19-.17-.28-.24.1-.07.19-.13.28-.19-.18-.19-.37-.25-.46-.28-.04,0-.08,0-.12,0-.03-.09-.05-.04.18-.28ZM48.42,20.15c.19-.18.28-.3.37-.21.07.07.01.34-.36.21h0ZM48.28,19.92s.07-.03.11-.04c.02.14.07.33,0,.25-.05-.07-.18-.08-.12-.21ZM48.85,19.88c-.13-.14-.22-.23-.35-.36.3.02.3.03.35.36ZM49.67,19.02s.02.03.04.04c-.07.1-.02.08-.2.12-.02-.07-.05-.04.17-.16ZM50.49,18.31c.05.31.35-.04.43.22-.15.08-.3.16-.45.24-.19-.14-.17-.28.02-.47ZM53.18,12.73s-.01.04-.03.08c-.03-.02-.06-.03-.07-.04,0-.02.01-.05.03-.06.01,0,.06.01.06.03ZM53.25,12.77c-.02-.12-.03-.08.08-.12,0,.13.03.1-.08.12ZM51.46,17.23c.03-.27.06-.29.29-.17l-.29.17ZM50.42,17.24c.2-.06.26.07.25.19,0,.15-.07.3-.11.44,0,.01-.06,0-.14.01,0-.22,0-.44,0-.65ZM52.04,15.37c.13-.03.08-.05.2.1-.16,0-.11.03-.2-.1ZM51.3,14.16c.28.04.02.65.34,1.1.15.22,0,.39-.3.39-.06-.4-.11-.8-.38-1.16.05-.05.11-.09.12-.13.02-.14.09-.21.23-.19ZM52.44,12.91c.48.12.56.11.35.43-.45-.41-.4-.34-.35-.43ZM53.66,10.8c.16-.15.09-.13.24-.02-.21.13-.14.11-.24.02ZM53.51,10.65c-.02.09-.04.17-.07.29-.08-.05-.13-.08-.18-.11.2-.25.14-.2.25-.18ZM52.85,10.4c.03.1.06.06-.2.17-.01-.19.06-.16.2-.17ZM53.31,9.97c.13.02.11-.02.07.19-.09-.01-.07.03-.07-.19ZM53.6,9.72c-.18.25-.14.22-.21.18.02-.16-.03-.11.21-.18ZM54,9.08s.09.03.12.06c.01.02-.02.1-.04.1-.04.01-.09,0-.17-.02.04-.07.06-.13.1-.15ZM52.97,9.4s.07-.02.14-.03c0,.07,0,.13-.02.15-.02.02-.09.02-.11,0-.02-.02-.02-.09,0-.11ZM54.62,8.08s.02.03-.12.05c0-.08-.03-.07.12-.05ZM57.78,4.56c-.75-.37-.66-.29-.64-.41.49-.13.23-.01.35-.4.01-.04.1-.08.14-.06.04.01.1.11.09.13-.13.18.01.31.06.46.02.06,0,.13,0,.28ZM53.24,7.83c0,.13,0,.1-.08.1.01-.13-.01-.1.08-.1ZM53.36,6.89c.16-.06.29-.11.42-.16q-.16.23-.42.16ZM53.6,7.25s-.04,0-.07,0c-.04-.07-.08-.15-.15-.28.28,0,.29.11.22.27ZM57.11,6.92c-.07,0-.06.02-.04-.13.06,0,.05-.02.04.13ZM58.95,9.38c-.07,0-.05.04-.07-.16.06,0,.05-.04.07.16ZM60.12,10.41q-.21-.07-.12-.2c.04.07.08.13.12.2ZM60.29,10.48c.03-.08,0-.07.13-.06-.05.1-.01.09-.13.06ZM60.04,11.91s.08,0,.12-.01c-.01.15-.02.35-.06.25-.03-.08-.17-.13-.07-.24ZM60.44,11.54s-.03.03-.05.04c.27.09.27.11.23.44-.1-.17-.16-.28-.25-.43-.04.03-.09.06-.14.1q0-.22.21-.15ZM61.38,11.11c-.1,0-.19.04-.24.02-.11-.06-.14-.17-.07-.31.19,0,.23.12.31.29ZM61.98,11.25c-.13-.17-.24-.33-.38-.52.2-.03.38-.05.48.15.07.15.03.29-.1.37ZM61.47,11.47c0-.08-.04-.05.21-.12,0,.02.02.03.03.05-.1.09-.04.08-.24.07ZM60.13,12.18h0c.24-.13.36-.23.43-.12.06.09-.08.35-.42.12ZM62.21,11.86c.03-.07-.01-.06.2,0-.04.1,0,.09-.2,0ZM62.14,12.66c-.11-.11-.2-.18-.1-.33.17.06.13.17.1.33ZM62.46,12.98c-.4.02-.28.04-.41-.16.22-.09.12-.13.43.09,0,.02-.01.05-.02.07ZM62.62,12.96c-.05-.07.12-.24.23-.02-.09.09-.17.12-.23.02ZM64.13,14.82c.01-.07.02-.13.04-.28.09.18.19.26-.04.28ZM63.94,15.74c-.16-.09-.29-.17-.49-.28.15-.06.26-.1.35-.14q.25.33.14.42ZM64.19,17.94s0-.01,0-.02c-.05.02-.21.1-.27-.09.16-.12.21-.02.27.09.02,0,.03,0,0,.02ZM64.25,18.29c-.02-.12-.04-.24-.05-.35.03.03.29.01.05.35ZM65.59,17.84c-.12,0-.09.05-.13-.16.12-.03.09-.06.13.16Z"/>
</svg>