<?xml version="1.0" encoding="UTF-8"?>
<svg id="Capa_1" data-name="Capa 1" xmlns="http://www.w3.org/2000/svg" viewBox="0 0 16.76 18.39">
  <defs>
    <style>
      .cls-1 {
        fill: #fff;
      }
    </style>
  </defs>
  <path class="cls-1" d="m16.4.36h0c-.48-.48-1.25-.48-1.73,0l-6.3,6.3L2.09.38C1.61-.1.84-.1.36.38h0C-.12.86-.12,1.63.36,2.11l7.15,7.15c.48.48,1.25.48,1.73,0l7.16-7.16c.48-.48.48-1.25,0-1.73h0Z"/>
  <path class="cls-1" d="m16.4,9.13h0c-.48-.48-1.25-.48-1.73,0l-6.3,6.3-6.28-6.28c-.48-.48-1.25-.48-1.73,0h0c-.48.48-.48,1.25,0,1.73l7.15,7.15c.48.48,1.25.48,1.73,0l7.16-7.16c.48-.48.48-1.25,0-1.73h0Z"/>
</svg>