<?xml version="1.0" encoding="UTF-8"?>
<svg id="Capa_1" data-name="Capa 1" xmlns="http://www.w3.org/2000/svg" viewBox="0 0 169.96 61.89">
  <defs>
    <style>
      .cls-1 {
        fill: #fff;
      }

      .cls-2 {
        fill: #f50000;
        fill-rule: evenodd;
      }
    </style>
  </defs>
  <g>
    <path class="cls-2" d="m.58,54.49c.06-.15,1.07-.5,1.18-.29-.37.06-.72.11-1.18.29Z"/>
    <path class="cls-2" d="m.52,45.37c-.23.29-1.04.27,0,0h0Z"/>
    <path class="cls-2" d="m4.45,53.68c.16-.34.59-.37,1.06-.46-.18.31-.75.23-1.06.46Z"/>
    <path class="cls-2" d="m4.14,45.43c.05-.1.07-.2.25-.25.2.06.02.21.08.36-.37.13-.06-.17-.34-.11Z"/>
    <path class="cls-2" d="m8.89,43.94c0-.12.35-.14.5-.22-.02.21-.28.13-.5.22Z"/>
    <path class="cls-2" d="m10.82,51.94c0-.09.49-.38.51-.16-.25,0-.24.07-.51.16Z"/>
    <path class="cls-2" d="m8.65,41.22c-.08-.17.56-.25.54-.06-.26.12-.31-.02-.54.06Z"/>
    <path class="cls-2" d="m11.6,51.63c.54-.39.52-.29,1.34-.6-.19.28-.82.43-1.34.6Z"/>
    <path class="cls-2" d="m13.2,52.16c.12-.16.36.08.68-.11-.14.19-.57.18-.68.11Z"/>
    <path class="cls-2" d="m14.03,52.05c0-.11.26-.14.25-.25.1-.02.09.11.12.18-.09-.02-.21,0-.37.07Z"/>
    <path class="cls-2" d="m13.79,50.65c.31.13.72-.13,1.18-.27-.23.24-.96.62-1.18.27Z"/>
    <path class="cls-2" d="m16.74,61.88c-.11-.16.21-.16.28-.14.67-.23-.22.21-.28.14Z"/>
    <path class="cls-2" d="m12.8,42.89c-.23,0,.04-.23.26-.25.16.16-.31.12-.26.25Z"/>
    <path class="cls-2" d="m15.49,48.17c-.03-.24.44-.38.69-.38-.1.24-.51.13-.69.38Z"/>
    <path class="cls-2" d="m15.99,49.38c.03-.06.18-.14.05-.13.04-.15.33-.06.33.06-.06.06-.15.11-.28.14,0-.06-.04-.09-.1-.08Z"/>
    <path class="cls-2" d="m16.8,47.1c-.24,0,.4-.21.44-.14.02.04-.02.06-.06.07-.06,0-.06.04-.06.07-.12.01-.1-.14-.31-.01Z"/>
    <path class="cls-2" d="m16.67,41.67c-.18-.05.53-.2.72-.28-.16.22-.36.13-.72.28Z"/>
    <path class="cls-2" d="m18.05,43.65c.1-.03.19-.06.29-.09.1.18-.3.31-.29.09Z"/>
    <path class="cls-2" d="m19.49,43.09c.08-.33.51-.09.8-.25-.1.14-.66.27-.8.25Z"/>
    <path class="cls-2" d="m22.77,51.22c.21-.08.25.05.46-.03.02.17-.45.21-.46.03Z"/>
    <path class="cls-2" d="m23.72,43.92c.07-.18.46-.29.63-.31-.13.13-.44.2-.63.31Z"/>
    <path class="cls-2" d="m24.81,43.58c.03-.19.64-.19.92-.4-.09.19-.79.37-.92.4Z"/>
    <path class="cls-2" d="m27.88,50.18c.07-.15.52-.2.47.02-.24.1-.16-.19-.47-.02Z"/>
    <path class="cls-2" d="m26.72,43.42c.02-.2.4-.28.69-.38.08.11-.48.23-.17.27-.07.16-.34.02-.52.11Z"/>
    <path class="cls-2" d="m27.99,42.82c.17.06,0,.11-.03.23-.14,0-.39.12-.4-.05.06,0,.13.02.23-.01.07-.06.05-.14.2-.17Z"/>
    <path class="cls-2" d="m27.91,42.79c.17-.21.49.03.73-.22-.04.27-.58.32-.73.22Z"/>
    <path class="cls-2" d="m27.54,33.88c-.08-.2.34-.18.37-.11-.03.17-.2-.01-.37.11Z"/>
    <path class="cls-2" d="m29.98,37.59c-.1-.18.45-.25.38-.06-.09-.02-.21,0-.38.06Z"/>
    <path class="cls-2" d="m30.94,34.79c.09-.11.35-.26.5-.2,0,.12-.36.13-.5.2Z"/>
    <path class="cls-2" d="m30.38,25.56c.03-.08.14-.14.27-.19,0,.09.11.08.12.18-.07.02-.15.04-.22.07.09-.12.04-.14-.17-.06Z"/>
    <path class="cls-2" d="m36.41,38.58c.96-.44,1.98-.56,3.08-.85-.93.82-2.1.39-3.08.85Z"/>
    <path class="cls-2" d="m34.56,29.78c-.05-.16.36-.35.37-.11-.12.04-.25.07-.37.11Z"/>
    <path class="cls-2" d="m34.62,27.42c.02-.12.44-.18.52-.15-.08.19-.33.05-.52.15Z"/>
    <path class="cls-2" d="m35.95,29.32c.09-.11.26-.19.49-.26.1.18-.33.17-.49.26Z"/>
    <path class="cls-2" d="m36.78,28.42c-.36,0,.45-.34.37-.1-.17.12-.34-.06-.37.1Z"/>
    <path class="cls-2" d="m37.3,28.27c-.06-.12.6-.37.59-.17-.24,0-.26.1-.59.17Z"/>
    <path class="cls-2" d="m39.6,37.87c-.07-.22.5-.2.46-.4.18-.02.36-.03.41.1-.22.21-.69.17-.87.3Z"/>
    <path class="cls-2" d="m40.22,35.24c-.3-.07.32-.2.49-.25.02.04-.02.06-.06.07l.02.1c-.16.07-.43-.05-.45.07Z"/>
    <path class="cls-2" d="m41.59,35.13c.08-.14.14-.3.47-.35-.19.11-.25.26-.47.35Z"/>
    <path class="cls-2" d="m41.01,30c.08-.1.23-.17.42-.23.05.16-.28.28-.42.23Z"/>
    <path class="cls-2" d="m40.58,27.13c0-.06.14-.08.13-.14.17.11.21.06.4.05-.09.17-.44.13-.53.09Z"/>
    <path class="cls-2" d="m40.08,22.8c-.1-.18.34-.16.5-.25.02.15-.29.18-.5.25Z"/>
    <path class="cls-2" d="m47.76,46.85c.07-.15.19-.28.38-.38.05.06-.26.21-.04.17-.05.09-.16.16-.34.21Z"/>
    <path class="cls-2" d="m44.09,27.12c.12-.13.69-.24.76-.11-.22,0-.48.04-.76.11Z"/>
    <path class="cls-2" d="m49.29,47.56c.03-.05.06-.11.04-.18.4.06.43-.03.95-.22-.14.29-.67.39-1,.39Z"/>
    <path class="cls-2" d="m49.34,45.53c.08-.19.54-.24.85-.35-.16.19-.41.2-.85.35Z"/>
    <path class="cls-2" d="m50.45,47.23c-.1-.29.49-.07.33-.26-.02-.13.24-.08.23-.01,1-.33.35.03-.06.07-.07.02-.04.08-.05.12-.21.1-.23-.03-.45.07Z"/>
    <path class="cls-2" d="m46.06,24.11c.04-.13.26-.29.42-.23-.08.1-.24.17-.42.23Z"/>
    <path class="cls-2" d="m46.87,26.23c.27.15.53-.11.73-.26-.05.06-.06.14-.03.23-.26.05-.41.14-.58.22-.07-.03-.1-.09-.12-.19Z"/>
    <path class="cls-2" d="m46.9,25.56c.53-.22.97-.76,1.5-.7.01.12-.31.11-.43.18.04.14.33,0,.54-.04-.28.21-1.19.59-1.6.56Z"/>
    <path class="cls-2" d="m51.98,46.8c-.02-.15.28-.18.49-.24-.05.12-.26.19-.49.24Z"/>
    <path class="cls-2" d="m52.64,46.67c-.07-.15.12-.21.33-.25-.02.12-.07.23-.33.25Z"/>
    <path class="cls-2" d="m53.13,46.43c-.05-.25,1.02,0,.77-.37.12.04.24.18.13.29-.44.05-.45.01-.9.08Z"/>
    <path class="cls-2" d="m49.6,24.65l-.03-.16c.19.04.43.03.76-.09.05.13-.42.06-.27.23-.14-.01-.22-.09-.47.02Z"/>
    <path class="cls-2" d="m51.39,33.31c.26-.06.56-.17.62,0-.26.06-.59.2-.62,0Z"/>
    <path class="cls-2" d="m50.38,24.66c.09-.15.14-.14.02-.28.17.07.36-.07.35-.2.23-.09.08.25.34.13-.24.11-.39.27-.71.35Z"/>
    <path class="cls-2" d="m50.39,23.52c.04-.13.46-.3.45-.07-.1-.04-.27.01-.45.07Z"/>
    <path class="cls-2" d="m51.18,24.39c.13-.15.32-.28.57-.26-.1.12-.31.2-.57.26Z"/>
    <path class="cls-2" d="m51.37,24.56c.05-.2.22-.21.43-.17.01.12-.31.11-.43.17Z"/>
    <path class="cls-2" d="m51.93,23.05c-.12-.02.66-.29.73-.25-.08.15-.51.16-.73.25Z"/>
    <path class="cls-2" d="m56.41,45.17c-.01-.12.16-.16.34-.2.08.14-.04.21-.01.33-.14-.01-.16-.16-.33-.13Z"/>
    <path class="cls-2" d="m52.77,24.51c-.14-.15.8-.48.86-.39.02.03-.76.3-.86.39Z"/>
    <path class="cls-2" d="m52.76,20.11l.22-.06c.09.03.12.25-.1.3.03-.16-.13-.11-.12-.24Z"/>
    <path class="cls-2" d="m57.48,43.96c.07-.1.02-.25.25-.29,0,.13,0,.25-.25.29Z"/>
    <path class="cls-2" d="m58.43,43.71c-.03-.16.23-.2.41-.27.03.16-.23.2-.41.27Z"/>
    <path class="cls-2" d="m55.01,23.26c.1-.14-.02-.06-.04-.21.12.03.34-.04.34.13-.1.03-.2.05-.3.08Z"/>
    <path class="cls-2" d="m56.19,23.32c.04.08-.04.11-.13.14,0,.06.03.09.09.08-.22.25-.31-.18.03-.23Z"/>
    <path class="cls-2" d="m55.62,20.76c.39-.25.56-.03.95-.31.07.27-.82.4-.95.31Z"/>
    <path class="cls-2" d="m56.66,23.31c.02-.17.24-.26.39-.38-.04.06-.14.24.1.14.05.06-.26.2-.04.17-.21.27-.21-.19-.45.07Z"/>
    <path class="cls-2" d="m56.54,22.68c.11-.3.78-.22,1.04-.28-.4.28-.64.03-1.04.28Z"/>
    <path class="cls-2" d="m60.83,43.44c.17-.19.5-.03.81-.16-.17.19-.61.15-.81.16Z"/>
    <path class="cls-2" d="m58.68,20.04c-.09.01-.08-.08-.1-.14.24-.02.46-.3.33-.31.34-.22.7-.14,1.1-.35-.05.06-.06.14-.04.23-.64-.05-.79.36-1.3.57Z"/>
    <path class="cls-2" d="m59.69,22.06c.16-.15.76-.36.54-.04-.13-.17-.33.12-.54.04Z"/>
    <path class="cls-2" d="m59.8,18.98c-.14-.13.46-.28.37-.1-.12.03-.25.06-.37.1Z"/>
    <path class="cls-2" d="m60.48,21.74c-.13-.06.58-.19.72-.29-.05.26-.4.22-.72.29Z"/>
    <path class="cls-2" d="m60.59,21.87c.41-.2,1.07-.13,1.39-.03-.31.21-.86-.04-1.39.03Z"/>
    <path class="cls-2" d="m60.19,19.37c0-.31.46.08.43-.22.1,0,.09.11.11.19-.28,0-.35.01-.54.03Z"/>
    <path class="cls-2" d="m60.84,21.16c-.03-.11.26-.09.36-.15-.02.17-.03.11.05.26-.18,0-.23-.12-.41-.11Z"/>
    <path class="cls-2" d="m61.22,20.68c.05-.15.25-.33.35-.2-.05.09-.17.16-.35.2Z"/>
    <path class="cls-2" d="m62.03,20.86c.19-.17.67-.45.87-.33-.11.14-.27.08-.11.24-.15-.09-.45,0-.76.09Z"/>
    <path class="cls-2" d="m65.74,31.63c-.09.01-.08-.08-.1-.14.23-.1.24.02.39.01.01.19-.34-.01-.29.13Z"/>
    <path class="cls-2" d="m64.12,20.43c-.18-.24,1.32-.58,1.13-.18-.09.01-.08-.08-.1-.14-.28.18-.75.08-1.03.32Z"/>
    <path class="cls-2" d="m67.25,31.84c.11-.09.2-.26.35-.2l.03.16c-.17.06-.28.06-.38.04Z"/>
    <path class="cls-2" d="m67.92,30.86c-.07-.05.52-.24.79-.31-.12.16-.47.23-.79.31Z"/>
    <path class="cls-2" d="m70.65,41.55c.22-.05.27.07.47.04-.06.12-.45.09-.47-.04Z"/>
    <path class="cls-2" d="m69.45,31.23c.09-.16.13-.33.47-.39-.12.14-.21.3-.47.39Z"/>
    <path class="cls-2" d="m68.06,19c.01-.12.36-.11.51-.18-.06.15-.28.19-.51.18Z"/>
    <path class="cls-2" d="m70.41,30.61c0-.11.27-.12.27-.23.06-.03.07,0,.08.03,0,.05.04.04.08.03-.04.12-.3.22-.43.16Z"/>
    <path class="cls-2" d="m73.67,40.95l-.03-.16c.19.02,1.48-.4.52-.08-.15.08-.22.2-.49.23Z"/>
    <path class="cls-2" d="m74.3,42.74c.07-.17.38-.2.57-.2-.03.13-.41.12-.57.2Z"/>
    <path class="cls-2" d="m73.47,29.61c-.02-.21.73-.29.87-.27-.1.1-.67.09-.87.27Z"/>
    <path class="cls-2" d="m76.06,42.35c.2-.09.31-.3.43-.16-.14.15-.24.26-.43.16Z"/>
    <path class="cls-2" d="m76.68,42.42l-.03-.16c.12.04.33-.03.33.14-.13.04-.17-.03-.3.02Z"/>
    <path class="cls-2" d="m73.37,17.45c.04-.13.15-.23.42-.26-.02.14-.26.18-.42.26Z"/>
    <path class="cls-2" d="m77.6,39.87c-.3-.05.26-.14.18-.26.13-.02.18.05.18.17-.17.11-.33-.08-.37.09Z"/>
    <path class="cls-2" d="m78.16,41.74c-.02-.22.26-.04.42-.21,0,.05.02.1.03.16-.22.09-.23-.04-.45.05Z"/>
    <path class="cls-2" d="m78.43,41.08c-.24-.06.53-.1.33-.3.38.02.01.29-.33.3Z"/>
    <path class="cls-2" d="m79.38,41.72c0-.05.08-.06.14-.09.08-.03.03-.06,0-.05.01-.08.18-.09.28-.12.08.18-.19.21-.41.26Z"/>
    <path class="cls-2" d="m80.24,40.59c-.01-.07-.02-.14-.04-.21.11.05.33-.03.52-.07.02.17-.31.19-.48.28Z"/>
    <path class="cls-2" d="m82.27,41.29c.23-.13.44-.26.69-.38-.07.19-.33.31-.69.38Z"/>
    <path class="cls-2" d="m77.88,16.2c.07-.21.64-.13.97-.23.05.13-.43.05-.27.23-.22-.14-.34-.02-.7,0Z"/>
    <path class="cls-2" d="m89.57,39.51c-.01-.07-.02-.14-.04-.21,0,.14.47.13.23,0,.08-.2.2.07.37-.03-.1.12-.31.19-.57.24Z"/>
    <path class="cls-2" d="m93.53,38.61c.05-.12.26-.18.5-.22-.19.12-.25.25-.5.22Z"/>
    <path class="cls-2" d="m89.49,11.49c0-.11.33-.09.36-.19-.06-.04-.15-.05-.24-.05.11-.18.4-.06.33.14-.27.02-.3.17-.45.1Z"/>
    <path class="cls-2" d="m94.65,37.11c.04-.06.07-.11-.02-.1.15-.15.15.08.44-.1.01.13-.23.16-.42.2Z"/>
    <path class="cls-2" d="m94.96,37.64c.09-.13.61-.2.73-.17-.09.12-.61.2-.73.17Z"/>
    <path class="cls-2" d="m95.14,36.89c.21-.11.47-.11.81-.18-.11.14-.57.14-.72.27,0-.06-.03-.09-.09-.09Z"/>
    <path class="cls-2" d="m99.06,38.11c.15-.18.46-.02.65-.2.04.29-.41.14-.65.2Z"/>
    <path class="cls-2" d="m98.98,37.59c-.12-.15.23-.09.11-.24.17-.05.1.13.24.11-.04.19-.13.06-.36.14Z"/>
    <path class="cls-2" d="m99.33,38.37c.1.05.35-.05.46,0-.14.16-.42.21-.46,0Z"/>
    <path class="cls-2" d="m100.3,37.3c.19-.18.92-.39,1.09-.29-.03.11-.17.18-.34.23.28-.2-.66-.07-.43.15-.19.06-.09-.19-.32-.09Z"/>
    <path class="cls-2" d="m102.89,36.43l-.02-.16c.26-.11.15.17.39.08,0,.13-.32.1-.37.08Z"/>
    <path class="cls-2" d="m104.29,36.67c.02-.29.41-.12.64-.3-.02.19-.48.17-.64.3Z"/>
    <path class="cls-2" d="m104.69,37.77l-.02-.16c.07.11.5-.16.46.06-.15.03-.29.06-.44.09Z"/>
    <path class="cls-2" d="m104.27,8.59c0-.14.32-.18.65-.3-.01.09.07.09.17.07-.17.13-.55.06-.81.23Z"/>
    <path class="cls-2" d="m109.4,37.9c.08-.12.44-.12.57-.23-.03.19-.39.23-.57.23Z"/>
    <path class="cls-2" d="m111.99,7c.04-.11.18-.18.35-.23.13.19-.15.19-.35.23Z"/>
    <path class="cls-2" d="m118.97,5.13c.04-.06.2-.12.06-.12.31-.21.82-.25,1.2-.23-.44.14-.72.18-1.26.35Z"/>
    <path class="cls-2" d="m119.22,5.78c.13-.17.41-.27.56-.43-.03.31-.21.33-.56.43Z"/>
    <path class="cls-2" d="m120.37,5.19c-.02-.06-.14-.02-.23-.01.06-.16.42-.2.49-.36.13.01.06.11-.06.12.09.17.03.13.12.3-.27.07-.45.18-.65.28-.12-.02-.18-.1-.19-.23.19-.21.39.06.53-.1Z"/>
    <path class="cls-2" d="m120.68,4.65c.07-.22.34-.13.51-.2.27-.12-.12-.28.3-.06-.29.18-.48.13-.81.26Z"/>
    <path class="cls-2" d="m125.5,34.96c.02-.35.34,0,.57-.21.07.2-.39.14-.57.21Z"/>
    <path class="cls-2" d="m123.01,4.21c-.08-.06.56-.19.81-.26-.17.13-.47.2-.81.26Z"/>
    <path class="cls-2" d="m124.56,4.3c.16.07.19-.03.38-.07.1.2-.42.29-.38.07Z"/>
    <path class="cls-2" d="m125.43,5.05c.12-.11.2-.03.44-.14.1.18-.38.17-.44.14Z"/>
    <path class="cls-2" d="m131.07,34.89c.27.05.32-.09.58-.16,0,.16-.52.46-.58.16Z"/>
    <path class="cls-2" d="m127.85,10.3l-.02-.16c.17-.16.44-.08.67-.12-.24.09-.35.23-.65.28Z"/>
    <path class="cls-2" d="m130.51,7.87c0-.1.11-.14.29-.16,0,.06.03.09.09.09,0,.13-.32.09-.37.07Z"/>
    <path class="cls-2" d="m130.7,7.57c.12-.1.28-.03.52-.15.07.18-.2.2-.43.24,0-.06-.03-.09-.09-.09Z"/>
    <path class="cls-2" d="m131.4,5.88c.22-.15.34-.16.65-.33.04.04.08.08.16.08.05.12-.35.03-.21.2-.24-.03-.26.03-.61.06Z"/>
    <path class="cls-2" d="m134.77,11.09c-.06-.28.5-.08.73-.29,0-.24-.37-.08-.54-.01.04-.42.8.06.71-.39.18,0,.35.02.61-.05.1.18-.29.12-.43.18.3.16-.23.22.13.41-.41-.04-.73.01-1.2.15Z"/>
    <path class="cls-2" d="m138.94,33.54c-.08-.29.39-.03.41-.29.16.07-.2.33.13.41-.23.24-.32-.16-.54-.12Z"/>
    <path class="cls-2" d="m140.97,32.39c.36-.17-.25-.22.4-.39l.03.26c-.26.06-.16.18-.44.13Z"/>
    <path class="cls-2" d="m141.39,32.74c.41-.17.47-.52.97-.65.01-.09-.08-.08-.09-.14-.16.1-.4.16-.57.26-.06-.14.14-.52-.36-.47.33-.34.61.28,1.14.12.03.23.17.34.35.42-.14.16-.27.32-.47.46-.27.06-.39-.02-.47-.13-.16.16-.19.08-.51.14Z"/>
    <path class="cls-2" d="m142.06,30.97c.52-.13.07.32.56.23-.13.07-.19.17-.35.22.04-.25-.22-.22-.21-.45Z"/>
    <path class="cls-2" d="m141.42,7.42c.19-.18.04-.14-.04-.31.14-.02.15-.09.29-.1-.12.12.12.42-.25.42Z"/>
    <path class="cls-2" d="m141.71,4.32c.12-.13.43-.23.39.04-.23.08-.16-.12-.39-.04Z"/>
    <path class="cls-2" d="m143.83,2.83c-.06-.18.66-.23.75-.17.18-.06.14-.22.19-.35.21.08.29.27.44.41-.13.11-.86.17-.69,0-.24.05-.44.13-.68.11Z"/>
    <path class="cls-2" d="m145.66,8.32c.11-.16.52-.11.61-.04-.08.13-.41,0-.61.04Z"/>
    <path class="cls-2" d="m148,9.34c.24-.1.39-.23.65-.32.02.28-.36.31-.65.32Z"/>
    <path class="cls-2" d="m149.34,16.58l-.02-.16c.11.01.38-.12.38,0,.1.16-.22.12-.36.16Z"/>
    <path class="cls-2" d="m149.84,16.93c0-.14.17-.21.35-.27,0,.16.3.14.11.3-.23.06-.19-.13-.46-.03Z"/>
    <path class="cls-2" d="m152.78,31.3c.35-.09.42-.22.74-.12,0,.07-.21.1-.22.04-.1.06-.22.12-.2.25-.19.02-.3-.03-.32-.16Z"/>
    <path class="cls-2" d="m152.95,31.54c.5.17,1.21-.11,1.6.23-.3-.07-1.38.11-1.6-.23Z"/>
    <path class="cls-2" d="m151.83,12.01c.15-.07.52-.19.54.02-.21.02-.32-.05-.54-.02Z"/>
    <path class="cls-2" d="m155.05,30.24c.03-.17.08-.32.33-.37.02.14.06.3-.03.38-.07-.03-.17-.03-.3,0Z"/>
    <path class="cls-2" d="m153.27,13.87c.66-.37,1.84-.22,2.23.18-.59.03-1.28-.35-2.23-.18Z"/>
    <path class="cls-2" d="m156.41,15.4c.05-.22.3-.04.59-.15,0-.12-.08-.16-.24-.12.18-.19.43.05.55.13.07.15-.19.13-.12.28-.35.04-.51-.1-.77-.15Z"/>
    <path class="cls-2" d="m159.52,26.66c.33-.19.83-.03,1.13,0-.33.19-.68-.1-1.13,0Z"/>
    <path class="cls-2" d="m169.46,24.15c.03-.08.1-.15.13-.23.18.08.46.11.34.33-.23.04-.3-.07-.46-.09Z"/>
    <path class="cls-2" d="m3.19,55.92c-.12-.29.51-.58.61-.37-.63.12-.29.13-.61.37Z"/>
    <path class="cls-2" d="m3.74,53.65c.03.16-.44.28-.57.25.01-.08.11-.12.11-.2.05.11.14.14.46-.04Z"/>
    <path class="cls-2" d="m13.27,53.12c.66-.11,1.53-.31,1.98-.53.34.3,1.45-.59,1.7-.05.3-.07.05-.33.38-.39.25,0,.45.07.71.05.17-.23.62-.29.75-.12-.1.03-.05.11-.12.15-.31-.08-1.04.2-1.3.4.53-.16,1.22-.24,1.67-.52-.09.02-.2.07-.23.02.22-.05.2-.18.41-.24.07.1-.17.23.11.13.09-.08.11-.18.26-.24.51,0,1.25-.14,1.69-.42.75.22,2.03-.76,2.3-.11.56-.3,1.15-.5,1.76-.44.14-.05.01-.19.18-.22.65.13,1.44-.59,2.17-.67,0,.22-.74.18-.46.36.49-.26.97-.36,1.43-.41.46-.05.89-.07,1.3-.2,0,.13-.31.14-.25.29.22-.08.73-.13,1.02-.3.04.06.12.07.12.18.51-.28,1.02-.19,1.64-.27.07-.15-.23-.14-.04-.21.14-.04.29-.09.44-.13-.08.1-.05.22.12.18.6-.27,1.4-.36,1.93-.74-.18.26.2,0,.23-.01.01,0,0,.1.02.1,1.15-.08,3.29-1.24,3.86-1.09-.15-.08.25-.42.55-.33.08.12-.12.15-.1.25.87-.31,1.8-.56,2.76-.81.96-.26,1.96-.51,2.99-.82-.06,0-.14.04-.16-.01.98-.2,1.41-.17,2.2-.51.74-.12,2.09-.56,2.48-.65-.07-.01-.44,0-.25-.09.85.12,1.52-.09,2.61-.41.13.22.92.02.88-.23-.24.03-.36.11-.42.22-.11-.05-.39.1-.33-.13.37-.1,1.53-.46.98-.1,1.09-.49,1.51-.2,2.49-.61.28.45,1.57-.33,1.53-.03.24-.2.66-.29.97-.15-.61.3-1.06.32-1.43.55.24-.08.45-.13.53-.03.29-.26.62-.32.95-.25-.06-.23.29-.11.36-.1.06-.19-.24.02-.19-.17.46-.21,1.05-.29,1.56-.26-.13.04-.24.1-.27.18.39-.19.9-.03.93-.36-.16,0-.47.19-.52.09.51-.23.9-.27,1.26-.23-.1.02-.53.13-.28.13.35-.04.43-.19.64-.28.81.18,1.31-.1,2.11-.19.07-.21.51-.27.85-.38.01.07.06.1.1.14.05.13-.28.11-.18.26.3-.06.95-.31,1.42-.2.16-.15,1.02-.5,1.19-.19-.5.18-.94.35-1.24.32-.05.19-1.52.28-1.35.56-.08-.06-.14-.14-.32-.08-.09.11-.3.24-.45.44-.03-.38-.4.29-.54-.02-.24.02-.13.17-.26.23-.21,0-.32-.1-.55-.07-1.58.84-3.55.88-5.16,1.44.38-.05.84-.19,1.06-.07-.13.05-.39-.05-.44.12.14.01.37-.08.46-.01-.38.19-.69-.01-.82.11.42-.09.02.2.04.21.16.05.35-.15.61,0,0-.1-.1-.09-.11-.19.15-.02.17.1.32.08.91-.8,2.59-.73,3.73-1.33.11.25.34.04.29-.08.34,0,.41.09.57.17.24-.43,1.19-.29,1.57-.63.51.2,1.46-.42,1.97-.5-.06,0-.09-.02-.09-.09.25-.09.4-.19.59-.1-.15.17-.15-.04-.37.04.59.24,1.38-.27,2.16-.33.1-.1.26-.18.41-.27.16.11.56-.04.9-.12.03-.16.13-.3.47-.34-.44-.26-1.11,0-1.57.18.22-.26-.19-.2.08-.4.26.24,1.39-.27,1.71-.27-.14.01-.32.06-.32-.08.22-.06.6-.3.8-.2-.37.06-.25.26-.51.13.17.13.37.22.65.21.03-.17-.26,0-.19-.22.07-.02.08-.06.14-.09.13.12.81-.15.63.11.52-.22,1.32-.38,1.58-.13.87-.34,1.54-.68,2.46-.78.03.07,0,.2.11.19.04-.13.23-.19.33-.3.05.18.2-.05.24.05-.1.04-.06.13-.12.19.17-.06.28-.06.37-.04.03-.17-.26,0-.19-.22.18-.04.21-.14.35-.19.32.12.7-.32,1.25-.25-.01.08-.09.12-.04.23.27-.08.22-.29.47-.38,0,.08-.1.12-.12.19.3-.46,1.24-.25,1.47-.3-.08,0-.19-.04-.09-.09,1.2-.18,2.19-.54,3.29-.79.02.06-.09.11.02.1.49-.16,2.93-1.36,2.56-.62.06,0,.14-.03.15.02-.08.03-.21.04-.21.1.24.03.63-.23.93-.33.08.05.15.13.25.15.48-.49.95,0,1.47-.28.05.13-.28.1-.18.26.68-.6,2.01-.52,3.04-.91.05.13-.42.04-.27.22.74-.32,2.2-.46,3.14-.82-.2.21.28.01.33.14-.59.49-1.33.33-2.15.81.05.07-.04.29.12.24.16-.54,1.12-.45,1.7-.76.05.07.24,0,.18.17.52-.43,1.66-.61,2.56-.63.18-.28.72-.13,1.08-.35-.15.11-.07.33-.32.4-.11-.12.19-.28-.11-.19-.03.4-1.03.36-1.2.54.19-.03-.09.11.03.21.29-.21.6-.12.85-.35.19.12.82.14.44-.1.3.25.85-.13,1.15.06-.8.14-1.06.44-1.65.59.37.1.56-.04.9-.09.01.07-.02.12-.05.17,1.06-.22,1.77-.42,2.62-.25,0-.06-.04-.15.05-.17.5.12,1.37-.16,1.85-.29-.09.01-.18.02-.16-.07.32-.07.7-.2.76,0,.17-.06.03-.24.26-.27.25.07.38.25.65.29-.26-.15.95-.52.67-.09.46-.06.69-.27,1.05-.06.12-.12.22-.26.4-.35-.13-.49.02-.58-.07-.95-.37.19-.65.32-.83.02-.06.16-.65.27-.81.17-.45.44-1.21.14-1.99.37,0-.26-.25,0-.41-.18.26-.08.48-.17.72-.26-.08.18.04.2.2.28.08-.18.46-.22.59-.12.05-.24-.32-.03-.4-.13.27-.14.61-.24.85-.4.19.26.73.13,1.05-.06.16.09.17.11.04.26.64-.37,1.49-.48,1.99-.37.14-.42.8-.05,1.03-.22-.11,0-.19-.04-.24-.11.23-.01.2-.14.43-.15.01.21.3.13.48.17.06-.11-.25-.13-.03-.21.63-.07.87-.08,1.31-.33.09.16.05.32.49.22-.02-.09,0-.17.04-.22-.19-.03-.28.22-.37.08.41-.2.77.08,1.09-.33.11.02.29-.02.25.16-.14,0-.09-.19-.32-.1.13.22-.25.3-.48.36.48-.07.85.44.99.02.75-.02,1.27.1,2.06.13,0,.08-.11.11-.12.19.4.03.58-.39.67-.08-.36.08-.79.12-.94.29.14-.02.25-.01.31.05-.34-.06-.04.22-.65.24.09.19-.19.2-.17.36.19.05.5-.03.62.09-.55.27-.91.3-1.26.14.1-.05.39-.01.36-.13-.4.11.23-.24-.17-.13-.19.26-.45.32-.69.46.12-.24-.31.21-.46-.07-.12.08-.12.2-.26.27-.62-.21-1.73.07-2.33.12.12.04.34-.03.33.15-.07.02-.08.06-.14.08-.26-.19-.71.18-.85-.09-.38.08-.35.13-.59.07-.05.13.08.24-.33.29,0-.11.18-.14.19-.26-.58.1-1.6.52-2,.32-.83,1.01-2.5.2-3.19.95-.01-.07-.14-.02-.16-.07.2,0,.26-.08.2-.2-.37.1-.36.07-.9.08.15.26.72.1.95.28-.14.13-.53.15-.8.22.12.13.78,0,.98-.05,0,0,.01-.18.12-.19.1-.01.21.11.32.09.5-.05,1.17-.47,1.48-.21-.26.03-.37.12-.41.25,1.21-.38,1.99-.38,3.37-.72,0,.05-.05.08-.06.12.46-.22,1.01-.13,1.51-.48,0,.08-.11.11-.12.19.3-.11.54-.24.77-.38-.14.16.27.12.34.25-.03-.11.04-.18.2-.2.17.04-.07.15.1.14.37-.14.79-.26,1.07-.44.02.09-.35.26-.11.29.42-.36,1.71-.23,2.15-.27-.23-.02.2-.21.29-.11.08-.15-.31-.11-.1-.19.13.19.59-.06.68.02.14.16-.24.08-.2.2.32.06.67.08,1.07.06-.65.36-2.07.22-2.98.81.08.11.32-.11.43-.14.1.33.26-.02.46.07-.12.46-.79.13-1.09.32.09-.01.18-.02.16.07-.07.01-.08.06-.14.08-.46.05-1.3.04-1.31.33-.36.05-.7-.24-.99-.06.39.01.76.05.95.28,0,.07-.52.14-.28.17.51-.28.71-.3,1.22-.42-.07-.07-.36.09-.32-.1.22-.03.56-.17.6-.02-.2.13.15.25.17.13-.21,0,.03-.2.12-.24.03.07.18.01.3,0,0,.09.04.16.1.19.23-.04.34-.13.5-.21.98.1,2.22-.72,3.14-.73-.04.01-.09.02-.07.07.12-.26.6-.17.56-.33.09.03.5.04.52-.05-.06-.08-.35.07-.38-.03,0-.06.07-.1.13-.13.21.1.24.03.44-.09.08.04.16.08.24.11.45-.17.65-.19,1.09-.32.01.07-.02.12-.05.17.19-.09.37-.13.52-.05-.2.1-.35.23-.48.36.31-.15.84-.2.92-.45-.14,0-.28.21-.37.07.22-.09.41-.2.56-.33,0,.1.09.11.23.06-.14.16.13.27.27.32.02-.2-.19-.17-.2-.34.35-.02.07-.1.21-.15.37-.1.44.11.76.06-.06.18-.35.26-.47.42.42-.05.42-.29.78-.37.01.13-.12.19.1.19.42-.41,1.37-.5,1.94-.65-.12-.11-.21.13-.3,0,0-.08.15-.09.21-.15.06.12.3.06.27.27.39-.26.86-.19,1.38-.36.08.06.23.36.4.14-.09.01-.18.02-.16-.08.3-.11.52-.15,1.02-.24.1.36.7.22,1.03.35.15-.11-.11-.11.05-.17.79.12,1.24,0,2.25-.04-.47.17.47-.01.18.18.31-.17.88-.36,1.09-.31-.11.06-.15-.23-.03-.21.16.07.05.19.31.05-.02.2.07.29.26.27.1-.05-.02-.2.12-.24.24.04.29,0,.45.02-.1.05-.17.11-.2.2.24-.08.13.09.09.14.23,0,.46.02.62.1-.04-.26-.24-.35-.08-.58-.24.02-.24-.2-.34-.31,1.08-.23,2.54-.3,3.53-.06-.12.19-.1.35.14.46.31-1.07,1.87-.17,2.76-.74.06-.31-.1-.31-.16-.62.58-.05.68-.35.9-.58.42-.17.62-.15,1.09-.29.02.06.04.12.16.08.19-.08-.21-.06-.11-.25.5-.12.56-.64,1.05-.61-.18-.26-.06-.46,0-.59.01.07.21.03.22-.04-.12,0,0-.08.14-.08-.15.11.42.33.46.08-.27-.06-.75-.07-.58-.38-.26.07-.39.02-.46-.08.08-.09.17-.18.27-.26-.08-.1-.23-.13-.33-.21.31-.22,1.13-.51,1.55-.21.29-.12.55-.63.86-.31-.1.03-.33.16-.41.34.29-.05.63-.44.88-.21-.57.45-1.51.81-2.38.84.58.2,1.56-.21,2.26-.55.33.07,1.01-.11,1.39-.35.18,0,.22.14.39.15.55-.12,1.76-.81,1.78-.19.27.04.02-.19.2-.19.14.03.27.06.25.23-.33.29-.74.54-1.16.79-.42.25-.84.5-1.2.78.22.1.53.11.57.38,1.64-.26,2.08-1.61,3.76-1.84-.3-.45.36-.78-.07-1.17.13-.02.23-.05.29-.1-.13-.41-.29-.68.03-1.02-.01-.09-.21,0-.23-.07.25-.04.17-.24.26-.36-.05-.07-.29.04-.31-.06-.45-1.12-.97-1.63-1.77-2.77-.61-.16-.93-.6-1.53-.78.16-.24-.41-.39-.23-.66-.17.04-.28.03-.31-.06.17-.01.28-.06.28-.15-.36.1-.17-.22-.18-.24-.26-.38-.91-.6-1.11-1.05.77-.33,1.62.24,2.25-.15.28.1.71.07.8.36-.23.05-.44.11-.42.28.53.12,1.09.21,1.83.14.16.45,1.11.16,1.69.21.01.1-.19.1-.12.23.78-.2,1.79-.25,2.62-.2.37.57,2.02.18,2.13.79.36,0,.75-.01.93.17-.07.28-.32.46-.2.84.22.25.84.14,1.16.3,0-.2.43-.44.72-.32-.04.11-.21.15-.27.25.33.27.29.54.55.83.24-.05.61-.18.68.06-.13.05-.33-.11-.37.05.24-.03.24.16.47.15-.04-.35.29-.06.44-.06.2-.15-.06-.25.1-.44.92-.17,1.69.75,2.28.15-.1-.06-.33,0-.52.02-.53-.38-1.21-.61-1.9-.85.01-.07.09-.12.05-.22-.25.07-.38.2-.65.25-.11-.09-.23-.17-.54-.08.28-.29-.25-.2-.27-.39.23-.11.2-.13.11-.34.15-.02.08-.16.28-.15.68.03,1.46.1,2.33-.02-.36-.31-1.09-.26-1.63-.41.05-.48-.24-.59-.7-.86-.25-.03-.04.18-.29.15-.28-.5-1.03-.8-.92-1.47.93-.1.85-.71,1.8-.8-.01-.24.27-.32.32-.53-.03-.1-.16-.12-.25-.18.03-.15.2-.23.34-.32.16-.73-.8-.43-.86-.94.63-.23,1.6-.29,2.05-.62-.29,0-.45-.34-.21-.5-.43-.11-.52-.52-.98-.61-.71.37-.61.97-1.44,1.33-.58-.78-2.76-.32-3.45-.38.1,0,.16.04.17.13-.35.1-.53.03-.76.01.08.2-.36.15-.42.28.11.03.25.04.25.17-1.17.16-1.77.58-2.93.84,0,.06.03.15-.06.17-1.59.2-2.61.63-4.05.96,0,.06.03.15-.05.17-.32-.05-.71.02-.9.04.06,0,.09.03.09.09-.58.05-1.24.21-1.8.27-.56.06-1.01,0-1.17-.36.11.04.19.03.22-.09-.22-.04-.63-.15-.43-.41-.37.13-.66-.14-.5-.34-.03-.07-.12-.08-.1-.2-.24,0-.16-.02-.29.1,0-.07-.05-.11-.09-.14.12-.02.26-.04.21-.14-.5.13-.13-.22-.34-.32-.28.08-.14.36-.56.36.16-.15-.05-.2-.05-.37.05,0,.3.08.3-.05-.19.03-.14-.17-.26-.22-.13.02-.23.05-.29.1.25-.24-.38.07-.26-.22.51.06.92-.11,1.41-.3.24.32,1.1.04,1.34.36-.08.04-.16.08-.21.14.17.01.21.15.33.21.8-.21,1.01.62,1.89.54-.02-.29.36-.36.72-.33-.03-.26.22-.24.5-.24-.22-.47.58-.65.26-1,.11.05.29.03.29-.1-.07-.08-.36.07-.32-.11,0-.08.17-.08.29-.1-.11-.54-.97-.38-1.3-.7,1.13-.48,1.78.19,2.72-.11,0,.07.02.14.03.21.92.05.8-.82,1.57-.84.35-.38.84-.7,1.48-.93-.07-.06.45-.23.48-.4,1.24-.2-.1-.99.07-1.35-.26-.16-.6-.25-.75-.52.28-.05.21-.13.06-.17l.3-.05c-.06-.33.21-.38-.14-.51-.72.27-1.42.15-1.78-.25.12-.02.04-.14.21-.14.04-.25-.39-.06-.41-.26.52,0,.63.38,1.12.41-.08-.14.09-.15.04-.28-.14.01-.16.09-.29.1.13-.13-.17-.14-.19-.29-.32.06-.29-.04-.62-.06-.02.09-.42.25-.52.14.47-.05-.14-.12.2-.25-.65.02-.85-.1-1.22-.02.24-.11.41-.26.4-.49-.2.07-.16-.09-.24-.12-.96.04-1.41-.43-2.56-.34.26-.33.97-.27,1.7-.48.1-.18.3-.31.24-.57-.8.17-1.87-.09-2.7.38-.54-.25-1.66.45-2.54.48-.35.01-1.16.17-1.31.55-1.06.15-2.16.51-3.5.76-.11-.12.2-.27-.1-.2-.35.34-1.25.32-1.61.54,1.27-.18,2.42-.25,3.69-.47.03.07.13.07.17.13-.82.03-1.79.99-1.69.56-.07.08-.41-.07-.69.01-.12.5-.78.13-1.26.27.04.13-.28.09-.2.25.04.15.31.1.34.26-.41.44-.93.28-1.62.44-.04-.07-.1-.07-.02-.16-.17.07-.69.27-.69.01.36-.17.13,0,.38-.01.13-.22-.05-.3-.27-.33.21-.14.16-.41.47-.51-.14.02-.26,0-.31-.05.04-.13.27-.16.26-.31-.27.11-.62.13-.99.06.04.28-.44.26-.58.26.07-.16.28-.23.51-.19-.17-.21.29-.12.19-.3-.31-.03-1.04.76-1.48.36.68-.03.77-.35,1.15-.52.15-.74-.73-.38-1.22-.54-.63.19-1.63.07-2.1.34.24.02.74-.17.86.11-.12.29-.46-.05-.51.2.34,0,.46-.14.62.05-.1.02-.06.1-.13.13-.31,0-.67-.09-.65-.26.05.16-.23-.09-.22.09.12.02.13.15.18.23.37-.08.61-.05.71.14-.51.38-.99.16-1.38.58-.08-.1-.57-.11-.69.02.13-.03.18.02.17.13-1.12-.02-1.74.12-2.73.24.25-.2.41-.15.73-.3-.16-.06-.4-.04-.49-.18.24-.16.43-.29.4-.45.41-.12.65-.35,1.11-.31-.19-.2-.52-.01-.76.09,0-.05-.07-.05-.09-.09.32-.35.13-.55-.05-.96,1.5-.56,2.85-.17,4.35-.75.56-.05,1.17.14,1.98-.08-.01.13.15.09.11.25.64-.24,1.28-.19,1.75-.09.02-.37.65,0,.89-.21.04.07.1.07.02.16.53-.43,1,.17,1.67-.13-.33.02.24-.33-.33-.21-.09.14.22.16.03.21-.02-.32-.63-.15-.89-.38-.38.37-.84.15-1.42.24-.07-.09-.24-.39-.41-.2.3-.08-.03.2-.04.28-.43.08-.84-.02-1.23,0,.1-.27.1-.18.44-.18-.03-.2-.1-.14-.04-.32-.35,0-.35.16-.5.25.06-.37-.88.01-1.17-.12.03.11-.04.18-.2.2.02-.08.08-.1-.02-.16-1.43.27-2.72.69-4.03.8-.41.25-1.67.64-1.68.1-1.6,0-3.17.53-4.89.69-.53.37-1.25.44-1.78.44.08,0-.14.15-.29.11-.56-.15.33-.46.77-.53-.39.09-.05-.35,0-.49.82-.29,1.5-.4,2.21-.68.2-.01.25.11.47.07.29-.26.68-.02,1.06-.14.22-.07.34-.33.56-.37.24-.05.49.13.7.08.13-.02.33-.16.43-.19-.01,0-.04.11-.06.12.22-.04.31-.21.5-.25.03,0,.08.14.1.14.28.04.58-.3.87-.38.24.11-.22.29.11.25,0-.18.32-.21.41-.35.25.25.84-.18.78.12.5-.19,1.37-.48,1.84-.56-.09,0-.09-.07-.1-.14.56-.1.75-.14,1.03-.3,0,.05-.05.07-.06.12.84-.19,1.56-.35,2.1-.37.07-.08.1-.18.2-.25.21.1.25.04.37-.12.16.07.13.29.33.16-.28-.1.27-.22.42-.29.02.1.21.03.18.18.04.12-.21.1-.21.2.49-.1.47-.26.47-.51-.19-.05-.49,0-.7-.04-.1.32-.93.28-1.13.19.1-.02.06-.1.14-.13.02.06,0,.15.1.14.39-.4.89-.3,1.49-.36-.2-.18.12-.18.1-.39-.59.1-1.19.22-1.73.3.25.06-.2.19-.27.26-.15-.05-.6-.13-.7-.04.09,0,.09.07.1.14-.35-.18-.79,0-1.23,0,.47-.06.24-.15.58-.27-.34,0-.53-.04-.74.19,0-.05-.01-.1-.02-.16-.68.3-1.82.16-2.7.5-.02-.06,0-.15-.1-.14-.76.34-1.96.2-2.32.48-.06-.19.3-.33.5-.25-.1-.35-.49,0-.68.07.01,0-.03-.1-.01-.1-.29.11-.39.37-.71.45-.4.11-.55-.15-1.07.04.19.22-.55.12-.73.3.81-.12-.87.41-.91.06.25-.03.27-.17.43-.24-.41.1-.23-.01-.34-.21-.32.12-.39-.02-.62,0,.06.16.36.09.49.18-.1.02-.16.06-.22.09-.18-.03-.34-.27-.47-.02,0-.09-.04-.16-.1-.2,1.19-.35,1.62-.51,2.78-.51.65-.28,1.41-.08,2.09-.49.02.1.25,0,.25.12.91-.32,1.99.03,2.7-.5-.21.03-.51.14-.54,0,.24-.03,1.27-.41,1.08.01.18-.07.33-.14.59-.16.09-.24-.39.06-.4-.09.34-.09,1.08-.33,1.37-.09,1.37-.26,2.4-.5,3.33-.36.01-.28.17.1.31.05.18-.1-.1-.24.04-.27.08-.01.08-.06.14-.08.28-.1.28.08.47.08.07-.16.45-.18.74-.23.11.39.62.04.92,0,1.24-.16,2.89-.25,3.86-.45-.78-.02-1.02.15-1.69.02-.87.36-2.04.25-3.01.46,0-.13-.14-.14-.18-.24.08-.09.27-.13.35-.22-.3-.06-1.06.4-1.59.17-.02.18-.27.12-.44.13-.2.4-1.33.57-1.77.57,0-.1.68-.12.44-.18-.22.04-.46.08-.47-.08.13-.05.45-.01.44-.13-.25-.04-.73.15-.64-.21-.32.01.13.18-.2.25-.02-.04-.07-.05-.16-.03-.13-.22.1-.28.18-.41-.36-.08-.35.14-.36.22-.25-.1.17-.23-.04-.31-.33-.03-.68,0-.84.04.09,0,.13.04.16.08-.14,0-.29.21-.38.07.09-.02.21-.03.22-.09-.44-.07-1.1.19-1.39-.01-.17.1.16.13-.05.22-.42.15-.41-.11-.7-.08-.03.08.12.25-.04.28-.27.02-.71.22-.7-.03.07-.05.57-.15.36-.17-.41.18-.72.12-.87.38-.31,0,.02-.29-.27-.27-.1.05.02.2-.12.24-.11-.08-.93-.15-.54,0-.32.01-.38.03-.83.1,0,.08.05.19-.05.22-1.28.04-2.34.48-3.47.54-.02.1.13.11.02.16-.43,0-.79-.01-1.04.25-.01-.07.02-.12.05-.17-.29.15-.71.11-.99.08.18-.25.59-.14.62-.49-.52.13-.68.6-1.3.62-.09.14.22.16.03.21-.24-.02-.3.01-.44.14-.02-.18-.25-.15-.41-.19-.57.31-1.19.07-1.7.5-1.21.09-2.95.49-3.88.88-.09-.11-.43.03-.41-.19-.4.28-.69,0-.96.3.09-.01.18-.02.17.07-.17.08-.19.07-.52.16-.02-.08-.02-.18-.17-.13-.19.39-.84.17-1.21.19,0,.11.12.08.17.13-.29.09-.83.23-.93-.03.18-.09.3.17.38-.02-.11,0-.1-.1-.17-.13-.77.46-1.92.58-2.45.65-.2.02-.26.22-.35.24-.24.04-.46-.15-.85.02.07-.03-.11.02-.3.06-.07.02-.84.29-1.06.12-.05-.12.57-.2.35-.24-.27.08-.35.16-.6.13.1.26-.36.3-.51.22.23-.13.56-.21.63-.4-.45.18-1.28.59-1.3.11,0,.05-.12.09-.15.03.28-.19.15-.28.39-.46-.9.65-1.79.08-2.56.92-.03-.1.07-.13.04-.22-.23.04-.19.21-.51.22,0-.1-.1-.1-.11-.19-.19.06-.41.11-.51.22.33-.09.49-.01.57.15-.51.03-.72.32-1.21.15.31-.01.2-.2.51-.22-.09-.11-.08-.33-.35-.25,0,.08.06.19-.04.22.01-.25-.98-.11-1.4-.03-.05.21.21.11.2.28-.1-.04-.27,0-.46.04.14-.16.09-.13.02-.33-.25,0-.08.19-.27.22-.02-.2-.41-.02-.49-.17-.3.24-.42.12-.39-.02-.26.2-.38.18-.56.39-.14-.08,0-.07-.03-.21-.31.12-.28.09-.53.06-.11.08-.16.19-.26.28-.15-.08-.31.03-.1-.14-.84.08-1.02.74-1.44.7.01.4-.35.32-.66.26-.08.14.22.15.03.21-.22-.07-.4-.01-.68.1-.09-.15.09-.19.11-.29-.15.12-.41.08-.44.15.11,0,.2.04.25.11-.18.04-.21.14-.44.15,0-.05-.02-.1-.03-.16-.59.43-1.51.37-1.75.67-.23.1-.18-.1-.32-.09,0,.07.05.11.1.14-.17.16-1.11-.04-.6.14-.36.06-.5-.12-.69.05.18-.02.2.1.03.16.09-.1.03-.18-.18-.12-.06.11-.22.17-.35.24.18-.19-.36-.02-.46.05.06,0,.15-.03.16.02-.15.06-.53.25-.67.15.03-.08.29-.07.28-.17-.27-.04-.32.15-.58.24-.17-.28-.7.4-.85.03.63.06.91-.69,1.34-.36-.04-.3.25-.18.56-.34-.11-.14.1-.15.11-.24-.35.04-.2.11-.28.17-.08-.04-.28.05-.25-.11.09-.03.21-.04.22-.1-.3.11-.47.08-.55-.04-.37.21-.67.12-1.49.39-.12.12.13.14-.11.24-1.01-.01-1.83.63-2.6.7-.13.19.19.27-.17.37-.2-.03-.16-.15-.13-.29-.65.37-1.14.16-1.87.4-.23.52-1.33.33-1.73.79.33-.16.78-.27.99-.13-.25.26-1.11.52-1.06.15-.38.28-.79-.03-.88.32-.14-.31-.99-.09-1.45.13.07-.03-.12-.03-.31.02-.98.28-2.21.49-3.09.96-.02-.08-.02-.18-.18-.12.02.13.03.27-.18.31-.07-.1.18-.22-.1-.14-.06.1-.21.21-.36.14-.15.11.12.1-.05.17-.14.03-.26.03-.32-.03,0-.08.18-.09.12-.19-.25.18-.33.15-.64.32.02.18.25-.07.33.13-1.48,1.06-3.44,1.37-5.1,1.89-.11-.11.45-.2.19-.21-.69.32-.82.52-1.4.41-.27.07-.25.25-.4.37-.29-.06-.99.49-1.36.24,0,.2-.37.07-.49.29-.04-.19-.16-.12-.23,0-.09-.29-.42.03-.57-.13-.09.21-.31.22-.58.2-.15.12.12.1-.05.17-.39-.03-.88.38-1.15.08-.16.29-1.17.47-1.42.32,0,.31-.85.47-.87.34-.25.21-.52.41-.82.6.02-.09.08-.16.11-.25-1.38.31-2.41.89-4.15,1.11.02.09-.03.15-.12.19-.58-.26-1.63.77-1.77.15-.38.1,0,.19-.25.34-.86.17-1.44.51-1.95.41-.44.27-.66.27-1.22.54-.05-.11.2-.11.19-.21-.71.22-1.05.46-1.65.35.08.24-.36.28-.37.49.41-.1.92-.23,1.17,0-.3.19-.5-.06-.6.12.79.14,1.13-.37,2-.55.02.07-.01.12-.04.17.31.02.61-.2.87-.34,1.47-.04,3.06-1.09,4.48-1.04.39-.35,1.19-.54,1.88-.77-.07.28-.84.29-.9.57.37-.1,1.81-.64,1.67-.23-.03-.14-.1-.29.09-.35.19-.09.17.06.32.02.08-.33,1.33-.49,1.76-.58-.06,0-.09-.02-.09-.08.16.06.59-.36.89-.24-.17.03-.28.09-.28.18.34.11.21-.28.56-.31.05.11-.2.11-.19.21.61-.23,1.76-.4,2.29-.64.06-.19-.25.02-.19-.17.11,0,.37-.16.38-.04,0,.08-.11.12-.12.19,1.15-.26,2.24-.64,3.64-.92.23.19,1.07-.32,1.49-.38.54-.07,1.39-.41,2.14-.65,1.18-.38,2.43-.51,3.39-1.01.02.08.02.18.18.12,0-.08-.06-.19.04-.23.35-.05.62,0,.8.13.06-.12.15-.23.25-.33-.13.02-.35.24-.45.11.14-.06.11-.18.35-.19.36.26.15.08.63.06-.13.03-.18.09-.21.16.31-.25.88-.09,1.18-.34-.4,0-.52.09-.85.04.38-.13.48-.12.8-.3.09.08-.19.23.04.21.31-.3.99.13,1.43-.24-.14.08-.42.02-.24-.05.18-.05.24.03.39.01.22-.42.82-.23,1.15-.49.2.03.2.1.26.15.09-.2.78-.42.93-.44.06.15-.33.12-.34.25.74-.21.96-.45,1.29-.63.17-.06.11.13.25.1-.16-.2.39-.38.77-.51,0,.19.04.27-.02.33-.09-.04-.35.06-.44.16.23.05-.19.24-.17.37-.16,0-.17-.04-.1-.14-.53.25-1.24.28-1.77.53,0-.06.11-.15-.03-.16.15.16-.25.09-.2.21.23.05-.13.26-.25.33.07-.1.06-.15-.1-.14-.11.36-.57.1-.72.33-.19-.03.12-.2-.18-.12l.04.21c-.26.09-1.04.3-1.26.36-.19.02.25.21-.11.24.01-.25-.81.3-.94-.04-.66.34-.98.16-1.53.53-.05-.08-.47-.07-.53.07.11-.07.34.02.17.07-.57.02-1.21.14-1.86.3-.65.16-1.3.33-1.89.42.09-.01.13.03.17.07-.1.03-.2.05-.3.08-.02-.07.01-.12.05-.17-.24.19-.68-.03-.84.1.22,0-.11.09-.15.04-.02.16,0,.12-.18.26.11-.02.27-.09.31-.02-.6.37-1.56.37-2.24.51-.22.15.28.11.05.26-.27-.13-.53.4-.67.17.04-.15.75-.28.39-.42-.33.22-.51.62-.99.52.16.49-.89.52-1.17.84-.2-.06-.72-.09-.98.14.55-.08,1.02-.08,1.27.16-.09.03-.21.04-.21.11.43-.02.22-.3.64-.33-.03-.2-.45.03-.49-.15.59-.18,1.12-.34,1.57-.34-.25.01-.07.2-.27.23-.08-.03-.45-.04-.45.06-.05.3-.86.7-1.37.57-.17.35-.65.16-.74.19.21,0-.03.21-.11.24-.04-.24-.79.02-.36.15-.31.08-.39-.04-.41-.11-.21.17-.45.34-.6.53-.02-.13.11-.2-.11-.19-.17.12-.03.12-.12.19-.06,0-.1-.02-.09-.08-.2.44-.93.05-1.04.26.09-.02.18-.03.17.07-.34.06-.7.16-.85,0-.07.26-.27-.02-.53.09-.04.37-1.29.74-1.24.44-.23.2-.35.4-.72.3-.04.3.51-.07.63.05-.19.18-.81.2-1.02.38-.21-.09-.37-.16-.38-.33-.19.09-.19.25-.32.36.09-.02.21-.06.23,0-.23.26-.82.33-.85.01.19,0,.2-.3.11-.25-.06.25-.56.33-.67.56.35-.01.2-.21.5-.24.13.14-.03.23.21.27-.45.09-.66.16-.95.31-.02-.1.19-.12.11-.25-.29.02-.11.21-.26.29-.15-.02-.35.01-.41-.11-.57.44-1.04.42-1.89.67-.06.26.44-.12.47.04-.77.5-1.64.68-2.42,1.14,0-.08.1-.12.12-.19-.4.35-.78.18-.85.44-.57.02-1.43.24-2.29.46-.85.22-1.7.43-2.21.41-.56.17-1.24.69-1.71.43-.25.29-1.01.27-1.22.51.12-.02.03.08-.05.12-1.21.11-1.69.76-3.08.98.09.25.93-.34.88.08.74-.17.99-.06,1.66-.25-.09.03-.21.05-.21.11.06,0,.15-.04.16,0-.35.07-.56.18-.63.34.52-.19,1.2-.43,1.72-.38-.09.27-1.1.28-1.16.44.47-.03.91-.02,1.45-.14-.21.23.22-.04.19.16-.3.22-.51.15-.73.26.09-.04.28.08.11.13-.25,0-.25.06-.52.15-.03-.07.27-.24.03-.23-.26.21-.75.59-1.01.39,0,.1.11.09.12.19-.18.04-.36.09-.43.18l-.03-.15c-.43.23-.62.38-.81.61-.26.02-1.16.17-1.24.41.4-.03.88-.44,1.21-.18.99-.3,2.19-.53,2.8-.79.39-.17.99-.19,1.34-.32.35-.14.86-.42,1.13-.21-.25-.04-.48.23-.75.16-.15.12.12.1-.04.18-1.85.35-3.72,1.06-5.63,1.81-.96.37-1.92.76-2.9,1.12-.98.36-1.97.68-2.98.93.13.46-1.04.61-1.43.59-.13.34-.67.17-.69.42.2.06.69-.21.78-.01-.02.1.15.28,0,.33-.87.36-1.47.08-1.86.44.46-.14.91.14,1.62-.1-.1.04-.01.45.05.26-.15-.33.33-.16.46-.41.25-.06.35.06.43.2-.17.29-.79.42-1.02.69.06.21.32.22.56.05,1.2.07,3-.97,4.26-1.21.15-.04.12.11.31.02.64-.24,1.64-.84,2.36-.63.44-.21.83-.26,1.32-.37,0-.14.14-.24.41-.28-.1.14.02.06.04.21-.19.07-.4.14-.49.25.11.05.39-.11.34.12-.49.14-.61.41-1.05.57.14-.02.16.11.39,0,.25-.38,1.03-.57,1.11-1.02.17,0,.33.19.22.32.62.11,1.42-.38,2.02-.35.04.19-.23.26-.3.41.54-.12-.05.16-.02.28.36-.28,1.05-.44,1.57-.66,1.9-.21,3.88-.77,5.84-1.36,1.96-.57,3.89-1.17,5.69-1.48,1.02-.41,2.13-.72,2.83-.98.38-.35,1.24-.71,1.65-.66.21-.2,1.31-.49,1.66-.61-.46.11.04.06.1.14-.62.17-1.06.21-1.14.52-.09,0-.18-.01-.24-.04.06-.03.14-.04.14-.09-.5.06.17.31-.23.44-.11-.26-.5.19-.5-.19.23-.09.32.04.36-.15-.66.15-1.27.39-1.6.54.29.12.76-.27,1.1-.3.09.05.11.17.2.22.41.02.74-.24,1-.05-.98.44-.83.04-1.5.24.04-.01.09.02,0,.05-.46.17-.69.14-1.09.35-.18-.03-.75-.23-.66.18.28-.12.63-.23.77-.04.65-.07.94-.57,1.38-.48-.31.1-.53.24-.61.44.32-.05.2-.28.56-.31,0,.08-.1.12-.12.19.33-.19.94-.45,1.11-.24-.6.26-1.14.43-1.58.64,0-.07-.05-.19-.09-.08,0,.04.01.07.02.1.7.05.91-.46,1.43-.22-.34.06-.6.31-.88.24-.07.32-.79.56-1.2.59,1.08.1,1.76-.74,2.66-1.04.1.17-.48.32-.15.42.24-.14.51-.24.79-.32.29-.07.59-.12.89-.15.6-.07,1.2-.1,1.66-.23-.84.41-1.59.68-2.33.75-.23.04.22.1-.04.17-.63-.03-1.8.46-2.7.83.01-.08.07-.11-.03-.16-.37.5-1.27.43-1.72.68.06,0,.14-.04.16.01-1.11.17-2.58.56-3.57,1.12-.01-.07-.03-.14-.04-.21-1.1.5-2.74,1.17-4.08,1.26.04.11-.03.18-.19.22-3.21.76-6.78,2.33-9.78,2.98.12-.03.25-.08.24.04-.71.05-1.36.18-1.99.36-.62.18-1.23.39-1.85.59-.17-.03-.27-.15-.43-.2.05.22.13.09.22.32-.61-.06-1.4.19-1.99.48-.01-.05-.02-.1-.03-.15-.42.33-1.01.58-1.44.54.09-.02.1.06.11.13-.37.16-.68.27-.75.11-.19.11-.45.15-.62.02-.27.13.06.25-.08.35-1.41.29-3.07.73-4.75,1.24-1.68.52-3.38,1.1-4.9,1.63,2.51-.7,5.03-1.39,7.59-2.32.02.15.46-.2.4.05,1.38-.59,3.31-.71,4.6-1.36.02.06.02.15.11.13-.1-.18.11-.25.24-.34.2.18.68-.2,1.08-.05.05-.26.99-.29,1.18-.29.06-.09.03-.21.18-.27.08.18.35-.13.54,0,.17-.29.58-.27.92-.44.13.29.54,0,.91-.09.15-.12-.12-.1.04-.18,1.9-.39,3.67-1.03,5.76-1.41-.06.03-.14.04-.14.09.23-.02.11-.18.35-.21.02.14.14.07.04.21.33-.2.81-.21,1.18-.28.05-.19-.14-.09-.19-.17.18-.03.14-.14.36-.15.02.1-.19.12-.11.25.35-.03.21-.24.57-.27,0,.26.38-.05.63.04.11-.23.14-.24.08-.35.21,0,.36-.02.43-.18.01.05.02.1.03.15.13-.09.68-.45.81-.23-.33.03-.59.39-1.03.29.11.41,1.43-.49,1.75-.17-1.61.52-2.87.78-4.55,1.23-.01.1.14.1.03.16-.14,0-.42.18-.45.07.06-.15.33.04.27-.19-.37.08-1.05.31-1.23.4.15-.04.5.01.27.2-1.34.12-2.88.74-4.05,1.03-1.69.42-3.4.81-5.24,1.26l-.02-.1c-.63.44-1.3.27-1.79.7-.21.01-.42.02-.49-.13-.12.07-.44.07-.43.18.32-.11.51-.08.57.11-.4.14-1.49.43-1.99.48-.64.39-1.73.54-2.29.9.45.03,1.35-.61,1.53-.12-.49.02-.77.47-1.3.44.06.17-.11.22-.42.23-.25.51-1.45.42-1.99.87-.19-.07-.45-.06-.71-.05,0,.18.28-.01.12.18.13,0,.41-.19.45-.08-1.55.58-2.66,1.06-4.02,1.52.12.48-.77.34-.97.52.38.14-.59.23-.86.32-.66.22-1.35.6-1.69.8.38.14.71-.32,1.18-.31,0,.13-.02.24-.16.32-.08-.07-.49.15-.4.29.39-.19.61-.17.97-.19-.39.28-.88.77-1.42.6-.26.33-.81.38-1.41.66.19.24-.51.37-.97.52-.31.34.06.35-.49.59.21.04.32-.16.45-.08-.09.29-.17.57-.69.71,0-.08.1-.12.11-.2-.37.15-.77.42-.81.54-.36-.02-.26.11-.5.22-.37.18-1.01.18-1.12.53.29.03.61-.28.77-.03-.24.23-.51.01-.5.22.24.08.9-.37.99-.1l-.43.14c.03.16.41.02.22.26.1-.06.39-.06.35-.17-.16.06-.24.03-.25-.08.18-.06.58-.16.88-.23-.44.48-1.65.85-2.26,1.01-.04.11-.05.24-.16.33.34-.1.67-.21.27-.2.27-.11.35,0,.48.06-.47.41-.42.07-.87.28.27-.05.39,0,.2.21Zm34.12-29.39c.02-.2.25-.13.37-.1,0,.13-.32.12-.37.1Zm11.58-3.44c.1-.05.4-.21.64-.33-.03.05-.06.11-.05.18-.21.05-.37.11-.43.22-.08,0-.07-.09-.17-.06Zm28.39-8.59c.01.09.08.12.17.12,0,.12-.17.15-.36.19.11-.14-.07-.09.04-.23-.15,0-.44.17-.39-.02.11.05.33-.02.53-.07Zm45.54-1.53c0-.14.14.05.3-.05,0,.05.01.1.02.16-.15.05-.2,0-.31,0,.04-.05.08-.11-.01-.1Zm9.47,19.02c.36.04.78-.34.89-.1-.18.12-.81.37-.89.1Zm-70.87,11.55c.36-.15.7-.25,1.17-.3-.36.22-.76.28-1.17.3Zm-57.5,11.82c-.02-.1.18-.13.1-.25.22-.1.28,0,.52-.11,0,.06-.12.09-.2.12,0,.06.04.09.1.08-.02.12-.43.19-.51.16Zm2.72-2.74c.05-.13.25-.2.49-.26,0,.16-.24.23-.39.34,0-.06-.04-.09-.1-.08Zm3.43-2.71c.05-.14.64-.47.65-.2-.31.04-.29.1-.65.2Zm9.4,2.58c-.3,0,.54-.39.51-.15-.12.02-.42.06-.51.15Zm1.94-.3c-.09-.09.35-.21.11-.2.04-.08.68-.34.66-.14-.38.07-.54.22-.78.34Zm11.18-21.15c-.03-.16.46-.26.58-.22-.07.22-.47.2-.58.22Zm4.9,8.48c-.07-.21.31-.13.43-.18.03.14-.32.22-.43.18Zm8.55-2.5c.11.18-.38.14-.41.27.06.06.19-.08.38-.05.65-.73,2.12-.74,3.19-1.07.88-.27,1.59-.71,2.24-.82.06.04.18,0,.18.12.23-.21.56-.12.88-.23.13.14-.06.15.31.03-.12.13.02.13.05.26-.19.09-.16-.07-.25-.1-.09.11-.22.2-.25.33-.15,0-.2-.12-.33-.13-.15.06-.12.18-.26.23.18.13.69-.16.93.03-.36.12-.47-.02-.83.11.19.04.46-.02.69-.02.6-.35.42-.82,1.11-1.04-.07-.11-.3-.04-.47-.04.5-.39,1.1-.22,1.43-.58.11.03.28-.02.32.08.2-.09.62-.41.73-.24.14-.04.02-.18.19-.21.55.21,1.46-.52,2.01-.4.32-.33,1.21-.5,1.53-.5.32-.5,1.71-.68,2.28-.58.56-.17.48-.29,1-.42-.16.03-.49-.08-.53.03-.02-.19.33-.25.86-.38-.01,0-.07.08-.14.09.76-.11,2.16-1.04,3.13-.6-.31.07-.57.15-.72.28.16-.13,1.03-.08,1.08-.42.23-.08.31,0,.4.07,0,.13,0,.25-.26.28,0,.13.33-.11.25.1-.48.12-.78.06-1.27.2.19.07.5.04.99-.07-1.03.54-1.71.74-2.91.92.05.23.48.06.58.24-.8.08-1.27.54-1.82.57l-.02-.1c-.05-.1.09-.13.2-.16-.16-.12-.39.13-.26.28-.24.06-.35.18-.65.22-.01-.12.16-.16.35-.2-.26-.17-.73.24-1.08.44-.25.15-.08-.16-.25-.1-.27.18-1.85.61-2.22.51-.18.12-.21.17-.1.3-.26.1-.42.09-.47-.04-.24.33-.73.23-1.11.23-.26.07.19.13-.05.17-.19.05-.1-.02-.09-.08-.28.07-.18.28-.56.3.04-.14.04-.3-.01-.48-.16.05,0,.23-.02.33-.31.13-.31-.07-.54-.02.15.2-.27.68-.55.36.25-.11.32-.02.46,0-.03-.13-.17-.13-.05-.26-.33.23-.38.12-.75.14,0,.13-.16.33.09.47-.25-.02-.54.01-.77-.02-.02-.13.23-.17.42-.22.13-.05-.15-.16-.2-.22-.16.07.1.06-.04.17-.18.03-.29-.01-.52.08-.14-.07,0-.07-.04-.21-.44.27-.15.57-.65.65.04.06.11.08.24.05-.73.64-2.03.34-2.62.85-.25-.05-.13-.14-.38.05-.19-.23.1-.4.35-.58.05.1-.02.15-.03.23.36-.06.97.02,1.4-.37-.65.19-1.11.09-1.65.23.05-.18,0-.15-.12-.24-.24.12.25.25,0,.38-.14-.12-.6.26-.97.15-.1.05.01.09.09.08-.1.16-.3-.08-.53.03.06.03.15.04.24.04-.02.17-.17,0-.29.08.01.05.1.02.16.01,0,.14-.36.15-.41.27-.13-.07-.43-.16-.52.09-1.01.02-2.06.29-3.06.55l-.03-.16c-.67.38-1.34.44-2.04.65.45-.52,1.39-.47,2.17-.75.43-.15.75-.45,1.22-.49Zm-5.59,1.83c.42-.52,1.46-.44,2.17-.75-.41.44-1.6.57-2.17.75Zm5.62,7.41c.19-.28.5-.22.92-.41-.16.18-.59.45-.92.41Zm6.26-11.08c-.05-.13.07-.2.26-.23l.03.16c-.1.02-.2.05-.29.07Zm2.52,10.53c.13-.18.52-.12.73-.19-.11.16-.57.17-.73.19Zm-1.59-10.07c.21-.05.23.25.14.34-.29.02-.09-.19-.14-.34Zm.23,0c0-.06.13-.08.21-.11-.03.16.13.11.12.24-.2.05-.21-.1-.33-.13Zm1.77,8.99c.04-.13.46-.3.45-.06-.22.09-.28.01-.45.06Zm2.37,0c.17-.02.39,0,.51-.13.19.01-.5.46-.51.13Zm-1.95-11.33c0-.19.34-.17.51-.18-.03.21-.29.11-.51.18Zm2.33,11.72c-.05-.21.57-.15.63-.32.26-.05-.09.26.11.19-.17.08-.49.09-.74.13Zm-2.66-21.83c0-.11.18-.15.18-.26.12,0,.09.15.32.03.02.15-.29.17-.5.24Zm.76-.09c.32-.1.58-.27.95-.3-.08.24-.7.25-.95.3Zm-.02-1.35c.21.06.41-.15.53-.08.08.18-.61.3-.53.08Zm.28,1.12c.02-.13.25-.29.43-.22-.1.1-.28.27-.43.22Zm1.2-.25c.14-.15.32-.28.57-.25.03.11-.26.09-.36.15,0,.12.27-.04.38-.04-.17.21-.33.12-.59.15Zm2.39-.93c.02-.27.6-.14.72-.29-.13.25-.42.13-.72.29Zm.34.13c.06-.13.56-.21.67-.17.05.12-.34.06-.19.21-.13-.05-.31-.04-.47-.04Zm2.03,9.95c.56-.37.85-.45,1.49-.7-.01.11-.34.09-.18.26-.54.11-.84.31-1.31.44Zm-1.55-10.29c.14-.11.74-.51.97-.25-.28-.07-.66.17-.97.25Zm.45.32c0-.14.21-.3.34-.25-.05.11-.11.22-.34.25Zm.33-.3c.24-.15.72-.21,1.11-.33-.1.3-.76.13-.7.44-.15.06-.2.01-.31.02.12-.08.23-.26-.1-.14Zm5.44,20.88c-.11-.16.21-.14.35-.19.08.17-.22.25-.35.19Zm-3.57-21.28c.56-.24,1.33-.34,2.2-.69-.1-.21-.35.13-.54.02,0-.18.41-.18.65-.26.18.15-.06.28.08.47-.91.19-1.52.49-2.4.47Zm3.39,10.34c-.03-.25.41-.31.78-.4,0,.28-.49.35-.78.4Zm.89-.65c-.04-.26,1.16-.29.29-.12-.06.06-.16.1-.29.12Zm-.97-10.75c-.09-.18.34-.15.5-.23-.08.17-.19.11-.5.23Zm.62.01c0-.14.16-.22.34-.3-.05.06-.06.14-.04.23l-.3.07Zm1.69-1c.01-.05.25-.24.29-.12.07-.02.05-.08.06-.12.22,0,.1.06.11.19-.22.09-.23-.04-.46.06Zm.75-.13c.04-.06.07-.11-.02-.1-.03-.11.26-.09.36-.14-.05.11-.11.21-.35.25Zm1.71-.9c.03-.2.3-.06.5-.23.09.18-.34.15-.5.23Zm-.08-1.82c.3-.01.6-.02.59.29-.18-.12-.51-.07-.59-.29Zm.41,1.47c.09-.11.47-.29.04-.23.06-.25.47-.14.74-.23-.22.24-.36.26-.77.46Zm4.3,22.78c.11-.14-.07-.09.04-.23.49,0,.61-.03,1.04-.14-.13.22-.71.25-1.08.37Zm-3.97-24.05c-.13-.2.57-.37.52-.13-.27.02-.34.2-.52.13Zm.36,1.21c-.02-.16.47-.24.59-.2-.17.14-.29.07-.59.2Zm4.84,22.49c-.1-.18.37-.18.43-.15-.04.11-.3.21-.43.15Zm-3.74-23.3c-.04-.15.23-.25.35-.19-.05.09-.17.15-.35.19Zm1.42-.76c.5-.08.87-.39,1.25-.39.08.15-.1.18-.02.33-.13-.07-.51.13-.48-.11-.08.21-.48.12-.75.17Zm.16.02c.14.06.11.29-.18.31.17-.36-.33.1-.42-.18.31-.03.26-.05.6-.14Zm.65-1.17c.18-.2.28-.11.52-.12-.18.2-.28.11-.52.12Zm8.81,24.25c-.03-.08.06-.1.05-.17.23-.07.33.02.6-.08,0,.17-.47.3-.64.25Zm-3.25-24.43c.15-.22.48-.08.56-.34.39-.05.55.03.82-.19l.04.26c-.42.02-.93.27-1.43.27Zm4.49,24.1c.28.02.35-.09.6-.08,0,.18-.61.28-.6.08Zm-3.02-24.54c.2-.32.81-.43,1.11-.31.25-.31.49-.55,1.09-.46-.17.19-.72.12-.76.55-.64.06-1.13.26-1.44.22Zm.26.64c-.02-.15.4-.22.51-.17-.02.15-.17.25-.41.31,0-.08-.01-.15-.1-.14Zm.69-.05c.02-.2.3-.06.59-.19,0,.1.11.09.11.19-.25.01-.51.04-.7,0Zm4.68,24.59c.14-.13.32-.17.5-.17-.04.22-.25.06-.5.17Zm-4.17-26.22c0-.12.31-.09.44-.15-.14.15.04.11.24.05-.06.23-.46.07-.68.1Zm.5.7l-.03-.16c.12-.03.25-.06.37-.08.05.15-.23.16-.35.24Zm4.35,25.48c.05-.11.21-.16.42-.2-.02.13-.25.28-.42.2Zm.09-.83c0-.1.28-.02.38-.03-.05.23-.28.1-.38.03Zm.55-.33c-.01-.13.23-.16.42-.2.05.16-.29.26-.42.2Zm.76,0c-.09,0-.05-.04,0-.05,0-.14-.29.02-.25-.16.18-.02.14-.13.36-.13.04.04.08.08.16.07.01.14-.27.14-.26.27Zm-3.65-25.69c.02.06.14.01.23,0,.09.08-.2.22.03.21-.06.1-.33-.1-.42-.18.26-.07.16-.18.44-.15-.01.08-.18.08-.29.12Zm4.42,26.71c-.04-.17.37-.32.37-.08-.09.09-.26.12-.37.08Zm-.1-1.11c-.06-.16.17-.18.18-.31.1.01.15.08.18.18-.08.06-.19.11-.36.13Zm-2.98-25.46c.03-.05.06-.1.05-.17.09,0,.2.05.09.09.06.04.18.02.17.13-.07-.02-.14-.04-.15.03-.08,0-.07-.09-.17-.07Zm.49-.32c.08.19.1.2-.02.38-.13-.08-.29-.31.02-.38Zm4.49,25.94c0-.06-.03-.09-.09-.09.15-.14.15.08.44-.09-.01.09.07.09.16.07-.13.16-.3-.1-.51.11Zm-2.94-24.44c.53-.37,1.91-.56,2.43-.79-.17.37-1.66.58-2.43.79Zm.77-.54l-.02-.16c.18-.05.36-.08.46-.04.01.14-.23.16-.43.2Zm.5-.27c0-.05-.02-.1-.02-.16.15,0,.33-.05.32.09l-.3.06Zm.24-.91c0-.06.07-.04.07-.02.22-.29.08.13.32.04-.01.08-.18.08-.29.12,0-.08-.01-.15-.1-.14Zm1.59.79c-.01-.18.4-.18.57-.28-.06.26-.35.13-.57.28Zm6.88,25.81c.09-.1.36-.23.51-.16-.01.12-.36.1-.51.16Zm3.5-27.02c.67.24.28.55-.6.66.08.06.25.03.39.03.06.16-.34.11-.35.23-.1,0-.08-.12-.11-.19-.72.2-.77.23-1.56.42-.13-.18-.38.07-.56-.1-.2.09.25.07.03.21-.53.06-.5-.09-1.06.1,0,.15.48-.16.4.08-.36-.01-.62.09-.89.23-.04-.12-.02-.2.04-.28-.2.02-.23.12-.19.25-.37.13-.47,0-.63-.09.34-.47,1.74-.33,2.21-.71.91-.05,1.71-.24,2.64-.36-.03-.09-.26.02-.31-.05-.01-.16.44-.19.46-.04.2-.15.2-.19.1-.4Zm-.67,27.74c.03-.13.32-.24.43-.19-.05.1-.21.16-.43.19Zm.28.32c-.09-.19.32-.27.29-.06-.1.02-.2.04-.29.06Zm-.58-3.87c.12-.12.79-.28.69.02-.25-.1-.43-.04-.69-.02Zm.8,3.34c.37-.32,1.08-.19,1.46-.34-.12.09-.17.21-.17.36-.37.06-.67-.08-.97.09-.08-.06-.09-.19-.32-.1Zm-3.39-25.59c.04-.13.42-.1.59-.17-.1.28-.28.13-.59.17Zm3.67,23.43c.05-.06.06-.13.04-.22.22-.08.16.12.38.03.01.13-.23.15-.43.19Zm.15-.51l-.02-.16c.34-.19.55-.07.97-.09-.28.19-.61.07-.95.24Zm.94-.3c.6-.28,1.13-.07,1.84-.37-.05.14,0,.12-.03.33-.37-.1-1.09-.06-1.18.18-.13.01-.18-.06-.18-.18-.21.09-.07.09-.04.22-.22.02-.21-.19-.41-.19Zm-3.12-22.46c-.04-.23.23-.02.44-.14-.09.15-.24.14-.44.14Zm.97,1.31c.8-.4,2.14-.5,2.98-.65.18-.09-.09-.22-.25-.16.05-.16.32-.05.45-.09.02.09-.08.13-.04.22.05.11.37-.05.53-.05-.94.71-2.03.52-3.56.87,0-.07-.01-.15-.1-.14Zm-.3-3.06c.06-.1.31-.12.43-.19,0,.1.11.09.11.19-.29.11-.25-.11-.54,0Zm4.48,24.08c-.02-.21.29-.25.56-.33.02.09-.07.13-.04.22-.18-.09-.28.08-.51.1Zm-2.75-23.83c0-.13.09-.22.02-.38.42-.04.61.04,1.09.05-.22.28-.66.15-1.11.33Zm2.18-1.4c-.12.02-.25.05-.37.07.6-.2,1.31-.4,2.05-.56.75-.16,1.53-.28,2.29-.29.08-.03.04-.11.14-.13.18-.01.32,0,.47.02,0,.17-.36.16-.59.22,0,.08,0,.15.1.14-.72.24-2.05.36-3.11.88-.25,0-.49-.03-.64-.14-.21.09.07.16.04.26-.19.08-.37-.14-.46.04-.23,0-.1-.06-.11-.19-.37.15-.63.27-.88.28-.05.19.24.03.39.03-.21.23-.75.26-.97.19-.09-.19.3-.41-.13-.35.3-.25,1.21-.06,1.34-.32-.59-.01-1.57.37-1.91.11.77-.39,1.48-.22,2.32-.46.01.07.02.14.03.21Zm-1.8,2.4c-.02-.14.13-.29.28-.22.04.13-.14.17-.28.22Zm.7-.46s-.07.07-.06.12c.95-.18,1.04-.28,1.85-.53.38.48-1.38.7-1.8.84-.33-.08-.42-.28.01-.43Zm.33-.87c.03-.13.23-.19.26-.32.12.14.64-.12.7.08-.35-.09-.56.28-.97.25Zm3.17,1.68c0,.05.1.02.16.02,0,.08-.22.06-.21.15.1.1.47-.07.68-.08-.28.31-1.05.38-1.3.58-.13-.09-.09-.27-.05-.31-.09-.16-.17.03-.31-.05-.2.11.25.06.19.23-.58.12-.71.08-.96.3-.25-.03,0-.09-.46.04-.09-.36.47-.17.64-.34-.28-.17-.94.39-.99.04.94-.13,2.06-.75,3.14-.57-.14.14-.26-.09-.54,0Zm-2.15-1.56c-.26.04.16-.23-.11-.19.05-.17.26-.03.31,0,.04.12-.21.1-.2.2Zm.27-.27c.53-.24,1.8-.4,1.53-.09-.41-.15-.89.18-1.53.09Zm1.88,3.93c-.12,0,.05-.11-.09-.09.11-.27.63-.14.9-.18-.05.29-.68.07-.81.27Zm.75-.15c.12-.02.25-.05.37-.07-.04.06-.08.11.01.1,0,.08-.22.06-.21.15-.13.01-.18-.06-.18-.18Zm-.9-4.13c.24-.12.64-.19,1.08-.28.45-.08.94-.16,1.37-.3-.46.5-1.36.37-2.14.62.05-.17-.18-.06-.31-.04Zm3.19,4.07c.18.06.62-.2.77.02.16-.07.24-.18.51-.2.06.1.24.13.11.25-.17.05-.11-.14-.25-.12-.17.05-.15.17.02.16-.75.24-1.12.32-1.79.33.16-.08.31-.29.51-.2-.04-.33-.37-.07-.53.04-.03-.06-.31-.16-.18-.18-.03-.16.37-.07.58-.22-.23-.11-.85.19-.98.13.07.12.19.24-.11.29,0-.37-.39-.37-.81-.32.05-.06.06-.13.04-.22.83.02,2.46-.64,3.58-.72.02.09-.08.13-.05.22.24-.07.24-.25.49-.31l.03.21c.13-.02.15-.09.29-.11.17-.06-.1-.07.05-.17l.37-.07c0,.06.03.09.09.09-.13.14-.16.31-.49.36.06.04.1.1.1.2-.19-.07-.41.18-.61.06-.1.05-.12.14-.12.24-.62.05-.98.09-1.65.25Zm-.42-5.13c.09.16-.1.18-.11.29-.43.02-.53.07-.98.13.46.17-.92.35-1.05.2.68-.37,1.68-.26,2.14-.62Zm-.33-.15c0-.13.33-.09.37-.07-.03.19-.25.11-.37.07Zm.52.39c-.08-.18.09-.25.35-.28.08.13-.13.13-.12.24.62.04,1.21-.23,1.48.1-.54.01-.72.18-1.1.37-.11-.03-.17-.11-.32-.1.1-.14.17-.11.37-.12-.09-.19-.31-.25-.64-.2Zm2.39-.5c.04-.13.46-.14.39.04-.06.05-.16.09-.29.11,0-.08,0-.15-.1-.14Zm5.43,27.09c.15-.25.38-.02.67-.07.05.14-.41.03-.35.17-.19.05-.09-.19-.32-.1Zm2.27-1.06c.41-.16.85-.03,1.24-.34.26-.06.18.22.47.13.08.08-.2.22.03.21-.35.2-.6.24-1.01.35-.1-.05-.12-.18-.04-.26-.24-.02-.52,0-.69-.09Zm-2.13-25.76c0-.12.31-.08.44-.14.02.14-.34.19-.44.14Zm.16-1.05c.02-.12.37-.09.52-.15,0,.3-.24.06-.52.15Zm2.93.11c-.23-.05.14-.22.35-.22.11.25-.36.14-.35.22Zm5.35,22.68c.23-.11.57-.16.41-.34.55-.16.83.45.4.74-.31-.09-.76-.05-.81-.4Zm.46-18.05c-.06-.16.14-.19.35-.22,0,.1.11.1.1.2-.18.04-.36.07-.46.03Zm7.08,16.27c-.09-.24.26-.27.4-.39-.02-.42-.32-.48-.02-.8.28-.07.36.05.54.07.13.44.09.45-.04.86-.19.08-.58.07-.49.3-.1-.04-.28,0-.38-.04Zm-.78-10.48c.02-.12.39-.11.45-.08-.04.08-.15.12-.28.15.02-.09-.07-.09-.16-.08Zm2.11,9.62c.13-.03.16.04.3,0,.08.14-.09.15-.04.27-.1-.08-.27-.1-.26-.28Zm-1.83-17.22c-.08-.19.55-.22.46-.02-.14.14-.3.03-.46.02Zm3.17.35l.15-.02c0,.17.21.23-.12.29.02-.17-.16-.14-.03-.26Z"/>
    <path class="cls-2" d="m73.15,41.03c-.36-.03-.77.19-1.16.35.02-.26-.18.12-.24-.05.13-.24,1.13-.23,1.35-.56-.04-.06-.19,0-.3.02-.11-.1.62-.18.61,0-.29.07-.43.08-.26.23Z"/>
    <path class="cls-2" d="m70.56,16.08c.15-.04.07-.17.28-.18.34.01.75-.08.95-.35.16,0,.17.04.1.14.84-.38,1.52-.4,2.26-.87-.16.24.76-.05.51-.18,1.04-.09,2.61-.53,3.46-1.1-.35.16-1.05.13-1.32.43.13-.27-.33.04-.36.14l-.03-.16c-1.6.41-3.29.84-4.92,1.26-1.63.43-3.21.84-4.61,1.15-.27.26-1.34.26-1.58.73-.43,0-.58-.02-.98.19.12-.33-.46.09-.42-.16-.32.2-.76.05-.88.28.47-.06.74-.29.92-.07-.45.05-.89.31-1.22.15-.33.15-.94.5-1.26.37,0,.25-.41.05-.58.26-.01.1.14.1.03.15-.27.18-.67.05-.89.23.09-.02.18-.03.17.07-.22.1-.24-.03-.46.06,0,.18.34,0,.48.04.12-.2.97-.43,1.11-.34-.24.15-.3.3-.59.2-.03.15.17.07.19.17.25-.06.22-.23.49-.29-.02.15-.18.25-.24.39.27-.05.16-.26.41-.32.09.08-.19.23.04.21.12-.19.4-.03.54-.03-.11-.29.38-.07.49-.29-.22.13-.45-.04-.26-.15.2.13.32-.02.62,0,0,.05.07.05.09.09-.35.09-.24.36-.06.07.47-.07.98-.13,1.29-.17-.09,0-.18-.01-.24-.05.45-.13.41.1.44-.17.31-.09.3.17.5.2-.11-.17.33-.13.26-.28-.14.01-.43.18-.39,0,.49-.09.55-.1.96-.3,0,.1.11.09.11.19-.24-.02-.55.06-.58.25.43-.04.62-.21.85-.43.22.12.47-.07.44-.17.23.03.13.17.06.31.42-.16.57-.2.91-.12-.1.04-.06.14-.12.19.27-.2.33-.15.6-.1.23-.24,1.17-.63,1.69-.54.26-.28.55-.29,1.23-.53.06-.26-.44.11-.47-.04.06-.19.55-.48.8-.31.05.12-.34.06-.2.21.82-.37-.24-.47-.62-.44Zm-7.79,2.09c0-.05-.02-.1-.03-.16.22-.12.2.04.32.03-.01.08-.18.09-.29.13Zm.63.06c.22-.23.5-.56.93-.45l.04.21c-.13.06-.34-.07-.37.09-.26.01.06-.12.05-.17-.21-.08-.25.32-.64.33Zm3.56-.96c.14-.18.78-.36.9-.17-.3.05-.7.23-.9.17Zm.51.25c.06-.15.38-.2.65-.27-.08.22-.36.25-.65.27Zm.54-.46c.08-.1.24-.16.43-.22.1.18-.3.27-.43.22Zm.37.34c-.05-.13.07-.2.27-.23.05.13-.07.2-.27.23Zm.15-.47c.08-.38.97-.2.86,0-.28-.09-.53-.09-.86,0Zm.63-.38c-.12-.03.31-.1.59-.2-.05.24-.4.25-.59.2Zm.4.5c-.1-.11.18-.3-.06-.31.35-.07.43-.06.99-.14-.11.23-.46.36-.93.45Z"/>
    <path class="cls-2" d="m13.04,51.11c.09-.08.58-.43.65-.21-.31.04-.32.09-.65.21Z"/>
    <path class="cls-2" d="m10.72,35.49c.06-.09.86-.18,1.01-.38.24.11-.84.4-1.01.38Z"/>
    <path class="cls-2" d="m18.5,46.69c.11-.1.15-.23.4-.29.03.14.25.04.28.19-.23-.05-.38-.07-.68.1Z"/>
    <path class="cls-2" d="m21.4,42.61c-.25.11-.22-.13-.47-.02.03-.14.44-.19.39-.01.08-.05.13-.11.11-.2.3-.03.09.14-.03.23Z"/>
    <path class="cls-2" d="m28.63,37.12c-.03-.15.13-.24.24-.34,1.11-.17-.09,0-.24.34Z"/>
    <path class="cls-2" d="m28.67,35.52c-.11,0,.01-.07-.03-.15.25-.02.52-.06.77-.06-.13.23-.59-.03-.73.22Z"/>
    <path class="cls-2" d="m28.22,26.09c-.08.03-.04.11-.04.18-.47.16-.87-.1-1.29.22.06.11.39-.11.47-.03-.17.16-.31.04-.58.23-.1-.16-.04-.12-.14-.29.61-.24.55-.13,1.33-.39-.18.24.43-.04.4.04-.07-.2.24-.25.44-.13.2-.11-.14-.11.03-.23.28.04.83-.33.77-.06.08-.03.13-.03.16,0,.17-.1-.19-.18.18-.27-.21.25.2.09.34.12-.32.42-1.34.47-1.8.75-.11-.02-.18-.09-.27-.14Z"/>
    <path class="cls-2" d="m28.06,32.31c-.1-.1.56-.08.82-.19-.19.22-.59.13-.82.19Z"/>
    <path class="cls-2" d="m29.86,35.6c.07-.12.42-.02.67-.14.06.13-.41.08-.34.21-.11-.02-.17-.1-.33-.07Z"/>
    <path class="cls-2" d="m36.49,35.99c.18-.1.48-.19.81-.24-.18.09-.53.24-.81.24Z"/>
    <path class="cls-2" d="m38.4,27.96c.05-.14.45-.26.64-.29-.13.13-.45.19-.64.29Z"/>
    <path class="cls-2" d="m40.33,25.94c.11-.14.51-.17.48-.35.23.06-.31.43-.48.35Z"/>
    <path class="cls-2" d="m41.37,22.6c.06-.24-.4-.25-.63-.04.07-.24.82-.38,1.12-.64-.25.15-.24.38-.4.33-.17.06,0,.24.12.18,0,.08-.22.08-.2.17Z"/>
    <path class="cls-2" d="m48.56,46.62c.57-.4,1.67-.35,2.13-.87.08.12.38-.01.41.16-.75.07-.96.44-1.54.38-.18.25-.75.27-1.01.34Z"/>
    <path class="cls-2" d="m44.7,25.91c.09.13.12.03.31-.03.29,0-.3.07-.12.2-.21.07-.4.12-.4-.05.06-.03.07,0,.08.03.06-.06.09-.13.12-.2.09-.01.05.04,0,.05Z"/>
    <path class="cls-2" d="m46.98,25.21c.15-.02.32-.07.33.07-.34.04-.35.19-.57.27.01.05.1.02.16,0-.31.39-1.1.37-1.65.36,0-.11.12-.18.18-.27.15.3,1.29-.25,1.55-.44Z"/>
    <path class="cls-2" d="m47.15,21.73c.18-.05.2-.15.43-.18-.02.09-.08.16-.11.25,1.08-.55,2.88-.52,3.97-1.24.46.23.84-.48,1.13-.2-.08-.14-.07-.09-.05-.26-.47.32-1.3.37-1.39.1.09.27.07-.34.36-.15.08-.14-.23-.14-.04-.21.15.04.29.09.42.16.17-.06.29-.14.43-.22.02.06.02.15.1.14-.12-.28.37-.18.51-.19-.17-.15-.59-.01-.74-.18-.03.19-.13.06-.36.15-.02-.06-.02-.15-.1-.14-.05.07-.36-.02-.51.19.16-.01.17.04.1.14-.38.02-.78.29-1.22.16.02.3-.28.23-.57.26,0,.08.06.18-.03.23-.15.03-.18-.1-.26-.15.13-.02.42-.21.19-.21.02.15-.52.09-.5.24.16-.05.24-.02.25.1-.21-.08-.14.15-.44.17,0,.14.02.29-.08.4-.23-.22-.39.21-.65.28-.23-.06-.43-.15-.54-.34-.23.1-.3.08-.36.16.16-.03.18.1.26.14-.44.24-.61.24-1.11.31-.07.17-.2.28-.41.28.26.09,1.06-.43,1.29-.2Zm2.87-.89c-.09.02-.08-.08-.11-.14.08-.07.19-.12.36-.15.16.19-.41.1-.26.29Z"/>
    <path class="cls-2" d="m51.36,45.61c-.14-.1.36,0,.59-.11-.06.17-.37.24-.62.34.08-.1.33-.25.03-.23Z"/>
    <path class="cls-2" d="m49.18,24.88c-.15.04-.07.17-.28.18-.1-.08-.17-.19-.35-.18,0-.06.14-.07.13-.14.17.23.53-.07.67.25-.1,0-.16-.03-.18-.12Z"/>
    <path class="cls-2" d="m49.4,24.82c-.09-.16.13-.12.15-.04.11-.02.21-.05.21-.11.19,0-.05.23-.18.27,0-.11-.05-.16-.18-.12Z"/>
    <path class="cls-2" d="m53.78,45.83c.08-.03.03-.06-.01-.05.14-.17.69-.18.85-.34.01.03-.92.68-1,.38.08-.03.13-.02.16.01Z"/>
    <path class="cls-2" d="m54.82,45.65c-.07.16.44.11.64.15-.05-.15.75-.29,1.29-.46-.23.23-1.59.73-1.83.44-.41.07-.44.11-.81.16.47-.33,1.58-.61,2.08-.72-.09.19-1.01.3-1.37.42Z"/>
    <path class="cls-2" d="m52.36,24.02c-.31,0,0-.06-.04-.21.12-.03.25-.07.37-.1-.13.15.05.09.11.19.23-.05-.02-.3.33-.31.06.1-.13.11-.12.19.23-.19.54-.27.81-.22-.09.18-.26.14-.44.12-.04.11-.16.19-.17.32-.07-.02-.18-.01-.31.03,0-.06.13-.08.21-.11-.13.02-.71-.1-.76.09Z"/>
    <path class="cls-2" d="m56.99,45.02c.08.05.21.05.32.08,0,.08-.17.09-.28.13.09-.1.02-.18-.18-.12.16-.11.12-.31.39-.38.13.18-.17.19-.25.28Z"/>
    <path class="cls-2" d="m57.79,44.37c.14-.19.42-.06.57-.21-.02.2-.42.17-.57.21Z"/>
    <path class="cls-2" d="m54.11,23.44c.17-.06.28-.06.32.02.21-.1.07-.1.03-.23.1-.03.2-.05.3-.08-.35.26.15.05.2.22-.33,0-.63.26-.84.06Z"/>
    <path class="cls-2" d="m55.97,22.95c-.29.03-.46.21-.59.16.01-.07.11-.12.12-.19.2.02.69-.07.5.19-.11,0,.02-.07-.03-.15Z"/>
    <path class="cls-2" d="m58.25,31.2c.06.15-.87.42-.49.24.23-.06.18-.22.49-.24Z"/>
    <path class="cls-2" d="m58.29,31.4c.13-.19.53-.13.74-.2-.11.16-.45.05-.74.2Z"/>
    <path class="cls-2" d="m58.22,22.94c-.07-.07-.25-.01-.26-.15.52-.16.72-.17,1.1-.35-.14.16-.04.16-.1.3-.07.02-.15.04-.22.06,0-.06.13-.08.21-.11-.1-.17-.73.08-.73.25Z"/>
    <path class="cls-2" d="m59.12,21.12c.23-.13.51-.05.89-.24-.21.2-.59.24-.89.24Z"/>
    <path class="cls-2" d="m59.53,18.78c-.22.1-.12-.15-.39,0,.04-.16.33-.23.31-.41.24.12-.32.32.08.41Z"/>
    <path class="cls-2" d="m60.01,21.32c.17.06.48-.03.7-.02,0-.03-.01-.07-.02-.1.36.1-.69.37-.68.12Z"/>
    <path class="cls-2" d="m60.86,19.2c-.05-.1.03-.15.04-.23.18-.01.2.32.49.09.24,0-.15.13-.12.19-.13-.03-.19-.13-.4-.06Z"/>
    <path class="cls-2" d="m61.38,21.13c.06-.24.48-.11.68-.12-.03.05-.06.1-.04.17.27-.2.22.06.48.04.08-.03.03-.12.13-.14.23-.08.34-.04.34.13-.4,0-.35.02-.74.19,0-.05-.02-.1-.03-.16-.17.06-.29.06-.38.04.06.12.13.16-.03.28,0,.13.33-.11.25.1-.16-.01-.31-.03-.47-.04.31-.15.11-.21,0-.38.16.06.19-.04.37-.09.01-.22-.31-.08-.55-.02Z"/>
    <path class="cls-2" d="m61.27,18.88c.21.02.25.06.46-.06.01.09.08.12.18.12-.02.01-.6.12-.63-.06Z"/>
    <path class="cls-2" d="m62.83,20.98c.19-.24.41,0,.48.09.07-.05.05-.14.2-.16-.1.4-.42.03-.69.07Z"/>
    <path class="cls-2" d="m71.5,43.29c.12-.09.67-.12.96-.19-.19.16-.7.16-.96.19Z"/>
    <path class="cls-2" d="m70.34,30.62c-.15.01-.26.1-.14.09-.38.14-.47.02-.12-.24.07-.02.19.19.23,0,.11,0-.02.07.03.16Z"/>
    <path class="cls-2" d="m72.84,29.99c0-.06.07-.05.07-.02.08-.08.11-.18.35-.2-.02.13-.25.29-.42.22Z"/>
    <path class="cls-2" d="m75.43,42.24c.17-.22.45-.16.73-.18-.07.11-.46.05-.73.18Z"/>
    <path class="cls-2" d="m83.61,40.7s-.1.02-.15.04c0-.05-.04-.04-.08-.03.19-.11.3-.26.55-.35.05.17-.31.11-.32.35Z"/>
    <path class="cls-2" d="m86.36,39.82c-.11.17-.73.06-.35.19-.65-.03-1.19.05-1.77.32.49-.11.55,0,.84.01-.47.27-.82-.04-1.1.26.12-.01.07.1.03.16.19-.05.43-.13.46,0-.07.12-.63.02-.64.26.91-.26,1.74-.46,2.56-.65.41-.09.82-.19,1.24-.28.42-.09.86-.18,1.31-.28-.13-.05-.35,0-.47-.06.06-.02.14-.03.14-.08-.06,0-.14.03-.16-.02.28-.01.68-.22.49-.27-.09.2-.44.15-.66.15-.17.14.2.24-.09.34-.5-.08-1.21.45-1.49.19.24-.2,1.08-.08,1.21-.5-.42.09-.9.34-1.26.19-.06.07-.13.14-.19.21-.28-.03.04-.11-.1-.14Zm-1.21.51c-.05-.16.29-.27.42-.21-.05.11-.21.17-.42.21Z"/>
    <path class="cls-2" d="m83.68,38.41c-.01-.12.31-.1.43-.16-.04.06-.07.11.02.1-.02.12-.29,0-.45.05Z"/>
    <path class="cls-2" d="m88.6,38.27c.21-.13.59-.39.93-.32-.22.15-.66.2-.93.32Z"/>
    <path class="cls-2" d="m89.17,38.46c-.1,0-.08-.12-.11-.19.2-.03.61-.35.6-.03-.24.02-.55-.09-.5.22Z"/>
    <path class="cls-2" d="m92.15,39.03c0-.06-.03-.09-.09-.09.23-.21.55-.18.81-.13-.16.15-.46.06-.72.22Z"/>
    <path class="cls-2" d="m88.52,11.76c-.19.07-.46-.09-.27-.21-.01-.08.11.15.27.21Z"/>
    <path class="cls-2" d="m93.09,37.36c-.13.04-.16-.03-.3.01.14-.23.26-.17.56-.29.19.03-.38.12-.26.27Z"/>
    <path class="cls-2" d="m95.11,37.17c.27-.23.9-.2,1.21-.49-.17.34-.8.35-1.21.49Z"/>
    <path class="cls-2" d="m95.97,37.3c-.01.1.07.09.16.07,0,.13-.18.16-.28.12-.04-.11.25-.44.27-.22-.05.01-.1.02-.15.03Z"/>
    <path class="cls-2" d="m92.43,10.56c-.13-.1.52.02.67-.15-.18.19.18.17.34.19-.12.22-.37.12-.66.2.32-.2-.16-.21-.35-.24Z"/>
    <path class="cls-2" d="m92.58,5.28c.03.11-.26.08-.37.14-.01-.26.29-.39.62-.52-.2.3-.2.29-.25.38Z"/>
    <path class="cls-2" d="m99.42,37.49c.05-.23.36-.07.59-.12-.06.13-.35,0-.59.12Z"/>
    <path class="cls-2" d="m102.42,8.12c-.02.08-.1,0-.22.05.09-.1.22-.16-.09-.09-.07-.08.41-.21.59-.18,0,.09-.55.17-.28.22Z"/>
    <path class="cls-2" d="m110.87,6.74c-.21.06.49-.25.56-.38.08.08.44.2.55.05.17.25-.4.06-.75.15.04.1.22.06.32.1-.12.15-.35-.09-.68.08Z"/>
    <path class="cls-2" d="m113.35,6.79c-.14,0-.44.16-.39-.03.45-.03.48-.34.25-.43.04-.06.16-.09.13-.19.31.12.02.39.02.64Z"/>
    <path class="cls-2" d="m114.54,5.96c-.04.17.28.27.13.35-.26,0-.05-.22-.28-.32.13,0,.14-.07.13-.13.48.03.62-.2,1.2-.24-.05.1-.24.19-.37.13.19.18-.25.21-.48.42-.01-.09-.03-.17-.04-.26l-.3.06Z"/>
    <path class="cls-2" d="m117.27,2.99c-.09.29.26.14.41.19-.16.21-.95-.05-.41-.19Z"/>
    <path class="cls-2" d="m121.1,5.43c-.16.05-1.06.18-.24-.06.06.04.15.05.24.06Z"/>
    <path class="cls-2" d="m121.97,5.05c-.25.11-.48.23-.89.27.16-.16-.12-.18-.2-.29.19-.07.53-.1.62.05.11-.07-.03-.07.05-.22.11.05.37,0,.45-.08.15.04-.29.14-.04.28Z"/>
    <path class="cls-2" d="m121.95,5.48c.26-.3,1.48-.81,2.26-.96.09-.03.05-.11.05-.17.2.03.25.06.19.23.33-.06.33-.14.53-.05.09-.04.15-.1.13-.19,1.63-.19,2.89-.59,3.96-.89-.21.2.27.04.19.29.06-.04.11-.08.22-.09-.04-.1-.3.01-.25-.17.38.03.53-.06.72.19-.1.17-.44-.17-.36.17-2.29.41-3.56.59-6.17,1.04-.21,0-.13.13-.2.2-.06-.08-.36.07-.39-.03-.1.07-.23.12-.2.25-.2.07-.61.04-.67.18Z"/>
    <path class="cls-2" d="m128.56,8.77c-.02-.16.34-.13.43-.24-.06-.04-.15-.05-.24-.06.41-.44,1.23-.31,1.93-.52-.18.34,1.55.13,1.66-.2.23-.09.17.11.32.11.18-.11.25-.27.49-.35-.05.06-.06.13-.05.22.31-.14.51.18.8.24.06-.16.32-.16.52-.14-.31.17.09.18.39.09-.41.21-.53.41-1.01.5.02-.07.12-.11.13-.18-.25-.11-.69-.08-.99,0-.11-.05-.12-.18-.04-.26-.21.21-.91.09-1.01.45-.17,0-.31-.06-.54,0,.05-.22.23-.03.45-.08.06-.05.1-.12.13-.19-.89.17-2.31.36-3.37.62Z"/>
    <path class="cls-2" d="m129.57,10.57c-.16-.12-.58.01-.71-.14.31-.05.75.03.91-.06.18,0-.17.14-.2.2Z"/>
    <path class="cls-2" d="m133.66,36.29c.05-.06.06-.13.04-.22.1.16.35.21.61.05.07.03.06.14.17.13-.04.2-.18.04-.43.13.01-.17-.18-.14-.39-.09Z"/>
    <path class="cls-2" d="m131.31,5.84c-.43.16-.66.16-1.11.31.02-.07.08-.13.21-.15-.05-.04-.09-.07-.1-.14.45.09.76-.07,1.12-.26-.1.07-.61.34-.12.24Z"/>
    <path class="cls-2" d="m132.35,5.55c-.16-.11.31,0,.25.17-.07-.03-.18-.03-.31,0-.05-.07.28-.18.05-.17Z"/>
    <path class="cls-2" d="m132.57,4.28s.02-.05.07-.07c0-.03,0-.07-.01-.1.14.22.9-.15.88.23-.16.05-.15-.05-.17-.13-.33.01-.57.08-.76.08Z"/>
    <path class="cls-2" d="m134.93.01c.22-.05.25.08.47.03-.17.08-.31.29-.58.26,0,.1.11.09.1.2-.28.04-.3-.02-.53.09.04.06.11.09.24.07-.09.17-.24.07-.35.27-.16.01-.02-.23.04-.28-.12-.04-.2-.12-.4-.09.04-.06.17-.08.13-.18.47-.14.7-.12.88-.37Z"/>
    <path class="cls-2" d="m135.64,11.26c-.09,0-.05-.05,0-.05-.06-.04-.18-.02-.17-.13.24-.01.35.1.55.12.23.12-.42-.05-.37.06Z"/>
    <path class="cls-2" d="m136.14,9.89c.1-.12.14-.26.42-.29-.25.31.42-.16.68-.06.07-.03.17-.27.05-.22.34.03,1.49-.18,1.99-.02.12-.37.55.02.65-.33.14-.02.07.17.18.18.34-.24.76-.03,1.05-.13.11,0-.04.44.25.17.15.2-.39.19-.46-.03-.32.09-.53.07-.84.04-.13.04-.16.12-.12.24-.44.04-.48-.06-.82.14.08-.58-1.04.17-1.48-.18-.36.27-.94.26-1.54.48Z"/>
    <path class="cls-2" d="m137.23,5.84c.06-.1.22-.16.44-.18.04-.16-.12-.12-.11-.25.41-.06.61-.23.87-.37-.15.35,1.57-.07,1.73.35.06-.05.16-.09.29-.1.15.13.38.18.71.15.41.31,1.26.26,1.52.54-.22-.05-.65.16-.52.14-1.29.37-3.63.03-4.56.89.26.04.43-.33.96-.32-.37.22-.4.46-.91.69,0,.15.48-.15.4.09-.11.11-.26,0-.52.09.29-.41-.77-.18-1.01-.09-.01-.1.2-.1.12-.24.27-.08.49.05.68-.12-.37-.3-.88,0-1.45.04.55-.14,1.02-.75,1.63-1.03.31,0,.71-.07.72-.34.18-.01.16.16.4.09.22-.14-.06-.28.5-.3.1-.05.13-.14.12-.24-.23-.19-.97.24-.85-.07-.17,0-.09.12-.21.14-.01.13.34-.09.25.12-.13.13-.36.09-.32-.11-.38.1-.4.36-.87.42Z"/>
    <path class="cls-2" d="m137.1,10.15c0-.12.2.04.37-.06.1.15.05.13-.04.28-.09-.09,0-.25-.33-.21Z"/>
    <path class="cls-2" d="m140.23,9.51c.29-.03.63-.1.99-.06-.08.01-.91.24-.99.06Z"/>
    <path class="cls-2" d="m141.22,7.08c0,.46-.88.13-1.29.11.48-.08.98-.19,1.29-.11Z"/>
    <path class="cls-2" d="m144.05,19.2c.3-.07.26.18.48.19.16.06-.54.04-.48-.19Z"/>
    <path class="cls-2" d="m151.92,31.06c.3-.05.27.21.48.25-.06.05-.45-.08-.48-.25Z"/>
    <path class="cls-2" d="m152.28,24.04c.04-.14.21.07.38,0-.04.11-.18.17-.35.22.05-.1.23-.2-.02-.21Z"/>
    <path class="cls-2" d="m154.27,31.22c.13,0,.53-.09.69.11-.36-.03-.42.01-.69-.11Z"/>
    <path class="cls-2" d="m154.55,31.71c.13-.2.32.04.45.04.53.02-.37.07-.45-.04Z"/>
    <path class="cls-2" d="m159.5,25.86c.13-.01.15-.09.29-.1.02.2-.54.27-.65.25.33-.18-.08-.24-.12-.41.16-.17.41-.33.17-.45.28.05.61.05.78.21-.33,0-.72.03-.47.5Z"/>
    <path class="cls-2" d="m167.49,23.95c-.32-.07-.19.08-.06.17-.05-.24.49-.15.87-.29.05.1.2.12.18.29-.23.04-.84-.05-.72.32-.53.27-1.47.32-1.88.65.3.5.79.19,1.34-.09-.03.21.21.15.33.22-.32.63-1.29.31-1.92.28.18-.09-.17-.18.05-.27-.43-.27-1.13-.31-1.43-.7-.18,0-.15.12-.36.11.01-.13-.03-.2-.1-.25-.25.14-.59.24-.46-.09-.13.03-.38,0-.28.15-.13-.05-.17-.19-.33-.22-.25-.03-.04.18-.28.15-.09-.25-.58-.11-.65-.39-.32.23-.82-.1-1.02-.33.92-.6,1.62.09,2.92-.1.03.34.44.35.85.2.13.03.18.14.18.29.27-.06.48-.06.67-.04.68-.4,1.15-.96,2.35-1.2.12.17.16.06.39.1-.33.19-.5.47-.75.7.11.05.1.22.11.36Z"/>
    <path class="cls-2" d="m43.33,21.83c.14-.19.47-.31.6-.5.16-.04.19.08.2.22.08-.08.14-.09.16.01.19-.21.39-.14.63-.34.18.07.29.22.64.09-.5.26-1.06.22-1.32.43-.17-.04-.28-.15-.5-.13-.19.12-.22.3-.55.37,0-.11-.05-.16-.18-.11.03-.05.06-.11.04-.18.11.02.18.1.26.14Z"/>
    <path class="cls-2" d="m60.18,20.95c.11-.07.08-.19.27-.23,0,.25.35.11.63.06.07.2-.45.17-.65.27-.09-.03-.06-.19-.25-.1Z"/>
    <path class="cls-2" d="m131.88,2.04c.06.11-.25.08-.19.3-.12-.16-.56,0-.58-.27-.39.16-.64.39-.51.79-.74.49-1.81.37-2.3.1-.33-.6-.08-1.13.51-1.33.88-.3,1.96.25,2.6-.16.26.04,1.02-.08,1.39.03-.06.18,0,.12.04.31-.28.09-.78.08-.73.34-.11-.01-.19-.05-.25-.12Z"/>
  </g>
  <g>
    <g>
      <path class="cls-1" d="m30.66,47.75c-.39,0-.72-.08-1.01-.23-.28-.16-.5-.38-.66-.66-.15-.28-.23-.62-.23-1.01s.08-.73.23-1.01c.15-.28.37-.5.66-.66.28-.16.62-.23,1.01-.23.25,0,.48.04.7.11.22.07.4.18.55.31l-.26.65c-.15-.12-.31-.21-.47-.26-.16-.05-.32-.08-.5-.08-.34,0-.59.1-.78.3s-.28.49-.28.87.09.67.28.88c.18.2.44.3.78.3.17,0,.34-.03.5-.08.16-.05.31-.14.47-.26l.26.65c-.14.13-.33.24-.55.31-.22.07-.46.11-.7.11Z"/>
      <path class="cls-1" d="m32.54,47.7v-3.69h1.71c.42,0,.74.1.97.3.23.2.34.47.34.83,0,.22-.05.4-.14.56-.09.16-.22.28-.39.37s-.36.14-.59.15l.03-.05h.15c.12.01.22.05.31.12.09.07.18.17.25.3l.6,1.12h-.91l-.62-1.15c-.03-.06-.08-.11-.12-.15-.05-.04-.1-.07-.15-.08-.06-.02-.12-.02-.2-.02h-.42v1.4h-.83Zm.83-2.02h.75c.21,0,.37-.04.47-.13.1-.09.16-.21.16-.39s-.05-.3-.16-.38c-.1-.08-.26-.13-.48-.13h-.75v1.02Z"/>
      <path class="cls-1" d="m36.31,47.7v-3.69h2.57v.66h-1.77v.83h1.66v.66h-1.66v.89h1.77v.66h-2.57Z"/>
      <path class="cls-1" d="m39.13,47.7l1.69-3.69h.69l1.69,3.69h-.84l-.44-1.03.34.26h-2.19l.34-.26-.43,1.03h-.84Zm2.02-2.83l-.67,1.6-.14-.2h1.64l-.14.2-.67-1.6h-.02Z"/>
      <path class="cls-1" d="m43.61,47.7v-3.69h.77l1.25,2.34h-.1l1.24-2.34h.75v3.69h-.77v-2.44h.06l-1.01,1.87h-.49l-1.02-1.87h.07v2.44h-.76Z"/>
      <path class="cls-1" d="m50.08,47.75c-.28,0-.53-.05-.75-.14-.23-.09-.42-.22-.58-.39-.16-.17-.29-.37-.37-.6-.09-.23-.13-.49-.13-.78s.04-.55.13-.78c.09-.23.21-.43.38-.6.16-.17.36-.3.58-.39.23-.09.48-.13.75-.13s.53.04.75.13.42.22.58.38c.16.17.29.37.37.6s.13.49.13.78-.04.55-.13.79-.21.44-.37.61c-.16.17-.35.3-.58.39s-.48.13-.75.13Zm0-.71c.21,0,.38-.05.53-.14s.26-.23.34-.41c.08-.18.12-.39.12-.64s-.04-.47-.12-.65c-.08-.18-.19-.31-.34-.4s-.32-.14-.53-.14-.38.05-.53.14-.26.23-.34.4c-.08.18-.12.39-.12.65s.04.47.12.64c.08.18.19.31.34.41s.32.14.53.14Z"/>
      <path class="cls-1" d="m53.98,47.75c-.2,0-.39-.02-.58-.05-.19-.03-.36-.08-.51-.13-.16-.06-.29-.12-.41-.2l.25-.66c.12.07.24.14.37.19.13.05.27.09.42.12.15.03.3.04.46.04.24,0,.42-.04.54-.11.11-.08.17-.18.17-.3,0-.07-.02-.13-.05-.18s-.09-.09-.17-.12c-.08-.03-.18-.06-.31-.08l-.6-.12c-.34-.07-.59-.19-.76-.36-.16-.17-.24-.4-.24-.68,0-.23.06-.44.19-.61.13-.17.31-.31.54-.4.23-.1.5-.14.8-.14.17,0,.34.02.5.05.16.03.31.08.45.14.14.06.25.13.35.21l-.25.63c-.14-.11-.3-.19-.48-.25-.18-.05-.37-.08-.58-.08-.15,0-.27.02-.38.05-.1.04-.19.09-.24.15-.06.07-.09.15-.09.24,0,.1.04.18.11.24.08.06.21.11.39.14l.6.12c.35.07.61.19.78.35.17.16.26.38.26.66,0,.23-.06.43-.19.61-.13.17-.3.31-.53.41s-.5.15-.81.15Z"/>
    </g>
    <g>
      <path class="cls-1" d="m64.43,47.7v-3.69h1.72c.27,0,.51.05.7.14s.34.23.45.41c.1.18.15.39.15.64s-.05.46-.15.63c-.1.18-.25.32-.45.41-.19.1-.43.15-.7.15h-.9v1.32h-.83Zm.83-1.97h.75c.21,0,.37-.04.47-.13.11-.09.16-.22.16-.4s-.05-.32-.16-.4c-.11-.09-.26-.13-.47-.13h-.75v1.07Z"/>
      <path class="cls-1" d="m68.04,47.7v-3.69h1.71c.42,0,.74.1.97.3.23.2.34.47.34.83,0,.22-.05.4-.14.56-.09.16-.22.28-.39.37s-.36.14-.59.15l.03-.05h.15c.12.01.22.05.31.12.09.07.18.17.25.3l.6,1.12h-.91l-.62-1.15c-.04-.06-.08-.11-.12-.15-.05-.04-.1-.07-.15-.08-.06-.02-.12-.02-.2-.02h-.42v1.4h-.83Zm.83-2.02h.75c.21,0,.37-.04.47-.13.1-.09.16-.21.16-.39s-.05-.3-.16-.38c-.1-.08-.26-.13-.48-.13h-.75v1.02Z"/>
      <path class="cls-1" d="m73.51,47.75c-.28,0-.53-.05-.75-.14-.23-.09-.42-.22-.58-.39-.16-.17-.29-.37-.37-.6-.09-.23-.13-.49-.13-.78s.04-.55.13-.78c.09-.23.21-.43.38-.6.16-.17.36-.3.58-.39.23-.09.48-.13.75-.13s.53.04.75.13.42.22.58.38c.16.17.29.37.37.6s.13.49.13.78-.04.55-.13.79-.21.44-.37.61c-.16.17-.35.3-.58.39s-.48.13-.75.13Zm0-.71c.21,0,.38-.05.53-.14s.26-.23.34-.41c.08-.18.12-.39.12-.64s-.04-.47-.12-.65c-.08-.18-.19-.31-.34-.4s-.32-.14-.53-.14-.38.05-.53.14-.26.23-.34.4c-.08.18-.12.39-.12.65s.04.47.12.64c.08.18.19.31.34.41s.32.14.53.14Z"/>
      <path class="cls-1" d="m76.06,47.7v-3.69h1.48c.42,0,.77.07,1.06.22.29.14.51.35.67.63.15.27.23.61.23,1s-.08.73-.23,1c-.15.28-.38.49-.67.63-.29.15-.64.22-1.06.22h-1.48Zm.83-.69h.6c.38,0,.67-.1.86-.29.19-.19.29-.48.29-.87s-.1-.68-.29-.87c-.19-.19-.48-.29-.86-.29h-.6v2.32Z"/>
      <path class="cls-1" d="m81.8,47.75c-.52,0-.92-.13-1.2-.4-.28-.27-.42-.66-.42-1.18v-2.17h.83v2.16c0,.29.07.51.2.66s.33.21.58.21.45-.07.58-.22c.13-.14.2-.36.2-.65v-2.16h.82v2.17c0,.52-.14.91-.41,1.18-.27.27-.67.4-1.19.4Z"/>
      <path class="cls-1" d="m85.97,47.75c-.39,0-.72-.08-1.01-.23-.28-.16-.5-.38-.66-.66-.15-.28-.23-.62-.23-1.01s.08-.73.23-1.01c.15-.28.37-.5.66-.66.28-.16.62-.23,1.01-.23.25,0,.48.04.7.11.22.07.4.18.55.31l-.26.65c-.15-.12-.31-.21-.47-.26-.16-.05-.32-.08-.5-.08-.34,0-.59.1-.78.3-.18.2-.28.49-.28.87s.09.67.28.88c.18.2.44.3.78.3.17,0,.34-.03.5-.08.16-.05.31-.14.47-.26l.26.65c-.14.13-.33.24-.55.31-.22.07-.46.11-.7.11Z"/>
      <path class="cls-1" d="m87.85,47.7v-3.69h.83v3.69h-.83Z"/>
      <path class="cls-1" d="m89.52,47.7v-3.69h.77l1.25,2.34h-.1l1.24-2.34h.75v3.69h-.77v-2.44h.06l-1.01,1.87h-.49l-1.02-1.87h.07v2.44h-.76Z"/>
      <path class="cls-1" d="m95.98,47.75c-.28,0-.53-.05-.75-.14-.23-.09-.42-.22-.58-.39-.16-.17-.29-.37-.37-.6-.09-.23-.13-.49-.13-.78s.04-.55.13-.78c.09-.23.21-.43.38-.6.16-.17.36-.3.58-.39.23-.09.48-.13.75-.13s.53.04.75.13.42.22.58.38c.16.17.29.37.37.6s.13.49.13.78-.04.55-.13.79-.21.44-.37.61c-.16.17-.35.3-.58.39s-.48.13-.75.13Zm0-.71c.21,0,.38-.05.53-.14s.26-.23.34-.41c.08-.18.12-.39.12-.64s-.04-.47-.12-.65c-.08-.18-.19-.31-.34-.4s-.32-.14-.53-.14-.38.05-.53.14-.26.23-.34.4c-.08.18-.12.39-.12.65s.04.47.12.64c.08.18.19.31.34.41s.32.14.53.14Z"/>
      <path class="cls-1" d="m99.88,47.75c-.2,0-.39-.02-.58-.05-.19-.03-.36-.08-.51-.13-.16-.06-.29-.12-.41-.2l.25-.66c.12.07.24.14.37.19.13.05.27.09.42.12.15.03.3.04.46.04.24,0,.42-.04.54-.11.11-.08.17-.18.17-.3,0-.07-.02-.13-.05-.18s-.09-.09-.17-.12c-.08-.03-.18-.06-.31-.08l-.6-.12c-.34-.07-.59-.19-.76-.36-.16-.17-.24-.4-.24-.68,0-.23.06-.44.19-.61.13-.17.31-.31.54-.4.23-.1.5-.14.8-.14.17,0,.34.02.5.05.16.03.31.08.45.14.14.06.25.13.35.21l-.25.63c-.14-.11-.3-.19-.48-.25-.18-.05-.37-.08-.58-.08-.15,0-.27.02-.38.05-.1.04-.19.09-.24.15-.06.07-.09.15-.09.24,0,.1.04.18.11.24.08.06.21.11.39.14l.6.12c.35.07.61.19.78.35.17.16.26.38.26.66,0,.23-.06.43-.19.61-.13.17-.3.31-.53.41s-.5.15-.81.15Z"/>
    </g>
    <g>
      <path class="cls-1" d="m110.33,47.7v-3.69h1.71c.42,0,.74.1.97.3.23.2.34.47.34.83,0,.22-.05.4-.14.56-.09.16-.22.28-.39.37s-.36.14-.59.15l.03-.05h.15c.12.01.22.05.31.12.09.07.18.17.25.3l.6,1.12h-.91l-.62-1.15c-.04-.06-.08-.11-.12-.15-.05-.04-.1-.07-.15-.08-.06-.02-.12-.02-.2-.02h-.42v1.4h-.83Zm.83-2.02h.75c.21,0,.37-.04.47-.13.1-.09.16-.21.16-.39s-.05-.3-.16-.38c-.1-.08-.26-.13-.48-.13h-.75v1.02Z"/>
      <path class="cls-1" d="m114.1,47.7v-3.69h2.57v.66h-1.77v.83h1.66v.66h-1.66v.89h1.77v.66h-2.57Z"/>
      <path class="cls-1" d="m116.92,47.7l1.69-3.69h.69l1.69,3.69h-.84l-.44-1.03.34.26h-2.19l.34-.26-.43,1.03h-.84Zm2.02-2.83l-.67,1.6-.14-.2h1.64l-.14.2-.67-1.6h-.02Z"/>
      <path class="cls-1" d="m121.4,47.7v-3.69h.83v2.99h1.71v.7h-2.54Z"/>
      <path class="cls-1" d="m124.5,47.7v-3.69h.83v3.69h-.83Z"/>
      <path class="cls-1" d="m126.01,47.7v-.6l2.03-2.67.03.27h-2.06v-.7h2.82v.6l-2.03,2.67-.03-.27h2.13v.7h-2.89Z"/>
      <path class="cls-1" d="m128.99,47.7l1.69-3.69h.69l1.69,3.69h-.84l-.44-1.03.34.26h-2.19l.34-.26-.43,1.03h-.84Zm2.02-2.83l-.67,1.6-.14-.2h1.64l-.14.2-.67-1.6h-.02Z"/>
      <path class="cls-1" d="m133.48,47.7v-3.69h.77l1.25,2.34h-.1l1.24-2.34h.75v3.69h-.77v-2.44h.06l-1.01,1.87h-.49l-1.02-1.87h.07v2.44h-.76Z"/>
      <path class="cls-1" d="m139.94,47.75c-.28,0-.53-.05-.75-.14-.23-.09-.42-.22-.58-.39-.16-.17-.29-.37-.37-.6-.09-.23-.13-.49-.13-.78s.04-.55.13-.78c.09-.23.21-.43.38-.6.16-.17.36-.3.58-.39.23-.09.48-.13.75-.13s.53.04.75.13.42.22.58.38c.16.17.29.37.37.6s.13.49.13.78-.04.55-.13.79-.21.44-.37.61c-.16.17-.35.3-.58.39s-.48.13-.75.13Zm0-.71c.21,0,.38-.05.53-.14s.26-.23.34-.41c.08-.18.12-.39.12-.64s-.04-.47-.12-.65c-.08-.18-.19-.31-.34-.4s-.32-.14-.53-.14-.38.05-.53.14-.26.23-.34.4c-.08.18-.12.39-.12.65s.04.47.12.64c.08.18.19.31.34.41s.32.14.53.14Z"/>
      <path class="cls-1" d="m143.84,47.75c-.2,0-.39-.02-.58-.05-.19-.03-.36-.08-.51-.13-.16-.06-.29-.12-.41-.2l.25-.66c.12.07.24.14.37.19.13.05.27.09.42.12.15.03.3.04.46.04.24,0,.42-.04.54-.11.11-.08.17-.18.17-.3,0-.07-.02-.13-.05-.18s-.09-.09-.17-.12c-.08-.03-.18-.06-.31-.08l-.6-.12c-.34-.07-.59-.19-.76-.36-.16-.17-.24-.4-.24-.68,0-.23.06-.44.19-.61.13-.17.31-.31.54-.4.23-.1.5-.14.8-.14.17,0,.34.02.5.05.16.03.31.08.45.14.14.06.25.13.35.21l-.25.63c-.14-.11-.3-.19-.48-.25-.18-.05-.37-.08-.58-.08-.15,0-.27.02-.38.05-.1.04-.19.09-.24.15-.06.07-.09.15-.09.24,0,.1.04.18.11.24.08.06.21.11.39.14l.6.12c.35.07.61.19.78.35.17.16.26.38.26.66,0,.23-.06.43-.19.61-.13.17-.3.31-.53.41s-.5.15-.81.15Z"/>
    </g>
    <circle class="cls-1" cx="59.91" cy="45.85" r=".59"/>
    <circle class="cls-1" cx="106.12" cy="45.85" r=".59"/>
  </g>
  <g>
    <g>
      <path class="cls-1" d="m34.87,8.02h2.83c1.79,0,2.49.99,2.17,2.81l-1.01,5.75c-.32,1.82-1.37,2.81-3.16,2.81h-2.83l2.01-11.37Zm1.5,1.62l-1.43,8.12h1.01c.57,0,.96-.29,1.1-1.1l1.04-5.91c.14-.81-.15-1.1-.71-1.1h-1.01Z"/>
      <path class="cls-1" d="m41.5,8.02h1.79l-2.01,11.37h-1.79l2.01-11.37Z"/>
      <path class="cls-1" d="m47.01,7.89c1.74,0,2.45,1.04,2.13,2.86l-.06.36h-1.69l.08-.47c.14-.81-.13-1.12-.7-1.12s-.95.31-1.09,1.12c-.41,2.34,3,2.78,2.43,6.03-.32,1.82-1.41,2.86-3.17,2.86s-2.48-1.04-2.16-2.86l.12-.7h1.69l-.14.81c-.14.81.16,1.1.73,1.1s.98-.29,1.12-1.1c.41-2.34-3-2.78-2.43-6.03.32-1.82,1.4-2.86,3.14-2.86Z"/>
      <path class="cls-1" d="m51.6,12.81h2.45l-.29,1.62h-2.45l-.59,3.33h3.09s-.29,1.62-.29,1.62h-4.87l2.01-11.37h4.87l-.29,1.62h-3.09l-.56,3.17Z"/>
      <path class="cls-1" d="m57.67,11.15l-1.45,8.24h-1.61l2.01-11.37h2.24l.64,6.81,1.2-6.81h1.59l-2.01,11.37h-1.84l-.77-8.24Zm3.53-5.44l.75.6c-.45.83-1.01,1.1-1.58,1.1-.68,0-.9-.41-1.39-.41-.29,0-.52.06-.78.47l-.75-.6c.45-.83,1.01-1.1,1.58-1.1.68,0,.9.41,1.39.41.29,0,.52-.07.78-.47Z"/>
      <path class="cls-1" d="m67.35,19.39h-1.8s.06-2.06.06-2.06h-2.19l-.67,2.06h-1.64s3.82-11.37,3.82-11.37h2.62l-.19,11.37Zm-3.44-3.61h1.72s.15-5.75.15-5.75l-1.87,5.75Z"/>
      <path class="cls-1" d="m70.18,8.02h2.83c1.79,0,2.49.99,2.17,2.81l-1.01,5.75c-.32,1.82-1.37,2.81-3.16,2.81h-2.83l2.01-11.37Zm1.5,1.62l-1.43,8.12h1.01c.57,0,.96-.29,1.1-1.1l1.04-5.91c.14-.81-.15-1.1-.72-1.1h-1.01Z"/>
      <path class="cls-1" d="m76.18,10.75c.32-1.82,1.46-2.86,3.22-2.86s2.53,1.04,2.21,2.86l-1.04,5.91c-.32,1.82-1.46,2.86-3.22,2.86s-2.53-1.04-2.21-2.86l1.04-5.91Zm.72,6.03c-.14.81.16,1.12.73,1.12s.98-.31,1.12-1.12l1.08-6.14c.14-.81-.16-1.12-.73-1.12s-.98.31-1.12,1.12l-1.08,6.14Z"/>
      <path class="cls-1" d="m84.97,19.39c-.05-.29-.08-.47.08-1.4l.32-1.79c.19-1.06-.1-1.45-.91-1.45h-.62l-.82,4.63h-1.79l2.01-11.37h2.7c1.85,0,2.5.86,2.19,2.62l-.16.89c-.21,1.17-.71,1.93-1.58,2.31.83.37.97,1.23.76,2.42l-.31,1.75c-.1.55-.15.96-.05,1.38h-1.82Zm-.23-9.75l-.62,3.49h.7c.67,0,1.12-.29,1.28-1.2l.2-1.12c.14-.81-.07-1.17-.7-1.17h-.86Z"/>
      <path class="cls-1" d="m90.71,12.81h2.45l-.29,1.62h-2.45l-.59,3.33h3.09l-.29,1.62h-4.87s2.01-11.37,2.01-11.37h4.87l-.29,1.62h-3.09l-.56,3.17Z"/>
      <path class="cls-1" d="m98.17,7.89c1.74,0,2.45,1.04,2.13,2.86l-.06.36h-1.69s.08-.47.08-.47c.14-.81-.13-1.12-.7-1.12s-.95.31-1.09,1.12c-.41,2.34,3,2.78,2.43,6.03-.32,1.82-1.41,2.86-3.17,2.86s-2.48-1.04-2.16-2.86l.12-.7h1.69l-.14.81c-.14.81.16,1.1.73,1.1s.98-.29,1.12-1.1c.41-2.34-3-2.78-2.43-6.03.32-1.82,1.4-2.86,3.14-2.86Z"/>
    </g>
    <g>
      <path class="cls-1" d="m101.86,12.31h1.72c1.09,0,1.52.63,1.32,1.78l-.62,3.65c-.2,1.15-.84,1.78-1.93,1.78h-1.72l1.22-7.21Zm.91,1.03l-.87,5.15h.61c.35,0,.59-.19.67-.7l.64-3.75c.09-.51-.09-.7-.44-.7h-.61Z"/>
      <path class="cls-1" d="m106.48,15.35h1.49l-.17,1.03h-1.49l-.36,2.11h1.88l-.17,1.03h-2.97l1.22-7.21h2.97l-.17,1.03h-1.88l-.34,2.01Z"/>
    </g>
    <g>
      <path class="cls-1" d="m33.67,29.24h4.13l-.48,2.74h-4.13l-.99,5.61h5.2l-.48,2.74h-8.22l3.38-19.17h8.22s-.48,2.74-.48,2.74h-5.2l-.94,5.34Z"/>
      <path class="cls-1" d="m52.21,21.16l-4.79,9.31,1.63,9.86h-3.18l-1.13-7.59-3.83,7.59h-2.82l5.11-9.86-1.51-9.31h3.12l1.03,7.07,3.57-7.07h2.79Z"/>
      <path class="cls-1" d="m62.03,25.9l-.44,2.49c-.54,3.07-2.31,4.74-5.33,4.74h-1.42l-1.27,7.2h-3.01l3.38-19.17h4.44c3.01,0,4.2,1.67,3.66,4.74Zm-5.56-2l-1.14,6.49h1.42c.96,0,1.56-.44,1.8-1.81l.51-2.88c.24-1.37-.2-1.81-1.16-1.81h-1.42Z"/>
      <path class="cls-1" d="m65.85,29.24h4.13l-.48,2.74h-4.13l-.99,5.61h5.2l-.48,2.74h-8.22l3.38-19.17h8.22l-.48,2.74h-5.2l-.94,5.34Z"/>
      <path class="cls-1" d="m77.26,40.33c-.08-.49-.13-.79.14-2.35l.53-3.01c.31-1.78-.17-2.44-1.54-2.44h-1.04l-1.38,7.8h-3.01l3.38-19.17h4.55c3.12,0,4.21,1.45,3.69,4.41l-.27,1.51c-.35,1.97-1.2,3.26-2.66,3.89,1.39.63,1.63,2.08,1.28,4.08l-.52,2.96c-.16.93-.26,1.62-.08,2.33h-3.07Zm-.39-16.43l-1.04,5.89h1.18c1.12,0,1.89-.49,2.16-2.03l.33-1.89c.24-1.37-.12-1.97-1.19-1.97h-1.45Z"/>
      <path class="cls-1" d="m85.35,21.16h3.01s-3.38,19.17-3.38,19.17h-3.01l3.38-19.17Z"/>
      <path class="cls-1" d="m92.14,29.24h4.13l-.48,2.74h-4.13l-.99,5.61h5.2l-.48,2.74h-8.22l3.38-19.17h8.22s-.48,2.74-.48,2.74h-5.2l-.94,5.34Z"/>
      <path class="cls-1" d="m102.38,26.45l-2.45,13.88h-2.71l3.38-19.17h3.78l1.07,11.47,2.02-11.47h2.68s-3.38,19.17-3.38,19.17h-3.09l-1.3-13.88Z"/>
      <path class="cls-1" d="m118.94,33.18l-.45,2.55c-.54,3.07-2.38,4.82-5.34,4.82s-4.18-1.75-3.64-4.82l1.76-9.97c.54-3.07,2.38-4.82,5.34-4.82,2.96,0,4.18,1.75,3.64,4.82l-.33,1.86h-2.85l.36-2.05c.24-1.37-.27-1.89-1.23-1.89s-1.65.52-1.89,1.89l-1.83,10.35c-.24,1.37.27,1.86,1.23,1.86s1.65-.49,1.89-1.86l.48-2.74h2.85Z"/>
      <path class="cls-1" d="m122.89,21.16h3.01s-3.38,19.17-3.38,19.17h-3.01l3.38-19.17Z"/>
      <path class="cls-1" d="m134.46,40.33h-3.04l.09-3.48h-3.7l-1.13,3.48h-2.77l6.45-19.17h4.41s-.31,19.17-.31,19.17Zm-5.8-6.08h2.9l.26-9.69-3.16,9.69Z"/>
      <path class="cls-1" d="m143.33,20.94c2.93,0,4.13,1.75,3.59,4.82l-.11.6h-2.85l.14-.79c.24-1.37-.21-1.89-1.17-1.89s-1.6.52-1.84,1.89c-.7,3.94,5.06,4.68,4.1,10.16-.54,3.07-2.38,4.82-5.34,4.82s-4.18-1.75-3.64-4.82l.21-1.18h2.85l-.24,1.37c-.24,1.37.27,1.86,1.23,1.86s1.65-.49,1.89-1.86c.7-3.94-5.06-4.68-4.1-10.16.54-3.07,2.36-4.82,5.29-4.82Z"/>
    </g>
  </g>
</svg>