<?xml version="1.0" encoding="UTF-8"?>
<svg id="Capa_1" data-name="Capa 1" xmlns="http://www.w3.org/2000/svg" viewBox="0 0 153.21 111.14">
  <defs>
    <style>
      .cls-1 {
        fill: #fff;
      }
    </style>
  </defs>
  <path class="cls-1" d="m1.1,5.99c.19.23.6.15.79.15,1.09.11,2.15.03,3.2.03.13,5.39.28,13.75.23,20.15,0,.38.64.41.83.41.83,0,1.62-.16,2.41-.16.41,0,.72.07,1.17.07h.68s.64-.19.83-.27c.72-.19.9-.34.86-1.13-.24-4.22-.16-12.92-.33-19.02h.11c.15,0,1.28-.08,1.43-.12l.3.04c.53.04,1.09-.08,1.66-.08.11,0,.15-.3.15-.34.11-.72.11-1.17.11-1.88l.04-.75c.04-.53.03-2.71-.27-2.9l-.26-.04C9.18.04,6.7.39,1.35.11c-.38-.04-.26,1.66-.29,2.15-.03,1.24.12,2.49.05,3.73Z"/>
  <path class="cls-1" d="m17.1.92v.04c.2,2.49.35,22.19.28,24.79,0,.11-.07.64.15.75,1.36.03,2.71.33,4.07.36.11,0,.53.04.57.04.79-.08,2.11.18,2.11-.87,0-.08,0-.34,0-.34,0-.19-.08-1.85-.08-2.03-.04-1.05.11-2.15-.05-3.24l-.06-4.82.08-.08s.9-.12,1.28-.12c.04,0,.75,0,.98.03.15,0,1.81,0,2,.03l.22,9.19s0,.08,0,.15t0,.08c-.04.53-.11,1.43.5,1.62.11,0,.68,0,.79,0,1.73.07,2.98-.2,4.67-.09.11-.04.23-.15.34-.19,0-.08,0-.49,0-.56.22-.87.04-19.67.03-23.47,0-.57,0-.98-.08-1.62,0-.07-.15-.3-.23-.34L29.41,0c-.72-.04-1.24.16-1.24.98-.04.08-.09,6.82.14,7.72,0,.04-.04.49-.04.68,0,.3.16,1.17-.33,1.17-.83-.03-1.66-.14-2.49-.14-.04-.04-.19-.04-.23-.04-.07,0-.98.04-1.09.04h-.04s-.04,0-.04,0c-.04,0-.15-.11-.15-.15.07-.3-.33-8.63-.3-9.61-.08-.3-.42-.3-.68-.49-.07,0-.57-.04-.68-.04-1.02-.03-1.73.04-2.75.01l-2.11-.11c-.08,0-.19.08-.26.15,0,.11,0,.56-.04.64,0,0,0,.04,0,.07Z"/>
  <path class="cls-1" d="m36.85,24.84c0,.49-.26,1.28.23,1.62,9.53.34,12.58-.27,13.15-.12.19-.19.34-.45.37-.72.04-.15.07-.9.11-1.06.11-1.43.11-2-.16-3.47-.08-.15-.08-.41-.3-.45-2.11-.14-4.41.02-6.48-.13-.04,0-.3-.04-.38-.04-.08-.15-.12-.53-.12-.64l.02-4.03c.04-.19,5.09.21,5.46-.13.04,0,.26-.42.26-.53.11-.9.14-3.92.13-4.63.04-.3.07-.26-.15-.56,0,0-.45-.04-.53-.07-1.54,0-3.2.24-4.67.02-.19,0-.34-.04-.41-.07l-.08-.11s-.27-2.07-.24-2.56c0-.04,0-.56,0-.75,0-.07.07-.41.07-.53.53-.04,4.63.1,5.16.13.57.04.94.11,1.54-.04.08-.08.41-.38.41-.45l.22-1.81-.23-2.49c-.23-.75.07-.75-.83-.79-1.73-.41-9.72-.11-11.45-.15-.23-.04-.72,0-.75,0l-.15.11c-.15.57-.49.72-.52,1.25-.04.6,0,1.17,0,1.77.04.57.3,19.93.3,21.44Z"/>
  <path class="cls-1" d="m78.66,65.22c3.31-7.11,2.43-17.55,1.65-23.73-1.6-8.54-7.86-11.4-16.71-11.37-.6,0-2.29.07-2.41.07-.24,0-2.41.07-2.65.07-.12,0-.18,0-.36,0-1.68.07-6.26.2-6.37,2.43.64,2.86.29,23.05,1.05,33.44l25.79-.91Zm-8.03-20.08c.07,3.37.21,6.74-.02,10.11,0,.18-.06.72-.06.72,0,.48-.35,2.77-.41,3.19-.6,1.87-3,3.56-5.28,3.57h-.06c-.42-.12-1.39-.3-1.39-.3l-.42-.42s-.07-1.56-.19-2.23l-.5-21.18c5.24-.02,8.19,1.96,8.33,6.53Z"/>
  <path class="cls-1" d="m120.03,59.7c-.36,0-1.5.73-1.68,1.09-8.4,7.43-10.89-.44-10.99-9.29-.09-8.48,2.53-16.62,10.92-9.31.18.36,1.33,1.08,1.69,1.08,1.56,0,4.61-5.85,4.55-6.4-.12-.96-.49-1.44-1.09-2.16l-.18-.12c-3.8-3.18-8.5-4.54-13.19-3.86-.12,0-.72.06-.72.06-9.26,1.12-11.75,12.68-11.72,20.38v.78c.02,3.81.65,8.55,2.41,12.51l23.49-.83c-1.03-1.81-2.53-3.94-3.48-3.94Z"/>
  <path class="cls-1" d="m.79,64.17c.05.44.03,2.65.05,3.79l18.77-.66c-.06-.64-.13-1.33-.22-2.24,0-.18-.06-.36-.06-.6-.36-.96-1.39-.78-2.23-.95-.36,0-1.81-.05-2.11-.05-1.26,0-2.47-.05-3.79-.05-.12,0-.18.06-.24-.12-.23-13.54-.31-19.26-.33-25.09v-1.99c-.07-.06-.13-.24-.13-.3-.06-.06,0-.84,0-.96-.13-1.26-.01-3.73-1.64-4.03-.72-.06-3.79-.11-4.63-.16-.06,0-1.14.06-1.32,0-.06,0-.3-.06-.36-.12H.72c-.6,0-.6.61-.6.97-.53,4.33.76,27.32.66,32.55Z"/>
  <path class="cls-1" d="m31.34,60.51c-.69-8.9-.23-14.32-.25-19.44,0-2.53-.14-4.99-.15-7.52,0-1.26,0-2.41-1.03-3.25-.3-.06-.54-.12-.66-.18-1.38-.12-5.78.08-7.82.03-.78,0-.77,2.29-.77,2.95,0,.06,0,.12,0,.12,0,1.75.19,3.49.2,5.3.02,4.33.03,8.66.05,13,0,.42,0,.9,0,1.38-.03,3.92-.05,10.3,1.66,14.29l25.45-.9c.13-.47.24-.95.37-1.46,1.48-5.36,1.01-19.56.95-20.7-.19-3.85-.57-7.7-.46-11.49-.49-1.5-1.75-2.22-3.32-2.21-1.68,0-3.19.37-4.99.38,0,0-.18-.12-.24-.12-1.2,0-1.68,2.05-1.67,2.95,0,.24,0,.48,0,.78,0,.36.06.78.06,1.2.2,6.2.61,18.05-.03,24.25-.24,1.38-.35,3.79-2.39,3.92-1.14.06-4.63,1.04-4.95-3.29Z"/>
  <path class="cls-1" d="m84.49,65.01l10.67-.38c-.27-12.13-.63-25.83-1.23-32.58l-.18-.48s-.18-1.02-.67-1.08c-3.25-.47-7.71-1.12-9.69.88.27,8.42.41,14.02.55,18.05.29,8.21.33,9.9.54,15.59Z"/>
  <path class="cls-1" d="m138.09,62.28c-2.89.01-4.89-3.77-5.97-4.73-1-.9-4.13,3.27-5.42,5.97l24.92-.88c.16-.82.25-1.66.24-2.52-.02-4.69-2.02-8.6-9.2-13.45-1.51-1.02-5.73-3.47-5.74-5.7-.02-4.99,5.95-.92,8.25,2.86.06.06.18-.06.24-.06,1.8-1.57,5.04-3.93,6.48-6.16-3.75-5.4-7.25-7.8-11.52-7.78-1.44,0-3.49.07-4.81.38-6.01,1.47-9.24,8.22-8.25,13.81.38,5.47,4.12,7.45,7.74,10.2,2.6,1.98,5.73,2.87,5.74,5.94,0,1.32-1.26,2.11-2.7,2.12Z"/>
  <path class="cls-1" d="m20.8,83.58c-2.59-1.8-6.34-4.79-8.57-7.01-1.03-1.44-.31-3.67,1.61-3.68,2.53,0,4.22,2.33,6.15,3.53.3.12.78.24,1.2.24.6,0,.96-.97,1.2-1.45.3-.39,1.28-1.75,2.09-3.16l-23.83.84c-.17,4.27,2.25,9.14,7.15,13.02,1.87,1.5,3.38,3.06,5.31,4.49,4.1,3.05,4.47,5.76.44,5.78-3.07.01-4.95-4.8-6.76-5.15-.72-.12-2.28.97-2.88,1.33-.18.12-1.2.79-1.38.91-.12.12-.72.66-.96.79-.18.18-.9.97-1.08,1.03-.36.36-.42,1.08-.42,1.57.06.66.18,1.14.49,1.68,1.64,2.94,1.94,3.24,4.59,5.46.72.18.96.48,1.87.96,1.69.84,3.19,1.25,5.12,1.24,5.72-.02,10.46-2.08,12.91-7.03,2.51-5,.8-11.86-4.27-15.39Z"/>
  <path class="cls-1" d="m55.99,79.89c-.01-3.77-.53-6.6-1.66-8.9l-24.97.88c-.27,1.47-.72,4.76-.77,5.54v2.59c.02,1.56.08,3.61.15,5.24.21,7.34.83,13.66,4.7,18.1.73.84,1.87,1.38,3.14,1.73v.3s.12.18.12.18c-.18.48-.36,1.08-.42,1.39-.3,1.27-.47,2.47-1.01,3.67.24.36.78.24.96.3l16.73.24c.12,0,.24-.3.3-.3.36-.78.48-1.51.71-2.23l.3-.78c.12-.48.77-2.65.47-2.89l-5.78.02c9.07-3.28,7.03-18.68,7.01-25.06Zm-12.82,16.42c-2.65,0-3.98-2.45-4.29-4.68-.62-4.69-.21-8.91-.34-10.17v-2.29c-.03-7.04,2.5-5.91,4.36-5.91,2.11,0,2.96,2.52,3.02,4.38v.48c.07,1.5.13,2.83.14,4.27v.96c0,.42.08,5.11.09,5.84.08,6.5-.45,7.1-2.98,7.11Z"/>
  <path class="cls-1" d="m86.85,69.84l-10.16.36c.21,6.46.51,17.05-.08,22.79-.24,1.38-.35,3.79-2.39,3.92-1.14.06-4.63,1.04-4.95-3.29-.69-8.9-.23-14.32-.25-19.44,0-1.25-.04-2.48-.07-3.71l-10.19.36c0,.27.02.53.02.81.02,4.33.03,8.66.05,13,0,.42,0,.9,0,1.38-.04,4.99-.07,14.02,3.49,16.96,1.93,1.32,4.16,2.15,6.45,2.56.36,0,.84.18,1.14.18.42,0,3.49.05,3.91.05,4.57.04,8.6.03,11.18-4.07.78-1.27.95-2.41,1.31-3.74,1.48-5.36,1.01-19.56.95-20.7-.12-2.48-.31-4.95-.41-7.41Z"/>
  <path class="cls-1" d="m96.14,69.52l-6.68,31.2s-.12.6-.18.78c-.06.3-.23,1.69-.35,1.99v.3c.13,1.32,3.08,1.43,4.22,1.49h.18c.42.06,1.81.17,2.05.17h2.17c.06,0,.3-.07.96-.13,2.04-.73,1.56-1.15,1.91-3.14l.65-4.15,7.94-.27.55,2.41c.61,2.4.92,5.29,4.11,5.28,0,0,8.13.45,8-1.71l-8.35-34.81-17.17.61Zm9.05,20.67l-2.71-.05c1.65-8.91,2.25-10.54,2.42-11.62l2.51,11.48-2.23.19Z"/>
  <path class="cls-1" d="m152.48,74.48c-.54-2.91-1.64-5.14-3.18-6.84l-25.06.88c.39,8.54.06,31.67,1.58,36.02.3.78,6.32,1.06,6.86,1.06,2.47,0,7.28-.33,9.63-.7h.78c.18,0,1.44-.37,1.92-.49.06-.06.42-.18.54-.24,9.25-5.15,7.98-21.33,6.93-29.69Zm-9.7,13.76c0,.18-.06.72-.06.72,0,.48-.35,2.77-.41,3.19-.59,1.87-3,3.56-5.28,3.57h-.06c-.42-.12-1.39-.3-1.39-.3l-.42-.42s-.07-1.56-.19-2.23l-.5-21.18c5.24-.02,8.19,1.96,8.33,6.53.07,3.37.21,6.74-.02,10.11Z"/>
</svg>