<?xml version="1.0" encoding="UTF-8"?>
<svg id="Capa_1" data-name="Capa 1" xmlns="http://www.w3.org/2000/svg" viewBox="0 0 31.88 31.88">
  <defs>
    <style>
      .cls-1 {
        fill: #fff;
      }
    </style>
  </defs>
  <rect x="0" y="0" width="31.88" height="31.88" rx="15.94" ry="15.94"/>
  <g>
    <path class="cls-1" d="m21.2,19.86l4.61-1.88c-.12-.29-.25-.56-.39-.8-.46-.87-1.05-1.46-1.79-1.78-.89-.38-1.91-.32-2.81.04-1.03.42-2.58.73-3.61.28-.09-.04,0,0-.09-.04l-1.88,4.32c.6.22.73.21,1.24.32.97,1.24.8,3.58-1.19,4.39-1.31.4-2.15.75-2.11.91.06.26,2.31-.04,5.03-.68,2.72-.64,4.87-1.36,4.81-1.63-.04-.16-.87-.11-2.13.09-2.13.07-3.06-1.17-2.99-2.94,1.2.07,2.1-.13,3.3-.62Z"/>
    <path class="cls-1" d="m10.19,16.11c.6,1.49,2.12,3.3,3.62,4.08l1.94-4.49c-.47-.41-.86-.93-1.11-1.55l-1.67-4.13c-.38-.93-1.04-1.6-1.98-2-.94-.4-3.23-.09-3.85.53h0s0,0,0,0l3.05,7.56Z"/>
    <path class="cls-1" d="m29.33,9.97c-1.33-2.98-3.65-5.45-6.53-6.94l-.18-.09-.64,1.48.16.08c2.53,1.33,4.56,3.51,5.73,6.13,1.39,3.12,1.49,6.6.28,9.79-1.21,3.19-3.59,5.72-6.69,7.11-.84.37-1.71.66-2.59.84-2.23.47-4.68.29-6.91-.51l-.17-.06-.64,1.48.19.07c1.62.59,3.34.89,5.04.89.96,0,1.91-.1,2.82-.29,1-.21,1.98-.53,2.91-.95,3.5-1.57,6.18-4.41,7.54-8,1.37-3.59,1.25-7.51-.31-11.03Z"/>
    <path class="cls-1" d="m10.23,27.64c-.1-.04-.19-.08-.31-.14-2.61-1.32-4.71-3.53-5.9-6.22-1.39-3.12-1.49-6.6-.28-9.79,1.21-3.19,3.59-5.72,6.69-7.11.83-.37,1.7-.66,2.59-.84,2.57-.54,5.18-.29,7.54.73l.18.08.65-1.48-.18-.08c-2.67-1.15-5.62-1.44-8.52-.83-1,.21-1.98.53-2.91.95-3.5,1.57-6.18,4.41-7.54,8-1.36,3.6-1.25,7.51.31,11.03,1.35,3.03,3.71,5.51,6.65,7,.14.07.26.12.38.18.06.02.11.05.18.08l.18.08.64-1.48-.17-.08c-.07-.03-.12-.05-.18-.08Z"/>
  </g>
</svg>