<?xml version="1.0" encoding="UTF-8"?>
<svg id="Capa_1" data-name="Capa 1" xmlns="http://www.w3.org/2000/svg" viewBox="0 0 221.5 50.5">
  <defs>
    <style>
      .cls-1 {
        fill: #fff;
      }
    </style>
  </defs>
  <g>
    <path class="cls-1" d="m38.6,30.23c.12,0,.24.05.34.15l.89.97c-.69.8-1.52,1.42-2.5,1.86s-2.16.67-3.54.67c-1.21,0-2.3-.21-3.29-.63s-1.82-1-2.51-1.75c-.69-.75-1.23-1.65-1.61-2.71-.38-1.05-.57-2.21-.57-3.47s.2-2.42.61-3.47c.41-1.05.98-1.96,1.73-2.71.74-.76,1.63-1.34,2.66-1.76s2.17-.62,3.42-.62,2.29.19,3.19.57c.89.38,1.69.9,2.38,1.56l-.74,1.04c-.05.08-.12.14-.19.19-.07.05-.17.08-.3.08-.1,0-.21-.04-.32-.11-.11-.07-.25-.17-.4-.27s-.34-.23-.55-.35c-.21-.12-.46-.24-.75-.35-.29-.11-.62-.2-1.01-.28s-.82-.11-1.32-.11c-.9,0-1.72.15-2.46.46-.74.31-1.39.75-1.92,1.32-.54.57-.96,1.26-1.26,2.08-.3.82-.45,1.74-.45,2.75s.15,1.98.45,2.79c.3.82.71,1.51,1.23,2.08s1.13,1,1.84,1.29c.71.3,1.47.44,2.29.44.5,0,.95-.03,1.34-.09.4-.06.77-.15,1.11-.27s.66-.28.95-.47.59-.42.88-.68c.13-.12.26-.17.39-.17Z"/>
    <path class="cls-1" d="m58.38,25.32c0,1.26-.2,2.41-.6,3.46-.4,1.05-.96,1.95-1.68,2.71-.72.76-1.6,1.34-2.61,1.76s-2.14.63-3.37.63-2.35-.21-3.37-.63-1.88-1-2.61-1.76c-.73-.76-1.29-1.66-1.68-2.71-.4-1.05-.6-2.2-.6-3.46s.2-2.41.6-3.46c.4-1.05.96-1.95,1.68-2.71.72-.76,1.59-1.35,2.61-1.77s2.14-.63,3.37-.63,2.36.21,3.37.63,1.89,1.01,2.61,1.77c.73.76,1.29,1.67,1.68,2.71.4,1.05.6,2.2.6,3.46Zm-2.33,0c0-1.03-.14-1.95-.42-2.77-.28-.82-.68-1.51-1.19-2.08s-1.14-1-1.87-1.3c-.73-.3-1.55-.46-2.46-.46s-1.71.15-2.44.46c-.73.3-1.36.74-1.88,1.3s-.92,1.26-1.2,2.08c-.28.82-.42,1.74-.42,2.77s.14,1.95.42,2.77c.28.82.68,1.5,1.2,2.07s1.14,1,1.88,1.3c.73.3,1.55.45,2.44.45s1.72-.15,2.46-.45c.73-.3,1.36-.73,1.87-1.3s.91-1.25,1.19-2.07c.28-.81.42-1.74.42-2.77Z"/>
    <path class="cls-1" d="m63.1,17.01c.1.05.21.15.33.31l9.71,12.63c-.02-.2-.04-.4-.05-.59,0-.19-.01-.38-.01-.56v-11.87h1.99v16.76h-1.15c-.18,0-.33-.03-.45-.09-.12-.06-.24-.17-.36-.32l-9.7-12.62c.02.2.03.39.04.57s.01.36.01.51v11.94h-1.99v-16.76h1.17c.2,0,.35.03.45.08Z"/>
    <path class="cls-1" d="m90.57,16.94v1.91h-5.41v14.85h-2.27v-14.85h-5.44v-1.91h13.12Z"/>
    <path class="cls-1" d="m105.2,33.69h-1.75c-.2,0-.37-.05-.49-.15-.12-.1-.22-.23-.28-.39l-1.57-4.05h-7.52l-1.57,4.05c-.05.14-.15.27-.28.38-.13.11-.3.16-.49.16h-1.75l6.7-16.76h2.3l6.7,16.76Zm-10.98-6.22h6.26l-2.63-6.82c-.17-.42-.34-.95-.5-1.58-.09.32-.17.61-.25.88-.08.27-.16.5-.24.71l-2.63,6.81Zm7.1-14.62l-3.44,2.53c-.13.09-.25.16-.35.19-.1.03-.23.05-.4.05h-1.61l2.47-2.37c.08-.08.15-.14.22-.19.07-.05.13-.09.21-.12.07-.03.15-.05.23-.06s.2-.02.33-.02h2.35Z"/>
    <path class="cls-1" d="m118.64,30.23c.12,0,.24.05.34.15l.89.97c-.69.8-1.52,1.42-2.5,1.86s-2.16.67-3.54.67c-1.21,0-2.3-.21-3.29-.63s-1.82-1-2.51-1.75c-.69-.75-1.23-1.65-1.61-2.71-.38-1.05-.57-2.21-.57-3.47s.2-2.42.61-3.47c.41-1.05.98-1.96,1.73-2.71.74-.76,1.63-1.34,2.66-1.76s2.17-.62,3.42-.62,2.29.19,3.19.57c.89.38,1.69.9,2.38,1.56l-.74,1.04c-.05.08-.12.14-.19.19-.07.05-.17.08-.3.08-.1,0-.21-.04-.32-.11-.11-.07-.25-.17-.4-.27s-.34-.23-.55-.35c-.21-.12-.46-.24-.75-.35-.29-.11-.62-.2-1.01-.28s-.82-.11-1.32-.11c-.9,0-1.72.15-2.46.46-.74.31-1.39.75-1.92,1.32-.54.57-.96,1.26-1.26,2.08-.3.82-.45,1.74-.45,2.75s.15,1.98.45,2.79c.3.82.71,1.51,1.23,2.08s1.13,1,1.84,1.29c.71.3,1.47.44,2.29.44.5,0,.95-.03,1.34-.09.4-.06.77-.15,1.11-.27s.66-.28.95-.47.59-.42.88-.68c.13-.12.26-.17.39-.17Z"/>
    <path class="cls-1" d="m134.26,16.94v1.91h-5.41v14.85h-2.27v-14.85h-5.44v-1.91h13.12Z"/>
    <path class="cls-1" d="m148.89,33.69h-1.75c-.2,0-.37-.05-.49-.15-.12-.1-.22-.23-.28-.39l-1.57-4.05h-7.52l-1.57,4.05c-.05.14-.15.27-.28.38-.13.11-.3.16-.49.16h-1.75l6.7-16.76h2.3l6.7,16.76Zm-10.98-6.22h6.26l-2.63-6.82c-.17-.42-.34-.95-.5-1.58-.09.32-.17.61-.25.88-.08.27-.16.5-.24.71l-2.63,6.81Z"/>
    <path class="cls-1" d="m152.63,17.01c.1.05.21.15.33.31l9.71,12.63c-.02-.2-.04-.4-.05-.59,0-.19-.01-.38-.01-.56v-11.87h1.99v16.76h-1.15c-.18,0-.33-.03-.45-.09-.12-.06-.24-.17-.36-.32l-9.7-12.62c.02.2.03.39.04.57s.01.36.01.51v11.94h-1.99v-16.76h1.17c.2,0,.35.03.45.08Z"/>
    <path class="cls-1" d="m184.26,25.32c0,1.26-.2,2.41-.6,3.46-.4,1.05-.96,1.95-1.68,2.71-.72.76-1.6,1.34-2.61,1.76s-2.14.63-3.37.63-2.35-.21-3.37-.63-1.88-1-2.61-1.76c-.73-.76-1.29-1.66-1.68-2.71-.4-1.05-.6-2.2-.6-3.46s.2-2.41.6-3.46c.4-1.05.96-1.95,1.68-2.71.72-.76,1.59-1.35,2.61-1.77s2.14-.63,3.37-.63,2.36.21,3.37.63,1.89,1.01,2.61,1.77c.73.76,1.29,1.67,1.68,2.71.4,1.05.6,2.2.6,3.46Zm-2.33,0c0-1.03-.14-1.95-.42-2.77-.28-.82-.68-1.51-1.19-2.08s-1.14-1-1.87-1.3c-.73-.3-1.55-.46-2.46-.46s-1.71.15-2.44.46c-.73.3-1.36.74-1.88,1.3s-.92,1.26-1.2,2.08c-.28.82-.42,1.74-.42,2.77s.14,1.95.42,2.77c.28.82.68,1.5,1.2,2.07s1.14,1,1.88,1.3c.73.3,1.55.45,2.44.45s1.72-.15,2.46-.45c.73-.3,1.36-.73,1.87-1.3s.91-1.25,1.19-2.07c.28-.81.42-1.74.42-2.77Z"/>
    <path class="cls-1" d="m195.94,19.56c-.07.12-.14.2-.22.26-.08.06-.18.09-.3.09-.13,0-.29-.07-.46-.2-.17-.13-.4-.28-.67-.44-.27-.16-.59-.31-.97-.44s-.84-.2-1.37-.2c-.51,0-.96.07-1.34.2-.39.14-.72.32-.98.56-.26.23-.46.51-.59.82s-.2.66-.2,1.02c0,.47.12.86.35,1.16.23.31.53.57.91.79.38.22.81.41,1.29.57.48.16.97.33,1.47.5.5.17.99.36,1.47.58.48.21.91.49,1.29.81.38.33.68.73.91,1.2.23.48.34,1.06.34,1.75,0,.73-.12,1.42-.37,2.06-.25.64-.61,1.2-1.09,1.68s-1.07.85-1.77,1.12c-.7.27-1.49.41-2.38.41-1.08,0-2.07-.2-2.96-.59-.89-.39-1.66-.93-2.29-1.6l.65-1.08c.06-.09.14-.16.23-.22.09-.06.19-.09.3-.09.16,0,.35.09.56.26.21.18.47.37.79.58.32.21.7.4,1.15.58.45.18,1,.26,1.64.26.54,0,1.02-.07,1.44-.22.42-.15.78-.36,1.07-.62.29-.27.52-.59.67-.96.16-.37.23-.79.23-1.25,0-.51-.12-.92-.34-1.25-.23-.32-.53-.59-.91-.81-.37-.22-.8-.4-1.28-.56s-.97-.31-1.47-.47c-.5-.16-.99-.34-1.47-.56-.48-.21-.91-.48-1.28-.82s-.68-.75-.91-1.26c-.23-.5-.34-1.12-.34-1.87,0-.59.12-1.17.34-1.72.23-.55.56-1.04,1-1.47s.98-.77,1.62-1.03c.64-.26,1.38-.39,2.22-.39.94,0,1.79.15,2.56.44.77.3,1.45.72,2.02,1.29l-.55,1.08Z"/>
  </g>
  <path class="cls-1" d="m196.25,50.5H25.25C11.33,50.5,0,39.17,0,25.25S11.33,0,25.25,0h171c13.92,0,25.25,11.33,25.25,25.25s-11.33,25.25-25.25,25.25ZM25.25.5C11.6.5.5,11.6.5,25.25s11.1,24.75,24.75,24.75h171c13.65,0,24.75-11.1,24.75-24.75S209.9.5,196.25.5H25.25Z"/>
</svg>