<?xml version="1.0" encoding="UTF-8"?>
<svg id="Capa_1" data-name="Capa 1" xmlns="http://www.w3.org/2000/svg" viewBox="0 0 50.5 50.5">
  <defs>
    <style>
      .cls-1 {
        fill: #fff;
      }
    </style>
  </defs>
  <path class="cls-1" d="m25.25,50.5C11.33,50.5,0,39.17,0,25.25S11.33,0,25.25,0s25.25,11.33,25.25,25.25-11.33,25.25-25.25,25.25ZM25.25.5C11.6.5.5,11.6.5,25.25s11.1,24.75,24.75,24.75,24.75-11.1,24.75-24.75S38.9.5,25.25.5Z"/>
  <g>
    <path class="cls-1" d="m18.46,15.75c0,1.49-.95,2.72-2.72,2.72-1.63,0-2.72-1.22-2.72-2.58,0-1.49,1.09-2.85,2.72-2.85s2.72,1.22,2.72,2.72Z"/>
    <rect class="cls-1" x="13.03" y="19.82" width="5.43" height="17.65"/>
    <path class="cls-1" d="m31.49,20.09c-2.85,0-4.48,1.63-5.16,2.72h-.14l-.27-2.31h-4.89c0,1.49.14,3.26.14,5.29v11.68h5.43v-9.64c0-.54,0-.95.14-1.36.41-.95,1.09-2.17,2.58-2.17,1.9,0,2.72,1.63,2.72,3.8v9.37h5.43v-10.05c0-5.02-2.58-7.33-5.97-7.33Z"/>
  </g>
</svg>