<?xml version="1.0" encoding="UTF-8"?>
<svg id="Capa_1" data-name="Capa 1" xmlns="http://www.w3.org/2000/svg" viewBox="0 0 59.15 41.53">
  <defs>
    <style>
      .cls-1 {
        fill: #fff;
      }
    </style>
  </defs>
  <path class="cls-1" d="m0,37.03c0-10.84,0-21.68,0-32.52.02-.05.06-.1.07-.15C.91,1.32,2.64,0,5.79,0c12.55,0,25.09,0,37.64,0,3.5,0,7-.03,10.51.01,2.2.02,3.8,1.09,4.75,3.07.21.44.31.94.46,1.41v32.52c-.03.05-.06.1-.08.15-.77,2.95-2.57,4.34-5.6,4.34-13.01,0-26.02,0-39.02,0-3.08,0-6.16.02-9.24,0-1.98-.02-3.52-.9-4.51-2.62C.38,38.33.23,37.65,0,37.03ZM53.1,3.64l-.09-.12H6.13c.08.22.23.31.35.44,7.15,7.16,14.3,14.31,21.45,21.47,1.11,1.11,2.18,1.11,3.3,0,5.14-5.14,10.27-10.29,15.42-15.43,2.14-2.13,4.3-4.24,6.45-6.36ZM6.02,38.01h47.12c-5-4.95-9.92-9.82-14.87-14.71-.11.11-.26.25-.41.39-1.44,1.44-2.88,2.89-4.32,4.33-2.27,2.25-5.64,2.25-7.91,0-.87-.87-1.74-1.74-2.61-2.61-.72-.72-1.44-1.43-2.12-2.12-4.95,4.9-9.87,9.77-14.87,14.72ZM3.5,6.09v29.35c4.91-4.86,9.87-9.76,14.83-14.67C13.37,15.85,8.41,10.95,3.5,6.09Zm52.16.11c-4.89,4.82-9.84,9.72-14.76,14.58,4.94,4.89,9.89,9.79,14.76,14.62V6.2Z"/>
</svg>