<?xml version="1.0" encoding="UTF-8"?>
<svg id="Capa_1" data-name="Capa 1" xmlns="http://www.w3.org/2000/svg" viewBox="0 0 52.23 52.46">
  <defs>
    <style>
      .cls-1 {
        fill: #fff;
      }
    </style>
  </defs>
  <path class="cls-1" d="m29.18,0c1.25.24,2.54.37,3.75.74,10.29,3.15,16.84,9.86,18.86,20.52,1.87,9.87-2.32,20.07-10.4,26.03-3.65,2.69-7.77,4.25-12.28,4.65-4.99.44-9.79-.31-14.33-2.52-.2-.1-.5-.12-.72-.06-3.9,1-7.79,2.01-11.68,3.02-1.23.32-2.15-.16-2.33-1.22-.05-.3.01-.65.09-.95,1.02-3.75,2.05-7.49,3.1-11.24.09-.33.08-.6-.09-.91C.78,33.58-.36,28.85.1,23.79c.4-4.45,1.95-8.49,4.54-12.12C8.58,6.15,13.85,2.49,20.41.75c1.15-.31,2.34-.44,3.51-.66.11-.02.22-.06.34-.09,1.64,0,3.28,0,4.92,0ZM3.98,48.55c.16-.03.24-.05.32-.07,2.87-.74,5.76-1.43,8.6-2.26,1.27-.37,2.34-.25,3.52.31,4.95,2.33,10.16,2.9,15.47,1.62,6.88-1.65,11.8-5.84,14.9-12.15,2.11-4.29,3.01-8.83,2.1-13.56-1.26-6.56-4.63-11.83-10.21-15.56-4.47-2.98-9.43-4.19-14.76-3.45-7.16.99-12.79,4.59-16.87,10.54-2.73,3.99-3.99,8.44-3.69,13.3.21,3.52,1.29,6.78,3.01,9.83.36.64.43,1.24.23,1.95-.89,3.13-1.74,6.27-2.62,9.49Z"/>
  <path class="cls-1" d="m27.93,30.7c.31-.4.61-.81.93-1.2.33-.39.65-.8,1.01-1.15.78-.75,1.73-1.04,2.73-.61,1.97.84,3.92,1.75,5.85,2.67,1.21.57,1.42,1.68,1.31,2.87-.29,3.14-2.66,5.71-5.78,6.37-2.48.52-4.87.09-7.16-.83-6.21-2.51-11.18-6.54-14.67-12.3-1.09-1.8-1.82-3.75-1.88-5.88-.07-2.57.78-4.82,2.56-6.69,1.57-1.65,3.91-1.65,5.7-.93.48.19.89.68,1.2,1.13.32.45.48,1.01.7,1.53.5,1.18.94,2.38,1.49,3.53.58,1.22.48,2.35-.26,3.43-.39.57-.85,1.1-1.28,1.65,1.29,2.55,4.13,4.98,7.54,6.44Zm4.19,5.89c.27-.03.71-.06,1.14-.14,1.65-.31,2.82-1.4,3.15-2.91.08-.36.03-.59-.36-.75-1.24-.53-2.46-1.09-3.68-1.66-.35-.16-.54-.09-.76.2-.56.71-1.13,1.42-1.75,2.07-.76.8-1.71.96-2.73.56-.57-.23-1.11-.52-1.66-.79-3.36-1.65-6.07-4.01-7.98-7.27-.77-1.32-.77-2.21.13-3.45.36-.49.8-.93,1.17-1.42.11-.15.19-.42.13-.57-.57-1.42-1.18-2.83-1.78-4.23-.05-.13-.17-.31-.27-.32-.68-.06-1.36-.16-1.87.49-1.02,1.3-1.57,2.74-1.44,4.41.13,1.57.73,2.98,1.54,4.29,2.73,4.42,6.52,7.66,11.16,9.94,1.79.88,3.66,1.5,5.86,1.56Z"/>
</svg>