<?xml version="1.0" encoding="UTF-8"?>
<svg id="Capa_1" data-name="Capa 1" xmlns="http://www.w3.org/2000/svg" viewBox="0 0 34.78 34.78">
  <defs>
    <style>
      .cls-1 {
        fill: #fff;
      }
    </style>
  </defs>
  <path class="cls-1" d="m17.39,34.78C7.8,34.78,0,26.98,0,17.39S7.8,0,17.39,0s17.39,7.8,17.39,17.39-7.8,17.39-17.39,17.39ZM17.39.34C7.99.34.34,7.99.34,17.39s7.65,17.05,17.05,17.05,17.05-7.65,17.05-17.05S26.79.34,17.39.34Z"/>
  <path class="cls-1" d="m25.55,12.28c0-.08,0-.09-.09-.09-.21,0-.43-.02-.64-.06-.77-.12-3.25-1.42-3.67-3.55,0-.04-.1-.57-.1-.8,0-.1,0-.1-.1-.1-.02,0-.05,0-.07,0-.97,0-1.94,0-2.91,0-.2,0-.17-.02-.17.17,0,4.21,0,8.42,0,12.63,0,.16,0,.31-.03.47-.15.81-.56,1.45-1.27,1.89-.61.38-1.28.48-1.98.35-.22-.04-.43-.13-.64-.21-.02-.02-.03-.03-.05-.05-.07-.06-.15-.11-.22-.16-.9-.62-1.33-1.49-1.2-2.57.13-1.1.76-1.84,1.8-2.22.31-.11.64-.16.97-.14.21.01.43.04.63.1.07.02.11,0,.11-.08,0-.03,0-.05,0-.08,0-.76-.03-2.41-.03-2.41,0-.22,0-.44,0-.65,0-.06-.03-.07-.08-.08-.39-.05-.78-.06-1.18-.03-.54.04-1.07.15-1.58.34-.82.29-1.54.75-2.16,1.36-.53.52-.95,1.12-1.26,1.8-.29.65-.46,1.33-.51,2.04-.02.31-.02.62.01.93.04.43.12.85.25,1.25.37,1.17,1.05,2.14,2.02,2.9.1.08.19.16.31.21,0,0,0,0,0,0,.05.04.1.09.15.13.16.12.32.22.5.3,1.08.53,2.22.75,3.41.6,1.55-.19,2.85-.88,3.87-2.07.96-1.12,1.43-2.43,1.43-3.9.01-2.1,0-4.19,0-6.29,0-.05-.03-.12.03-.15.04-.02.09.04.13.06.78.51,1.62.88,2.53,1.09.53.12,1.07.2,1.61.19.17,0,.19,0,.2-.18,0-.74-.04-2.78-.04-2.98Z"/>
</svg>