<?xml version="1.0" encoding="UTF-8"?>
<svg id="Capa_1" data-name="Capa 1" xmlns="http://www.w3.org/2000/svg" viewBox="0 0 76.48 17.11">
  <defs>
    <style>
      .cls-1 {
        fill: #fff;
      }
    </style>
  </defs>
  <path class="cls-1" d="m14.93,12.3l-.5,1.3h-2l3.22-7.62h1.79l3.21,7.62h-1.99l-.51-1.3h-3.21Zm1.6-4.12l-.98,2.52h1.96l-.98-2.52Z"/>
  <path class="cls-1" d="m24.89,9.05h3.35v1.6h-3.35v1.31h3.84v1.64h-5.72v-7.57h5.72v1.64h-3.84v1.38Z"/>
  <path class="cls-1" d="m33.54,11.41v2.19h-1.88v-7.57h3.32c1.87,0,3.13,1.02,3.13,2.66,0,1.06-.55,1.89-1.45,2.35l1.95,2.56h-2.27l-1.63-2.19h-1.17Zm1.39-1.69c.72,0,1.3-.4,1.3-1.02s-.58-1-1.3-1h-1.39v2.03h1.39Z"/>
  <path class="cls-1" d="m48.21,9.82c0,2.21-1.73,3.94-4.02,3.94s-4.01-1.74-4.01-3.94,1.73-3.94,4.01-3.94,4.02,1.74,4.02,3.94Zm-1.92,0c0-1.19-.88-2.19-2.11-2.19s-2.11,1-2.11,2.19.88,2.19,2.11,2.19,2.11-1,2.11-2.19Z"/>
  <path class="cls-1" d="m57.02,8.38h-1.89c-.1-.57-.46-.96-1.23-.96-.65,0-1.08.27-1.08.76,0,.41.3.59.87.71l1.06.25c1.38.3,2.28.86,2.28,2.16,0,1.51-1.25,2.46-3.14,2.46-1.7,0-3.24-.8-3.42-2.67h1.88c.12.67.7,1.07,1.59,1.07.7,0,1.07-.26,1.07-.67,0-.26-.16-.52-.8-.65l-1.25-.28c-1.49-.32-2.19-1.02-2.19-2.23,0-1.51,1.23-2.47,3.01-2.47,1.23,0,3.05.48,3.24,2.52Z"/>
  <path class="cls-1" d="m61.42,12.3l-.5,1.3h-2l3.22-7.62h1.79l3.21,7.62h-1.99l-.51-1.3h-3.21Zm1.6-4.12l-.98,2.52h1.96l-.98-2.52Z"/>
  <path class="cls-1" d="m76.48,13.61h-1.46l-3.63-4.15v4.15h-1.88v-7.57h1.44l3.65,4.27v-4.27h1.88v7.57Z"/>
  <path class="cls-1" d="m40.23,16.34h0c0-.44.32-.79.76-.79.25,0,.42.08.57.22l-.23.29c-.1-.09-.2-.14-.34-.14-.2,0-.36.18-.36.41h0c0,.25.16.42.38.42.1,0,.17-.02.23-.06v-.18h-.28v-.3h.65v.68c-.15.13-.36.23-.61.23-.44,0-.77-.32-.77-.78Z"/>
  <path class="cls-1" d="m42.02,15.58h.67c.22,0,.37.06.46.16.08.09.13.2.13.35h0c0,.23-.12.39-.29.47l.34.52h-.45l-.28-.46h-.17v.46h-.39v-1.5Zm.65.72c.13,0,.21-.07.21-.18h0c0-.12-.08-.18-.21-.18h-.26v.36h.26Z"/>
  <path class="cls-1" d="m43.6,16.34h0c0-.44.33-.79.76-.79s.76.35.76.78h0c0,.44-.33.79-.76.79s-.76-.35-.76-.78Zm1.12,0h0c0-.22-.15-.41-.36-.41s-.36.18-.36.4h0c0,.22.15.41.36.41s.36-.18.36-.4Z"/>
  <path class="cls-1" d="m45.49,16.43v-.84h.4v.84c0,.22.1.32.26.32s.26-.1.26-.31v-.85h.4v.83c0,.49-.26.7-.66.7s-.65-.22-.65-.69Z"/>
  <path class="cls-1" d="m47.23,15.58h.37l.58.79v-.79h.39v1.5h-.34l-.6-.82v.82h-.39v-1.5Z"/>
  <path class="cls-1" d="m48.99,15.58h.55c.51,0,.8.31.8.74h0c0,.44-.3.76-.81.76h-.54v-1.5Zm.55,1.13c.23,0,.39-.14.39-.38h0c0-.24-.16-.38-.39-.38h-.16v.76h.16Z"/>
  <path class="cls-1" d="m51.46,15.58h.39v.56h.5v-.56h.39v1.5h-.39v-.57h-.5v.57h-.39v-1.5Z"/>
  <path class="cls-1" d="m53.67,15.57h.38l.6,1.51h-.42l-.1-.27h-.55l-.1.27h-.41l.6-1.51Zm.34.92l-.16-.43-.16.43h.32Z"/>
  <path class="cls-1" d="m54.97,15.58h.37l.58.79v-.79h.39v1.5h-.34l-.6-.82v.82h-.39v-1.5Z"/>
  <path class="cls-1" d="m56.74,15.58h.55c.51,0,.8.31.8.74h0c0,.44-.3.76-.81.76h-.54v-1.5Zm.55,1.13c.23,0,.39-.14.39-.38h0c0-.24-.16-.38-.39-.38h-.16v.76h.16Z"/>
  <path class="cls-1" d="m58.47,15.58h.39v1.14h.68v.37h-1.08v-1.5Z"/>
  <path class="cls-1" d="m59.9,15.58h.39v1.5h-.39v-1.5Z"/>
  <path class="cls-1" d="m60.74,15.58h.37l.58.79v-.79h.39v1.5h-.34l-.6-.82v.82h-.39v-1.5Z"/>
  <path class="cls-1" d="m62.46,16.34h0c0-.44.32-.79.76-.79.25,0,.42.08.57.22l-.23.29c-.1-.09-.2-.14-.34-.14-.2,0-.36.18-.36.41h0c0,.25.16.42.38.42.1,0,.17-.02.23-.06v-.18h-.28v-.3h.65v.68c-.15.13-.36.23-.61.23-.44,0-.77-.32-.77-.78Z"/>
  <path class="cls-1" d="m64.88,16.86l.22-.28c.14.12.29.18.46.18.11,0,.16-.04.16-.1h0c0-.07-.05-.1-.24-.15-.3-.07-.53-.16-.53-.47h0c0-.28.21-.49.55-.49.24,0,.43.07.58.2l-.2.29c-.13-.1-.27-.15-.4-.15-.09,0-.14.04-.14.1h0c0,.07.05.1.24.15.33.07.53.19.53.47h0c0,.31-.23.49-.57.49-.25,0-.49-.08-.66-.25Z"/>
  <path class="cls-1" d="m66.48,15.58h1.14v.35h-.75v.23h.68v.33h-.68v.24h.76v.35h-1.15v-1.5Z"/>
  <path class="cls-1" d="m68.01,15.58h.67c.22,0,.37.06.46.16.08.09.13.2.13.35h0c0,.23-.12.39-.29.47l.34.52h-.45l-.28-.46h-.17v.46h-.39v-1.5Zm.65.72c.13,0,.21-.07.21-.18h0c0-.12-.08-.18-.21-.18h-.26v.36h.26Z"/>
  <path class="cls-1" d="m69.5,15.58h.44l.32.95.32-.95h.43l-.57,1.51h-.36l-.57-1.51Z"/>
  <path class="cls-1" d="m71.34,15.58h.39v1.5h-.39v-1.5Z"/>
  <path class="cls-1" d="m72.12,16.34h0c0-.44.32-.79.75-.79.29,0,.47.13.6.31l-.29.24c-.08-.11-.17-.18-.31-.18-.2,0-.34.18-.34.4h0c0,.23.14.41.34.41.15,0,.23-.07.32-.18l.29.22c-.13.2-.31.34-.63.34-.4,0-.73-.33-.73-.78Z"/>
  <path class="cls-1" d="m73.83,15.58h1.14v.35h-.75v.23h.68v.33h-.68v.24h.76v.35h-1.15v-1.5Z"/>
  <path class="cls-1" d="m75.25,16.86l.22-.28c.14.12.29.18.46.18.11,0,.16-.04.16-.1h0c0-.07-.05-.1-.24-.15-.3-.07-.53-.16-.53-.47h0c0-.28.21-.49.55-.49.24,0,.43.07.58.2l-.2.29c-.13-.1-.27-.15-.4-.15-.09,0-.14.04-.14.1h0c0,.07.05.1.24.15.33.07.53.19.53.47h0c0,.31-.23.49-.57.49-.25,0-.49-.08-.66-.25Z"/>
  <path class="cls-1" d="m4.06,9.13l-2.89,2.64c-.69.62-.25,1.78.68,1.78h6.42S14.03,0,14.03,0L4.06,9.13Z"/>
  <path class="cls-1" d="m14.01.01L3.34,8.63.28,5.55c-.57-.58-.21-1.85.53-2.04L14.01.01Z"/>
</svg>