<?xml version="1.0" encoding="UTF-8"?>
<svg id="Capa_1" data-name="Capa 1" xmlns="http://www.w3.org/2000/svg" viewBox="0 0 68.77 13.22">
  <defs>
    <style>
      .cls-1 {
        fill: #fff;
      }
    </style>
  </defs>
  <g>
    <path class="cls-1" d="m10.05,10.32v1.17h3.73v1.15h-3.73v.57h-1.72v-.57h-3.73v-1.15h3.73v-1.17C3.66,10.08,0,7.86,0,5.17,0,2.32,4.11,0,9.19,0s9.19,2.32,9.19,5.17c0,2.69-3.66,4.91-8.33,5.15m-5.74-5.15c0-2,1.21-3.73,2.93-4.48C3.22,1.19.57,3.19.57,5.17s2.65,3.98,6.66,4.48c-1.73-.75-2.93-2.48-2.93-4.48M11.14.69c1.73.75,2.93,2.47,2.93,4.48s-1.21,3.73-2.93,4.48c4.02-.5,6.66-2.5,6.66-4.48S15.16,1.19,11.14.69"/>
    <path class="cls-1" d="m20.56,6.53c0-.98.36-1.81,1.07-2.49.77-.73,1.78-1.1,3.02-1.1.98,0,1.8.2,2.47.61v1.55c-.83-.48-1.61-.71-2.35-.71s-1.32.2-1.78.59c-.46.39-.69.9-.69,1.52s.23,1.14.68,1.53c.45.4,1.04.6,1.74.6.41,0,.81-.07,1.2-.2.27-.09.69-.27,1.27-.56v1.52c-.88.46-1.77.69-2.68.69-1.25,0-2.24-.37-2.98-1.1-.66-.66-.99-1.47-.99-2.45"/>
    <path class="cls-1" d="m33.58,6.51c0-.64-.19-1.15-.58-1.54-.38-.39-.89-.58-1.53-.58s-1.14.19-1.53.58c-.39.39-.58.9-.58,1.54s.19,1.15.58,1.54c.39.39.9.58,1.53.58s1.14-.19,1.53-.58c.38-.39.58-.9.58-1.54m1.71,0c0,.94-.34,1.76-1.01,2.46-.73.74-1.66,1.11-2.81,1.11s-2.1-.37-2.83-1.12c-.66-.68-1-1.49-1-2.45s.32-1.73.97-2.42c.72-.77,1.68-1.15,2.86-1.15s2.13.38,2.85,1.15c.65.69.97,1.5.97,2.42"/>
    <path class="cls-1" d="m37.51,4.31v4.4h1.11c.78,0,1.36-.24,1.75-.72.31-.39.47-.88.47-1.48,0-.65-.17-1.16-.52-1.55-.39-.43-.96-.65-1.72-.65h-1.09Zm-1.7-1.27h3c1.19,0,2.13.34,2.82,1.03.63.63.95,1.45.95,2.46s-.32,1.87-.96,2.48c-.69.66-1.69.99-3,.99h-2.81V3.03Z"/>
  </g>
  <polygon class="cls-1" points="48.18 8.71 48.18 9.98 43.15 9.98 43.15 3.03 48.11 3.03 48.11 4.31 44.85 4.31 44.85 5.77 47.96 5.77 47.96 7.04 44.85 7.04 44.85 8.71 48.18 8.71"/>
  <polygon class="cls-1" points="53.98 8.71 53.98 9.98 48.78 9.98 48.78 3.03 50.48 3.03 50.48 8.71 53.98 8.71"/>
  <g>
    <path class="cls-1" d="m60.69,7.86v1.52c-.88.46-1.77.69-2.68.69-1.25,0-2.24-.37-2.98-1.1-.66-.66-.99-1.47-.99-2.45s.36-1.81,1.07-2.49c.77-.73,1.78-1.1,3.02-1.1.98,0,1.8.2,2.47.61v1.55c-.83-.48-1.61-.71-2.35-.71s-1.32.2-1.78.59c-.46.39-.69.9-.69,1.52s.23,1.14.68,1.53c.46.4,1.04.6,1.74.6.41,0,.8-.07,1.2-.2.27-.09.69-.27,1.27-.56"/>
    <path class="cls-1" d="m67.06,6.51c0-.64-.19-1.15-.58-1.54-.38-.39-.89-.58-1.52-.58s-1.14.19-1.53.58c-.39.39-.58.9-.58,1.54s.19,1.15.58,1.54c.39.39.9.58,1.53.58s1.14-.19,1.52-.58c.39-.39.58-.9.58-1.54m1.71,0c0,.94-.34,1.76-1.01,2.46-.73.74-1.67,1.11-2.81,1.11s-2.1-.37-2.83-1.12c-.67-.68-1-1.49-1-2.45s.32-1.73.97-2.42c.72-.77,1.68-1.15,2.86-1.15s2.13.38,2.85,1.15c.65.69.97,1.5.97,2.42"/>
  </g>
</svg>