<?xml version="1.0" encoding="UTF-8"?>
<svg id="Capa_1" data-name="Capa 1" xmlns="http://www.w3.org/2000/svg" viewBox="0 0 75.22 32.45">
  <defs>
    <style>
      .cls-1 {
        fill: #fff;
      }
    </style>
  </defs>
  <g>
    <path class="cls-1" d="m19.29,11.6c-.69.64-1.33,1.23-1.98,1.82-2.13,1.91-4.35,3.72-6.81,5.2-1.33.8-2.71,1.5-4.22,1.88-1.27.32-2.55.4-3.77-.19-1.43-.69-2.15-1.89-2.41-3.41-.26-1.55.02-3.04.41-4.52.52-1.99,1.32-3.87,2.32-5.67.27-.48.67-.8,1.21-.95.78-.22,1.48.46,1.56,1.17.06.49-.18.91-.34,1.34-.69,1.78-1.34,3.57-1.77,5.43-.23.99-.42,1.99-.27,3.01.12.85.58,1.31,1.43,1.49.99.21,1.96.09,2.93-.16,1.76-.45,3.29-1.38,4.77-2.38,2.16-1.46,4.16-3.12,5.99-4.97.18-.18.24-.32.13-.59-.5-1.26-.68-2.55-.27-3.87.31-1,1.03-1.55,2.05-1.71.75-.11,1.47-.03,2.1.44.78.58,1.01,1.54.63,2.6-.22.62-.56,1.18-1.04,1.63-.19.18-.18.31-.07.52.73,1.32,1.47,2.63,2.17,3.97.38.71.68,1.47,1.01,2.2.02.04.04.08.08.17.73-.34,1.45-.66,2.15-1.02,2.56-1.31,4.75-3.13,6.84-5.08.81-.76,1.59-1.58,2.49-2.24,1.91-1.43,4.11-2.07,6.5-1.99.17,0,.36.05.51.13.27.14.39.48.32.77-.09.35-.33.54-.71.56-2.61.1-4.67,1.28-6.31,3.24-.68.81-1.13,1.75-1.15,2.82-.03,1.42.79,2.23,2.34,1.89,1.55-.34,2.59-1.37,3.42-2.65.6-.91.85-1.95,1.09-3,.09-.42.38-.68.79-.7.38-.02.75.2.84.56.05.22,0,.46,0,.69-.07.9-.17,1.79-.22,2.69-.02.28.06.57.11.85.17.89.82,1.36,1.57,1.72,1.14.54,2.35.63,3.58.51,3.05-.31,5.78-1.48,8.39-3.02,2.14-1.26,4.32-2.46,6.66-3.33,1.99-.74,4.03-1.22,6.17-1.12,1.39.06,2.7.41,3.88,1.18.22.15.43.33.59.54.5.64.18,1.57-.61,1.8-.56.17-1.11.08-1.66-.06-1.12-.29-2.24-.52-3.42-.48-1.81.07-3.56.42-5.23,1.07-2.13.82-4.22,1.73-6.31,2.62-1.74.74-3.48,1.49-5.31,1.97-1.64.43-3.31.48-4.99.28-1.14-.13-2.23-.42-3.23-1-.79-.46-1.4-1.07-1.78-1.91-.03-.06-.06-.11-.11-.19-.31.34-.59.67-.89.98-.95.98-2.03,1.78-3.39,2.12-1.12.28-2.22.22-3.28-.28-1.41-.66-2.12-2.11-1.81-3.66.03-.16.06-.33.1-.55-.11.08-.18.11-.24.16-1.38,1.09-2.76,2.19-4.31,3.04-.93.51-1.91.92-2.88,1.35-.21.09-.3.17-.3.42.02,1.4-.24,2.74-1.03,3.94-1.09,1.66-3.19,2.53-5.02,2.13-1.91-.41-2.83-2.55-1.89-4.26.53-.97,1.37-1.59,2.36-2.01.61-.26,1.27-.43,1.9-.63.12-.04.25-.07.42-.11-.94-1.74-1.86-3.45-2.8-5.19Zm3.46,6.53c-.77-.03-2.05.46-2.73,1.02-.36.3-.65.64-.77,1.1-.14.55.25.97.79.81,1.2-.34,2.05-1.09,2.55-2.23.09-.21.11-.44.16-.69Zm-1.72-10c.49-.4.83-.85.88-1.44.02-.22-.06-.48-.17-.68-.21-.35-.63-.35-.88-.02-.08.11-.15.24-.18.37-.13.62.03,1.19.34,1.77Z"/>
    <path class="cls-1" d="m6.06,3.44c-1.05-.08-1.98-.18-2.83-.59-.48-.23-.9-.53-.89-1.14,0-.6.42-.91.9-1.13C4.24.12,5.31-.05,6.42.01c.67.03,1.35.76,1.42,1.45.09.85-.36,1.63-1.11,1.86-.25.08-.53.09-.68.12Z"/>
  </g>
  <g>
    <path class="cls-1" d="m21.08,32.45h-.61v-5.06h.61v5.06Z"/>
    <path class="cls-1" d="m26.32,32.45h-.59l-2.76-3.97h-.05v3.97h-.61v-5.06h.59l2.77,3.98h.05v-3.98h.6v5.06Z"/>
    <path class="cls-1" d="m27.28,27.39h3.8v.54h-1.59v4.52h-.61v-4.52h-1.59v-.54Z"/>
    <path class="cls-1" d="m32.03,27.39h3.06v.54h-2.44v1.71h2.28v.54h-2.28v1.72h2.48v.54h-3.09v-5.06Z"/>
    <path class="cls-1" d="m36.19,27.39h1.71c1.19,0,1.72.66,1.72,1.55,0,.67-.43,1.43-1.3,1.47l1.5,2.04h-.63l-1.43-1.98s-.95,0-.95,0v1.98h-.61v-5.06Zm1.7,2.53c.81,0,1.13-.37,1.13-.98s-.32-1.01-1.14-1.01h-1.08v1.99h1.09Z"/>
    <path class="cls-1" d="m42.23,31.65h.06l1.5-4.26h.64l-1.86,5.06h-.63l-1.86-5.06h.64l1.5,4.26Z"/>
    <path class="cls-1" d="m45.85,32.45h-.61v-5.06h.61v5.06Z"/>
    <path class="cls-1" d="m46.64,32.45l1.86-5.06h.63l1.86,5.06h-.64l-.51-1.43h-2.05l-.51,1.43h-.64Zm3.01-1.98l-.81-2.28h-.04l-.81,2.28h1.66Z"/>
    <path class="cls-1" d="m51.78,27.39h.61v4.52h2.35v.54h-2.97v-5.06Z"/>
  </g>
</svg>